<?xml version="1.0" encoding="UTF-8"?>
<svg version="1.1" xmlns="http://www.w3.org/2000/svg" width="512" height="512">
<path d="M0 0 C1.49936807 -0.00187095 2.99873566 -0.00417277 4.49810249 -0.00686532 C8.59672827 -0.01295471 12.69533357 -0.01285312 16.79396284 -0.01167095 C21.22288472 -0.01146621 25.65180015 -0.01699262 30.08071899 -0.02172852 C38.7499051 -0.03001997 47.4190844 -0.03278268 56.08827414 -0.03334089 C63.13834679 -0.03381678 70.18841721 -0.03587514 77.23848915 -0.03904152 C97.2462842 -0.04784407 117.25407389 -0.05246153 137.26187088 -0.05171105 C138.33954239 -0.05167109 139.4172139 -0.05163113 140.52754211 -0.05158997 C141.60653622 -0.05154909 142.68553032 -0.0515082 143.79722122 -0.05146609 C161.27841532 -0.05105975 178.75958786 -0.06062713 196.24077573 -0.07472833 C214.20949346 -0.08910791 232.17820069 -0.09599764 250.14692432 -0.09513456 C260.22726878 -0.09480313 270.30759065 -0.09752643 280.38792992 -0.10831261 C288.9712831 -0.11743844 297.55460344 -0.11957579 306.13795938 -0.11280318 C310.51246075 -0.10954845 314.8868992 -0.10944325 319.2613945 -0.11815643 C323.27538605 -0.12606893 327.28926526 -0.12454203 331.30325422 -0.1158723 C332.74601262 -0.11434769 334.1887796 -0.11611368 335.63152786 -0.12173238 C359.22045936 -0.20742492 379.01077993 4.09456521 396.73188782 20.69230652 C413.63601903 38.27147792 417.24094404 58.54632043 417.21325684 82.01657104 C417.21512722 83.52403836 417.21742882 85.03150518 417.22012216 86.53897125 C417.22621853 90.6645901 417.22610912 94.79018862 417.22492778 98.91581094 C417.22472323 103.37199804 417.23024778 107.82817871 417.23498535 112.28436279 C417.24328071 121.00883005 417.24603969 129.73329055 417.24659773 138.45776143 C417.24707344 145.55220298 417.24913094 152.6466423 417.25229836 159.74108315 C417.26110206 179.87052705 417.2657182 199.99996564 417.26496788 220.12941148 C417.26490795 221.75612192 417.26490795 221.75612192 417.2648468 223.41569519 C417.26480592 224.50149834 417.26476504 225.58730148 417.26472292 226.70600776 C417.26431658 244.29787188 417.27388383 261.8897146 417.28798517 279.48157253 C417.30236167 297.55986497 417.30925464 315.63814697 417.30839139 333.71644527 C417.30805985 343.8599299 417.31078806 354.00339209 417.32156944 364.14687157 C417.33069123 372.78407629 417.33283594 381.42124838 417.32606002 390.05845585 C417.32280322 394.46117995 417.32270763 398.86384151 417.33141327 403.2665596 C417.33931655 407.30521083 417.33780809 411.34375031 417.32912914 415.38239894 C417.32760253 416.83526358 417.32937827 418.28813671 417.33498921 419.74099132 C417.41911574 443.09011154 412.81830317 462.38566794 396.52095032 479.78605652 C378.57441383 497.04344601 358.01169334 500.2957981 334.15908813 500.26742554 C332.65972006 500.26929648 331.16035247 500.27159831 329.66098565 500.27429086 C325.56235987 500.28038025 321.46375457 500.28027865 317.3651253 500.27909648 C312.93620342 500.27889175 308.50728799 500.28441816 304.07836914 500.28915405 C295.40918304 500.29744551 286.74000373 500.30020821 278.07081399 500.30076643 C271.02074134 500.30124232 263.97067093 500.30330068 256.92059898 500.30646706 C236.91280394 500.31526961 216.90501425 500.31988707 196.89721725 500.31913658 C195.81954575 500.31909663 194.74187424 500.31905667 193.63154602 500.3190155 C192.55255192 500.31897462 191.47355781 500.31893374 190.36186691 500.31889162 C172.88067282 500.31848529 155.39950027 500.32805267 137.91831241 500.34215387 C119.94959468 500.35653345 101.98088745 500.36342318 84.01216382 500.36256009 C73.93181935 500.36222867 63.85149749 500.36495196 53.77115822 500.37573814 C45.18780504 500.38486398 36.60448469 500.38700132 28.02112875 500.38022872 C23.64662738 500.37697399 19.27218894 500.37686879 14.89769363 500.38558197 C10.88370209 500.39349447 6.86982287 500.39196757 2.85583391 500.38329784 C1.41307551 500.38177323 -0.02969147 500.38353921 -1.47243973 500.38915791 C-25.06137122 500.47485045 -44.85169179 496.17286032 -62.57279968 479.57511902 C-79.4769309 461.99594762 -83.0818559 441.72110511 -83.0541687 418.25085449 C-83.05603908 416.74338718 -83.05834069 415.23592036 -83.06103402 413.72845429 C-83.0671304 409.60283544 -83.06702098 405.47723692 -83.06583965 401.35161459 C-83.06563509 396.89542749 -83.07115965 392.43924683 -83.07589722 387.98306274 C-83.08419258 379.25859548 -83.08695156 370.53413498 -83.08750959 361.80966411 C-83.08798531 354.71522256 -83.0900428 347.62078324 -83.09321022 340.52634239 C-83.10201393 320.39689848 -83.10663007 300.2674599 -83.10587975 280.13801406 C-83.10583979 279.05354043 -83.10579983 277.96906681 -83.10575867 276.85173035 C-83.10571779 275.7659272 -83.10567691 274.68012405 -83.10563479 273.56141778 C-83.10522845 255.96955365 -83.11479569 238.37771094 -83.12889703 220.78585301 C-83.14327354 202.70756057 -83.15016651 184.62927857 -83.14930326 166.55098027 C-83.14897172 156.40749563 -83.15169992 146.26403345 -83.16248131 136.12055397 C-83.1716031 127.48334925 -83.1737478 118.84617715 -83.16697188 110.20896969 C-83.16371509 105.80624559 -83.1636195 101.40358402 -83.17232513 97.00086594 C-83.18022841 92.96221471 -83.17871995 88.92367522 -83.170041 84.8850266 C-83.16851439 83.43216196 -83.17029014 81.97928882 -83.17590108 80.52643422 C-83.26002761 57.177314 -78.65921504 37.8817576 -62.36186218 20.48136902 C-44.41532569 3.22397953 -23.8526052 -0.02837256 0 0 Z M283.85809517 157.98601818 C282.67167416 159.15991429 281.49339142 160.34207162 280.32176208 161.5307312 C279.34014502 162.50850335 279.34014502 162.50850335 278.33869731 163.50602847 C276.15283927 165.68695436 273.97786038 167.87841188 271.8026886 170.06999207 C270.23596553 171.63756152 268.66858123 173.20447033 267.10058594 174.77076721 C262.84846538 179.02202687 258.60565945 183.28247426 254.36445475 187.54462028 C249.92954408 191.99828173 245.48613918 196.44345183 241.04362488 200.88952637 C233.58916669 208.35225013 226.13996653 215.82019033 218.69477844 223.29216003 C211.02740331 230.98708723 203.35687246 238.67884605 195.68208313 246.36637878 C195.20872717 246.84052291 194.73537122 247.31466704 194.24767114 247.80317917 C191.87287931 250.18188621 189.49802538 252.56053124 187.12314057 254.93914545 C167.43244355 274.66120211 147.75247751 294.39393786 128.07954407 314.13371277 C125.0672854 312.78360816 122.98455628 311.28397221 120.66426086 308.94548035 C120.00823883 308.28931732 119.3522168 307.6331543 118.67631531 306.95710754 C117.96762299 306.23808258 117.25893066 305.51905762 116.52876282 304.77824402 C115.39635666 303.64145706 115.39635666 303.64145706 114.24107361 302.48170471 C112.6030259 300.83604775 110.9672928 299.18808437 109.33360291 297.5381012 C106.74930101 294.92829461 104.15882173 292.32476742 101.56660461 289.7228241 C95.13024975 283.25971144 88.70478015 276.78581064 82.27888489 270.31230164 C76.84827654 264.84228083 71.41363046 259.37633356 65.97349548 253.91578674 C63.41904242 251.34834837 60.87067828 248.77496812 58.32246399 246.20133972 C56.75871389 244.63032551 55.19468284 243.05959088 53.63032532 241.48918152 C52.921633 240.77015656 52.21294067 240.05113159 51.48277283 239.31031799 C50.82675079 238.65415497 50.17072876 237.99799194 49.49482727 237.32194519 C48.92851089 236.75118759 48.36219452 236.18042999 47.77871704 235.59237671 C44.78177049 233.01963224 42.59041915 232.18015596 38.64204407 231.82121277 C33.49856355 232.27239527 31.19943903 233.85827684 27.82954407 237.69621277 C25.04955107 241.56834587 24.639367 243.793267 25.26953411 248.47276974 C26.27149102 251.76427279 27.75753888 253.39716616 30.11001587 255.89630127 C30.92585459 256.76854403 31.74169331 257.64078678 32.58225441 258.53946114 C33.40636 259.39556417 34.23046558 260.25166721 35.07954407 261.13371277 C35.78925039 261.87169035 36.49895672 262.60966793 37.2301693 263.37000847 C39.376969 265.57333165 41.54338962 267.75542388 43.71699524 269.93229675 C44.52797165 270.74823807 45.33894806 271.56417938 46.17449951 272.40484619 C48.82110902 275.06589904 51.47145255 277.72318813 54.12251282 280.37980652 C55.0335055 281.29362658 55.94449818 282.20744663 56.88309669 283.14895821 C61.19939524 287.47863967 65.51741414 291.80658773 69.83846396 296.13152736 C74.80432908 301.1018902 79.76354686 306.07876399 84.71721667 311.06128067 C89.0307885 315.3990899 93.35259761 319.72860547 97.67743874 324.05517769 C99.50874594 325.88950971 101.33755394 327.72634039 103.16379356 329.5657177 C105.71226915 332.13123374 108.27002417 334.68713438 110.83027649 337.2408905 C111.58002747 337.99985626 112.32977844 338.75882202 113.10224915 339.54078674 C117.89335954 344.29388964 121.81808082 347.91628189 128.82954407 348.38371277 C139.85436568 346.35226629 151.56314393 329.80607295 159.23774719 322.13664246 C160.85153102 320.52749481 162.46550935 318.9185422 164.07966614 317.30976868 C168.43695763 312.96551368 172.79098381 308.61800105 177.14399147 304.269454 C179.86497744 301.55140892 182.58654511 298.83394761 185.30828857 296.11666107 C192.85594461 288.58108996 200.40275375 281.04467448 207.94606781 273.50475693 C208.42690172 273.02414258 208.90773564 272.54352823 209.40314028 272.04834981 C209.88503983 271.56666854 210.36693938 271.08498727 210.86344194 270.58870959 C211.83977131 269.61282368 212.81610223 268.63693933 213.79243469 267.66105652 C214.27671588 267.17699676 214.76099707 266.69293701 215.25995344 266.19420877 C223.12873764 258.32938319 231.00426817 250.47134993 238.88268048 242.61617026 C246.98630595 234.53624818 255.08416975 226.45059793 263.17666578 218.35952687 C267.71471372 213.82252791 272.25516929 209.28800186 276.80160522 204.75940704 C281.06980027 200.50764049 285.3308402 196.24883365 289.58642578 191.98444748 C291.150372 190.41972847 292.716896 188.85758118 294.28614807 187.29818344 C296.42450513 185.17247227 298.55345186 183.03776218 300.68025208 180.90049744 C301.30572072 180.2830852 301.93118936 179.66567297 302.57561159 179.02955127 C306.52686001 175.03254906 308.72542369 171.90765575 309.45454407 166.19621277 C308.84280658 161.20035658 306.24779173 158.30196043 302.76704407 154.82121277 C295.4879142 150.25059634 289.73512054 152.48013792 283.85809517 157.98601818 Z " fill="#3DD7A1" transform="translate(88.92045593261719,5.8662872314453125)"/>
</svg>
