<?xml version="1.0" encoding="UTF-8"?>
<svg version="1.1" xmlns="http://www.w3.org/2000/svg" width="512" height="512">
<path d="M0 0 C168.96 0 337.92 0 512 0 C512 168.96 512 337.92 512 512 C343.04 512 174.08 512 0 512 C0 343.04 0 174.08 0 0 Z " fill="#71CFF3" transform="translate(0,0)"/>
<path d="M0 0 C1.35859886 1.17450714 1.35859886 1.17450714 2.74464417 2.3727417 C5.97183778 5.14020232 9.23588807 7.85999479 12.51133728 10.57012939 C31.82298583 26.57704071 50.57228245 43.16608159 68.9375 60.25 C69.66390072 60.92416852 70.39030145 61.59833703 71.13871431 62.29293489 C136.25380276 122.84294731 136.25380276 122.84294731 138.51743859 170.73573673 C138.83634251 179.75320656 138.39509538 188.69884584 137.6875 197.6875 C137.63560689 198.36435915 137.58371379 199.0412183 137.53024817 199.73858833 C136.17824921 217.03394648 133.6884325 234.04849653 130 251 C100.17493316 256.27911388 70.2890223 259.64429016 40.0625 261.5625 C38.3789127 261.67249651 38.3789127 261.67249651 36.66131353 261.78471518 C-21.2935321 265.46655388 -69.52951217 259.56200787 -114.28115607 220.28635116 C-133.27056075 203.44565269 -150.84174848 185.30112734 -167.9375 166.5625 C-168.86912895 165.54367599 -169.80080445 164.52489454 -170.7325263 163.50615549 C-191.66583895 140.59428473 -211.92374074 117.12986592 -231.26035976 92.84954166 C-231.84441538 92.11712647 -232.428471 91.38471128 -233.03022528 90.63010168 C-234.10920085 89.27390448 -235.18456056 87.91481938 -236.25557661 86.55232763 C-238.71575668 83.30176459 -238.71575668 83.30176459 -242 81 C-241.505 80.01 -241.505 80.01 -241 79 C-239.78763672 79.52400391 -239.78763672 79.52400391 -238.55078125 80.05859375 C-237.48214844 80.51363281 -236.41351563 80.96867187 -235.3125 81.4375 C-234.25675781 81.88996094 -233.20101562 82.34242188 -232.11328125 82.80859375 C-226.88639194 84.80884625 -222.06377037 85.14865168 -216.50758362 85.14717102 C-215.76181578 85.15084771 -215.01604794 85.1545244 -214.24768108 85.1583125 C-211.75308568 85.16930982 -209.25853199 85.17318651 -206.76391602 85.17700195 C-204.9731076 85.18326979 -203.18230047 85.18991687 -201.39149475 85.19691467 C-195.51230774 85.21792643 -189.63312057 85.22831712 -183.75390625 85.23828125 C-181.72569198 85.24233044 -179.69747784 85.24644741 -177.66926384 85.25063133 C-168.13529383 85.26967982 -158.60133153 85.28390933 -149.06734616 85.2922433 C-138.08561673 85.30200268 -127.10408956 85.32828969 -116.12243134 85.36874419 C-107.62026956 85.39898234 -99.11816548 85.41371962 -90.615951 85.41702431 C-85.54502405 85.41936678 -80.47431324 85.42822165 -75.40344429 85.45348549 C-70.62549373 85.47690504 -65.84789949 85.48094408 -61.06990623 85.47072411 C-59.32614577 85.47023193 -57.58236694 85.47645733 -55.83866119 85.49028015 C-37.9202977 85.62425604 -20.27901798 82.04646075 -7 69 C5.15010774 54.50339028 8.40367827 40.16741467 7.25683594 21.52636719 C6.75344179 16.57472974 5.33956151 12.36047307 3 8 C2.4225 6.824375 1.845 5.64875 1.25 4.4375 C0.8375 3.633125 0.425 2.82875 0 2 C0 1.34 0 0.68 0 0 Z " fill="#59B7E3" transform="translate(382,261)"/>
<path d="M0 0 C10.92954247 8.18323978 18.67136456 17.29643231 24.30078125 29.72265625 C25.35265625 29.24828125 26.40453125 28.77390625 27.48828125 28.28515625 C36.27221501 24.32377436 46.67908648 24.34398869 55.61328125 27.72265625 C65.09892376 32.15847851 70.31643914 39.1571036 74.55078125 48.47265625 C75.64623685 53.2196305 75.45609969 57.87326954 75.30078125 62.72265625 C76.29078125 62.39265625 77.28078125 62.06265625 78.30078125 61.72265625 C96.64324151 60.63023826 111.4707652 66.28302057 125.26171875 78.453125 C136.13541238 89.59743091 139.63783433 103.7258247 139.68579102 118.72924805 C139.49716482 131.76892615 135.46729655 141.50994472 127.30078125 151.72265625 C126.69105469 152.54636719 126.08132813 153.37007812 125.453125 154.21875 C117.02067262 164.02855395 103.8462957 169.66810577 91.30078125 171.72265625 C88.79173872 171.82019838 86.31038485 171.87049517 83.80163574 171.86982727 C83.05516234 171.87350396 82.30868894 171.87718065 81.53959513 171.88096875 C79.04266575 171.89196605 76.54577805 171.89584274 74.04882812 171.8996582 C72.25639719 171.90592598 70.46396754 171.91257306 68.67153931 171.91957092 C62.78754577 171.9405814 56.90355207 171.9509725 51.01953125 171.9609375 C48.99005622 171.96498659 46.96058132 171.96910356 44.93110657 171.97328758 C35.3923332 171.99233494 25.85356753 172.00656529 16.3147788 172.01489955 C5.32454941 172.02466178 -5.66547803 172.05095677 -16.65563631 172.09140044 C-25.16287797 172.12162622 -33.67006196 172.13637466 -42.17735624 172.13968056 C-47.25216358 172.14202422 -52.32675506 172.15089498 -57.40150452 172.17614174 C-62.18191427 172.19953987 -66.96196787 172.20360878 -71.7424202 172.19338036 C-73.48821324 172.19288768 -75.23402453 172.19912808 -76.97976303 172.2129364 C-92.64311834 172.32980536 -105.19007163 169.90494563 -117.38671875 159.41015625 C-127.22843835 147.97248212 -129.79604666 137.66929088 -128.91064453 122.83007812 C-127.91104839 112.86643625 -122.46681539 105.12171792 -115.26171875 98.53515625 C-112.4115824 96.04109245 -112.4115824 96.04109245 -112.69921875 93.16015625 C-113.34714519 91.58083556 -114.03279228 90.01626524 -114.76171875 88.47265625 C-116.81921939 82.43732105 -116.27993655 77.30850039 -113.63671875 71.53515625 C-110.28942313 65.47230812 -106.64228082 61.63580758 -99.97265625 59.56640625 C-98.89242187 59.28796875 -97.8121875 59.00953125 -96.69921875 58.72265625 C-96.64761597 57.87054565 -96.64761597 57.87054565 -96.5949707 57.0012207 C-95.30940328 37.28320749 -90.66268859 19.777192 -75.88671875 5.78515625 C-70.55822544 1.35435347 -64.89675159 -2.19057256 -58.69921875 -5.27734375 C-57.83425781 -5.71304688 -56.96929687 -6.14875 -56.078125 -6.59765625 C-38.59863268 -13.85329457 -15.56885364 -10.23096097 0 0 Z " fill="#FEFEFE" transform="translate(250.69921875,175.27734375)"/>
<path d="M0 0 C0.65355469 0.65484375 1.30710937 1.3096875 1.98046875 1.984375 C4.30953565 4.31426344 6.6480949 6.63440825 8.98828125 8.953125 C10.42973744 10.3853664 11.87114262 11.81765915 13.3125 13.25 C14.05306641 13.9821875 14.79363281 14.714375 15.55664062 15.46875 C16.25595703 16.16484375 16.95527344 16.8609375 17.67578125 17.578125 C18.6335144 18.52800293 18.6335144 18.52800293 19.6105957 19.49707031 C21 21 21 21 21 22 C15.72 22.33 10.44 22.66 5 23 C4.87625 20.586875 4.87625 20.586875 4.75 18.125 C4.2992899 12.9250163 2.97115416 8.73655284 0.83984375 3.99609375 C0 2 0 2 0 0 Z " fill="#5BB8E3" transform="translate(321,215)"/>
<path d="M0 0 C1.1055189 0.93590504 2.20935453 1.87379858 3.3125 2.8125 C3.92738281 3.33457031 4.54226563 3.85664063 5.17578125 4.39453125 C6.85424679 5.87172469 8.43882034 7.40039131 10 9 C9.67 9.99 9.34 10.98 9 12 C8.01 12.33 7.02 12.66 6 13 C4.99491199 11.21118264 3.99607264 9.41885304 3 7.625 C2.1646875 6.12839844 2.1646875 6.12839844 1.3125 4.6015625 C0 2 0 2 0 0 Z " fill="#5FB9E4" transform="translate(269,193)"/>
</svg>
