<?xml version="1.0" encoding="UTF-8"?>
<svg version="1.1" xmlns="http://www.w3.org/2000/svg" width="512" height="512">
<path d="M0 0 C168.96 0 337.92 0 512 0 C512 168.96 512 337.92 512 512 C343.04 512 174.08 512 0 512 C0 343.04 0 174.08 0 0 Z " fill="#70CEF3" transform="translate(0,0)"/>
<path d="M0 0 C7.41541805 6.31076138 15.03171908 12.94946065 21.0625 20.625 C22.82857277 22.78986339 24.55886902 24.40553498 26.6763916 26.20983887 C30.65642609 29.66047017 34.40766749 33.27829172 38.11523438 37.01757812 C38.77654861 37.68035263 39.43786285 38.34312714 40.11921692 39.02598572 C41.54054857 40.45109348 42.96072501 41.87735418 44.37983704 43.30467224 C46.63179056 45.56950817 48.88695696 47.8311015 51.14294434 50.09191895 C56.74262673 55.70489872 62.33682943 61.32332959 67.93121338 66.94158936 C72.66914707 71.69932059 77.40916875 76.45495322 82.15193176 81.20787048 C84.36292687 83.42530078 86.57086441 85.64574414 88.77868652 87.86633301 C90.14722973 89.23851207 91.51591541 90.61054907 92.88476562 91.98242188 C93.79057121 92.89597694 93.79057121 92.89597694 94.7146759 93.82798767 C100.45438185 99.56839123 106.42594832 104.8305413 112.88839579 109.75168467 C172.08999659 154.8336126 172.08999659 154.8336126 176.91424561 189.58937263 C179.47184731 211.79076825 178.16661222 234.32991111 176.60971069 256.56001949 C175.87727153 267.21381316 175.53845805 277.87119345 175.22071075 288.54411316 C174.56206341 310.39083392 173.44671233 332.19213286 172 354 C136.79173693 358.73147074 101.54396571 361.81118492 66.0625 363.5625 C64.10100392 363.6621726 64.10100392 363.6621726 62.09988165 363.7638588 C-4.54879632 367.05910544 -59.84743235 363.65663607 -111.1968739 317.42087674 C-124.92206227 304.86708239 -137.58053425 291.38783426 -149.9375 277.5 C-150.75348081 276.58602149 -151.56946162 275.67204297 -152.41016912 274.73036814 C-173.48246999 251.08177547 -193.32624216 226.58197893 -212 201 C-210 200 -210 200 -200 203 C-200 180.89 -200 158.78 -200 136 C-205.94 137.98 -205.94 137.98 -212 140 C-212.66 140 -213.32 140 -214 140 C-214.05004653 133.74187336 -214.08602039 127.48386737 -214.10986328 121.22558594 C-214.1198201 119.10382046 -214.13339042 116.98206833 -214.15087891 114.86035156 C-214.27248564 99.70958272 -214.25351507 84.75629982 -210.0625 70.0625 C-209.71960938 68.84304687 -209.37671875 67.62359375 -209.0234375 66.3671875 C-208.13646645 63.44898503 -207.19040176 60.56739221 -206.1875 57.6875 C-204.5970122 54.22276312 -204.5970122 54.22276312 -206 52 C-206.60960232 46.61649895 -204.8473024 43.02470859 -202.1875 38.5 C-201.78297607 37.80148926 -201.37845215 37.10297852 -200.96166992 36.38330078 C-183.00597682 6.17560837 -154.98318349 -13.9737746 -122 -25 C-121.30052246 -25.24298828 -120.60104492 -25.48597656 -119.88037109 -25.73632812 C-80.42817546 -38.89033214 -31.24417205 -25.74343754 0 0 Z " fill="#59B6E2" transform="translate(340,158)"/>
<path d="M0 0 C3.42199892 2.91223212 6.73243075 5.91606274 10 9 C10.74894531 9.68449219 11.49789062 10.36898437 12.26953125 11.07421875 C18.88215689 17.33942098 24.01600666 24.42088599 29 32 C29.60352295 32.90903076 29.60352295 32.90903076 30.21923828 33.83642578 C34.37288114 40.19717038 37.65165744 45.30489768 36.89453125 53.1328125 C37.07088697 57.92707541 38.90703804 62.24879076 40.60400391 66.70214844 C46.56643701 82.91377941 46.38031373 98.9596323 46.1875 116 C46.17241798 118.33592882 46.15873584 120.67186712 46.14648438 123.0078125 C46.11377612 128.6721134 46.06218975 134.33594922 46 140 C42.7 139.01 39.4 138.02 36 137 C35.97812622 134.92102417 35.97812622 134.92102417 35.95581055 132.80004883 C35.89733956 127.60188454 35.82011395 122.40413158 35.73754883 117.20629883 C35.70452719 114.9671095 35.67642637 112.72784149 35.65356445 110.48852539 C35.51879558 93.02387261 35.51879558 93.02387261 32 76 C31.47554905 74.02178888 30.95428363 72.04272795 30.4375 70.0625 C30.18613281 69.17820312 29.93476563 68.29390625 29.67578125 67.3828125 C29.11697121 65.41244183 28.6135176 63.4264645 28.125 61.4375 C27.22670416 58.78898967 27.22670416 58.78898967 24.625 57.9375 C23.75875 57.628125 22.8925 57.31875 22 57 C19.02312366 54.02312366 17.24883186 50.62929755 15.3125 46.9375 C11.85108127 40.44405373 7.55734301 34.75882435 3 29 C2.49726563 28.34128906 1.99453125 27.68257812 1.4765625 27.00390625 C-2.92444567 21.4962862 -8.42874324 17.26795505 -14 13 C-15.00289062 12.23171875 -16.00578125 11.4634375 -17.0390625 10.671875 C-32.91579983 -0.91065794 -54.87715173 -10.11365413 -74.69921875 -10.1328125 C-75.99150391 -10.13410156 -77.28378906 -10.13539063 -78.61523438 -10.13671875 C-79.28514404 -10.13462402 -79.95505371 -10.1325293 -80.64526367 -10.13037109 C-82.66397784 -10.12506186 -84.68246497 -10.13030624 -86.70117188 -10.13671875 C-97.83470681 -10.12566809 -107.56741546 -9.57506234 -118.125 -5.9375 C-119.0329834 -5.62804443 -119.9409668 -5.31858887 -120.87646484 -4.99975586 C-151.30564821 5.68760619 -172.62707468 26.41599822 -188.875 53.8125 C-191 57 -191 57 -193.00390625 57.83203125 C-195.98395249 59.57573737 -196.15720769 61.60654204 -197.0625 64.875 C-197.38992187 66.03773438 -197.71734375 67.20046875 -198.0546875 68.3984375 C-198.36664063 69.58695312 -198.67859375 70.77546875 -199 72 C-199.43699219 73.65902344 -199.43699219 73.65902344 -199.8828125 75.3515625 C-202.27630695 84.55047382 -202.27630695 84.55047382 -203.20532227 93.97387695 C-203.22526749 94.93449539 -203.24521271 95.89511383 -203.26576233 96.88484192 C-203.29083107 98.42104439 -203.29083107 98.42104439 -203.31640625 99.98828125 C-203.33718735 101.04661667 -203.35796844 102.10495209 -203.37937927 103.19535828 C-203.44463103 106.56767441 -203.50364637 109.94006674 -203.5625 113.3125 C-203.6057084 115.60222134 -203.64932343 117.89193505 -203.69335938 120.18164062 C-203.80028746 125.78768282 -203.90162344 131.39380148 -204 137 C-207.3 137.99 -210.6 138.98 -214 140 C-214.05004653 133.74187336 -214.08602039 127.48386737 -214.10986328 121.22558594 C-214.1198201 119.10382046 -214.13339042 116.98206833 -214.15087891 114.86035156 C-214.27248564 99.70958272 -214.25351507 84.75629982 -210.0625 70.0625 C-209.71960938 68.84304687 -209.37671875 67.62359375 -209.0234375 66.3671875 C-208.13646645 63.44898503 -207.19040176 60.56739221 -206.1875 57.6875 C-204.5970122 54.22276312 -204.5970122 54.22276312 -206 52 C-206.60960232 46.61649895 -204.8473024 43.02470859 -202.1875 38.5 C-201.78297607 37.80148926 -201.37845215 37.10297852 -200.96166992 36.38330078 C-183.00597682 6.17560837 -154.98318349 -13.9737746 -122 -25 C-121.30052246 -25.24298828 -120.60104492 -25.48597656 -119.88037109 -25.73632812 C-80.42817546 -38.89033214 -31.24417205 -25.74343754 0 0 Z " fill="#202830" transform="translate(340,158)"/>
<path d="M0 0 C4.87989912 2.34958106 7.89770021 5.6567803 11 10 C11.8125 12.875 11.8125 12.875 12 15 C12.60328125 14.96519531 13.2065625 14.93039062 13.828125 14.89453125 C14.62734375 14.86746094 15.4265625 14.84039062 16.25 14.8125 C17.03890625 14.77769531 17.8278125 14.74289062 18.640625 14.70703125 C21.71300149 15.08853495 22.83128671 15.78017988 25 18 C25.50793457 21.18113708 25.50793457 21.18113708 25.51757812 25.16186523 C25.5245874 25.88739594 25.53159668 26.61292664 25.53881836 27.36044312 C25.55643195 29.76021538 25.54476352 32.15880936 25.53125 34.55859375 C25.53394427 36.22624437 25.53782614 37.89389346 25.54284668 39.5615387 C25.54874649 43.05786078 25.54016465 46.55377423 25.52148438 50.05004883 C25.49871182 54.53054871 25.5118035 59.01008931 25.53577423 63.49055386 C25.55023447 66.93499466 25.54562496 70.3792084 25.53526306 73.82365608 C25.53259546 75.47546566 25.53586673 77.12729588 25.54518127 78.77908134 C25.55534911 81.0895221 25.53984416 83.3984147 25.51757812 85.70874023 C25.51280457 87.68039406 25.51280457 87.68039406 25.50793457 89.69187927 C24.92067738 93.5166193 24.06773365 94.71857666 21 97 C18.81640625 97.328125 18.81640625 97.328125 16.5625 97.25 C13.05424108 97.4617213 13.05424108 97.4617213 10.48046875 99.69140625 C9.65996867 101.10579211 8.87309661 102.5402235 8.12109375 103.9921875 C6.23517159 107.36976238 3.40001443 109.29999278 0 111 C-5.17542953 111.50837553 -9.55470468 111.83827129 -14.125 109.1875 C-16.73209712 106.14588669 -17.12549327 103.73847178 -17.11593628 99.86976624 C-17.11612259 99.03000748 -17.1163089 98.19024872 -17.11650085 97.32504272 C-17.10886467 95.94803696 -17.10886467 95.94803696 -17.10107422 94.54321289 C-17.09949814 93.57384293 -17.09792206 92.60447296 -17.09629822 91.60572815 C-17.08879702 88.39464575 -17.07278674 85.18369567 -17.0546875 81.97265625 C-17.04897861 80.87714384 -17.04326973 79.78163143 -17.03738785 78.65292168 C-17.00584668 72.85815415 -16.96689881 67.06348399 -16.92285156 61.26879883 C-16.87902871 55.27523519 -16.86327273 49.28193359 -16.85362053 43.28823185 C-16.84077361 38.68561342 -16.8060951 34.08334371 -16.76550674 29.48089409 C-16.74998757 27.2709116 -16.74292626 25.0608532 -16.74441147 22.85081673 C-16.74459033 19.76191891 -16.71374483 16.67480636 -16.67529297 13.58618164 C-16.68234756 12.67020203 -16.68940216 11.75422241 -16.69667053 10.81048584 C-16.57373453 4.61999417 -16.57373453 4.61999417 -13.6255188 1.43406677 C-9.15199024 -1.00938885 -4.95253772 -0.71479926 0 0 Z " fill="#495054" transform="translate(346,272)"/>
<path d="M0 0 C0.82242188 -0.02835937 1.64484375 -0.05671875 2.4921875 -0.0859375 C6.31932598 0.58409565 8.21074001 1.78216585 11.125 4.375 C12.04699266 7.54272058 11.97254658 10.64785817 11.94555664 13.92944336 C11.96872955 15.38130791 11.96872955 15.38130791 11.99237061 16.86250305 C12.03578441 20.06372055 12.03623869 23.26335573 12.03515625 26.46484375 C12.05402482 28.68919278 12.07508661 30.9135242 12.09825134 33.13783264 C12.14053534 37.80089049 12.16274716 42.46346708 12.16967773 47.12670898 C12.17923602 53.10379202 12.22829866 59.0797135 12.29111576 65.05644894 C12.33676882 69.65030579 12.36658212 74.24415289 12.39108086 78.83816719 C12.40376435 81.04180907 12.42017956 83.24543274 12.44038582 85.44901848 C12.46523791 88.52991208 12.4700181 91.61018239 12.46899414 94.69116211 C12.47970444 95.6019754 12.49041473 96.5127887 12.50144958 97.45120239 C12.47656372 102.23721225 12.29940675 105.52653735 9.125 109.375 C4.65526793 112.35482138 0.36575136 111.98316742 -4.875 111.375 C-9.79714093 108.95867627 -13.66844445 105.44213186 -15.7109375 100.25 C-16.09507812 99.63125 -16.47921875 99.0125 -16.875 98.375 C-18.93414685 97.82239056 -18.93414685 97.82239056 -21.25 97.875 C-24.26535983 97.83466074 -25.53817097 97.62611451 -27.98571777 95.80140686 C-30.57716759 92.47320553 -30.38242697 90.2765349 -30.39257812 86.08374023 C-30.3995874 85.35645721 -30.40659668 84.62917419 -30.41381836 83.87985229 C-30.43139508 81.48070878 -30.41977902 79.08274881 -30.40625 76.68359375 C-30.40894474 75.01497674 -30.41282701 73.34636127 -30.41784668 71.67774963 C-30.423741 68.18320748 -30.41518011 64.68907462 -30.39648438 61.19458008 C-30.37367679 56.71289019 -30.38682916 52.23215748 -30.41077423 47.75050259 C-30.42521913 44.30610421 -30.42063263 40.86193333 -30.41026306 37.41752815 C-30.40759305 35.76489206 -30.41087518 34.11223538 -30.42018127 32.45962334 C-30.43032784 30.15147948 -30.41487574 27.8448929 -30.39257812 25.53686523 C-30.38939575 24.22322495 -30.38621338 22.90958466 -30.38293457 21.55613708 C-29.875 18.375 -29.875 18.375 -27.9901123 16.44569397 C-25.50001978 15.18518074 -23.89908803 15.06511376 -21.125 15.1875 C-20.32578125 15.21457031 -19.5265625 15.24164063 -18.703125 15.26953125 C-18.09984375 15.30433594 -17.4965625 15.33914063 -16.875 15.375 C-16.66875 14.529375 -16.4625 13.68375 -16.25 12.8125 C-14.33339991 8.02099977 -11.41838729 3.96198959 -6.984375 1.1953125 C-4.54543635 0.24683636 -2.6142592 0.04072055 0 0 Z " fill="#495054" transform="translate(170.875,271.625)"/>
<path d="M0 0 C15.46308725 3.86577181 15.46308725 3.86577181 20.9375 11.8125 C22.3202761 15.96082829 22.25978893 19.67018448 22 24 C22.62519531 24.13664062 23.25039063 24.27328125 23.89453125 24.4140625 C26.41316482 25.11498093 27.37053174 25.9825631 29 28 C30.21260877 31.63782632 30.39544552 34.17735999 30 38 C27.45862841 41.15954305 25.85377341 42.71540886 22 44 C21.97421875 44.65226562 21.9484375 45.30453125 21.921875 45.9765625 C21.46110805 53.07656234 19.93907109 57.06092891 14.8125 62.1875 C10.31839845 65.08369878 5.38001736 67 0 67 C0 44.89 0 22.78 0 0 Z " fill="#F5F5F6" transform="translate(372,294)"/>
<path d="M0 0 C0 22.11 0 44.22 0 67 C-7.27443001 65.96079571 -12.88007063 64.72225909 -17.875 59.125 C-22.81170262 51.86514321 -22.34046173 44.3302694 -22.31567383 35.88769531 C-22.31251848 33.6381766 -22.33599089 31.38998113 -22.36132812 29.140625 C-22.43187241 13.63348291 -22.43187241 13.63348291 -17.52734375 7.01171875 C-12.57820729 2.88946504 -6.57821392 0 0 0 Z " fill="#F4F6F6" transform="translate(140,294)"/>
<path d="M0 0 C-0.0721875 1.04027344 -0.144375 2.08054687 -0.21875 3.15234375 C-1.01445193 16.09878233 -1.11229484 29.03395272 -1.125 42 C-1.12749756 42.88791229 -1.12999512 43.77582458 -1.13256836 44.69064331 C-1.16138412 57.19682858 -1.01479956 69.62337413 1 82 C-0.41493551 82.10884119 -1.83232943 82.18597617 -3.25 82.25 C-4.03890625 82.29640625 -4.8278125 82.3428125 -5.640625 82.390625 C-8.96950439 81.83948603 -9.9435195 80.65262478 -12 78 C-12.50793457 74.69187927 -12.50793457 74.69187927 -12.51757812 70.70874023 C-12.5245874 69.98145721 -12.53159668 69.25417419 -12.53881836 68.50485229 C-12.55639508 66.10570878 -12.54477902 63.70774881 -12.53125 61.30859375 C-12.53394474 59.63997674 -12.53782701 57.97136127 -12.54284668 56.30274963 C-12.548741 52.80820748 -12.54018011 49.31407462 -12.52148438 45.81958008 C-12.49867679 41.33789019 -12.51182916 36.85715748 -12.53577423 32.37550259 C-12.55021913 28.93110421 -12.54563263 25.48693333 -12.53526306 22.04252815 C-12.53259305 20.38989206 -12.53587518 18.73723538 -12.54518127 17.08462334 C-12.55532784 14.77647948 -12.53987574 12.4698929 -12.51757812 10.16186523 C-12.51439575 8.84822495 -12.51121338 7.53458466 -12.50793457 6.18113708 C-12 3 -12 3 -10.10144043 1.07069397 C-6.64910629 -0.68828682 -3.82593061 -0.19129653 0 0 Z " fill="#20262D" transform="translate(153,287)"/>
<path d="M0 0 C7.28508208 -0.3642541 7.28508208 -0.3642541 10.10144043 1.07069397 C12.93188499 3.94697651 12.5079387 6.18284206 12.51757812 10.16186523 C12.52809204 11.25016129 12.52809204 11.25016129 12.53881836 12.36044312 C12.55643195 14.76021538 12.54476352 17.15880936 12.53125 19.55859375 C12.53394427 21.22624437 12.53782614 22.89389346 12.54284668 24.5615387 C12.54874649 28.05786078 12.54016465 31.55377423 12.52148438 35.05004883 C12.49871182 39.53054871 12.5118035 44.01008931 12.53577423 48.49055386 C12.55023447 51.93499466 12.54562496 55.3792084 12.53526306 58.82365608 C12.53259546 60.47546566 12.53586673 62.12729588 12.54518127 63.77908134 C12.55534911 66.0895221 12.53984416 68.3984147 12.51757812 70.70874023 C12.51439575 72.02317612 12.51121338 73.337612 12.50793457 74.69187927 C12 78 12 78 10.26452637 80.44007874 C7.63976234 82.24815008 6.39386429 82.43493319 3.25 82.25 C2.45078125 82.21390625 1.6515625 82.1778125 0.828125 82.140625 C0.22484375 82.09421875 -0.3784375 82.0478125 -1 82 C-0.78670044 80.1900354 -0.78670044 80.1900354 -0.5690918 78.34350586 C0.81184902 66.03973755 1.28509233 53.93566855 1.1875 41.5625 C1.18063512 39.76310353 1.17412768 37.96370566 1.16796875 36.16430664 C1.10837504 24.0924708 0.835895 12.04584397 0 0 Z " fill="#20262D" transform="translate(359,287)"/>
<path d="M0 0 C2.36030883 3.54046324 3.59342207 7.18912209 4.9375 11.1875 C5.18951172 11.89841797 5.44152344 12.60933594 5.70117188 13.34179688 C11.26879234 29.84530613 11.38254369 45.76255411 11.1875 63 C11.17241798 65.33592882 11.15873584 67.67186712 11.14648438 70.0078125 C11.11377612 75.6721134 11.06218975 81.33594922 11 87 C7.7 86.01 4.4 85.02 1 84 C0.98541748 82.61401611 0.97083496 81.22803223 0.95581055 79.80004883 C0.89733956 74.60188454 0.82011395 69.40413158 0.73754883 64.20629883 C0.70452719 61.9671095 0.67642637 59.72784149 0.65356445 57.48852539 C0.51879558 40.02387261 0.51879558 40.02387261 -3 23 C-3.52459494 21.02182706 -4.04587782 19.04277008 -4.5625 17.0625 C-5.03986723 15.37449009 -5.51881166 13.68692464 -6 12 C-6.309375 10.824375 -6.61875 9.64875 -6.9375 8.4375 C-7.90145219 5.51492577 -7.90145219 5.51492577 -12 4 C-8.04 3.34 -4.08 2.68 0 2 C0 1.34 0 0.68 0 0 Z " fill="#4A5358" transform="translate(375,211)"/>
<path d="M0 0 C2.97 0.99 5.94 1.98 9 3 C8.61908203 4.30710938 8.61908203 4.30710938 8.23046875 5.640625 C3.05802562 22.05314803 3.05802562 22.05314803 0.79467773 38.97387695 C0.77473251 39.93449539 0.75478729 40.89511383 0.73423767 41.88484192 C0.70916893 43.42104439 0.70916893 43.42104439 0.68359375 44.98828125 C0.66281265 46.04661667 0.64203156 47.10495209 0.62062073 48.19535828 C0.55536897 51.56767441 0.49635363 54.94006674 0.4375 58.3125 C0.3942916 60.60222134 0.35067657 62.89193505 0.30664062 65.18164062 C0.19971254 70.78768282 0.09837656 76.39380148 0 82 C-3.3 82.99 -6.6 83.98 -10 85 C-10.05004653 78.74187336 -10.08602039 72.48386737 -10.10986328 66.22558594 C-10.1198201 64.10382046 -10.13339042 61.98206833 -10.15087891 59.86035156 C-10.31336185 39.61688832 -10.34612274 18.10571479 0 0 Z " fill="#4A5358" transform="translate(136,213)"/>
<path d="M0 0 C4.72289157 1.18072289 4.72289157 1.18072289 7 4 C8.21260877 7.63782632 8.39544552 10.17735999 8 14 C5.45862841 17.15954305 3.85377341 18.71540886 0 20 C0 13.4 0 6.8 0 0 Z " fill="#D75253" transform="translate(394,318)"/>
</svg>
