<?xml version="1.0" encoding="UTF-8"?>
<svg version="1.1" xmlns="http://www.w3.org/2000/svg" width="512" height="512">
<path d="M0 0 C168.96 0 337.92 0 512 0 C512 168.96 512 337.92 512 512 C343.04 512 174.08 512 0 512 C0 343.04 0 174.08 0 0 Z " fill="#474F59" transform="translate(0,0)"/>
<path d="M0 0 C57.75 0 115.5 0 175 0 C175 20.46 175 40.92 175 62 C227.14 62 279.28 62 333 62 C333 106.22 333 150.44 333 196 C327.39 196 321.78 196 316 196 C316 207.22 316 218.44 316 230 C311.21618421 225.89958646 307.51926969 222.40538524 303.72563171 217.60820007 C294.0041483 205.92909784 284.76992916 195.55925573 268.95808125 194.05871296 C261.68025912 193.63348953 254.43525204 193.77325092 247.15563798 194.06043458 C242.77212809 194.2036727 238.38879038 194.18901148 234.00334167 194.19303894 C225.744756 194.22363523 217.49514501 194.39061175 209.23965329 194.61010331 C198.05329447 194.8993224 186.86550338 194.97088051 175.67608166 195.05641079 C158.11115794 195.19626556 140.56516487 195.62074982 123 196 C123 168.28 123 140.56 123 112 C110.191875 111.608125 97.38375 111.21625 84.1875 110.8125 C78.21305786 110.52209839 78.21305786 110.52209839 72.11791992 110.22583008 C56.36365207 109.87550554 43.53765645 109.86533589 31.40592289 120.96123409 C26.13846863 126.10934127 21.38096885 131.69935785 16.92256165 137.55619812 C16.2881163 138.36265274 15.65367096 139.16910736 15 140 C14.67 140 14.34 140 14 140 C14 130.76 14 121.52 14 112 C9.38 112 4.76 112 0 112 C0 75.04 0 38.08 0 0 Z " fill="#FDFDFD" transform="translate(90,141)"/>
<path d="M0 0 C19.2740625 0.7734375 19.2740625 0.7734375 38.9375 1.5625 C38.9375 29.2825 38.9375 57.0025 38.9375 85.5625 C50.21808594 85.36527344 61.49867188 85.16804688 73.12109375 84.96484375 C80.28978034 84.87792792 87.45808224 84.79538352 94.62695312 84.73242188 C105.99360482 84.63178704 117.35810466 84.51390495 128.72290039 84.2800293 C137.0025363 84.10972533 145.28041686 84.00071422 153.56175572 83.96299559 C157.94136277 83.94096734 162.31595209 83.88984217 166.6939373 83.76508904 C196.84583239 82.93768348 196.84583239 82.93768348 206.48316288 91.76086521 C209.63312783 95.15565155 212.44019215 98.66190264 214.9375 102.5625 C213.40455278 106.66257964 211.69778259 109.23267534 208.6875 112.4375 C206.00654936 115.32369088 203.37158999 118.20319734 200.875 121.25 C176.45848871 149.68108592 136.28507308 166.06286932 99.9375 170.5625 C97.27518945 170.67451868 94.6387544 170.74941578 91.9765625 170.765625 C91.22772797 170.77132507 90.47889343 170.77702515 89.70736694 170.78289795 C88.12572619 170.79229745 86.54406629 170.7988617 84.96240234 170.80273438 C82.60346736 170.8123333 80.24544597 170.84335914 77.88671875 170.875 C35.31589065 171.17060947 -4.19598002 151.76712098 -35.11328125 123.49609375 C-35.75652344 122.85800781 -36.39976562 122.21992188 -37.0625 121.5625 C-37.0625 121.2325 -37.0625 120.9025 -37.0625 120.5625 C-36.4111184 120.56011165 -35.7597368 120.55772329 -35.08861637 120.55526257 C-19.21277201 120.49603404 -3.33710178 120.42043401 12.53857327 120.32678509 C20.21604982 120.28188809 27.89348062 120.24245951 35.57104492 120.21606445 C42.26561207 120.19303484 48.96003368 120.15958176 55.65448529 120.11379844 C59.196629 120.0899328 62.73862918 120.07116058 66.28085136 120.06488609 C70.24265139 120.05767255 74.2040929 120.02717979 78.16577148 119.99487305 C79.33030853 119.99630814 80.49484558 119.99774323 81.69467163 119.9992218 C87.63380332 119.93086599 92.58706656 119.42211939 98.12478733 117.20354939 C99.9375 116.5625 99.9375 116.5625 102.9375 116.5625 C102.9375 114.5825 102.9375 112.6025 102.9375 110.5625 C102.31101562 110.42972656 101.68453125 110.29695313 101.0390625 110.16015625 C100.22179687 109.98355469 99.40453125 109.80695313 98.5625 109.625 C97.75039063 109.45097656 96.93828125 109.27695312 96.1015625 109.09765625 C93.9375 108.5625 93.9375 108.5625 91.9375 107.5625 C90.07773604 107.47824554 88.21486018 107.45983121 86.35322571 107.47157288 C85.16578262 107.47623566 83.97833954 107.48089844 82.75491333 107.48570251 C81.44529633 107.4956575 80.13567932 107.50561249 78.78637695 107.51586914 C77.39844522 107.52265713 76.01051057 107.52886892 74.62257385 107.5345459 C72.40241776 107.54379388 70.18227164 107.55354072 67.96212637 107.56512368 C62.45260075 107.59386635 56.943237 107.60547162 51.43363953 107.60655212 C50.63453653 107.60673389 49.83543354 107.60691566 49.0121153 107.60710293 C45.71437522 107.60755291 42.41663528 107.60747048 39.11889517 107.6072675 C29.75385811 107.60753219 20.38948939 107.62424205 11.0246582 107.68920898 C3.58868615 107.74067973 -3.8464204 107.7568353 -11.28254157 107.73174757 C-15.21762467 107.71981009 -19.1508611 107.72569703 -23.08569908 107.77443123 C-26.79086459 107.8199317 -30.49309447 107.81850656 -34.19832802 107.78168488 C-36.19979333 107.77393192 -38.20126039 107.81567267 -40.20227051 107.85905457 C-48.84159733 107.71010502 -48.84159733 107.71010502 -52.38541603 104.37904167 C-54.18137912 101.84438263 -55.64828718 99.32440832 -57.0625 96.5625 C-57.82785807 95.38061133 -58.60499116 94.206187 -59.3984375 93.04296875 C-76.18849954 65.92798351 -85.38961435 34.48697307 -84.0625 2.5625 C-79.7725 2.5625 -75.4825 2.5625 -71.0625 2.5625 C-71.0625 11.8025 -71.0625 21.0425 -71.0625 30.5625 C-70.4025 30.5625 -69.7425 30.5625 -69.0625 30.5625 C-68.81882187 30.02221664 -68.57514374 29.48193329 -68.32408142 28.92527771 C-52.6808193 -0.37251507 -30.23490263 -1.71986388 0 0 Z " fill="#353F49" transform="translate(174.0625,251.4375)"/>
<path d="M0 0 C57.42 0 114.84 0 174 0 C174 20.46 174 40.92 174 62 C157.17 62 140.34 62 123 62 C123 78.5 123 95 123 112 C117.46605469 111.75894531 111.93210937 111.51789063 106.23046875 111.26953125 C102.66105671 111.17683018 99.0951078 111.09252845 95.52539062 111.03710938 C89.89210623 110.9488926 84.27035299 110.83490595 78.64379883 110.53588867 C54.43168886 108.92829987 54.43168886 108.92829987 33.37353516 119.16162109 C27.278088 124.73662493 21.92024473 130.99093161 16.92256165 137.55619812 C16.2881163 138.36265274 15.65367096 139.16910736 15 140 C14.67 140 14.34 140 14 140 C14 130.76 14 121.52 14 112 C9.38 112 4.76 112 0 112 C0 75.04 0 38.08 0 0 Z " fill="#FEFEFE" transform="translate(90,141)"/>
<path d="M0 0 C1.1232518 -0.00855011 1.1232518 -0.00855011 2.26919556 -0.01727295 C3.85083631 -0.02667245 5.43249621 -0.0332367 7.01416016 -0.03710938 C9.37309514 -0.0467083 11.73111653 -0.07773414 14.08984375 -0.109375 C57.85780564 -0.4132973 99.1420157 20.08538057 130.0390625 50.203125 C143.87156632 64.23651581 167.0390625 92.53271338 167.0390625 113.203125 C118.1990625 113.203125 69.3590625 113.203125 19.0390625 113.203125 C19.0390625 92.413125 19.0390625 71.623125 19.0390625 50.203125 C-23.2009375 50.203125 -65.4409375 50.203125 -108.9609375 50.203125 C-106.4859375 47.728125 -106.4859375 47.728125 -103.9609375 45.203125 C-103.38472656 44.58050781 -102.80851563 43.95789063 -102.21484375 43.31640625 C-96.21230631 36.92571396 -89.22351088 32.03342145 -81.9609375 27.203125 C-81.37957031 26.81479492 -80.79820312 26.42646484 -80.19921875 26.02636719 C-57.10569531 10.8339425 -27.83566381 0.16948232 0 0 Z " fill="#353F49" transform="translate(245.9609375,89.796875)"/>
<path d="M0 0 C0.33 0 0.66 0 1 0 C1 20.46 1 40.92 1 62 C53.14 62 105.28 62 159 62 C159 106.22 159 150.44 159 196 C158.67 196 158.34 196 158 196 C158 152.11 158 108.22 158 63 C106.19 63 54.38 63 1 63 C1 79.17 1 95.34 1 112 C-15.83 112 -32.66 112 -50 112 C-50 139.72 -50 167.44 -50 196 C-50.33 196 -50.66 196 -51 196 C-51 151.78 -51 107.56 -51 62 C-34.17 62 -17.34 62 0 62 C0 41.54 0 21.08 0 0 Z " fill="#92DEEB" transform="translate(264,141)"/>
<path d="M0 0 C0.70125661 -0.00538554 1.40251322 -0.01077108 2.12502003 -0.01631981 C4.48098481 -0.03065667 6.83639221 -0.02348163 9.19238281 -0.01637268 C10.87939406 -0.02207365 12.56640144 -0.02903684 14.25340271 -0.03717041 C18.84271559 -0.0551571 23.43183781 -0.05392193 28.02117538 -0.04822803 C31.85516458 -0.04514101 35.6891169 -0.05122391 39.52310085 -0.05726677 C48.57581574 -0.07133138 57.62843633 -0.06973749 66.68115234 -0.05836487 C76.00543608 -0.04690949 85.32943132 -0.06091136 94.65367699 -0.08776134 C102.66575325 -0.10996509 110.6777393 -0.11654439 118.68984413 -0.11068493 C123.47172568 -0.10732195 128.25342276 -0.10968523 133.03527832 -0.12693596 C137.53991686 -0.14247519 142.04413153 -0.13837262 146.54875374 -0.11963081 C148.19539373 -0.1159627 149.84206557 -0.11900111 151.48867607 -0.1295166 C160.70258776 -0.18382794 168.6488426 0.35341277 177.14550781 4.38768005 C177.14550781 6.36768005 177.14550781 8.34768005 177.14550781 10.38768005 C167.75081905 14.30303188 159.09533131 14.94837805 149.07080078 14.85765076 C147.48921566 14.8581607 145.90763029 14.8604237 144.3260498 14.86428833 C140.06572082 14.86966793 135.80583336 14.85040327 131.54558325 14.82618737 C127.06866233 14.8047517 122.59174069 14.80548039 118.11477661 14.80349731 C110.60166926 14.79706783 103.08872579 14.77588959 95.57568359 14.74436951 C85.95431396 14.70405536 76.33305084 14.68667229 66.71160698 14.67706013 C58.40816586 14.66873626 50.10474692 14.65151303 41.80132532 14.63202262 C40.02647799 14.6279838 38.25162996 14.62424271 36.47678137 14.62080026 C31.41585299 14.61096402 26.35498698 14.59637047 21.2940979 14.57396126 C19.7663644 14.56788401 18.23862349 14.56340907 16.71088028 14.56071854 C-5.36907128 14.51821186 -5.36907128 14.51821186 -8.59349251 12.06415272 C-10.69843811 9.26567163 -10.21471957 6.74980232 -9.85449219 3.38768005 C-7.37472864 -0.44965978 -4.27933502 0.00826111 0 0 Z " fill="#F9D777" transform="translate(99.8544921875,357.61231994628906)"/>
<path d="M0 0 C57.09 0 114.18 0 173 0 C173 1.98 173 3.96 173 6 C115.91 6 58.82 6 0 6 C0 4.02 0 2.04 0 0 Z " fill="#D2D1D0" transform="translate(231,274)"/>
<path d="M0 0 C0 4.29 0 8.58 0 13 C2.31 13 4.62 13 7 13 C7 11.68 7 10.36 7 9 C57.49 9 107.98 9 160 9 C160.33 10.65 160.66 12.3 161 14 C140.05053287 14.02338789 119.1010679 14.04100809 98.15159035 14.05181217 C88.42380969 14.05696262 78.69603716 14.06398145 68.96826172 14.07543945 C60.48691565 14.08542455 52.00557547 14.09186253 43.52422369 14.09408849 C39.03582173 14.09538911 34.54743661 14.09843376 30.05904007 14.10573006 C25.82872404 14.11255067 21.59843167 14.11460473 17.36811066 14.11310768 C15.82102962 14.1133813 14.27394774 14.11535041 12.72687149 14.11920547 C-9.4613658 14.17175226 -9.4613658 14.17175226 -12.73825645 11.67622471 C-14.84440505 8.87820895 -14.36025077 6.3623405 -14 3 C-10.71722292 -1.79790496 -5.19568272 -0.18337704 0 0 Z " fill="#FAB940" transform="translate(104,358)"/>
<path d="M0 0 C56.76 0 113.52 0 172 0 C172 1.65 172 3.3 172 5 C115.24 5 58.48 5 0 5 C0 3.35 0 1.7 0 0 Z " fill="#CCCBCA" transform="translate(232,301)"/>
<path d="M0 0 C56.76 0 113.52 0 172 0 C172 1.65 172 3.3 172 5 C115.24 5 58.48 5 0 5 C0 3.35 0 1.7 0 0 Z " fill="#CECDCC" transform="translate(232,288)"/>
<path d="M0 0 C56.76 0 113.52 0 172 0 C172 1.65 172 3.3 172 5 C115.24 5 58.48 5 0 5 C0 3.35 0 1.7 0 0 Z " fill="#CCCBCA" transform="translate(232,261)"/>
<path d="M0 0 C41.58 0 83.16 0 126 0 C126 1.65 126 3.3 126 5 C84.42 5 42.84 5 0 5 C0 3.35 0 1.7 0 0 Z " fill="#CCCBCA" transform="translate(232,314)"/>
<path d="M0 0 C0.33 0 0.66 0 1 0 C1 20.46 1 40.92 1 62 C53.14 62 105.28 62 159 62 C159 106.22 159 150.44 159 196 C158.67 196 158.34 196 158 196 C158 152.11 158 108.22 158 63 C106.19 63 54.38 63 1 63 C1 79.17 1 95.34 1 112 C0.67 112 0.34 112 0 112 C0 95.83 0 79.66 0 63 C-16.5 63 -33 63 -50 63 C-50 106.89 -50 150.78 -50 196 C-50.33 196 -50.66 196 -51 196 C-51 151.78 -51 107.56 -51 62 C-34.17 62 -17.34 62 0 62 C0 41.54 0 21.08 0 0 Z " fill="#B3C3C8" transform="translate(264,141)"/>
<path d="M0 0 C30.36 0 60.72 0 92 0 C92 1.98 92 3.96 92 6 C61.64 6 31.28 6 0 6 C0 4.02 0 2.04 0 0 Z " fill="#D2D1D0" transform="translate(312,221)"/>
<path d="M0 0 C1.134375 0.020625 2.26875 0.04125 3.4375 0.0625 C5.15087833 4.29657987 6.85975627 8.53243692 8.56445312 12.77001953 C9.14524363 14.21192616 9.72727 15.65333563 10.31054688 17.09423828 C11.14777311 19.16309835 11.98056709 21.23369419 12.8125 23.3046875 C13.07498535 23.95057831 13.3374707 24.59646912 13.60791016 25.26193237 C15.4375 29.83475659 15.4375 29.83475659 15.4375 32.0625 C13.1275 32.0625 10.8175 32.0625 8.4375 32.0625 C7.7775 29.7525 7.1175 27.4425 6.4375 25.0625 C0.0025 25.5575 0.0025 25.5575 -6.5625 26.0625 C-7.2225 28.0425 -7.8825 30.0225 -8.5625 32.0625 C-10.8725 32.0625 -13.1825 32.0625 -15.5625 32.0625 C-13.52638077 24.89913306 -11.11448394 17.94741069 -8.4375 11 C-8.07785156 10.05189453 -7.71820313 9.10378906 -7.34765625 8.12695312 C-4.26533834 0.0748305 -4.26533834 0.0748305 0 0 Z " fill="#4D555F" transform="translate(288.5625,220.9375)"/>
<path d="M0 0 C3.88446678 2.58964452 6.69907021 5.64814041 8.8125 9.875 C9.34395414 14.71907382 9.38112903 18.69225163 7.25 23.125 C4.78715194 25.90359782 2.17130647 28.09017061 -0.703125 30.41796875 C-2.70852832 32.38643043 -3.10598067 34.10334294 -3.1875 36.875 C-5.4975 36.875 -7.8075 36.875 -10.1875 36.875 C-10.79885371 29.78329694 -10.79885371 29.78329694 -8 25.625 C-5.1875 22.875 -5.1875 22.875 -2.375 21 C0.08689168 18.60844809 0.18713466 18.08990818 0.3125 14.8125 C0.07530697 11.08475398 0.07530697 11.08475398 -1.25 8.875 C-4.36659511 7.26643478 -6.75012469 7.45286619 -10.1875 7.875 C-13.09467073 10.09363029 -14.02731643 11.39444929 -15.1875 14.875 C-17.8275 14.875 -20.4675 14.875 -23.1875 14.875 C-22.8321631 8.95271837 -21.43161091 6.02479733 -17.1875 1.875 C-11.52022028 -1.90318648 -6.30883064 -2.22664611 0 0 Z " fill="#4C545E" transform="translate(184.1875,173.125)"/>
<path d="M0 0 C30.36 0 60.72 0 92 0 C92 1.65 92 3.3 92 5 C61.64 5 31.28 5 0 5 C0 3.35 0 1.7 0 0 Z " fill="#CCCBCA" transform="translate(312,248)"/>
<path d="M0 0 C30.03 0 60.06 0 91 0 C91 1.65 91 3.3 91 5 C60.97 5 30.94 5 0 5 C0 3.35 0 1.7 0 0 Z " fill="#CCCBCA" transform="translate(313,235)"/>
<path d="M0 0 C0 4.29 0 8.58 0 13 C53.13 13 106.26 13 161 13 C161 13.33 161 13.66 161 14 C140.05053287 14.02338789 119.1010679 14.04100809 98.15159035 14.05181217 C88.42380969 14.05696262 78.69603716 14.06398145 68.96826172 14.07543945 C60.48691565 14.08542455 52.00557547 14.09186253 43.52422369 14.09408849 C39.03582173 14.09538911 34.54743661 14.09843376 30.05904007 14.10573006 C25.82872404 14.11255067 21.59843167 14.11460473 17.36811066 14.11310768 C15.82102962 14.1133813 14.27394774 14.11535041 12.72687149 14.11920547 C-9.4613658 14.17175226 -9.4613658 14.17175226 -12.73825645 11.67622471 C-14.84440505 8.87820895 -14.36025077 6.3623405 -14 3 C-10.71722292 -1.79790496 -5.19568272 -0.18337704 0 0 Z " fill="#AF7C57" transform="translate(104,358)"/>
<path d="M0 0 C4.571279 0.54855348 8.67435795 1.41744803 13 3 C13 4.98 13 6.96 13 9 C11.39743892 9.50512244 9.79288208 10.00391627 8.1875 10.5 C7.29417969 10.7784375 6.40085937 11.056875 5.48046875 11.34375 C3 12 3 12 0 12 C0 8.04 0 4.08 0 0 Z " fill="#FAF9F8" transform="translate(264,359)"/>
<path d="M0 0 C2.31 0 4.62 0 7 0 C7 4.29 7 8.58 7 13 C4.69 13 2.38 13 0 13 C0 8.71 0 4.42 0 0 Z " fill="#FAFAFB" transform="translate(104,358)"/>
<path d="M0 0 C0.66 0 1.32 0 2 0 C2.185625 0.94875 2.37125 1.8975 2.5625 2.875 C3.73400805 6.38371699 3.73400805 6.38371699 7.625 7.375 C8.73875 7.58125 9.8525 7.7875 11 8 C11 9.32 11 10.64 11 12 C9.39667209 12.08121924 7.79215974 12.13929134 6.1875 12.1875 C5.29417969 12.22230469 4.40085937 12.25710938 3.48046875 12.29296875 C1 12 1 12 -0.8046875 10.7109375 C-2.769481 7.89858602 -2.30077444 5.30851882 -2 2 C-1.34 1.34 -0.68 0.68 0 0 Z " fill="#EB643D" transform="translate(92,359)"/>
<path d="M0 0 C2.64 0 5.28 0 8 0 C8 2.64 8 5.28 8 8 C5.36 8 2.72 8 0 8 C0 5.36 0 2.72 0 0 Z " fill="#545B64" transform="translate(173,214)"/>
<path d="M0 0 C2.78633115 4.17949673 4 6.93375326 4 12 C1.36 12 -1.28 12 -4 12 C-3.52309796 10.37433394 -3.04340334 8.74948689 -2.5625 7.125 C-2.29566406 6.22007812 -2.02882813 5.31515625 -1.75390625 4.3828125 C-1 2 -1 2 0 0 Z " fill="#E4E5E7" transform="translate(288,229)"/>
<path d="M0 0 C0 0.66 0 1.32 0 2 C-1.60256108 2.50512244 -3.20711792 3.00391627 -4.8125 3.5 C-6.15248047 3.91765625 -6.15248047 3.91765625 -7.51953125 4.34375 C-10 5 -10 5 -13 5 C-13 3.68 -13 2.36 -13 1 C-8.61414671 0.29826347 -4.44209357 -0.10834375 0 0 Z " fill="#CAC8C4" transform="translate(277,366)"/>
<path d="M0 0 C2.31 0 4.62 0 7 0 C7 1.32 7 2.64 7 4 C4.69 4 2.38 4 0 4 C0 2.68 0 1.36 0 0 Z " fill="#CECDCC" transform="translate(104,367)"/>
<path d="M0 0 C5.75 0.75 5.75 0.75 8 3 C5.13822943 4.43088528 3.06624227 3.59991697 0 3 C0 2.01 0 1.02 0 0 Z " fill="#6D727A" transform="translate(277,362)"/>
</svg>
