<?xml version="1.0" encoding="UTF-8"?>
<svg version="1.1" xmlns="http://www.w3.org/2000/svg" width="512" height="512">
<path d="M0 0 C3.81194827 0.00912986 7.6238258 -0.00495815 11.43575954 -0.01591969 C18.88442706 -0.03362566 26.33293256 -0.02990049 33.7816062 -0.01826912 C39.83996208 -0.00920368 45.89827284 -0.00802419 51.95663357 -0.01236439 C52.8217338 -0.01297732 53.68683404 -0.01359025 54.57814944 -0.01422176 C56.33605847 -0.01550077 58.09396749 -0.01679763 59.8518765 -0.01811212 C76.30237926 -0.02949471 92.75279259 -0.01644076 109.20328069 0.00508934 C123.2920692 0.02295821 137.38072585 0.01985345 151.46951199 0.0014143 C167.86462413 -0.02003355 184.25965807 -0.02839629 200.6547823 -0.01613665 C202.40591207 -0.01486257 204.15704186 -0.01360508 205.90817165 -0.01236439 C207.20026434 -0.01143873 207.20026434 -0.01143873 208.51845992 -0.01049438 C214.56346282 -0.0070532 220.60841575 -0.01284312 226.65341091 -0.0222826 C234.02896851 -0.03354759 241.40435602 -0.0303686 248.77989435 -0.00915962 C252.53679631 0.00129069 256.29341558 0.00557676 260.0503149 -0.00775623 C277.5493846 -0.06472554 293.50163455 -0.08700819 309.30740261 8.33539867 C309.97167263 8.67796703 310.63594265 9.02053539 311.32034206 9.37348461 C316.66492082 12.20669236 321.35978295 15.56310433 325.93240261 19.52289867 C327.12156277 20.41815258 327.12156277 20.41815258 328.33474636 21.33149242 C337.88331908 29.38675452 344.83320079 40.81920335 348.93240261 52.52289867 C349.2646207 53.3913995 349.5968388 54.25990032 349.93912411 55.15471935 C354.22424134 68.29530834 353.50380685 81.92285773 353.45530128 95.59049606 C353.44617143 99.40244433 353.46025944 103.21432186 353.47122097 107.02625561 C353.48892694 114.47492312 353.48520178 121.92342862 353.47357041 129.37210226 C353.46450497 135.43045814 353.46332547 141.4887689 353.46766567 147.54712963 C353.4682786 148.41222987 353.46889154 149.27733011 353.46952304 150.1686455 C353.47080206 151.92655453 353.47209891 153.68446355 353.47341341 155.44237256 C353.484796 171.89287533 353.47174205 188.34328866 353.45021194 204.79377675 C353.43234307 218.88256527 353.43544784 232.97122191 353.45388699 247.06000805 C353.47533483 263.4551202 353.48369758 279.85015414 353.47143793 296.24527836 C353.47016385 297.99640813 353.46890637 299.74753792 353.46766567 301.49866772 C353.46674002 302.79076041 353.46674002 302.79076041 353.46579567 304.10895598 C353.46235449 310.15395888 353.46814441 316.19891181 353.47758389 322.24390697 C353.48884888 329.61946458 353.48566988 336.99485208 353.46446091 344.37039042 C353.4540106 348.12729238 353.44972452 351.88391165 353.46305752 355.64081097 C353.52002683 373.13988067 353.54230948 389.09213061 345.11990261 404.89789867 C344.77733425 405.56216869 344.43476589 406.22643871 344.08181667 406.91083813 C341.24860893 412.25541689 337.89219696 416.95027901 333.93240261 421.52289867 C333.33556667 422.31567211 332.73873074 423.10844555 332.12380886 423.92524242 C324.06854676 433.47381514 312.63609794 440.42369686 300.93240261 444.52289867 C300.06390179 444.85511677 299.19540096 445.18733486 298.30058193 445.52962017 C285.15999295 449.8147374 271.53244355 449.09430292 257.86480522 449.04579735 C254.05285695 449.03666749 250.24097942 449.0507555 246.42904568 449.06171703 C238.98037816 449.079423 231.53187266 449.07569784 224.08319902 449.06406647 C218.02484314 449.05500103 211.96653239 449.05382154 205.90817165 449.05816174 C205.04307142 449.05877467 204.17797118 449.0593876 203.28665578 449.06001911 C201.52874675 449.06129812 199.77083773 449.06259497 198.01292872 449.06390947 C181.56242596 449.07529206 165.11201263 449.06223811 148.66152453 449.04070801 C134.57273602 449.02283914 120.48407937 449.0259439 106.39529324 449.04438305 C90.00018109 449.0658309 73.60514715 449.07419364 57.21002293 449.06193399 C55.45889315 449.06065991 53.70776337 449.05940243 51.95663357 449.05816174 C51.09523844 449.05754463 50.23384331 449.05692753 49.34634531 449.05629173 C43.3013424 449.05285055 37.25638947 449.05864047 31.21139431 449.06807995 C23.83583671 449.07934494 16.4604492 449.07616595 9.08491087 449.05495697 C5.32800891 449.04450666 1.57138964 449.04022059 -2.18550968 449.05355358 C-19.68457938 449.11052289 -35.63682932 449.13280554 -51.44259739 440.71039867 C-52.10686741 440.36783031 -52.77113743 440.02526196 -53.45553684 439.67231274 C-58.8001156 436.83910499 -63.49497773 433.48269302 -68.06759739 429.52289867 C-68.86037083 428.92606274 -69.65314426 428.3292268 -70.46994114 427.71430492 C-80.01851386 419.65904283 -86.96839557 408.226594 -91.06759739 396.52289867 C-91.56592453 395.22014744 -91.56592453 395.22014744 -92.07431889 393.891078 C-96.35943612 380.75048901 -95.63900163 367.12293961 -95.59049606 353.45530128 C-95.58136621 349.64335302 -95.59545422 345.83147549 -95.60641575 342.01954174 C-95.62412172 334.57087423 -95.62039656 327.12236872 -95.60876518 319.67369509 C-95.59969975 313.61533921 -95.59852025 307.55702845 -95.60286045 301.49866772 C-95.60347338 300.63356748 -95.60408632 299.76846724 -95.60471782 298.87715185 C-95.60599683 297.11924281 -95.60729369 295.36133379 -95.60860819 293.60342479 C-95.61999077 277.15292202 -95.60693682 260.70250869 -95.58540672 244.2520206 C-95.56753785 230.16323208 -95.57064261 216.07457544 -95.58908176 201.9857893 C-95.61052961 185.59067715 -95.61889235 169.19564321 -95.60663271 152.80051899 C-95.60535863 151.04938922 -95.60410114 149.29825943 -95.60286045 147.54712963 C-95.60224335 146.6857345 -95.60162625 145.82433938 -95.60099044 144.93684137 C-95.59754927 138.89183847 -95.60333919 132.84688553 -95.61277866 126.80189037 C-95.62404365 119.42633277 -95.62086466 112.05094526 -95.59965569 104.67540693 C-95.58920538 100.91850497 -95.5849193 97.1618857 -95.5982523 93.40498638 C-95.6552216 75.90591668 -95.67750426 59.95366674 -87.25509739 44.14789867 C-86.74124485 43.15149364 -86.74124485 43.15149364 -86.21701145 42.13495922 C-83.38380371 36.79038046 -80.02739174 32.09551834 -76.06759739 27.52289867 C-75.47076145 26.73012524 -74.87392551 25.9373518 -74.25900364 25.12055492 C-66.20374154 15.57198221 -54.77129272 8.62210049 -43.06759739 4.52289867 C-42.19909657 4.19068058 -41.33059574 3.85846249 -40.43577671 3.51617718 C-27.29518773 -0.76894005 -13.66763833 -0.04850557 0 0 Z M6.36990261 100.88227367 C2.58781495 105.24968443 0.96404289 108.59284142 0.86990261 114.33539867 C2.29507503 123.09469092 12.64930963 130.37771966 18.63137722 136.33539867 C19.58827771 137.29201643 20.54495676 138.24885575 21.50143337 139.20589733 C24.07514986 141.77989843 26.65191779 144.35082437 29.22928214 146.92117214 C31.93100295 149.61660306 34.62985508 152.31490332 37.32902431 155.01288891 C42.43022483 160.11099263 47.53396701 165.20654385 52.63864762 170.30116272 C58.45447378 176.10577624 64.26742983 181.91326041 70.08015716 187.72097683 C82.02773498 199.65812769 93.97887766 211.59170317 105.93240261 223.52289867 C104.45768334 226.93953812 102.54862387 229.14765405 99.91569424 231.7599287 C98.65595036 233.01729336 98.65595036 233.01729336 97.3707571 234.30005932 C95.98600185 235.66695904 95.98600185 235.66695904 94.57327175 237.06147289 C93.59218399 238.03708346 92.61155887 239.01315943 91.63136196 239.98966503 C89.52137769 242.08994476 87.40837627 244.18712446 85.293046 246.28201962 C81.94666642 249.5965592 78.60848139 252.9192694 75.27162075 256.24338818 C66.98154709 264.4993896 58.68222892 272.7460814 50.37802029 280.98786449 C43.92523486 287.39216816 37.47568081 293.79964396 31.03662294 300.21775353 C27.72203164 303.52083763 24.40062364 306.81686019 21.0739032 310.10772586 C19.00292297 312.15947383 16.93826098 314.21749064 14.87528324 316.27728176 C13.46512093 317.68152787 12.04746253 319.07823378 10.62957668 320.4746809 C9.7869276 321.31856365 8.94427853 322.1624464 8.07609463 323.03190136 C6.97798757 324.12196389 6.97798757 324.12196389 5.85769653 325.23404789 C3.2706361 328.30962779 1.12832354 331.58506253 0.71755886 335.64789867 C1.6349781 341.8501696 3.80842938 345.77652068 8.74490261 349.83539867 C12.37849919 351.75906745 14.81930486 352.45073906 18.93240261 352.52289867 C24.06928165 350.70757363 27.2684222 348.68637086 31.16453457 344.78524303 C31.88192744 344.07509341 31.88192744 344.07509341 32.6138131 343.35059732 C34.20008704 341.7755171 35.7717611 340.18665985 37.34377956 338.59736156 C38.4835671 337.45972176 39.62422047 336.32294885 40.76566982 335.18697643 C43.85300963 332.10930419 46.9277482 329.01932171 50.00007176 325.92666841 C53.21963802 322.68949844 56.44978105 319.46291379 59.67854214 316.23491955 C65.09626129 310.8153294 70.50619005 305.38806111 75.91116238 299.95576 C82.16036384 293.67507824 88.41998674 287.40494067 94.68567973 281.14071375 C101.35911272 274.46863138 108.0249081 267.78895872 114.68847537 261.10702491 C116.60865695 259.18258078 118.5302561 257.25956185 120.45217228 255.33685017 C123.47008002 252.31693398 126.48283736 249.29197049 129.49167347 246.2630167 C130.59693244 245.15191501 131.70388896 244.042499 132.81265163 242.93489361 C134.32484596 241.42368061 135.8307501 239.90646627 137.33518887 238.38753796 C138.17967744 237.53969769 139.02416601 236.69185743 139.89424515 235.81832504 C143.10997239 232.19668872 144.23227731 229.47094315 144.30740261 224.64789867 C144.33576199 223.8254768 144.36412136 223.00305492 144.39334011 222.15571117 C143.40823165 216.5289052 139.07967026 212.41856639 135.17060757 208.49367809 C134.70660386 208.02514327 134.24260015 207.55660845 133.76453573 207.07387561 C132.22256756 205.51933874 130.67363376 203.97194509 129.12454128 202.42451 C128.01177169 201.30575063 126.89941153 200.18658389 125.78742886 199.06704235 C122.77562735 196.03762378 119.75741386 193.01467391 116.73743129 189.99341321 C114.84940236 188.10396019 112.96280573 186.21308917 111.07671452 184.321702 C104.49256758 177.71907209 97.90329404 171.12160913 91.3091116 164.52900219 C85.1685545 158.38964742 79.03924879 152.23921675 72.91509742 146.08350068 C67.64990901 140.79214689 62.37702384 135.50854719 57.09809762 130.23089904 C53.94824867 127.08155945 50.80156743 123.92920836 47.66258717 120.76903248 C44.71079092 117.79784852 41.74951105 114.83645343 38.78074741 111.88222599 C37.69493338 110.79850016 36.61250467 109.71136986 35.53380489 108.62056255 C34.05669972 107.12796135 32.5676797 105.64832195 31.07514858 104.17116833 C30.24612121 103.34105142 29.41709383 102.51093451 28.56294441 101.65566254 C21.66022004 96.05914205 13.46745402 94.70740395 6.36990261 100.88227367 Z M118.36990261 100.88227367 C114.58781495 105.24968443 112.96404289 108.59284142 112.86990261 114.33539867 C114.29507503 123.09469092 124.64930963 130.37771966 130.63137722 136.33539867 C131.58827771 137.29201643 132.54495676 138.24885575 133.50143337 139.20589733 C136.07514986 141.77989843 138.65191779 144.35082437 141.22928214 146.92117214 C143.93100295 149.61660306 146.62985508 152.31490332 149.32902431 155.01288891 C154.43022483 160.11099263 159.53396701 165.20654385 164.63864762 170.30116272 C170.45447378 176.10577624 176.26742983 181.91326041 182.08015716 187.72097683 C194.02773498 199.65812769 205.97887766 211.59170317 217.93240261 223.52289867 C216.45174861 226.9605867 214.51887649 229.17727533 211.87100124 231.8046217 C211.02131268 232.65272411 210.17162411 233.50082653 209.2961874 234.37462902 C208.36209545 235.29681728 207.4280035 236.21900555 206.46560574 237.16913891 C205.47304343 238.15622417 204.48094367 239.14377473 203.48927212 240.13175488 C201.35473103 242.25659154 199.21717242 244.37832878 197.07728481 246.4977808 C193.69337912 249.84985622 190.31765952 253.21009406 186.94326687 256.57174206 C178.56094207 264.91999093 170.16935267 273.25891057 161.77291775 281.59296703 C155.2468284 288.07060213 148.72395207 294.55139198 142.2115674 301.04280907 C138.85822281 304.38463294 135.49805432 307.71939183 132.13260555 311.04902351 C130.03983802 313.12258994 127.95335914 315.20239605 125.868577 317.283988 C124.44032344 318.70631073 123.00457437 320.12109426 121.56861782 321.53563976 C120.71892925 322.386562 119.86924068 323.23748425 118.99380398 324.11419201 C117.88325272 325.21669875 117.88325272 325.21669875 116.75026608 326.34147835 C113.6653902 330.04330253 112.90472248 332.6509746 113.05740261 337.46039867 C113.95955217 342.96662185 116.4812107 346.35563562 120.80740261 349.83539867 C125.46056764 352.34810779 128.22170203 352.92324999 133.40740871 351.70965099 C139.97655691 349.11250338 144.59349284 343.53185048 149.45730495 338.59736156 C150.59702551 337.45950677 151.73783288 336.32273969 152.87963772 335.18697643 C155.96505536 332.11150555 159.03472094 329.02074512 162.1014657 325.92666841 C165.31655207 322.68769949 168.5450741 319.46217457 171.77191067 316.23491955 C177.18528084 310.81692678 182.58906952 305.38952876 187.98660183 299.95576 C194.22697128 293.67360762 200.47938532 287.40365827 206.73902833 281.14071375 C213.40728532 274.46885802 220.06787911 267.78939606 226.7255969 261.10702491 C228.64370228 259.18269158 230.56310113 257.25965608 232.48273754 255.33685017 C235.49665842 252.31702995 238.50531746 249.2920611 241.50996685 246.2630167 C242.61361956 245.15192294 243.71896445 244.0425071 244.82610989 242.93489361 C246.3360668 241.42367914 247.83973114 239.90647066 249.34191799 238.38753796 C250.60670262 237.11577756 250.60670262 237.11577756 251.89703846 235.81832504 C255.10925275 232.19568023 256.23229755 229.46964348 256.30740261 224.64789867 C256.33576199 223.8254768 256.36412136 223.00305492 256.39334011 222.15571117 C255.40823165 216.5289052 251.07967026 212.41856639 247.17060757 208.49367809 C246.70660386 208.02514327 246.24260015 207.55660845 245.76453573 207.07387561 C244.22256756 205.51933874 242.67363376 203.97194509 241.12454128 202.42451 C240.01177169 201.30575063 238.89941153 200.18658389 237.78742886 199.06704235 C234.77562735 196.03762378 231.75741386 193.01467391 228.73743129 189.99341321 C226.84940236 188.10396019 224.96280573 186.21308917 223.07671452 184.321702 C216.49256758 177.71907209 209.90329404 171.12160913 203.3091116 164.52900219 C197.1685545 158.38964742 191.03924879 152.23921675 184.91509742 146.08350068 C179.64990901 140.79214689 174.37702384 135.50854719 169.09809762 130.23089904 C165.94824867 127.08155945 162.80156743 123.92920836 159.66258717 120.76903248 C156.71079092 117.79784852 153.74951105 114.83645343 150.78074741 111.88222599 C149.69493338 110.79850016 148.61250467 109.71136986 147.53380489 108.62056255 C146.05669972 107.12796135 144.5676797 105.64832195 143.07514858 104.17116833 C142.24612121 103.34105142 141.41709383 102.51093451 140.56294441 101.65566254 C133.66022004 96.05914205 125.46745402 94.70740395 118.36990261 100.88227367 Z " fill="#257BF9" transform="translate(127.06759738922119,31.47710132598877)"/>
</svg>
