<?xml version="1.0" encoding="UTF-8"?>
<svg version="1.1" xmlns="http://www.w3.org/2000/svg" width="512" height="512">
<path d="M0 0 C168.96 0 337.92 0 512 0 C512 168.96 512 337.92 512 512 C343.04 512 174.08 512 0 512 C0 343.04 0 174.08 0 0 Z " fill="#9ED3FC" transform="translate(0,0)"/>
<path d="M0 0 C0.70664313 -0.00085442 1.41328626 -0.00170885 2.14134282 -0.00258917 C4.50279846 -0.00423275 6.86418264 0.00125901 9.22563171 0.00672913 C10.92092894 0.00701127 12.61622628 0.00685274 14.31152344 0.00628662 C18.91026495 0.00599969 23.50898039 0.01187959 28.10771585 0.01886058 C32.91502008 0.02511146 37.7223249 0.02569929 42.52963257 0.02688599 C51.63137542 0.02999418 60.73310625 0.03820068 69.83484381 0.04823548 C80.19751792 0.05941249 90.5601926 0.06491107 100.92287123 0.06993091 C122.23823495 0.08038371 143.55358785 0.09797326 164.86894226 0.12025452 C162.88882056 2.10037621 161.5641226 2.80597654 159.05644226 3.93275452 C152.49947859 7.1578795 149.1112022 11.75152964 145.86894226 18.12025452 C144.78930001 21.43941788 144.73940719 24.52905813 144.73091125 28.00750732 C144.72273125 29.81370293 144.72273125 29.81370293 144.71438599 31.65638733 C144.71334366 32.97437317 144.71230133 34.29235901 144.71122742 35.65028381 C144.70655711 37.05497394 144.70141319 38.45966256 144.6958313 39.86434937 C144.68456203 42.88833155 144.6761221 45.91230395 144.66971207 48.93630028 C144.6590142 53.72363304 144.63876352 58.51089559 144.61659241 63.29818726 C144.55473165 76.91128818 144.50070368 90.52438509 144.46757507 104.1375885 C144.44919615 111.65692501 144.42021849 119.17614388 144.37957036 126.69539386 C144.35855364 130.67120311 144.34305071 134.64686445 144.34076309 138.62273216 C144.33860648 142.3665057 144.3226347 146.10997142 144.29637337 149.85365105 C144.28582278 151.87123283 144.28991819 153.88887484 144.29455566 155.90647888 C144.22086467 163.99920837 144.05881512 171.35449899 138.64581299 177.74473572 C137.85520981 178.45501923 137.06460663 179.16530273 136.25004578 179.89710999 C130.87419597 185.55285339 130.60311373 190.11120323 130.77128601 197.69056702 C130.76182449 198.85280792 130.75236298 200.01504883 130.74261475 201.21250916 C130.72216656 204.8914177 130.76330288 208.56659808 130.80644226 212.24525452 C130.80336498 214.75307535 130.79624396 217.26089469 130.78495789 219.76869202 C130.76619149 225.88663969 130.79785732 232.00272586 130.86894226 238.12025452 C131.52894226 238.12025452 132.18894226 238.12025452 132.86894226 238.12025452 C133.10999695 237.55435608 133.35105164 236.98845764 133.59941101 236.40541077 C135.12390746 233.66131716 136.95553178 231.76870089 139.18144226 229.55775452 C139.94070007 228.79334045 140.69995789 228.02892639 141.48222351 227.24134827 C146.19511919 223.05296471 149.50118287 221.59772804 155.72441101 221.83509827 C159.90464789 222.39094033 162.12685242 224.4583906 165.18144226 227.18275452 C167.60659357 231.4043142 167.3839573 235.35003323 166.86894226 240.12025452 C166.53894226 240.78025452 166.20894226 241.44025452 165.86894226 242.12025452 C181.70894226 242.61525452 181.70894226 242.61525452 197.86894226 243.12025452 C197.86894226 245.10025452 197.86894226 247.08025452 197.86894226 249.12025452 C177.73894226 249.45025452 157.60894226 249.78025452 136.86894226 250.12025452 C143.13894226 256.39025452 149.40894226 262.66025452 155.86894226 269.12025452 C155.53894226 270.44025452 155.20894226 271.76025452 154.86894226 273.12025452 C153.54894226 273.45025452 152.22894226 273.78025452 150.86894226 274.12025452 C144.59894226 267.85025452 138.32894226 261.58025452 131.86894226 255.12025452 C131.53894226 287.79025452 131.20894226 320.46025452 130.86894226 354.12025452 C128.88894226 354.12025452 126.90894226 354.12025452 124.86894226 354.12025452 C124.37394226 305.11525452 124.37394226 305.11525452 123.86894226 255.12025452 C117.26894226 261.72025452 110.66894226 268.32025452 103.86894226 275.12025452 C102.54894226 274.46025452 101.22894226 273.80025452 99.86894226 273.12025452 C99.86894226 263.17596526 111.83726789 257.15192889 118.86894226 250.12025452 C89.16894226 249.62525452 89.16894226 249.62525452 58.86894226 249.12025452 C58.86894226 247.14025452 58.86894226 245.16025452 58.86894226 243.12025452 C69.42894226 243.12025452 79.98894226 243.12025452 90.86894226 243.12025452 C90.20894226 241.80025452 89.54894226 240.48025452 88.86894226 239.12025452 C88.40615073 234.95513074 88.57915539 232.68868262 90.49394226 228.93275452 C94.02957437 224.74582176 96.84056696 222.37380143 102.36894226 221.68275452 C112.56488137 222.9572469 116.44629174 229.69760399 123.86894226 237.12025452 C124.19894226 220.95025452 124.52894226 204.78025452 124.86894226 188.12025452 C123.87894226 188.45025452 122.88894226 188.78025452 121.86894226 189.12025452 C112.45592978 190.06155577 105.51090306 188.16289284 98.05644226 182.37025452 C93.73248378 178.42752671 91.68982448 173.58290118 89.86894226 168.12025452 C89.75060574 165.42342748 89.68373246 162.74773062 89.65800476 160.04994202 C89.62991518 158.4145157 89.6012506 156.77909918 89.57206726 155.14369202 C89.53099442 152.57663978 89.49409215 150.0097662 89.46757507 147.44252014 C89.44079646 130.26514063 89.44079646 130.26514063 80.77128601 115.84681702 C74.53459255 110.1864094 68.05385412 108.69556283 59.82206726 108.77259827 C53.667267 109.49717131 48.86737647 112.5659168 44.05644226 116.30775452 C36.02572979 126.63295626 36.16249548 135.97705652 36.25712585 148.54798889 C36.25358079 150.51351425 36.24779875 152.47903664 36.23995972 154.44454956 C36.22781813 158.66193314 36.23120406 162.87891155 36.24679184 167.09628296 C36.27118256 173.77052637 36.25958338 180.44441766 36.24311829 187.1186676 C36.21866026 198.87915481 36.22441159 210.63948074 36.23692322 222.39997864 C36.25552473 240.10348652 36.25060672 257.80696356 36.21688902 275.51044893 C36.20540165 282.13953618 36.20977773 288.76836532 36.2269094 295.39743805 C36.23482834 299.52679123 36.23054255 303.6560699 36.22319984 307.78542137 C36.22239228 309.6937275 36.22670579 311.60204405 36.23664284 313.51032448 C36.35642455 337.69099327 36.35642455 337.69099327 27.01347351 347.20228577 C20.21690754 353.28081745 13.5777647 353.88846742 4.66191101 353.50697327 C-2.74426202 352.75186397 -7.34935017 349.80660946 -12.13105774 344.12025452 C-16.79822589 338.09127809 -17.20690583 335.43762173 -18.13105774 327.12025452 C-57.73105774 327.12025452 -97.33105774 327.12025452 -138.13105774 327.12025452 C-138.25196684 278.33119254 -138.25196684 278.33119254 -138.27754211 257.88783264 C-138.29534366 243.77166983 -138.31627223 229.65556073 -138.3573761 215.53944397 C-138.3872974 205.25879896 -138.40663726 194.97819753 -138.41332322 184.69751018 C-138.41723083 179.25502721 -138.42640147 173.81266889 -138.44824791 168.37022591 C-138.4686561 163.2444065 -138.47488274 158.11876275 -138.47038078 152.99290657 C-138.47120404 151.11482284 -138.47714378 149.23673305 -138.48867416 147.35868454 C-138.50368623 144.7867309 -138.49997986 142.2154332 -138.49182129 139.64346313 C-138.50055981 138.90705284 -138.50929834 138.17064255 -138.51830167 137.41191679 C-138.4418325 128.44189122 -135.39881161 120.57070076 -129.13105774 114.12025452 C-122.2644994 108.69432705 -116.30090852 107.96725449 -107.66889954 108.00672913 C-106.40959373 108.00651009 -106.40959373 108.00651009 -105.12484741 108.00628662 C-102.35996382 108.00698126 -99.59514826 108.01475263 -96.83027649 108.02259827 C-94.90928179 108.02446404 -92.98828661 108.02588719 -91.06729126 108.02688599 C-86.01864807 108.03069861 -80.97003378 108.04051819 -75.92140198 108.05158997 C-70.76668183 108.06183106 -65.61195701 108.06638939 -60.45722961 108.07142639 C-50.34849093 108.08214158 -40.23978127 108.09972823 -30.13105774 108.12025452 C-30.13105774 99.54025452 -30.13105774 90.96025452 -30.13105774 82.12025452 C0.88894226 82.12025452 31.90894226 82.12025452 63.86894226 82.12025452 C63.86894226 72.55025452 63.86894226 62.98025452 63.86894226 53.12025452 C32.84894226 53.12025452 1.82894226 53.12025452 -30.13105774 53.12025452 C-30.13105774 16.84752724 -30.13105774 16.84752724 -21.69355774 7.18275452 C-15.12845766 1.13033036 -8.68525164 -0.00633498 0 0 Z " fill="#FEFEFE" transform="translate(253.1310577392578,78.87974548339844)"/>
<path d="M0 0 C7.11794016 4.22012263 13.38436469 10.18729238 15.55932617 18.36230469 C16.10775661 22.05530498 16.13180842 25.71293274 16.15234375 29.4375 C16.1755487 31.06641908 16.19966631 32.69532536 16.22460938 34.32421875 C16.25961221 36.86938994 16.28902131 39.41409075 16.30249023 41.95947266 C16.12436114 55.15274247 16.12436114 55.15274247 20.9765625 67.171875 C21.33435791 67.73592041 21.69215332 68.29996582 22.06079102 68.88110352 C25.80880887 74.03570734 31.11928218 76.21944823 36.9765625 78.171875 C41.5965625 78.171875 46.2165625 78.171875 50.9765625 78.171875 C50.9765625 94.671875 50.9765625 111.171875 50.9765625 128.171875 C43.31747159 121.60693994 43.31747159 121.60693994 40.3515625 118.421875 C36.58540297 114.63060774 33.89253092 113.38088974 28.5390625 112.796875 C23.30059458 113.34829268 20.38552695 115.43415218 17.1015625 119.484375 C15.11406022 124.23229711 15.75304144 128.27779074 16.9765625 133.171875 C6.0865625 133.171875 -4.8034375 133.171875 -16.0234375 133.171875 C-16.0234375 115.351875 -16.0234375 97.531875 -16.0234375 79.171875 C-23.2834375 79.171875 -30.5434375 79.171875 -38.0234375 79.171875 C-38.15980544 71.55625011 -38.26953187 63.94109009 -38.33431053 56.32453537 C-38.36542545 52.78652799 -38.40752289 49.24940982 -38.47607422 45.71191406 C-38.55465189 41.63078016 -38.58301837 37.55055791 -38.609375 33.46875 C-38.64034271 32.21825867 -38.67131042 30.96776733 -38.70321655 29.67938232 C-38.70649657 20.99170346 -36.93948133 14.41586466 -32.0234375 7.171875 C-29.53841459 4.69707546 -27.08017361 2.88005106 -24.0234375 1.171875 C-22.38375 0.24375 -22.38375 0.24375 -20.7109375 -0.703125 C-13.91722704 -2.77578243 -6.59520522 -2.8769208 0 0 Z " fill="#599BD4" transform="translate(327.0234375,188.828125)"/>
<path d="M0 0 C20.46 0 40.92 0 62 0 C62 34.65 62 69.3 62 105 C39.89 105 17.78 105 -5 105 C-5 72 -5 39 -5 5 C2.8285373 11.71017483 2.8285373 11.71017483 5.38671875 14.46484375 C5.93263672 15.03654297 6.47855469 15.60824219 7.04101562 16.19726562 C8.15788039 17.37772411 9.26704401 18.56550762 10.36914062 19.75976562 C12.16395117 21.67994431 12.16395117 21.67994431 15 24 C17.1577032 23.73473985 17.1577032 23.73473985 19 23 C18.44484933 19.12050863 16.7333485 17.39392542 13.96484375 14.70703125 C13.15595703 13.91232422 12.34707031 13.11761719 11.51367188 12.29882812 C10.66353516 11.47833984 9.81339844 10.65785156 8.9375 9.8125 C7.25711125 8.17523066 5.57861319 6.53601777 3.90234375 4.89453125 C3.15460693 4.17112549 2.40687012 3.44771973 1.63647461 2.70239258 C0 1 0 1 0 0 Z " fill="#5A9BD4" transform="translate(389,328)"/>
<path d="M0 0 C20.46 0 40.92 0 62 0 C55.25 7.875 55.25 7.875 52.3515625 10.74609375 C51.73925781 11.35517578 51.12695312 11.96425781 50.49609375 12.59179688 C49.87863281 13.20087891 49.26117188 13.80996094 48.625 14.4375 C47.66400391 15.39172852 47.66400391 15.39172852 46.68359375 16.36523438 C45.12469121 17.91250332 43.56348584 19.45736492 42 21 C42.66 22.32 43.32 23.64 44 25 C47.46520777 23.51581824 49.66833685 21.5526273 52.29296875 18.8671875 C53.08767578 18.06152344 53.88238281 17.25585938 54.70117188 16.42578125 C55.9319043 15.16314453 55.9319043 15.16314453 57.1875 13.875 C58.8246563 12.20360418 60.463863 10.53421339 62.10546875 8.8671875 C63.19057739 7.75512939 63.19057739 7.75512939 64.29760742 6.62060547 C66 5 66 5 67 5 C67 38 67 71 67 105 C44.89 105 22.78 105 0 105 C0 70.35 0 35.7 0 0 Z " fill="#5A9BD4" transform="translate(311,328)"/>
<path d="M0 0 C17.82 0 35.64 0 54 0 C54 34.65 54 69.3 54 105 C43.11 105 32.22 105 21 105 C21.495 103.515 21.495 103.515 22 102 C22.49337356 97.90499947 22.92942693 93.79426049 20.98828125 90.046875 C18.35743832 86.79189816 16.15365889 85.33557998 12.01953125 84.69140625 C6.31127502 84.35800367 3.2781695 85.53497623 -1.07421875 89.20703125 C-6.70988548 94.06500778 -6.70988548 94.06500778 -11 100 C-11.66 100 -12.32 100 -13 100 C-13.17785722 92.5805251 -13.30022885 85.16160202 -13.38452148 77.74047852 C-13.41966882 75.21748308 -13.46739722 72.69462967 -13.52807617 70.17211914 C-13.6132391 66.54017067 -13.65274792 62.91011037 -13.68359375 59.27734375 C-13.71972275 58.15416245 -13.75585175 57.03098114 -13.79307556 55.87376404 C-13.79692482 48.15241107 -13.79692482 48.15241107 -11.45877075 44.77127075 C-9.71940836 43.03730582 -7.9172598 41.52969808 -6 40 C-0.21660787 32.02290741 -0.60542235 23.03766367 -0.375 13.5625 C-0.25125 9.086875 -0.1275 4.61125 0 0 Z " fill="#5A9BD4" transform="translate(397,217)"/>
<path d="M0 0 C57.42 0 114.84 0 174 0 C174 8.91 174 17.82 174 27 C116.58 27 59.16 27 0 27 C0 18.09 0 9.18 0 0 Z " fill="#599BD4" transform="translate(143,133)"/>
<path d="M0 0 C57.09 0 114.18 0 173 0 C173.99 4.455 173.99 4.455 175 9 C176.1852499 11.512587 176.1852499 11.512587 177.625 13.4375 C180 16.83526012 180 16.83526012 180 19 C180.55171875 19.27585937 181.1034375 19.55171875 181.671875 19.8359375 C187.8359375 22.91796875 187.8359375 22.91796875 194 26 C194 26.33 194 26.66 194 27 C171.59907863 27.09350854 149.19818952 27.1640112 126.79711246 27.20724869 C116.39551831 27.22785967 105.99404554 27.25595233 95.5925293 27.30175781 C86.52485126 27.34167034 77.45726114 27.36744346 68.3894977 27.37635398 C63.58970944 27.38156123 58.79017269 27.39376972 53.99046516 27.42292023 C49.46868979 27.4501591 44.94726849 27.45842792 40.42541885 27.45243073 C38.76985815 27.45352718 37.11428507 27.46143054 35.45879555 27.4768219 C23.47669688 27.58271584 14.75343818 26.33032811 5.73046875 17.84765625 C0.21852058 11.96243845 0 8.6614593 0 0 Z " fill="#5A9BD4" transform="translate(62,406)"/>
<path d="M0 0 C5.48236777 3.83960154 10.27017908 8.34246555 12 15 C12 17.64 12 20.28 12 23 C-5.49 23 -22.98 23 -41 23 C-39.99432223 13.94890005 -38.73590222 8.16862536 -31.84765625 2.10546875 C-21.67905409 -5.0386261 -10.77055213 -6.47378931 0 0 Z " fill="#5A9BD4" transform="translate(438,83)"/>
<path d="M0 0 C30.36 0 60.72 0 92 0 C92 2.64 92 5.28 92 8 C61.64 8 31.28 8 0 8 C0 5.36 0 2.72 0 0 Z " fill="#A3D5FD" transform="translate(172,361)"/>
<path d="M0 0 C30.36 0 60.72 0 92 0 C92 2.64 92 5.28 92 8 C61.64 8 31.28 8 0 8 C0 5.36 0 2.72 0 0 Z " fill="#A2D5FD" transform="translate(172,298)"/>
<path d="M0 0 C30.36 0 60.72 0 92 0 C92 2.64 92 5.28 92 8 C61.64 8 31.28 8 0 8 C0 5.36 0 2.72 0 0 Z " fill="#A4D6FD" transform="translate(172,266)"/>
<path d="M0 0 C30.36 0 60.72 0 92 0 C92 2.64 92 5.28 92 8 C61.64 8 31.28 8 0 8 C0 5.36 0 2.72 0 0 Z " fill="#A1D5FD" transform="translate(172,235)"/>
<path d="M0 0 C30.03 0 60.06 0 91 0 C91 2.31 91 4.62 91 7 C60.97 7 30.94 7 0 7 C0 4.69 0 2.38 0 0 Z " fill="#9FD4FD" transform="translate(172,330)"/>
<path d="M0 0 C7.92 0 15.84 0 24 0 C24 7.92 24 15.84 24 24 C16.08 24 8.16 24 0 24 C0 16.08 0 8.16 0 0 Z " fill="#F17579" transform="translate(140,361)"/>
<path d="M0 0 C7.92 0 15.84 0 24 0 C24 7.92 24 15.84 24 24 C16.08 24 8.16 24 0 24 C0 16.08 0 8.16 0 0 Z " fill="#F17579" transform="translate(140,298)"/>
<path d="M0 0 C7.92 0 15.84 0 24 0 C24 7.92 24 15.84 24 24 C16.08 24 8.16 24 0 24 C0 16.08 0 8.16 0 0 Z " fill="#F17579" transform="translate(140,235)"/>
<path d="M0 0 C7.59 0 15.18 0 23 0 C23 7.59 23 15.18 23 23 C15.41 23 7.82 23 0 23 C0 15.41 0 7.82 0 0 Z " fill="#F17175" transform="translate(141,330)"/>
<path d="M0 0 C7.59 0 15.18 0 23 0 C23 7.59 23 15.18 23 23 C15.41 23 7.82 23 0 23 C0 15.41 0 7.82 0 0 Z " fill="#F17074" transform="translate(141,267)"/>
<path d="M0 0 C11.68421053 0 11.68421053 0 16 4 C18.91803293 8.3770494 19.64048309 11.78463771 19 17 C17.62712495 20.5798086 15.72657977 23.33753021 12.875 25.9375 C10 27 10 27 0 27 C0 18.09 0 9.18 0 0 Z " fill="#F17275" transform="translate(324,133)"/>
<path d="M0 0 C15.18 0 30.36 0 46 0 C46 2.64 46 5.28 46 8 C30.82 8 15.64 8 0 8 C0 5.36 0 2.72 0 0 Z " fill="#A3D5FD" transform="translate(172,377)"/>
<path d="M0 0 C15.18 0 30.36 0 46 0 C46 2.64 46 5.28 46 8 C30.82 8 15.64 8 0 8 C0 5.36 0 2.72 0 0 Z " fill="#A3D5FD" transform="translate(172,314)"/>
<path d="M0 0 C15.18 0 30.36 0 46 0 C46 2.64 46 5.28 46 8 C30.82 8 15.64 8 0 8 C0 5.36 0 2.72 0 0 Z " fill="#A2D5FD" transform="translate(172,282)"/>
<path d="M0 0 C15.18 0 30.36 0 46 0 C46 2.64 46 5.28 46 8 C30.82 8 15.64 8 0 8 C0 5.36 0 2.72 0 0 Z " fill="#A3D5FD" transform="translate(172,251)"/>
<path d="M0 0 C0 8.91 0 17.82 0 27 C-4.46691855 25.51102715 -7.85400102 24.13068235 -11.875 21.875 C-12.84179688 21.33617187 -13.80859375 20.79734375 -14.8046875 20.2421875 C-15.52914062 19.83226562 -16.25359375 19.42234375 -17 19 C-17 15.37 -17 11.74 -17 8 C-14.54429825 6.66161267 -12.08570084 5.32913768 -9.625 4 C-8.92632812 3.6184375 -8.22765625 3.236875 -7.5078125 2.84375 C-2.2265625 0 -2.2265625 0 0 0 Z " fill="#FDFEFE" transform="translate(142,133)"/>
<path d="M0 0 C15.18 0 30.36 0 46 0 C46 2.31 46 4.62 46 7 C30.82 7 15.64 7 0 7 C0 4.69 0 2.38 0 0 Z " fill="#9FD4FD" transform="translate(172,346)"/>
<path d="M0 0 C3.79533373 0.87584625 5.14596071 1.46769871 7.25 4.75 C7.8125 8.25 7.8125 8.25 7.25 11.75 C5.06219527 14.29942535 3.33613572 15.59962804 -0.03540039 16.06640625 C-2.72205323 16.14375661 -5.37664758 16.0987027 -8.0625 16 C-8.99384766 15.98195313 -9.92519531 15.96390625 -10.88476562 15.9453125 C-13.17424197 15.89834888 -15.46158184 15.83269475 -17.75 15.75 C-15.75459798 13.41269504 -13.75363299 11.08025177 -11.75 8.75 C-10.71552734 7.54537109 -10.71552734 7.54537109 -9.66015625 6.31640625 C-4.70363289 0.94072658 -4.70363289 0.94072658 0 0 Z " fill="#5F9ED5" transform="translate(406.75,306.25)"/>
<path d="M0 0 C2.84841901 1.97314862 5.10055085 4.39282204 7.4375 6.9375 C8.07365234 7.59685547 8.70980469 8.25621094 9.36523438 8.93554688 C14 13.7893562 14 13.7893562 14 15 C10.77131254 15.14584064 7.54347635 15.23424106 4.3125 15.3125 C2.94448242 15.3753418 2.94448242 15.3753418 1.54882812 15.43945312 C-3.1117279 15.52419051 -5.27699239 15.5413474 -9.109375 12.671875 C-11 10 -11 10 -11.5625 6.9375 C-11 4 -11 4 -9.4375 1.625 C-5.97204982 -0.68530012 -4.12128475 -0.57850001 0 0 Z " fill="#5E9ED5" transform="translate(359,307)"/>
<path d="M0 0 C2.64 0 5.28 0 8 0 C8 2.64 8 5.28 8 8 C5.36 8 2.72 8 0 8 C0 5.36 0 2.72 0 0 Z " fill="#FEF6F6" transform="translate(148,369)"/>
<path d="M0 0 C2.64 0 5.28 0 8 0 C8 2.64 8 5.28 8 8 C5.36 8 2.72 8 0 8 C0 5.36 0 2.72 0 0 Z " fill="#FEF6F6" transform="translate(148,306)"/>
<path d="M0 0 C2.64 0 5.28 0 8 0 C8 2.64 8 5.28 8 8 C5.36 8 2.72 8 0 8 C0 5.36 0 2.72 0 0 Z " fill="#FDF2F2" transform="translate(148,274)"/>
<path d="M0 0 C2.64 0 5.28 0 8 0 C8 2.64 8 5.28 8 8 C5.36 8 2.72 8 0 8 C0 5.36 0 2.72 0 0 Z " fill="#FEF6F6" transform="translate(148,243)"/>
<path d="M0 0 C2.64 0 5.28 0 8 0 C8 2.31 8 4.62 8 7 C5.36 7 2.72 7 0 7 C0 4.69 0 2.38 0 0 Z " fill="#FEFAFA" transform="translate(148,338)"/>
<path d="M0 0 C0 2.97 0 5.94 0 9 C-2.64 7.68 -5.28 6.36 -8 5 C-3 0 -3 0 0 0 Z " fill="#5D9ED6" transform="translate(124,142)"/>
</svg>
