<?xml version="1.0" encoding="UTF-8"?>
<svg version="1.1" xmlns="http://www.w3.org/2000/svg" width="512" height="512">
<path d="M0 0 C1.66650123 -0.00417737 3.33299962 -0.0096571 4.99949276 -0.01631981 C9.56002483 -0.03074021 14.12037566 -0.02654036 18.6809175 -0.019153 C23.60673313 -0.01441519 28.53250989 -0.02693661 33.45831299 -0.03717041 C43.10107973 -0.05435176 52.74378128 -0.05519978 62.38655935 -0.04995751 C70.2256606 -0.04591331 78.0647426 -0.04736233 85.90384293 -0.05270576 C87.02026929 -0.05345419 88.13669566 -0.05420261 89.28695313 -0.05497371 C91.55509702 -0.05650521 93.8232409 -0.05804356 96.09138478 -0.05958868 C117.35360282 -0.07331134 138.61578404 -0.06787769 159.87800123 -0.05640347 C179.32060689 -0.04647151 198.76311738 -0.05941156 218.20570837 -0.08333766 C238.180192 -0.10773269 258.1546313 -0.11733552 278.12912953 -0.11068493 C289.33896154 -0.1071936 300.54872037 -0.10941917 311.75854111 -0.12693596 C321.30124082 -0.14166296 330.84381581 -0.1422868 340.3865131 -0.12486505 C345.25283767 -0.11635682 350.11893947 -0.11420126 354.98525238 -0.1295166 C359.44514624 -0.1433788 363.9046268 -0.13858086 368.36449684 -0.11927737 C369.97274415 -0.11552175 371.58102469 -0.11842662 373.18924235 -0.12888902 C389.33094222 -0.22638378 401.28494306 3.56126497 413.290802 14.70018005 C424.38990492 26.42753408 425.9918486 39.34804006 425.92848206 54.84687805 C425.93265943 56.51337928 425.93813916 58.17987767 425.94480187 59.84637082 C425.95922226 64.40690288 425.95502242 68.96725371 425.94763505 73.52779555 C425.94289724 78.45361118 425.95541867 83.37938794 425.96565247 88.30519104 C425.98283381 97.94795778 425.98368184 107.59065933 425.97843956 117.2334374 C425.97439537 125.07253865 425.97584439 132.91162065 425.98118782 140.75072098 C425.98193624 141.86714734 425.98268466 142.98357371 425.98345577 144.13383118 C425.98498727 146.40197507 425.98652562 148.67011895 425.98807073 150.93826284 C426.00179339 172.20048087 425.99635974 193.46266209 425.98488552 214.72487928 C425.97495356 234.16748494 425.98789361 253.60999544 426.01181971 273.05258642 C426.03621475 293.02707005 426.04581757 313.00150936 426.03916699 332.97600758 C426.03567565 344.18583959 426.03790122 355.39559842 426.05541801 366.60541916 C426.07014502 376.14811888 426.07076886 385.69069387 426.0533471 395.23339115 C426.04483888 400.09971572 426.04268331 404.96581752 426.05799866 409.83213043 C426.07186086 414.29202429 426.06706291 418.75150485 426.04775942 423.21137489 C426.04400381 424.8196222 426.04690868 426.42790274 426.05737107 428.0361204 C426.15486584 444.17782028 422.36721708 456.13182111 411.228302 468.13768005 C399.50094798 479.23678297 386.580442 480.83872665 371.081604 480.77536011 C369.41510277 480.77953748 367.74860439 480.78501721 366.08211124 480.79167992 C361.52157917 480.80610032 356.96122835 480.80190047 352.4006865 480.79451311 C347.47487088 480.7897753 342.54909411 480.80229672 337.62329102 480.81253052 C327.98052428 480.82971186 318.33782272 480.83055989 308.69504465 480.82531761 C300.85594341 480.82127342 293.0168614 480.82272244 285.17776108 480.82806587 C284.06133471 480.82881429 282.94490834 480.82956272 281.79465088 480.83033382 C279.52650699 480.83186532 277.2583631 480.83340367 274.99021922 480.83494879 C253.72800119 480.84867144 232.46581997 480.84323779 211.20360278 480.83176357 C191.76099711 480.82183161 172.31848662 480.83477167 152.87589563 480.85869776 C132.90141201 480.8830928 112.9269727 480.89269562 92.95247447 480.88604504 C81.74264246 480.8825537 70.53288363 480.88477928 59.3230629 480.90229607 C49.78036318 480.91702307 40.23778819 480.91764691 30.6950909 480.90022516 C25.82876634 480.89171693 20.96266453 480.88956136 16.09635162 480.90487671 C11.63645777 480.91873891 7.17697721 480.91394096 2.71710716 480.89463747 C1.10885985 480.89088186 -0.49942068 480.89378673 -2.10763834 480.90424912 C-18.24933822 481.00174389 -30.20333905 477.21409513 -42.209198 466.07518005 C-53.30830091 454.34782603 -54.91024459 441.42732005 -54.84687805 425.92848206 C-54.85105543 424.26198082 -54.85653515 422.59548244 -54.86319786 420.92898929 C-54.87761826 416.36845722 -54.87341841 411.8081064 -54.86603105 407.24756455 C-54.86129324 402.32174893 -54.87381466 397.39597216 -54.88404846 392.47016907 C-54.90122981 382.82740233 -54.90207784 373.18470077 -54.89683556 363.5419227 C-54.89279137 355.70282146 -54.89424038 347.86373946 -54.89958382 340.02463913 C-54.90033224 338.90821276 -54.90108066 337.7917864 -54.90185176 336.64152893 C-54.90338327 334.37338504 -54.90492161 332.10524115 -54.90646673 329.83709727 C-54.92018939 308.57487924 -54.91475574 287.31269802 -54.90328152 266.05048083 C-54.89334956 246.60787516 -54.90628961 227.16536467 -54.93021571 207.72277369 C-54.95461074 187.74829006 -54.96421357 167.77385075 -54.95756298 147.79935253 C-54.95407165 136.58952051 -54.95629722 125.37976169 -54.97381401 114.16994095 C-54.98854101 104.62724123 -54.98916485 95.08466624 -54.9717431 85.54196896 C-54.96323487 80.67564439 -54.96107931 75.80954259 -54.97639465 70.94322968 C-54.99025686 66.48333582 -54.98545891 62.02385526 -54.96615542 57.56398521 C-54.96239981 55.95573791 -54.96530467 54.34745737 -54.97576707 52.73923971 C-55.07326183 36.59753983 -51.28561308 24.643539 -40.146698 12.63768005 C-28.41934397 1.53857714 -15.49883799 -0.06336654 0 0 Z M108.540802 159.38768005 C107.92720825 159.91619568 107.3136145 160.4447113 106.681427 160.98924255 C92.38024158 174.26891473 82.72457103 192.81250769 77.540802 211.38768005 C77.2211145 212.46275818 76.901427 213.5378363 76.572052 214.64549255 C69.47085816 242.98451614 75.09784155 273.52233118 89.85720825 298.3837738 C106.08947918 324.43979928 131.92381497 342.86361301 161.77713013 349.94456482 C191.53782267 355.98738541 222.02499268 350.16925255 247.353302 333.63768005 C272.71147573 316.32481674 289.54149526 290.28029599 295.6579895 260.25486755 C300.90577177 229.75000016 293.64072468 199.54720377 276.02859497 174.37547302 C256.98027112 148.92561205 229.46041756 133.86635282 198.36843872 129.05125427 C164.90683532 124.72188116 133.44337548 137.69581573 108.540802 159.38768005 Z " fill="#FFC106" transform="translate(70.45919799804688,15.612319946289063)"/>
<path d="M0 0 C1.27922927 1.07340623 2.55013137 2.15681479 3.8125 3.25 C4.60527344 3.84683594 5.39804687 4.44367188 6.21484375 5.05859375 C15.93504199 13.25864069 22.35794315 24.51012742 26.8125 36.25 C27.245625 37.36117187 27.67875 38.47234375 28.125 39.6171875 C34.65578831 59.61772671 32.0564283 81.98347413 23 100.625 C18.77632191 108.8801468 13.62131356 115.91621995 6.8125 122.25 C5.82056641 123.24966797 5.82056641 123.24966797 4.80859375 124.26953125 C-12.07577368 140.59757686 -32.85098127 144.79710753 -55.640625 144.51953125 C-72.93778857 144.02048006 -89.18371204 136.51101226 -102.1875 125.25 C-103.37666016 124.35474609 -103.37666016 124.35474609 -104.58984375 123.44140625 C-114.31004199 115.24135931 -120.73294315 103.98987258 -125.1875 92.25 C-125.620625 91.13882813 -126.05375 90.02765625 -126.5 88.8828125 C-133.03099719 68.8816336 -130.43072972 46.5172456 -121.375 27.875 C-118.26497734 21.78995216 -114.68877268 16.40876195 -110.1875 11.25 C-109.02927734 9.79787109 -109.02927734 9.79787109 -107.84765625 8.31640625 C-99.83367411 -1.28413081 -88.67753866 -7.32843272 -77.1875 -11.75 C-76.07503906 -12.18441406 -74.96257812 -12.61882812 -73.81640625 -13.06640625 C-49.10163881 -21.1176415 -20.46360477 -15.78039174 0 0 Z " fill="#FFC106" transform="translate(305.1875,191.75)"/>
</svg>
