<?xml version="1.0" encoding="UTF-8"?>
<svg version="1.1" xmlns="http://www.w3.org/2000/svg" width="512" height="512">
<path d="M0 0 C1.40210271 -0.004182 2.80420204 -0.00966423 4.20629519 -0.01631981 C8.02682751 -0.03067989 11.84714237 -0.02655953 15.6676861 -0.019153 C19.80074523 -0.01440002 23.93375874 -0.02694997 28.06680298 -0.03717041 C36.15152782 -0.05432264 44.23617481 -0.0552058 52.32091311 -0.04995751 C58.89611649 -0.04590762 65.47129696 -0.04736908 72.04649925 -0.05270576 C73.4529984 -0.0538284 73.4529984 -0.0538284 74.88791167 -0.05497371 C76.7931073 -0.05650527 78.69830292 -0.05804362 80.60349854 -0.05958868 C98.45031104 -0.07330098 116.29707964 -0.06788514 134.14389112 -0.05640347 C150.44808467 -0.04647416 166.75216469 -0.05940879 183.05634073 -0.08333766 C199.82279885 -0.10775839 216.58920415 -0.11732911 233.35567969 -0.11068493 C242.7586155 -0.10719909 252.16146406 -0.10938261 261.56438637 -0.12693596 C269.56948627 -0.14169525 277.57443747 -0.14224494 285.57953457 -0.12486505 C289.65843107 -0.11638293 293.73706236 -0.11413662 297.81594467 -0.1295166 C301.55982895 -0.14345785 305.30322316 -0.13848126 309.04707976 -0.11927737 C311.02173903 -0.11379642 312.99642385 -0.12770977 314.97103435 -0.14263147 C326.90553883 -0.04557581 338.4525009 2.51246223 349.06266785 8.13768005 C349.72653503 8.48057068 350.39040222 8.8234613 351.0743866 9.17674255 C356.86899486 12.26569715 361.90259628 15.95210824 366.75016785 20.38768005 C367.43208191 20.97807068 368.11399597 21.5684613 368.8165741 22.17674255 C381.65929085 33.98902606 390.56511661 52.37139504 392.03094947 69.70864642 C392.13694771 73.35456654 392.1550042 76.99008109 392.1378479 80.63751221 C392.1420299 82.03961492 392.14751213 83.44171425 392.15416771 84.8438074 C392.16852779 88.66433971 392.16440743 92.48465457 392.1570009 96.30519831 C392.15224792 100.43825744 392.16479787 104.57127095 392.17501831 108.70431519 C392.19217054 116.78904002 392.1930537 124.87368702 392.18780541 132.95842532 C392.18375552 139.5336287 392.18521698 146.10880917 392.19055367 152.68401146 C392.19130209 153.62167756 392.19205051 154.55934366 392.19282161 155.52542388 C392.19435317 157.43061951 392.19589152 159.33581513 392.19743658 161.24101075 C392.21114888 179.08782324 392.20573304 196.93459184 392.19425137 214.78140333 C392.18432206 231.08559688 392.19725669 247.3896769 392.22118556 263.69385294 C392.24560629 280.46031106 392.25517702 297.22671636 392.24853283 313.9931919 C392.24504699 323.39612771 392.24723051 332.79897627 392.26478386 342.20189857 C392.27954315 350.20699848 392.28009284 358.21194967 392.26271295 366.21704677 C392.25423083 370.29594328 392.25198452 374.37457456 392.2673645 378.45345688 C392.28130575 382.19734116 392.27632916 385.94073537 392.25712527 389.68459197 C392.25164432 391.65925124 392.26555767 393.63393606 392.28047937 395.60854656 C392.18342371 407.54305104 389.62538567 419.0900131 384.00016785 429.70018005 C383.48583191 430.69598083 383.48583191 430.69598083 382.96110535 431.7118988 C379.87215075 437.50650707 376.18573966 442.54010849 371.75016785 447.38768005 C371.15977722 448.06959412 370.5693866 448.75150818 369.96110535 449.4540863 C358.14882184 462.29680306 339.76645286 471.20262881 322.42920148 472.66846168 C318.78328136 472.77445992 315.14776682 472.7925164 311.50033569 472.77536011 C310.09823298 472.77954211 308.69613366 472.78502434 307.2940405 472.79167992 C303.47350819 472.80604 299.65319333 472.80191964 295.83264959 472.79451311 C291.69959046 472.78976013 287.56657696 472.80231008 283.43353271 472.81253052 C275.34880788 472.82968275 267.26416088 472.83056591 259.17942258 472.82531761 C252.6042192 472.82126772 246.02903873 472.82272918 239.45383644 472.82806587 C238.51617034 472.82881429 237.57850424 472.82956272 236.61242402 472.83033382 C234.70722839 472.83186538 232.80203277 472.83340373 230.89683715 472.83494879 C213.05002466 472.84866109 195.20325606 472.84324525 177.35644457 472.83176357 C161.05225102 472.82183427 144.74817101 472.8347689 128.44399496 472.85869776 C111.67753684 472.8831185 94.91113154 472.89268922 78.144656 472.88604504 C68.74172019 472.8825592 59.33887163 472.88474272 49.93594933 472.90229607 C41.93084942 472.91705536 33.92589823 472.91760505 25.92080113 472.90022516 C21.84190462 472.89174304 17.76327334 472.88949673 13.68439102 472.90487671 C9.94050674 472.91881796 6.19711253 472.91384137 2.45325593 472.89463747 C0.47859666 472.88915653 -1.49608816 472.90306988 -3.47069865 472.91799158 C-15.40520314 472.82093592 -26.9521652 470.26289788 -37.56233215 464.63768005 C-38.22619934 464.29478943 -38.89006653 463.9518988 -39.5740509 463.59861755 C-45.36865917 460.50966295 -50.40226059 456.82325186 -55.24983215 452.38768005 C-56.27270325 451.50209412 -56.27270325 451.50209412 -57.3162384 450.59861755 C-70.15895516 438.78633404 -79.06478091 420.40396507 -80.53061378 403.06671369 C-80.63661202 399.42079357 -80.6546685 395.78527902 -80.63751221 392.1378479 C-80.6416942 390.73574519 -80.64717644 389.33364586 -80.65383202 387.93155271 C-80.6681921 384.1110204 -80.66407174 380.29070553 -80.65666521 376.4701618 C-80.65191222 372.33710267 -80.66446218 368.20408916 -80.67468262 364.07104492 C-80.69183485 355.98632008 -80.69271801 347.90167309 -80.68746971 339.81693479 C-80.68341982 333.24173141 -80.68488128 326.66655094 -80.69021797 320.09134865 C-80.69096639 319.15368255 -80.69171482 318.21601645 -80.69248592 317.24993623 C-80.69401748 315.3447406 -80.69555583 313.43954498 -80.69710089 311.53434936 C-80.71081319 293.68753686 -80.70539735 275.84076826 -80.69391567 257.99395678 C-80.68398637 241.68976323 -80.696921 225.38568321 -80.72084986 209.08150717 C-80.7452706 192.31504905 -80.75484132 175.54864375 -80.74819714 158.78216821 C-80.7447113 149.3792324 -80.74689482 139.97638384 -80.76444817 130.57346153 C-80.77920745 122.56836163 -80.77975715 114.56341043 -80.76237725 106.55831333 C-80.75389514 102.47941683 -80.75164883 98.40078554 -80.76702881 94.32190323 C-80.78097006 90.57801895 -80.77599347 86.83462474 -80.75678957 83.09076814 C-80.75130863 81.11610887 -80.76522197 79.14142405 -80.78014368 77.16681355 C-80.68308802 65.23230907 -78.12504998 53.685347 -72.49983215 43.07518005 C-72.15694153 42.41131287 -71.8140509 41.74744568 -71.46076965 41.0634613 C-68.37181505 35.26885304 -64.68540396 30.23525162 -60.24983215 25.38768005 C-59.65944153 24.70576599 -59.0690509 24.02385193 -58.46076965 23.3212738 C-43.42319711 6.97191302 -21.67887712 -0.10197019 0 0 Z " fill="#FF6B6B" transform="translate(100.24983215332031,19.612319946289063)"/>
<path d="M0 0 C1.09813538 0.00669217 1.09813538 0.00669217 2.21845531 0.01351953 C3.38271431 0.00883955 3.38271431 0.00883955 4.5704937 0.00406504 C7.18540133 -0.00394675 9.80007894 0.00242097 12.41498852 0.00869775 C14.28393725 0.00598929 16.15288493 0.00242919 18.02183056 -0.00192237 C23.10848751 -0.01106598 28.19506364 -0.00749401 33.28172207 -0.0011642 C38.59527085 0.00388561 43.90881253 -0.0007928 49.22236156 -0.00393653 C58.1469348 -0.00757916 67.07147498 -0.00276931 75.99604321 0.00674462 C86.32639719 0.01762973 96.65667224 0.01410437 106.98702431 0.00309181 C115.84308042 -0.00597263 124.69911272 -0.00727048 133.55517197 -0.00203085 C138.85036609 0.0010935 144.14552307 0.00148549 149.44071484 -0.00510383 C154.41796994 -0.01086443 159.39512288 -0.00690407 164.37236691 0.00468469 C166.20339189 0.00733818 168.03442541 0.00655451 169.86544704 0.00215936 C172.35644375 -0.00327048 174.84710889 0.00350655 177.33808422 0.01351953 C178.4362196 0.00682736 178.4362196 0.00682736 179.55653954 0 C184.54996961 0.03918665 184.54996961 0.03918665 186.77826977 2.26748681 C187.0289681 4.09094167 187.0289681 4.09094167 187.02995205 6.34986901 C187.03516754 7.20953302 187.04038304 8.06919703 187.04575658 8.95491147 C187.04129514 9.90489483 187.03683369 10.85487819 187.03223705 11.83364892 C187.03691702 13.34092632 187.03691702 13.34092632 187.04169154 14.87865376 C187.04970985 18.26743791 187.043333 21.65604488 187.03705883 25.04483056 C187.03976699 27.4654961 187.04332693 29.88616082 187.04767895 32.30682397 C187.05587476 38.21214457 187.05464362 44.11741865 187.04885367 50.02273798 C187.04434365 54.82054221 187.0437214 59.61833219 187.0459013 64.41613793 C187.04620776 65.09802837 187.04651423 65.77991881 187.04682998 66.4824726 C187.04746941 67.86756007 187.04811784 69.25264754 187.04877517 70.63773501 C187.0544833 83.63696488 187.04791301 96.63616658 187.03717443 109.63539183 C187.02823848 120.79825271 187.02979039 131.961072 187.03901196 143.12393212 C187.04970608 156.07547623 187.05393393 169.02699562 187.04778743 181.97854352 C187.0471503 183.35864091 187.04652156 184.73873829 187.0459013 186.11883569 C187.04543847 187.13748528 187.04543847 187.13748528 187.0449663 188.17671365 C187.04323677 192.97080185 187.04615998 197.76487442 187.0508604 202.5589602 C187.05704331 209.00703026 187.05266461 215.45504008 187.04107189 221.90310311 C187.03841723 224.27594775 187.03920402 226.64879897 187.04359722 229.02164102 C187.04902242 232.24829325 187.04225549 235.47468903 187.03223705 238.7013247 C187.03892922 240.12629974 187.03892922 240.12629974 187.04575658 241.58006215 C187.03793334 242.86955817 187.03793334 242.86955817 187.02995205 244.18510461 C187.02962734 244.93055063 187.02930264 245.67599666 187.0289681 246.44403195 C186.77826977 248.26748681 186.77826977 248.26748681 184.77826977 250.26748681 C181.1453245 249.92771428 178.65605723 248.81156222 175.64765453 246.80923486 C174.47054913 246.03425653 174.47054913 246.03425653 173.26966381 245.24362206 C172.42816784 244.67786462 171.58667187 244.11210717 170.71967602 243.52920556 C169.8305653 242.94048669 168.94145458 242.35176782 168.02540112 241.74520898 C165.12556124 239.82249248 162.23329551 237.88868496 159.34076977 235.95498681 C157.348039 234.632027 155.35479068 233.30984644 153.36103344 231.98843408 C144.38947357 226.03615311 135.44212885 220.04829372 126.51264477 214.03311181 C125.14347222 213.11287221 123.77425202 212.19270349 122.40497875 211.27261376 C119.93215093 209.61079534 117.46644207 207.93914326 115.00507641 206.26040673 C103.11935471 198.16864154 103.11935471 198.16864154 89.21576977 195.76748681 C87.99760571 195.75717431 86.77944164 195.74686181 85.52436352 195.73623681 C77.54408386 196.8679553 71.03059277 201.93199818 64.50483227 206.40420556 C63.63113491 206.99688226 62.75743755 207.58955895 61.85726452 208.20019555 C59.99624824 209.46311524 58.13664643 210.72812143 56.27836132 211.99505639 C51.45057844 215.28612325 46.61225729 218.56162143 41.77436352 221.83779931 C40.82336269 222.48227517 39.87236187 223.12675103 38.89254284 223.79075646 C28.3487877 230.92770135 17.70886297 237.91255742 7.00702953 244.81021142 C5.0716804 246.07564016 3.17837897 247.38459409 1.28608227 248.71279931 C-1.22173023 250.26748681 -1.22173023 250.26748681 -4.03423023 250.07998681 C-6.22173023 249.26748681 -6.22173023 249.26748681 -7.22173023 248.26748681 C-7.32425545 245.11178781 -7.36057239 241.97783034 -7.355443 238.82157922 C-7.35770856 237.81758204 -7.35997411 236.81358487 -7.36230832 235.77916354 C-7.36867993 232.38732042 -7.36781695 228.99551693 -7.3669939 225.60366845 C-7.36998342 223.18315095 -7.37338546 220.76263393 -7.37717152 218.34211755 C-7.38511433 212.43333193 -7.38822708 206.52455574 -7.38878389 200.61576588 C-7.3892583 195.81508011 -7.39130925 191.01439765 -7.39448452 186.21371293 C-7.40329544 172.61671874 -7.40790321 159.01973246 -7.40715405 145.4227354 C-7.40711409 144.68902534 -7.40707413 143.95531528 -7.40703297 143.19937158 C-7.40699209 142.46477046 -7.40695121 141.73016935 -7.40690909 140.9733076 C-7.40650249 129.063367 -7.41607438 117.15345799 -7.43017133 105.24352653 C-7.44451638 93.0280489 -7.45144255 80.8125867 -7.45057756 68.59710044 C-7.45024494 61.73357963 -7.45302026 54.87009193 -7.46375561 48.00657868 C-7.47378249 41.55442446 -7.47354445 35.10232225 -7.46623898 28.65016389 C-7.46518796 26.27570518 -7.46758637 23.90124219 -7.47359943 21.52679086 C-7.48124964 18.29790242 -7.47672117 15.06926069 -7.46896839 11.84037805 C-7.47411195 10.88971257 -7.47925552 9.93904709 -7.48455495 8.95957357 C-7.47995615 8.09929286 -7.47535735 7.23901215 -7.4706192 6.35266232 C-7.47083657 5.60667423 -7.47105394 4.86068613 -7.47127789 4.09209234 C-6.86728931 -0.32406166 -3.70802779 0.02909927 0 0 Z " fill="#FF6B6B" transform="translate(166.22173023223877,123.7325131893158)"/>
<path d="M0 0 C0.8122578 -0.00538554 1.6245156 -0.01077108 2.46138728 -0.01631981 C5.16888285 -0.03056735 7.87588729 -0.02350364 10.58340454 -0.01637268 C12.53040458 -0.02207796 14.47740127 -0.02904283 16.4243927 -0.03717041 C21.70338805 -0.05510037 26.98221716 -0.05393359 32.26123381 -0.04822803 C36.67220651 -0.04513566 41.08314731 -0.05122924 45.49411547 -0.05726677 C55.90264903 -0.07131014 66.3111005 -0.06975252 76.71963501 -0.05836487 C87.44821553 -0.04688625 98.17654599 -0.06095554 108.90509355 -0.08776134 C118.12484984 -0.10993266 127.34452772 -0.11655241 136.56430876 -0.11068493 C142.06705629 -0.10731731 147.56964357 -0.10971753 153.07236862 -0.12693596 C158.24842991 -0.14242552 163.42412144 -0.13842705 168.60016823 -0.11963081 C170.49598559 -0.11595039 172.39183048 -0.1190374 174.28762245 -0.1295166 C192.66531202 -0.22331767 192.66531202 -0.22331767 199.66397095 4.38768005 C200.4735022 4.90588318 201.28303345 5.4240863 202.11709595 5.95799255 C207.72986947 10.81426182 211.8035881 16.53183144 213.12229848 23.97439957 C213.30322391 26.74196205 213.33110539 29.46842276 213.29888916 32.24168396 C213.30668911 33.28856195 213.31448907 34.33543995 213.32252538 35.41404152 C213.3423591 38.89780723 213.32671372 42.38047008 213.3109436 45.86424255 C213.3177235 48.37163426 213.32662872 50.87902098 213.3374939 53.38639832 C213.35788907 59.47523674 213.35495583 65.56367142 213.34043069 71.65251493 C213.32911148 76.60358931 213.32761909 81.55457739 213.33304977 86.50566101 C213.33381594 87.21191136 213.3345821 87.91816171 213.33537149 88.64581358 C213.33697021 90.08081296 213.33859128 91.5158123 213.34023444 92.95081162 C213.35447201 106.38816241 213.33813062 119.82534229 213.31123261 133.26266503 C213.28889558 144.77772954 213.29277627 156.29254197 213.31582642 167.80760193 C213.34261977 181.19879743 213.3530989 194.58984337 213.3377651 207.98106194 C213.33617245 209.41060763 213.3346006 210.84015335 213.33304977 212.2696991 C213.3322784 212.97295433 213.33150702 213.67620956 213.33071227 214.40077555 C213.32640584 219.34251236 213.3336589 224.28415382 213.34544754 229.22587585 C213.36098332 235.88436284 213.34982928 242.54230209 213.32097626 249.20076752 C213.3143774 251.64120445 213.31624244 254.08168151 213.32728958 256.52210236 C213.34100307 259.85982925 213.32375678 263.1960449 213.29888916 266.53367615 C213.31004277 267.4938093 213.32119638 268.45394245 213.33268797 269.44317055 C213.21699564 277.47758165 210.64400013 283.8548186 205.45303345 290.0087738 C197.80261069 296.43015753 192.16775929 298.6971629 182.14053345 298.8837738 C173.95085027 297.71513362 167.0705997 292.95242518 160.32022095 288.42674255 C159.44479141 287.84746506 158.56936188 287.26818756 157.66740417 286.6713562 C155.79650252 285.43196905 153.92765948 284.18946955 152.06072998 282.94410706 C149.13577657 280.99388132 146.20427436 279.05386044 143.27114868 277.11595154 C134.00114086 270.98269033 124.77079514 264.79727182 115.6053772 258.5087738 C113.35437981 256.97364644 111.10256672 255.43972352 108.85049438 253.90617371 C106.75894415 252.47244006 104.68227618 251.01879157 102.6053772 249.56394958 C101.34561373 248.70345476 100.08523522 247.8438594 98.8241272 246.9853363 C97.74784058 246.23776062 96.67155396 245.49018494 95.56265259 244.71995544 C92.78715878 243.05264935 92.78715878 243.05264935 90.2409668 244.14367676 C87.86900335 245.28870396 85.72709277 246.50651694 83.53335571 247.9594574 C82.74861374 248.47603409 81.96387177 248.99261078 81.15534973 249.52484131 C80.3138588 250.08543747 79.47236786 250.64603363 78.6053772 251.22361755 C77.7163118 251.81092148 76.8272464 252.3982254 75.91123962 253.00332642 C74.00362325 254.26448896 72.09741209 255.5277791 70.19247437 256.79298401 C67.21282484 258.77174231 64.22914758 260.74429452 61.24453735 262.71556091 C52.27966778 268.64210512 43.33325635 274.59422174 34.4335022 280.6181488 C33.06889355 281.53896757 31.70423087 282.45970628 30.33950806 283.38035583 C27.87830307 285.04109916 25.42604821 286.71397473 22.97866821 288.39500427 C13.05229027 295.14883977 3.98145532 300.24262486 -8.33602905 298.38768005 C-15.90844032 295.94636059 -22.40481165 291.32550546 -26.49811119 284.43007749 C-29.36585324 278.39728013 -29.90739064 273.27985245 -29.85069275 266.65393066 C-29.85763828 265.60790709 -29.86458381 264.56188352 -29.8717398 263.48416227 C-29.88995951 259.9974356 -29.87975908 256.5113932 -29.86947632 253.02464294 C-29.87653728 250.51740003 -29.88528304 248.01016138 -29.89558411 245.50292969 C-29.91573463 239.41066817 -29.9171107 233.31865734 -29.90895856 227.22637541 C-29.90264622 222.27242407 -29.90380688 217.31852712 -29.91023064 212.36457634 C-29.91113229 211.6581905 -29.91203395 210.95180466 -29.91296292 210.22401319 C-29.91481422 208.7887723 -29.91667678 207.35353141 -29.91855048 205.91829055 C-29.93511084 192.47429685 -29.92642484 179.03040825 -29.9095649 165.58642089 C-29.89486989 153.30078988 -29.90949656 141.01540349 -29.93833507 128.72980399 C-29.96776381 116.0981655 -29.97869121 103.46663976 -29.96915287 90.83496851 C-29.96813037 89.40484554 -29.96713576 87.97472254 -29.96616936 86.54459953 C-29.96569297 85.84104932 -29.96521658 85.1374991 -29.96472575 84.41262918 C-29.96256618 79.46839225 -29.97234126 74.52426265 -29.98694038 69.58004951 C-30.00633991 62.91748826 -29.99932541 56.25545283 -29.97474098 49.59288597 C-29.96973659 47.15083162 -29.97321306 44.70874259 -29.98588943 42.266716 C-30.00185248 38.92676185 -29.98683632 35.5882976 -29.96421814 32.24841309 C-29.97605387 31.28759781 -29.9878896 30.32678254 -30.00008398 29.33685166 C-29.88988683 21.2986628 -27.31834266 14.92324971 -22.12509155 8.7665863 C-21.41095093 8.16717224 -20.6968103 7.56775818 -19.96102905 6.95018005 C-19.25204468 6.33271912 -18.5430603 5.71525818 -17.81259155 5.0790863 C-11.97414024 1.09162665 -7.00637158 -0.05631227 0 0 Z M-5.33602905 26.38768005 C-5.63787295 28.27734632 -5.63787295 28.27734632 -5.58771133 30.47006226 C-5.59292683 31.32972627 -5.59814232 32.18939028 -5.60351586 33.07510471 C-5.59905442 34.02508807 -5.59459298 34.97507143 -5.58999634 35.95384216 C-5.59311632 36.95869376 -5.5962363 37.96354536 -5.59945083 38.99884701 C-5.60746913 42.38763115 -5.60109228 45.77623812 -5.59481812 49.1650238 C-5.59752628 51.58568935 -5.60108622 54.00635407 -5.60543823 56.42701721 C-5.61363405 62.33233781 -5.6124029 68.23761189 -5.60661295 74.14293122 C-5.60210294 78.94073546 -5.60148069 83.73852543 -5.60366058 88.53633118 C-5.60396705 89.21822162 -5.60427352 89.90011206 -5.60458927 90.60266584 C-5.6052287 91.98775332 -5.60587712 93.37284079 -5.60653445 94.75792825 C-5.61224258 107.75715812 -5.6056723 120.75635982 -5.59493372 133.75558507 C-5.58599777 144.91844595 -5.58754967 156.08126524 -5.59677124 167.24412537 C-5.60746536 180.19566947 -5.61169321 193.14718886 -5.60554671 206.09873676 C-5.60490959 207.47883415 -5.60428085 208.85893154 -5.60366058 210.23902893 C-5.60335203 210.91812866 -5.60304348 211.59722838 -5.60272558 212.29690689 C-5.60099606 217.09099509 -5.60391926 221.88506766 -5.60861969 226.67915344 C-5.61480259 233.1272235 -5.6104239 239.57523332 -5.59883118 246.02329636 C-5.59617652 248.39614099 -5.59696331 250.76899221 -5.60135651 253.14183426 C-5.6067817 256.36848649 -5.60001478 259.59488227 -5.58999634 262.82151794 C-5.59445778 263.7715013 -5.59891922 264.72148466 -5.60351586 265.70025539 C-5.59830037 266.5599194 -5.59308487 267.41958342 -5.58771133 268.30529785 C-5.58738663 269.05074388 -5.58706192 269.7961899 -5.58672738 270.5642252 C-5.48873954 272.63777375 -5.48873954 272.63777375 -3.33602905 274.38768005 C1.3298614 274.14355883 4.83351628 271.68692725 8.64834595 269.2197113 C9.68327179 268.56129997 9.68327179 268.56129997 10.73910522 267.8895874 C20.24795878 261.79630953 29.57333681 255.42164123 38.91397095 249.07518005 C49.84146985 241.6565556 60.78003497 234.25883867 71.83584595 227.0322113 C72.68060486 226.47724472 73.52536377 225.92227814 74.39572144 225.35049438 C75.17614807 224.84303177 75.95657471 224.33556915 76.76065063 223.81272888 C77.44439758 223.366819 78.12814453 222.92090912 78.83261108 222.46148682 C82.75580098 220.16114818 86.32823886 220.16079006 90.78897095 220.07518005 C92.68002563 220.01910583 92.68002563 220.01910583 94.60928345 219.9618988 C102.98284548 220.39009376 110.32923858 225.86813354 117.07803345 230.3837738 C117.95893143 230.9657402 118.83982941 231.5477066 119.74742126 232.14730835 C121.62751712 233.39110339 123.50548494 234.63812024 125.38146973 235.8881073 C128.31561306 237.84292991 131.25589837 239.78821689 134.19741821 241.73191833 C143.27988605 247.74430542 152.32290905 253.80699443 161.2772522 260.0087738 C161.99955017 260.50697128 162.72184814 261.00516876 163.46603394 261.51846313 C166.80242254 263.82004567 170.12773128 266.1345637 173.43399048 268.47923279 C174.60268167 269.29046196 175.7717645 270.10112732 176.9413147 270.91111755 C178.43006104 271.96178406 178.43006104 271.96178406 179.94888306 273.03367615 C182.57805759 274.63594388 182.57805759 274.63594388 185.45913696 274.16746521 C187.61057057 273.58470387 187.61057057 273.58470387 188.66397095 272.38768005 C188.76649616 269.23198105 188.80281311 266.09802358 188.79768372 262.94177246 C188.80108205 261.4357767 188.80108205 261.4357767 188.80454904 259.89935678 C188.81092065 256.50751366 188.81005766 253.11571017 188.80923462 249.72386169 C188.81222413 247.3033442 188.81562618 244.88282718 188.81941223 242.46231079 C188.82735504 236.55352518 188.83046779 230.64474898 188.83102461 224.73595912 C188.83149901 219.93527335 188.83354997 215.13459089 188.83672523 210.33390617 C188.84553615 196.73691199 188.85014393 183.13992571 188.84939476 169.54292864 C188.8493548 168.80921858 188.84931485 168.07550852 188.84927368 167.31956482 C188.84921236 166.21766315 188.84921236 166.21766315 188.8491498 165.09350085 C188.8487432 153.18356024 188.8583151 141.27365123 188.87241205 129.36371977 C188.8867571 117.14824214 188.89368327 104.93277995 188.89281827 92.71729368 C188.89248565 85.85377287 188.89526098 78.99028518 188.90599632 72.12677193 C188.9160232 65.6746177 188.91578516 59.22251549 188.90847969 52.77035713 C188.90742867 50.39589842 188.90982708 48.02143543 188.91584015 45.6469841 C188.92349035 42.41809566 188.91896189 39.18945393 188.91120911 35.96057129 C188.91892445 34.53457307 188.91892445 34.53457307 188.92679566 33.07976681 C188.92219687 32.2194861 188.91759807 31.35920539 188.91285992 30.47285557 C188.91307728 29.72686747 188.91329465 28.98087937 188.91351861 28.21228558 C188.8171262 26.1376572 188.8171262 26.1376572 186.66397095 24.38768005 C184.14763965 24.19025062 181.74128207 24.11837085 179.2237854 24.13371277 C178.44761273 24.13059279 177.67144007 24.12747281 176.87174702 24.12425828 C174.25683939 24.11624649 171.64216178 24.12261421 169.0272522 24.12889099 C167.15830346 24.12618254 165.28935579 24.12262243 163.42041016 24.11827087 C158.3337532 24.10912726 153.24717707 24.11269923 148.16051865 24.11902905 C142.84696987 24.12407886 137.53342819 24.11940044 132.21987915 24.11625671 C123.29530591 24.11261409 114.37076573 24.11742393 105.44619751 24.12693787 C95.11584353 24.13782298 84.78556848 24.13429761 74.45521641 24.12328506 C65.5991603 24.11422061 56.743128 24.11292276 47.88706875 24.11816239 C42.59187462 24.12128674 37.29671764 24.12167873 32.00152588 24.11508942 C27.02427078 24.10932882 22.04711783 24.11328917 17.06987381 24.12487793 C15.23884883 24.12753142 13.4078153 24.12674775 11.57679367 24.1223526 C9.08579697 24.11692276 6.59513182 24.12369979 4.10415649 24.13371277 C3.00602111 24.1270206 3.00602111 24.1270206 1.88570118 24.12019324 C-2.17495193 24.03383946 -2.17495193 24.03383946 -5.33602905 26.38768005 Z " fill="#FFFDFD" transform="translate(164.33602905273438,99.61231994628906)"/>
</svg>
