<?xml version="1.0" encoding="UTF-8"?>
<svg version="1.1" xmlns="http://www.w3.org/2000/svg" width="512" height="512">
<path d="M0 0 C1.40210271 -0.004182 2.80420204 -0.00966423 4.20629519 -0.01631981 C8.02682751 -0.03067989 11.84714237 -0.02655953 15.6676861 -0.019153 C19.80074523 -0.01440002 23.93375874 -0.02694997 28.06680298 -0.03717041 C36.15152782 -0.05432264 44.23617481 -0.0552058 52.32091311 -0.04995751 C58.89611649 -0.04590762 65.47129696 -0.04736908 72.04649925 -0.05270576 C73.4529984 -0.0538284 73.4529984 -0.0538284 74.88791167 -0.05497371 C76.7931073 -0.05650527 78.69830292 -0.05804362 80.60349854 -0.05958868 C98.45031104 -0.07330098 116.29707964 -0.06788514 134.14389112 -0.05640347 C150.44808467 -0.04647416 166.75216469 -0.05940879 183.05634073 -0.08333766 C199.82279885 -0.10775839 216.58920415 -0.11732911 233.35567969 -0.11068493 C242.7586155 -0.10719909 252.16146406 -0.10938261 261.56438637 -0.12693596 C269.56948627 -0.14169525 277.57443747 -0.14224494 285.57953457 -0.12486505 C289.65843107 -0.11638293 293.73706236 -0.11413662 297.81594467 -0.1295166 C301.55982895 -0.14345785 305.30322316 -0.13848126 309.04707976 -0.11927737 C311.02173903 -0.11379642 312.99642385 -0.12770977 314.97103435 -0.14263147 C326.90553883 -0.04557581 338.4525009 2.51246223 349.06266785 8.13768005 C349.72653503 8.48057068 350.39040222 8.8234613 351.0743866 9.17674255 C356.86899486 12.26569715 361.90259628 15.95210824 366.75016785 20.38768005 C367.43208191 20.97807068 368.11399597 21.5684613 368.8165741 22.17674255 C381.65929085 33.98902606 390.56511661 52.37139504 392.03094947 69.70864642 C392.13694771 73.35456654 392.1550042 76.99008109 392.1378479 80.63751221 C392.1420299 82.03961492 392.14751213 83.44171425 392.15416771 84.8438074 C392.16852779 88.66433971 392.16440743 92.48465457 392.1570009 96.30519831 C392.15224792 100.43825744 392.16479787 104.57127095 392.17501831 108.70431519 C392.19217054 116.78904002 392.1930537 124.87368702 392.18780541 132.95842532 C392.18375552 139.5336287 392.18521698 146.10880917 392.19055367 152.68401146 C392.19130209 153.62167756 392.19205051 154.55934366 392.19282161 155.52542388 C392.19435317 157.43061951 392.19589152 159.33581513 392.19743658 161.24101075 C392.21114888 179.08782324 392.20573304 196.93459184 392.19425137 214.78140333 C392.18432206 231.08559688 392.19725669 247.3896769 392.22118556 263.69385294 C392.24560629 280.46031106 392.25517702 297.22671636 392.24853283 313.9931919 C392.24504699 323.39612771 392.24723051 332.79897627 392.26478386 342.20189857 C392.27954315 350.20699848 392.28009284 358.21194967 392.26271295 366.21704677 C392.25423083 370.29594328 392.25198452 374.37457456 392.2673645 378.45345688 C392.28130575 382.19734116 392.27632916 385.94073537 392.25712527 389.68459197 C392.25164432 391.65925124 392.26555767 393.63393606 392.28047937 395.60854656 C392.18342371 407.54305104 389.62538567 419.0900131 384.00016785 429.70018005 C383.48583191 430.69598083 383.48583191 430.69598083 382.96110535 431.7118988 C379.87215075 437.50650707 376.18573966 442.54010849 371.75016785 447.38768005 C371.15977722 448.06959412 370.5693866 448.75150818 369.96110535 449.4540863 C358.14882184 462.29680306 339.76645286 471.20262881 322.42920148 472.66846168 C318.78328136 472.77445992 315.14776682 472.7925164 311.50033569 472.77536011 C310.09823298 472.77954211 308.69613366 472.78502434 307.2940405 472.79167992 C303.47350819 472.80604 299.65319333 472.80191964 295.83264959 472.79451311 C291.69959046 472.78976013 287.56657696 472.80231008 283.43353271 472.81253052 C275.34880788 472.82968275 267.26416088 472.83056591 259.17942258 472.82531761 C252.6042192 472.82126772 246.02903873 472.82272918 239.45383644 472.82806587 C238.51617034 472.82881429 237.57850424 472.82956272 236.61242402 472.83033382 C234.70722839 472.83186538 232.80203277 472.83340373 230.89683715 472.83494879 C213.05002466 472.84866109 195.20325606 472.84324525 177.35644457 472.83176357 C161.05225102 472.82183427 144.74817101 472.8347689 128.44399496 472.85869776 C111.67753684 472.8831185 94.91113154 472.89268922 78.144656 472.88604504 C68.74172019 472.8825592 59.33887163 472.88474272 49.93594933 472.90229607 C41.93084942 472.91705536 33.92589823 472.91760505 25.92080113 472.90022516 C21.84190462 472.89174304 17.76327334 472.88949673 13.68439102 472.90487671 C9.94050674 472.91881796 6.19711253 472.91384137 2.45325593 472.89463747 C0.47859666 472.88915653 -1.49608816 472.90306988 -3.47069865 472.91799158 C-15.40520314 472.82093592 -26.9521652 470.26289788 -37.56233215 464.63768005 C-38.22619934 464.29478943 -38.89006653 463.9518988 -39.5740509 463.59861755 C-45.36865917 460.50966295 -50.40226059 456.82325186 -55.24983215 452.38768005 C-56.27270325 451.50209412 -56.27270325 451.50209412 -57.3162384 450.59861755 C-70.15895516 438.78633404 -79.06478091 420.40396507 -80.53061378 403.06671369 C-80.63661202 399.42079357 -80.6546685 395.78527902 -80.63751221 392.1378479 C-80.6416942 390.73574519 -80.64717644 389.33364586 -80.65383202 387.93155271 C-80.6681921 384.1110204 -80.66407174 380.29070553 -80.65666521 376.4701618 C-80.65191222 372.33710267 -80.66446218 368.20408916 -80.67468262 364.07104492 C-80.69183485 355.98632008 -80.69271801 347.90167309 -80.68746971 339.81693479 C-80.68341982 333.24173141 -80.68488128 326.66655094 -80.69021797 320.09134865 C-80.69096639 319.15368255 -80.69171482 318.21601645 -80.69248592 317.24993623 C-80.69401748 315.3447406 -80.69555583 313.43954498 -80.69710089 311.53434936 C-80.71081319 293.68753686 -80.70539735 275.84076826 -80.69391567 257.99395678 C-80.68398637 241.68976323 -80.696921 225.38568321 -80.72084986 209.08150717 C-80.7452706 192.31504905 -80.75484132 175.54864375 -80.74819714 158.78216821 C-80.7447113 149.3792324 -80.74689482 139.97638384 -80.76444817 130.57346153 C-80.77920745 122.56836163 -80.77975715 114.56341043 -80.76237725 106.55831333 C-80.75389514 102.47941683 -80.75164883 98.40078554 -80.76702881 94.32190323 C-80.78097006 90.57801895 -80.77599347 86.83462474 -80.75678957 83.09076814 C-80.75130863 81.11610887 -80.76522197 79.14142405 -80.78014368 77.16681355 C-80.68308802 65.23230907 -78.12504998 53.685347 -72.49983215 43.07518005 C-72.15694153 42.41131287 -71.8140509 41.74744568 -71.46076965 41.0634613 C-68.37181505 35.26885304 -64.68540396 30.23525162 -60.24983215 25.38768005 C-59.65944153 24.70576599 -59.0690509 24.02385193 -58.46076965 23.3212738 C-43.42319711 6.97191302 -21.67887712 -0.10197019 0 0 Z " fill="#FFC048" transform="translate(100.24983215332031,19.612319946289063)"/>
<path d="M0 0 C1.1859375 -0.01289062 2.371875 -0.02578125 3.59375 -0.0390625 C13.65739688 1.67175747 20.34397874 7.72923962 27.3046875 14.80078125 C28.19108917 15.68477097 29.07749084 16.56876068 29.99075317 17.47953796 C32.32319436 19.81320105 34.64337643 22.15825912 36.95953369 24.50805664 C38.37629172 25.93880447 39.80155123 27.36045473 41.23046875 28.77905273 C43.99559571 31.52534822 46.74614735 34.28541296 49.4921875 37.05078125 C50.33699677 37.89063065 51.18180603 38.73048004 52.05221558 39.59577942 C58.83403443 46.51384462 63.56701529 53.2497281 63.8125 63.25 C63.64369125 77.26112656 53.86761255 85.40023632 44.563797 94.7285614 C43.79449142 95.50366037 43.02518584 96.27875933 42.23256797 97.07734615 C39.67277833 99.65506893 37.10950772 102.22929994 34.54614258 104.8034668 C32.7023749 106.6584204 30.85877158 108.51353737 29.01531982 110.36880493 C22.97948807 116.44169043 16.93750861 122.50844479 10.89453125 128.57421875 C10.37990522 129.09081968 9.86527918 129.60742062 9.33505842 130.13967612 C-0.89981326 140.41372241 -11.13745684 150.68500325 -21.38079357 160.95061016 C-23.62670501 163.20149002 -25.87257837 165.45240786 -28.1184082 167.70336914 C-28.95558814 168.54245508 -28.95558814 168.54245508 -29.8096808 169.39849225 C-38.85565757 178.46584163 -47.88771885 187.54692546 -56.91433712 196.6335422 C-66.19927098 205.97967782 -75.49745507 215.31246979 -84.80840188 224.63269168 C-90.02900699 229.85919452 -95.24359337 235.09140819 -100.44316673 240.33884239 C-105.33322138 245.27387117 -110.24091549 250.19073571 -115.16088867 255.09593582 C-116.96001064 256.89538612 -118.75318257 258.70080886 -120.5397892 260.51268578 C-137.78807168 277.99191302 -137.78807168 277.99191302 -148.5 280.625 C-149.38081332 280.87416514 -150.26162664 281.12333029 -151.16913128 281.38004589 C-153.55611437 282.03541205 -155.94513833 282.57232753 -158.3671875 283.08203125 C-159.69026413 283.37106575 -159.69026413 283.37106575 -161.04006958 283.66593933 C-162.88566155 284.06553571 -164.7325186 284.45933181 -166.58056641 284.84741211 C-169.36682736 285.43577422 -172.14602898 286.05162688 -174.92578125 286.66992188 C-202.70216698 292.69227735 -202.70216698 292.69227735 -212.5 286.625 C-219.48048331 281.79781832 -224.46589974 275.99649804 -226.5 267.625 C-227.22071235 259.5180275 -225.7878045 252.20464902 -223.8125 244.375 C-223.25449747 242.08903209 -222.69854973 239.80256174 -222.14453125 237.515625 C-221.86561035 236.37029297 -221.58668945 235.22496094 -221.29931641 234.04492188 C-220.53240573 230.76364982 -219.84780014 227.47836835 -219.19921875 224.171875 C-218.99578857 223.15254883 -218.7923584 222.13322266 -218.58276367 221.08300781 C-218.20763659 219.1789275 -217.84601855 217.27211007 -217.5012207 215.36230469 C-215.31420315 204.50442936 -209.29609562 196.81818935 -201.55670166 189.16703796 C-200.77458872 188.37797949 -199.99247577 187.58892102 -199.18666244 186.77595168 C-196.58468019 184.15579167 -193.96876496 181.55002365 -191.35253906 178.9440918 C-189.47545079 177.05994053 -187.59915232 175.17503118 -185.72375488 173.28919983 C-181.16972924 168.7136104 -176.6049688 164.14888078 -172.03607348 159.58814397 C-168.3210646 155.87945192 -164.6098169 152.16703498 -160.90117645 148.45197487 C-160.37200726 147.92190402 -159.84283807 147.39183318 -159.29763345 146.84569958 C-158.22243037 145.76864518 -157.1472329 144.69158515 -156.072041 143.61451957 C-146.00567699 133.53160417 -135.92673735 123.46133455 -125.84366629 113.39513043 C-116.63029394 104.1964582 -107.43167358 94.98319713 -98.24007657 85.76277056 C-88.78668337 76.27994922 -79.32407796 66.80641528 -69.85119033 57.34306651 C-68.77880844 56.27170711 -67.70644048 55.20033376 -66.63408661 54.1289463 C-66.10655449 53.60189057 -65.57902236 53.07483484 -65.03550442 52.53180772 C-61.32938166 48.82784427 -57.62926102 45.11795035 -53.93152618 41.40561485 C-49.42176459 36.87829397 -44.90322479 32.35995932 -40.37333468 27.852775 C-38.06500631 25.55555521 -35.76217887 23.25327426 -33.46738434 20.94252396 C-30.97341977 18.43259767 -28.46446338 15.93865773 -25.95123291 13.44804382 C-25.23739197 12.72236715 -24.52355103 11.99669049 -23.78807855 11.24902362 C-17.05837333 4.64135335 -9.69340591 -0.10536311 0 0 Z " fill="#FFFEFD" transform="translate(336.5,114.375)"/>
<path d="M0 0 C1.12280848 0.95740904 2.24491133 1.91564566 3.36671543 2.87423134 C4.30413526 3.67452513 4.30413526 3.67452513 5.26049286 4.49098647 C7.2214959 6.19214656 9.08366159 7.96322258 10.91577148 9.80224609 C11.59594833 10.48249847 12.27612518 11.16275085 12.97691345 11.86361694 C13.68449295 12.57635773 14.39207245 13.28909851 15.12109375 14.0234375 C15.86585464 14.76961334 16.61061554 15.51578918 17.37794495 16.28457642 C19.73350827 18.64569389 22.08555216 21.01028162 24.4375 23.375 C26.04338763 24.98590856 27.64950516 26.59658796 29.25585938 28.20703125 C33.17323513 32.13537513 37.08773487 36.06656674 41 40 C39.37049737 44.08865436 36.44424284 46.86088297 33.39363098 49.92089844 C32.81447408 50.50952541 32.23531718 51.09815239 31.63861006 51.70461655 C29.69462421 53.67767574 27.74350945 55.6435242 25.79223633 57.609375 C24.39722587 59.02182849 23.00257623 60.43463842 21.60826111 61.84777832 C17.02400037 66.48962023 12.42873726 71.12048664 7.83203125 75.75 C7.04941854 76.53855881 6.26680583 77.32711761 5.46047759 78.13957214 C-1.92501949 85.58100582 -9.3141545 93.01880525 -16.71288586 100.44708252 C-26.1647484 109.93705383 -35.59764777 119.44501497 -45.0050413 128.97907639 C-51.62711305 135.68724553 -58.27027774 142.37406099 -64.9292677 149.04558182 C-68.90240952 153.02731275 -72.86586621 157.01765876 -76.80696678 161.03112793 C-80.52008965 164.81148906 -84.25881997 168.56455245 -88.01816368 172.29893494 C-89.38738483 173.66799005 -90.74735905 175.04637161 -92.09677505 176.43495178 C-100.88304863 185.46212662 -107.43674952 189.96502139 -120 192 C-122.45069427 192.55559548 -124.89902035 193.12184564 -127.34375 193.703125 C-129.72832256 194.22263972 -132.11374132 194.73828589 -134.5 195.25 C-136.31371094 195.6521875 -136.31371094 195.6521875 -138.1640625 196.0625 C-149.75763852 198.55957791 -149.75763852 198.55957791 -155 198 C-157 196 -157 196 -157.03904724 194.12858582 C-156.33136618 188.91184832 -155.41991559 183.80220094 -154.22265625 178.67578125 C-154.05124619 177.92588425 -153.87983612 177.17598724 -153.70323181 176.40336609 C-153.34337811 174.83403109 -152.98109561 173.26525116 -152.61645508 171.69702148 C-152.06172186 169.30915046 -151.51563863 166.91942076 -150.97070312 164.52929688 C-150.61769435 162.99467499 -150.26419564 161.4601657 -149.91015625 159.92578125 C-149.74862564 159.21940018 -149.58709503 158.5130191 -149.42066956 157.78523254 C-148.96899865 155.8515786 -148.48534801 153.92547695 -148 152 C-147.76977709 151.06183126 -147.53955418 150.12366253 -147.30235481 149.15706444 C-145.67305799 145.20745332 -143.21624028 142.67306517 -140.21676636 139.73574829 C-139.61885886 139.1344231 -139.02095137 138.5330979 -138.40492547 137.91355073 C-136.40286458 135.90491137 -134.38686216 133.91088561 -132.37060547 131.91650391 C-130.93104595 130.47807286 -129.49236702 129.03876008 -128.05450439 127.59863281 C-124.1504307 123.69341107 -120.23414342 119.80064846 -116.31556463 115.90998888 C-112.22179881 111.8412212 -108.13935113 107.76112979 -104.05569458 103.68222046 C-96.32181938 95.96077964 -88.57780388 88.24959224 -80.83010304 80.54202688 C-72.00976876 71.76639573 -63.20078436 62.97940932 -54.39274001 54.19144559 C-36.27443697 36.11495737 -18.14191092 18.05279258 0 0 Z " fill="#FFC048" transform="translate(291,182)"/>
<path d="M0 0 C3.24111786 0.4206969 4.25633536 1.37036108 6.5632782 3.65245056 C7.30689606 4.37707993 8.05051392 5.10170929 8.81666565 5.84829712 C9.60332611 6.64194168 10.38998657 7.43558624 11.20048523 8.25328064 C12.42531113 9.46737358 12.42531113 9.46737358 13.67488098 10.70599365 C15.39733995 12.42066797 17.11341349 14.14177705 18.8235321 15.86875916 C21.45009179 18.51454588 24.10464332 21.12970845 26.76298523 23.74351501 C28.43142545 25.41166491 30.0981522 27.08153071 31.76298523 28.75328064 C32.56179108 29.53680405 33.36059692 30.32032745 34.18360901 31.12759399 C34.9083139 31.86798416 35.6330188 32.60837433 36.37968445 33.37120056 C37.02412506 34.01739853 37.66856567 34.6635965 38.33253479 35.32937622 C39.58329773 37.33531189 39.58329773 37.33531189 39.43405151 39.90415955 C38.17905234 43.49050172 35.69556569 45.71576109 33.01689148 48.29234314 C32.4634053 48.84016953 31.90991913 49.38799591 31.33966064 49.9524231 C29.57589762 51.69385941 27.79871986 53.42084548 26.02079773 55.14781189 C24.82001507 56.32852485 23.62013425 57.51015573 22.42118835 58.69273376 C19.48556943 61.58433458 16.53784291 64.4630572 13.58329773 67.33531189 C8.27260968 62.90114517 3.33493156 58.22014503 -1.53779602 53.31187439 C-2.65493736 52.19261063 -2.65493736 52.19261063 -3.79464722 51.05073547 C-6.15021054 48.689618 -8.50225443 46.32503027 -10.85420227 43.96031189 C-12.4600899 42.34940333 -14.06620743 40.73872393 -15.67256165 39.12828064 C-19.5899374 35.19993676 -23.50443714 31.26874515 -27.41670227 27.33531189 C-24.75520732 21.63411478 -20.10313629 17.61165704 -15.71382141 13.20689392 C-14.10763264 11.58876775 -12.52104861 9.95292635 -10.9342804 8.31578064 C-9.91264806 7.28468791 -8.88989811 6.25470109 -7.86592102 5.22593689 C-6.94126038 4.28782166 -6.01659973 3.34970642 -5.06391907 2.38316345 C-2.41670227 0.33531189 -2.41670227 0.33531189 0 0 Z " fill="#FFC048" transform="translate(336.4167022705078,138.66468811035156)"/>
</svg>
