<?xml version="1.0" encoding="UTF-8"?>
<svg version="1.1" xmlns="http://www.w3.org/2000/svg" width="512" height="512">
<path d="M0 0 C1.40210271 -0.004182 2.80420204 -0.00966423 4.20629519 -0.01631981 C8.02682751 -0.03067989 11.84714237 -0.02655953 15.6676861 -0.019153 C19.80074523 -0.01440002 23.93375874 -0.02694997 28.06680298 -0.03717041 C36.15152782 -0.05432264 44.23617481 -0.0552058 52.32091311 -0.04995751 C58.89611649 -0.04590762 65.47129696 -0.04736908 72.04649925 -0.05270576 C73.4529984 -0.0538284 73.4529984 -0.0538284 74.88791167 -0.05497371 C76.7931073 -0.05650527 78.69830292 -0.05804362 80.60349854 -0.05958868 C98.45031104 -0.07330098 116.29707964 -0.06788514 134.14389112 -0.05640347 C150.44808467 -0.04647416 166.75216469 -0.05940879 183.05634073 -0.08333766 C199.82279885 -0.10775839 216.58920415 -0.11732911 233.35567969 -0.11068493 C242.7586155 -0.10719909 252.16146406 -0.10938261 261.56438637 -0.12693596 C269.56948627 -0.14169525 277.57443747 -0.14224494 285.57953457 -0.12486505 C289.65843107 -0.11638293 293.73706236 -0.11413662 297.81594467 -0.1295166 C301.55982895 -0.14345785 305.30322316 -0.13848126 309.04707976 -0.11927737 C311.02173903 -0.11379642 312.99642385 -0.12770977 314.97103435 -0.14263147 C326.90553883 -0.04557581 338.4525009 2.51246223 349.06266785 8.13768005 C349.72653503 8.48057068 350.39040222 8.8234613 351.0743866 9.17674255 C356.86899486 12.26569715 361.90259628 15.95210824 366.75016785 20.38768005 C367.43208191 20.97807068 368.11399597 21.5684613 368.8165741 22.17674255 C381.65929085 33.98902606 390.56511661 52.37139504 392.03094947 69.70864642 C392.13694771 73.35456654 392.1550042 76.99008109 392.1378479 80.63751221 C392.1420299 82.03961492 392.14751213 83.44171425 392.15416771 84.8438074 C392.16852779 88.66433971 392.16440743 92.48465457 392.1570009 96.30519831 C392.15224792 100.43825744 392.16479787 104.57127095 392.17501831 108.70431519 C392.19217054 116.78904002 392.1930537 124.87368702 392.18780541 132.95842532 C392.18375552 139.5336287 392.18521698 146.10880917 392.19055367 152.68401146 C392.19130209 153.62167756 392.19205051 154.55934366 392.19282161 155.52542388 C392.19435317 157.43061951 392.19589152 159.33581513 392.19743658 161.24101075 C392.21114888 179.08782324 392.20573304 196.93459184 392.19425137 214.78140333 C392.18432206 231.08559688 392.19725669 247.3896769 392.22118556 263.69385294 C392.24560629 280.46031106 392.25517702 297.22671636 392.24853283 313.9931919 C392.24504699 323.39612771 392.24723051 332.79897627 392.26478386 342.20189857 C392.27954315 350.20699848 392.28009284 358.21194967 392.26271295 366.21704677 C392.25423083 370.29594328 392.25198452 374.37457456 392.2673645 378.45345688 C392.28130575 382.19734116 392.27632916 385.94073537 392.25712527 389.68459197 C392.25164432 391.65925124 392.26555767 393.63393606 392.28047937 395.60854656 C392.18342371 407.54305104 389.62538567 419.0900131 384.00016785 429.70018005 C383.48583191 430.69598083 383.48583191 430.69598083 382.96110535 431.7118988 C379.87215075 437.50650707 376.18573966 442.54010849 371.75016785 447.38768005 C371.15977722 448.06959412 370.5693866 448.75150818 369.96110535 449.4540863 C358.14882184 462.29680306 339.76645286 471.20262881 322.42920148 472.66846168 C318.78328136 472.77445992 315.14776682 472.7925164 311.50033569 472.77536011 C310.09823298 472.77954211 308.69613366 472.78502434 307.2940405 472.79167992 C303.47350819 472.80604 299.65319333 472.80191964 295.83264959 472.79451311 C291.69959046 472.78976013 287.56657696 472.80231008 283.43353271 472.81253052 C275.34880788 472.82968275 267.26416088 472.83056591 259.17942258 472.82531761 C252.6042192 472.82126772 246.02903873 472.82272918 239.45383644 472.82806587 C238.51617034 472.82881429 237.57850424 472.82956272 236.61242402 472.83033382 C234.70722839 472.83186538 232.80203277 472.83340373 230.89683715 472.83494879 C213.05002466 472.84866109 195.20325606 472.84324525 177.35644457 472.83176357 C161.05225102 472.82183427 144.74817101 472.8347689 128.44399496 472.85869776 C111.67753684 472.8831185 94.91113154 472.89268922 78.144656 472.88604504 C68.74172019 472.8825592 59.33887163 472.88474272 49.93594933 472.90229607 C41.93084942 472.91705536 33.92589823 472.91760505 25.92080113 472.90022516 C21.84190462 472.89174304 17.76327334 472.88949673 13.68439102 472.90487671 C9.94050674 472.91881796 6.19711253 472.91384137 2.45325593 472.89463747 C0.47859666 472.88915653 -1.49608816 472.90306988 -3.47069865 472.91799158 C-15.40520314 472.82093592 -26.9521652 470.26289788 -37.56233215 464.63768005 C-38.22619934 464.29478943 -38.89006653 463.9518988 -39.5740509 463.59861755 C-45.36865917 460.50966295 -50.40226059 456.82325186 -55.24983215 452.38768005 C-56.27270325 451.50209412 -56.27270325 451.50209412 -57.3162384 450.59861755 C-70.15895516 438.78633404 -79.06478091 420.40396507 -80.53061378 403.06671369 C-80.63661202 399.42079357 -80.6546685 395.78527902 -80.63751221 392.1378479 C-80.6416942 390.73574519 -80.64717644 389.33364586 -80.65383202 387.93155271 C-80.6681921 384.1110204 -80.66407174 380.29070553 -80.65666521 376.4701618 C-80.65191222 372.33710267 -80.66446218 368.20408916 -80.67468262 364.07104492 C-80.69183485 355.98632008 -80.69271801 347.90167309 -80.68746971 339.81693479 C-80.68341982 333.24173141 -80.68488128 326.66655094 -80.69021797 320.09134865 C-80.69096639 319.15368255 -80.69171482 318.21601645 -80.69248592 317.24993623 C-80.69401748 315.3447406 -80.69555583 313.43954498 -80.69710089 311.53434936 C-80.71081319 293.68753686 -80.70539735 275.84076826 -80.69391567 257.99395678 C-80.68398637 241.68976323 -80.696921 225.38568321 -80.72084986 209.08150717 C-80.7452706 192.31504905 -80.75484132 175.54864375 -80.74819714 158.78216821 C-80.7447113 149.3792324 -80.74689482 139.97638384 -80.76444817 130.57346153 C-80.77920745 122.56836163 -80.77975715 114.56341043 -80.76237725 106.55831333 C-80.75389514 102.47941683 -80.75164883 98.40078554 -80.76702881 94.32190323 C-80.78097006 90.57801895 -80.77599347 86.83462474 -80.75678957 83.09076814 C-80.75130863 81.11610887 -80.76522197 79.14142405 -80.78014368 77.16681355 C-80.68308802 65.23230907 -78.12504998 53.685347 -72.49983215 43.07518005 C-72.15694153 42.41131287 -71.8140509 41.74744568 -71.46076965 41.0634613 C-68.37181505 35.26885304 -64.68540396 30.23525162 -60.24983215 25.38768005 C-59.65944153 24.70576599 -59.0690509 24.02385193 -58.46076965 23.3212738 C-43.42319711 6.97191302 -21.67887712 -0.10197019 0 0 Z " fill="#9C88FF" transform="translate(100.24983215332031,19.612319946289063)"/>
<path d="M0 0 C2.13719166 1.8168224 4.23831195 3.66976944 6.32202148 5.54760742 C7.87626078 6.94534345 9.44892216 8.31977068 11.02514648 9.69262695 C17.69657532 15.57075883 23.44782458 21.87941278 28.86889648 28.9387207 C29.57272461 29.80368164 30.27655273 30.66864258 31.00170898 31.55981445 C58.82521609 66.71317021 69.9275099 111.66660849 65.30053711 155.89379883 C64.91493051 158.9262091 64.40548447 161.92975265 63.86889648 164.9387207 C63.59432617 166.71375977 63.59432617 166.71375977 63.31420898 168.5246582 C61.43105664 179.42834278 57.82699797 189.63465883 53.86889648 199.9387207 C53.59561523 200.65205566 53.32233398 201.36539063 53.04077148 202.1003418 C46.43569554 218.98942386 36.63267452 234.18985608 24.86889648 247.9387207 C24.39871094 248.48866699 23.92852539 249.03861328 23.4440918 249.60522461 C11.89951214 262.93581405 -1.21594125 273.59676487 -16.13110352 282.9387207 C-17.10305664 283.56391602 -18.07500977 284.18911133 -19.07641602 284.83325195 C-36.58011978 295.63289091 -56.98730122 302.42015262 -77.13110352 305.9387207 C-78.59290039 306.2480957 -78.59290039 306.2480957 -80.08422852 306.5637207 C-115.64282149 313.40922523 -155.67615963 305.03909696 -187.13110352 287.9387207 C-188.05149414 287.44734619 -188.05149414 287.44734619 -188.99047852 286.94604492 C-197.60853807 282.32626781 -205.51501645 277.07821946 -213.13110352 270.9387207 C-213.68797852 270.49012695 -214.24485352 270.0415332 -214.81860352 269.5793457 C-233.59476508 254.32371443 -247.97492438 236.39126244 -259.13110352 214.9387207 C-259.60386719 214.04354736 -260.07663086 213.14837402 -260.5637207 212.22607422 C-274.32747012 185.56917399 -279.49753112 156.7087575 -278.13110352 126.9387207 C-278.09243164 126.00962891 -278.05375977 125.08053711 -278.01391602 124.12329102 C-275.95768614 81.22973105 -255.79590317 40.22939344 -224.94360352 10.5637207 C-201.44227882 -10.50643247 -173.43273665 -26.77510816 -142.1496582 -32.67163086 C-140.13519685 -33.06048915 -138.13977215 -33.50652727 -136.13891602 -33.9597168 C-90.28502308 -43.66791341 -36.19403227 -29.81092456 0 0 Z " fill="#9C88FF" transform="translate(362.131103515625,120.061279296875)"/>
<path d="M0 0 C2.13719166 1.8168224 4.23831195 3.66976944 6.32202148 5.54760742 C7.87626078 6.94534345 9.44892216 8.31977068 11.02514648 9.69262695 C17.69657532 15.57075883 23.44782458 21.87941278 28.86889648 28.9387207 C29.57272461 29.80368164 30.27655273 30.66864258 31.00170898 31.55981445 C58.82521609 66.71317021 69.9275099 111.66660849 65.30053711 155.89379883 C64.91493051 158.9262091 64.40548447 161.92975265 63.86889648 164.9387207 C63.59432617 166.71375977 63.59432617 166.71375977 63.31420898 168.5246582 C61.43105664 179.42834278 57.82699797 189.63465883 53.86889648 199.9387207 C53.59561523 200.65205566 53.32233398 201.36539063 53.04077148 202.1003418 C46.43569554 218.98942386 36.63267452 234.18985608 24.86889648 247.9387207 C24.39871094 248.48866699 23.92852539 249.03861328 23.4440918 249.60522461 C11.89951214 262.93581405 -1.21594125 273.59676487 -16.13110352 282.9387207 C-17.10305664 283.56391602 -18.07500977 284.18911133 -19.07641602 284.83325195 C-36.58011978 295.63289091 -56.98730122 302.42015262 -77.13110352 305.9387207 C-78.59290039 306.2480957 -78.59290039 306.2480957 -80.08422852 306.5637207 C-115.64282149 313.40922523 -155.67615963 305.03909696 -187.13110352 287.9387207 C-188.05149414 287.44734619 -188.05149414 287.44734619 -188.99047852 286.94604492 C-197.60853807 282.32626781 -205.51501645 277.07821946 -213.13110352 270.9387207 C-213.68797852 270.49012695 -214.24485352 270.0415332 -214.81860352 269.5793457 C-233.59476508 254.32371443 -247.97492438 236.39126244 -259.13110352 214.9387207 C-259.60386719 214.04354736 -260.07663086 213.14837402 -260.5637207 212.22607422 C-274.32747012 185.56917399 -279.49753112 156.7087575 -278.13110352 126.9387207 C-278.09243164 126.00962891 -278.05375977 125.08053711 -278.01391602 124.12329102 C-275.95768614 81.22973105 -255.79590317 40.22939344 -224.94360352 10.5637207 C-201.44227882 -10.50643247 -173.43273665 -26.77510816 -142.1496582 -32.67163086 C-140.13519685 -33.06048915 -138.13977215 -33.50652727 -136.13891602 -33.9597168 C-90.28502308 -43.66791341 -36.19403227 -29.81092456 0 0 Z M-161.13110352 -2.0612793 C-161.83106445 -1.77800781 -162.53102539 -1.49473633 -163.25219727 -1.20288086 C-199.57741868 13.87708491 -228.10043241 43.29949691 -243.40161133 79.32421875 C-247.35390762 89.00401096 -250.24326783 98.66107573 -252.13110352 108.9387207 C-252.46754883 110.69442383 -252.46754883 110.69442383 -252.81079102 112.4855957 C-259.05303118 150.96515837 -249.2337286 189.89264317 -227.18188477 221.75512695 C-203.92112432 253.78565345 -170.9588931 274.5988739 -132.13110352 281.9387207 C-131.00704102 282.1655957 -129.88297852 282.3924707 -128.72485352 282.6262207 C-95.84090891 288.37292947 -61.97216392 281.12688197 -33.13110352 264.9387207 C-32.47158691 264.56908203 -31.81207031 264.19944336 -31.13256836 263.81860352 C2.7198247 244.50008397 26.37860731 212.19466092 37.05639648 174.90356445 C47.54734094 136.27440828 41.78654538 95.53457479 22.11889648 60.8527832 C20.44636447 58.15040509 18.69785964 55.53756793 16.86889648 52.9387207 C15.87116211 51.51366211 15.87116211 51.51366211 14.85327148 50.05981445 C-9.49228375 16.47520858 -45.22659393 -4.74466906 -86.13110352 -11.3112793 C-111.44913208 -14.23054884 -137.44579762 -11.70142015 -161.13110352 -2.0612793 Z " fill="#FDFDFF" transform="translate(362.131103515625,120.061279296875)"/>
<path d="M0 0 C4.1281299 1.8240574 6.60718948 4.18913078 9 8 C9.07916624 10.97806303 8.94374189 13.47607351 8.56201172 16.39624023 C8.37967377 18.13689688 8.20011304 19.87784605 8.0229187 21.61903381 C7.92347836 22.54312609 7.82403801 23.46721836 7.72158432 24.41931343 C1.98467124 74.45583368 1.98467124 74.45583368 19.81765747 119.44941711 C33.70323968 135.93272557 50.61410987 150.15069523 67.95203972 162.88364315 C71.90087147 165.80174295 71.90087147 165.80174295 73 168 C73.40137875 172.17433895 73.26194303 174.49551713 71.3125 178.25 C68.02241753 182.1625305 65.71875309 183.67570696 60.6875 184.625 C50.77369423 182.94469394 41.42822286 169.59242194 34.47265625 162.640625 C33.07408242 161.24526861 31.67543517 159.8499858 30.27671814 158.45477295 C27.36100954 155.54502285 24.44734537 152.63324311 21.53491211 149.72021484 C17.79849323 145.98369372 14.05520444 142.25413618 10.31017399 138.52624893 C7.42694917 135.65411631 4.54825406 132.77747698 1.67083549 129.8995285 C0.29170379 128.52157807 -1.08905254 127.1452517 -2.4714489 125.77057648 C-4.3958047 123.85597818 -6.31376884 121.93519673 -8.23022461 120.01269531 C-8.8031575 119.44538193 -9.37609039 118.87806854 -9.96638489 118.29356384 C-13.71605409 114.51364307 -15.11206811 112.06038306 -15.16062927 106.77606201 C-15.1706749 105.91539627 -15.18072052 105.05473053 -15.19107056 104.16798401 C-15.19690155 103.22664108 -15.20273254 102.28529816 -15.20874023 101.31542969 C-15.21852402 100.32161789 -15.2283078 99.32780609 -15.23838806 98.30387878 C-15.26834047 95.00989116 -15.2897267 91.71594411 -15.30859375 88.421875 C-15.31845149 86.73457653 -15.31845149 86.73457653 -15.32850838 85.01319122 C-15.36110074 79.05942543 -15.38555238 73.10567753 -15.4050293 67.15185547 C-15.42284693 62.22418199 -15.4576757 57.29708024 -15.50756836 52.36962891 C-15.56773798 46.420363 -15.59850074 40.47162754 -15.60820198 34.52207184 C-15.61676284 32.25585002 -15.63559627 29.9896426 -15.6649456 27.72359467 C-15.70384765 24.54915053 -15.70489588 21.37677427 -15.69702148 18.20214844 C-15.71702209 17.26890244 -15.73702271 16.33565643 -15.75762939 15.37413025 C-15.69279794 9.54222941 -14.55788605 6.48886835 -10.48330784 2.27023697 C-7.16410789 -0.57217401 -4.25571771 -0.28852323 0 0 Z " fill="#FEFEFF" transform="translate(259,148)"/>
</svg>
