<?xml version="1.0" encoding="UTF-8"?>
<svg version="1.1" xmlns="http://www.w3.org/2000/svg" width="512" height="512">
<path d="M0 0 C1.40210271 -0.004182 2.80420204 -0.00966423 4.20629519 -0.01631981 C8.02682751 -0.03067989 11.84714237 -0.02655953 15.6676861 -0.019153 C19.80074523 -0.01440002 23.93375874 -0.02694997 28.06680298 -0.03717041 C36.15152782 -0.05432264 44.23617481 -0.0552058 52.32091311 -0.04995751 C58.89611649 -0.04590762 65.47129696 -0.04736908 72.04649925 -0.05270576 C73.4529984 -0.0538284 73.4529984 -0.0538284 74.88791167 -0.05497371 C76.7931073 -0.05650527 78.69830292 -0.05804362 80.60349854 -0.05958868 C98.45031104 -0.07330098 116.29707964 -0.06788514 134.14389112 -0.05640347 C150.44808467 -0.04647416 166.75216469 -0.05940879 183.05634073 -0.08333766 C199.82279885 -0.10775839 216.58920415 -0.11732911 233.35567969 -0.11068493 C242.7586155 -0.10719909 252.16146406 -0.10938261 261.56438637 -0.12693596 C269.56948627 -0.14169525 277.57443747 -0.14224494 285.57953457 -0.12486505 C289.65843107 -0.11638293 293.73706236 -0.11413662 297.81594467 -0.1295166 C301.55982895 -0.14345785 305.30322316 -0.13848126 309.04707976 -0.11927737 C311.02173903 -0.11379642 312.99642385 -0.12770977 314.97103435 -0.14263147 C326.90553883 -0.04557581 338.4525009 2.51246223 349.06266785 8.13768005 C349.72653503 8.48057068 350.39040222 8.8234613 351.0743866 9.17674255 C356.86899486 12.26569715 361.90259628 15.95210824 366.75016785 20.38768005 C367.43208191 20.97807068 368.11399597 21.5684613 368.8165741 22.17674255 C381.65929085 33.98902606 390.56511661 52.37139504 392.03094947 69.70864642 C392.13694771 73.35456654 392.1550042 76.99008109 392.1378479 80.63751221 C392.1420299 82.03961492 392.14751213 83.44171425 392.15416771 84.8438074 C392.16852779 88.66433971 392.16440743 92.48465457 392.1570009 96.30519831 C392.15224792 100.43825744 392.16479787 104.57127095 392.17501831 108.70431519 C392.19217054 116.78904002 392.1930537 124.87368702 392.18780541 132.95842532 C392.18375552 139.5336287 392.18521698 146.10880917 392.19055367 152.68401146 C392.19130209 153.62167756 392.19205051 154.55934366 392.19282161 155.52542388 C392.19435317 157.43061951 392.19589152 159.33581513 392.19743658 161.24101075 C392.21114888 179.08782324 392.20573304 196.93459184 392.19425137 214.78140333 C392.18432206 231.08559688 392.19725669 247.3896769 392.22118556 263.69385294 C392.24560629 280.46031106 392.25517702 297.22671636 392.24853283 313.9931919 C392.24504699 323.39612771 392.24723051 332.79897627 392.26478386 342.20189857 C392.27954315 350.20699848 392.28009284 358.21194967 392.26271295 366.21704677 C392.25423083 370.29594328 392.25198452 374.37457456 392.2673645 378.45345688 C392.28130575 382.19734116 392.27632916 385.94073537 392.25712527 389.68459197 C392.25164432 391.65925124 392.26555767 393.63393606 392.28047937 395.60854656 C392.18342371 407.54305104 389.62538567 419.0900131 384.00016785 429.70018005 C383.48583191 430.69598083 383.48583191 430.69598083 382.96110535 431.7118988 C379.87215075 437.50650707 376.18573966 442.54010849 371.75016785 447.38768005 C371.15977722 448.06959412 370.5693866 448.75150818 369.96110535 449.4540863 C358.14882184 462.29680306 339.76645286 471.20262881 322.42920148 472.66846168 C318.78328136 472.77445992 315.14776682 472.7925164 311.50033569 472.77536011 C310.09823298 472.77954211 308.69613366 472.78502434 307.2940405 472.79167992 C303.47350819 472.80604 299.65319333 472.80191964 295.83264959 472.79451311 C291.69959046 472.78976013 287.56657696 472.80231008 283.43353271 472.81253052 C275.34880788 472.82968275 267.26416088 472.83056591 259.17942258 472.82531761 C252.6042192 472.82126772 246.02903873 472.82272918 239.45383644 472.82806587 C238.51617034 472.82881429 237.57850424 472.82956272 236.61242402 472.83033382 C234.70722839 472.83186538 232.80203277 472.83340373 230.89683715 472.83494879 C213.05002466 472.84866109 195.20325606 472.84324525 177.35644457 472.83176357 C161.05225102 472.82183427 144.74817101 472.8347689 128.44399496 472.85869776 C111.67753684 472.8831185 94.91113154 472.89268922 78.144656 472.88604504 C68.74172019 472.8825592 59.33887163 472.88474272 49.93594933 472.90229607 C41.93084942 472.91705536 33.92589823 472.91760505 25.92080113 472.90022516 C21.84190462 472.89174304 17.76327334 472.88949673 13.68439102 472.90487671 C9.94050674 472.91881796 6.19711253 472.91384137 2.45325593 472.89463747 C0.47859666 472.88915653 -1.49608816 472.90306988 -3.47069865 472.91799158 C-15.40520314 472.82093592 -26.9521652 470.26289788 -37.56233215 464.63768005 C-38.22619934 464.29478943 -38.89006653 463.9518988 -39.5740509 463.59861755 C-45.36865917 460.50966295 -50.40226059 456.82325186 -55.24983215 452.38768005 C-56.27270325 451.50209412 -56.27270325 451.50209412 -57.3162384 450.59861755 C-70.15895516 438.78633404 -79.06478091 420.40396507 -80.53061378 403.06671369 C-80.63661202 399.42079357 -80.6546685 395.78527902 -80.63751221 392.1378479 C-80.6416942 390.73574519 -80.64717644 389.33364586 -80.65383202 387.93155271 C-80.6681921 384.1110204 -80.66407174 380.29070553 -80.65666521 376.4701618 C-80.65191222 372.33710267 -80.66446218 368.20408916 -80.67468262 364.07104492 C-80.69183485 355.98632008 -80.69271801 347.90167309 -80.68746971 339.81693479 C-80.68341982 333.24173141 -80.68488128 326.66655094 -80.69021797 320.09134865 C-80.69096639 319.15368255 -80.69171482 318.21601645 -80.69248592 317.24993623 C-80.69401748 315.3447406 -80.69555583 313.43954498 -80.69710089 311.53434936 C-80.71081319 293.68753686 -80.70539735 275.84076826 -80.69391567 257.99395678 C-80.68398637 241.68976323 -80.696921 225.38568321 -80.72084986 209.08150717 C-80.7452706 192.31504905 -80.75484132 175.54864375 -80.74819714 158.78216821 C-80.7447113 149.3792324 -80.74689482 139.97638384 -80.76444817 130.57346153 C-80.77920745 122.56836163 -80.77975715 114.56341043 -80.76237725 106.55831333 C-80.75389514 102.47941683 -80.75164883 98.40078554 -80.76702881 94.32190323 C-80.78097006 90.57801895 -80.77599347 86.83462474 -80.75678957 83.09076814 C-80.75130863 81.11610887 -80.76522197 79.14142405 -80.78014368 77.16681355 C-80.68308802 65.23230907 -78.12504998 53.685347 -72.49983215 43.07518005 C-72.15694153 42.41131287 -71.8140509 41.74744568 -71.46076965 41.0634613 C-68.37181505 35.26885304 -64.68540396 30.23525162 -60.24983215 25.38768005 C-59.65944153 24.70576599 -59.0690509 24.02385193 -58.46076965 23.3212738 C-43.42319711 6.97191302 -21.67887712 -0.10197019 0 0 Z " fill="#0FBCF9" transform="translate(100.24983215332031,19.612319946289063)"/>
<path d="M0 0 C3.5678035 3.1144243 6.99200919 6.36180143 10.40283203 9.64648438 C11.04736328 10.22785156 11.69189453 10.80921875 12.35595703 11.40820312 C27.15420485 25.13461524 37.00916827 45.48478416 42.40283203 64.64648438 C42.63486328 65.4225 42.86689453 66.19851562 43.10595703 66.99804688 C51.37964732 96.66513633 44.99170089 130.94814355 30.45263672 157.49560547 C24.92148951 167.20295443 18.04372147 175.54291132 10.40283203 183.64648438 C9.74025391 184.38511719 9.07767578 185.12375 8.39501953 185.88476562 C-12.43917249 208.18448066 -44.024325 219.62794331 -73.96826172 220.92773438 C-84.89168974 221.21068886 -94.9753166 220.19395655 -105.59716797 217.64648438 C-106.80244141 217.39125 -108.00771484 217.13601563 -109.24951172 216.87304688 C-133.28030415 211.28210477 -153.5308733 197.01844402 -170.59716797 179.64648438 C-169.31458509 175.79873573 -167.52097711 174.75791774 -164.34716797 172.27148438 C-161.33796842 169.9047896 -158.54549428 167.59377721 -155.86279297 164.85742188 C-153.59716797 162.64648438 -153.59716797 162.64648438 -151.59716797 162.64648438 C-150.59175306 163.75123669 -149.64352969 164.9082168 -148.72216797 166.08398438 C-137.11212521 179.59731283 -119.60450969 188.25434448 -102.59716797 192.64648438 C-101.38029297 193.03835938 -100.16341797 193.43023437 -98.90966797 193.83398438 C-74.32846766 199.86333539 -47.13798231 194.22720618 -25.72924805 181.328125 C-19.09153761 177.10035445 -13.24153808 172.11733859 -7.59716797 166.64648438 C-6.99775391 166.12054688 -6.39833984 165.59460938 -5.78076172 165.05273438 C9.55985055 151.10025175 19.42559288 127.64426049 20.59570312 107.29174805 C21.21242496 80.67366008 17.86614822 58.50433378 1.40283203 36.64648438 C0.74798828 35.76605469 0.09314453 34.885625 -0.58154297 33.97851562 C-16.73427057 13.21481437 -41.73825925 0.96664056 -67.59716797 -2.35351562 C-97.6454013 -3.80355564 -122.79039932 4.16710405 -145.72216797 23.95898438 C-160.39385089 37.58765666 -168.65234413 53.80955236 -174.59716797 72.64648438 C-173.53804199 72.19208984 -173.53804199 72.19208984 -172.45751953 71.72851562 C-169.25718846 70.36040303 -166.05228602 69.00334213 -162.84716797 67.64648438 C-161.73599609 67.16953125 -160.62482422 66.69257813 -159.47998047 66.20117188 C-158.41005859 65.75 -157.34013672 65.29882812 -156.23779297 64.83398438 C-155.25327148 64.41503906 -154.26875 63.99609375 -153.25439453 63.56445312 C-150.59716797 62.64648438 -150.59716797 62.64648438 -146.59716797 62.64648438 C-145.25825236 65.93590803 -143.92699094 69.22837546 -142.59716797 72.52148438 C-142.21560547 73.45863281 -141.83404297 74.39578125 -141.44091797 75.36132812 C-141.07998047 76.25722656 -140.71904297 77.153125 -140.34716797 78.07617188 C-139.84443359 79.31729736 -139.84443359 79.31729736 -139.33154297 80.58349609 C-138.59716797 82.64648438 -138.59716797 82.64648438 -138.59716797 84.64648438 C-153.21916293 90.68470196 -167.88628825 96.6073258 -182.6138916 102.38323975 C-184.22590087 103.0163462 -185.83699041 103.65179954 -187.44714355 104.28961182 C-189.72244263 105.19003807 -192.001052 106.08151335 -194.28076172 106.97070312 C-194.96196579 107.24205582 -195.64316986 107.51340851 -196.34501648 107.79298401 C-199.70248738 109.09085208 -201.93327977 109.64648438 -205.59716797 109.64648438 C-205.89260498 108.88021729 -206.18804199 108.1139502 -206.49243164 107.32446289 C-207.92197502 103.61883855 -209.35308822 99.91382231 -210.78466797 96.20898438 C-211.04783813 95.5275235 -211.3110083 94.84606262 -211.58215332 94.14395142 C-214.78521267 85.85318971 -218.01262361 77.57280315 -221.28857422 69.31054688 C-221.58777267 68.55513107 -221.88697113 67.79971527 -222.19523621 67.02140808 C-223.65319579 63.34136275 -225.11493548 59.66288734 -226.58227539 55.98657227 C-227.11341257 54.64800132 -227.64442505 53.30938088 -228.17529297 51.97070312 C-228.64354492 50.79596436 -229.11179687 49.62122559 -229.59423828 48.41088867 C-230.59716797 45.64648438 -230.59716797 45.64648438 -230.59716797 43.64648438 C-227.32973141 42.30471657 -224.05769889 40.97454079 -220.78466797 39.64648438 C-219.85589844 39.26492187 -218.92712891 38.88335937 -217.97021484 38.49023438 C-217.07753906 38.12929687 -216.18486328 37.76835937 -215.26513672 37.39648438 C-214.03186646 36.89375 -214.03186646 36.89375 -212.77368164 36.38085938 C-210.59716797 35.64648438 -210.59716797 35.64648438 -207.59716797 35.64648438 C-204.29716797 44.22648437 -200.99716797 52.80648437 -197.59716797 61.64648438 C-196.42154297 58.77960938 -195.24591797 55.91273438 -194.03466797 52.95898438 C-188.40946264 39.5397509 -181.87340901 27.86959082 -172.59716797 16.64648438 C-171.49888672 15.31617188 -171.49888672 15.31617188 -170.37841797 13.95898438 C-128.43666554 -34.66913439 -49.30928304 -41.78701699 0 0 Z " fill="#FCFEFE" transform="translate(347.59716796875,159.353515625)"/>
</svg>
