<?xml version="1.0" encoding="UTF-8"?>
<svg version="1.1" xmlns="http://www.w3.org/2000/svg" width="512" height="512">
<path d="M0 0 C1.40210271 -0.004182 2.80420204 -0.00966423 4.20629519 -0.01631981 C8.02682751 -0.03067989 11.84714237 -0.02655953 15.6676861 -0.019153 C19.80074523 -0.01440002 23.93375874 -0.02694997 28.06680298 -0.03717041 C36.15152782 -0.05432264 44.23617481 -0.0552058 52.32091311 -0.04995751 C58.89611649 -0.04590762 65.47129696 -0.04736908 72.04649925 -0.05270576 C73.4529984 -0.0538284 73.4529984 -0.0538284 74.88791167 -0.05497371 C76.7931073 -0.05650527 78.69830292 -0.05804362 80.60349854 -0.05958868 C98.45031104 -0.07330098 116.29707964 -0.06788514 134.14389112 -0.05640347 C150.44808467 -0.04647416 166.75216469 -0.05940879 183.05634073 -0.08333766 C199.82279885 -0.10775839 216.58920415 -0.11732911 233.35567969 -0.11068493 C242.7586155 -0.10719909 252.16146406 -0.10938261 261.56438637 -0.12693596 C269.56948627 -0.14169525 277.57443747 -0.14224494 285.57953457 -0.12486505 C289.65843107 -0.11638293 293.73706236 -0.11413662 297.81594467 -0.1295166 C301.55982895 -0.14345785 305.30322316 -0.13848126 309.04707976 -0.11927737 C311.02173903 -0.11379642 312.99642385 -0.12770977 314.97103435 -0.14263147 C326.90553883 -0.04557581 338.4525009 2.51246223 349.06266785 8.13768005 C349.72653503 8.48057068 350.39040222 8.8234613 351.0743866 9.17674255 C356.86899486 12.26569715 361.90259628 15.95210824 366.75016785 20.38768005 C367.43208191 20.97807068 368.11399597 21.5684613 368.8165741 22.17674255 C381.65929085 33.98902606 390.56511661 52.37139504 392.03094947 69.70864642 C392.13694771 73.35456654 392.1550042 76.99008109 392.1378479 80.63751221 C392.1420299 82.03961492 392.14751213 83.44171425 392.15416771 84.8438074 C392.16852779 88.66433971 392.16440743 92.48465457 392.1570009 96.30519831 C392.15224792 100.43825744 392.16479787 104.57127095 392.17501831 108.70431519 C392.19217054 116.78904002 392.1930537 124.87368702 392.18780541 132.95842532 C392.18375552 139.5336287 392.18521698 146.10880917 392.19055367 152.68401146 C392.19130209 153.62167756 392.19205051 154.55934366 392.19282161 155.52542388 C392.19435317 157.43061951 392.19589152 159.33581513 392.19743658 161.24101075 C392.21114888 179.08782324 392.20573304 196.93459184 392.19425137 214.78140333 C392.18432206 231.08559688 392.19725669 247.3896769 392.22118556 263.69385294 C392.24560629 280.46031106 392.25517702 297.22671636 392.24853283 313.9931919 C392.24504699 323.39612771 392.24723051 332.79897627 392.26478386 342.20189857 C392.27954315 350.20699848 392.28009284 358.21194967 392.26271295 366.21704677 C392.25423083 370.29594328 392.25198452 374.37457456 392.2673645 378.45345688 C392.28130575 382.19734116 392.27632916 385.94073537 392.25712527 389.68459197 C392.25164432 391.65925124 392.26555767 393.63393606 392.28047937 395.60854656 C392.18342371 407.54305104 389.62538567 419.0900131 384.00016785 429.70018005 C383.48583191 430.69598083 383.48583191 430.69598083 382.96110535 431.7118988 C379.87215075 437.50650707 376.18573966 442.54010849 371.75016785 447.38768005 C371.15977722 448.06959412 370.5693866 448.75150818 369.96110535 449.4540863 C358.14882184 462.29680306 339.76645286 471.20262881 322.42920148 472.66846168 C318.78328136 472.77445992 315.14776682 472.7925164 311.50033569 472.77536011 C310.09823298 472.77954211 308.69613366 472.78502434 307.2940405 472.79167992 C303.47350819 472.80604 299.65319333 472.80191964 295.83264959 472.79451311 C291.69959046 472.78976013 287.56657696 472.80231008 283.43353271 472.81253052 C275.34880788 472.82968275 267.26416088 472.83056591 259.17942258 472.82531761 C252.6042192 472.82126772 246.02903873 472.82272918 239.45383644 472.82806587 C238.51617034 472.82881429 237.57850424 472.82956272 236.61242402 472.83033382 C234.70722839 472.83186538 232.80203277 472.83340373 230.89683715 472.83494879 C213.05002466 472.84866109 195.20325606 472.84324525 177.35644457 472.83176357 C161.05225102 472.82183427 144.74817101 472.8347689 128.44399496 472.85869776 C111.67753684 472.8831185 94.91113154 472.89268922 78.144656 472.88604504 C68.74172019 472.8825592 59.33887163 472.88474272 49.93594933 472.90229607 C41.93084942 472.91705536 33.92589823 472.91760505 25.92080113 472.90022516 C21.84190462 472.89174304 17.76327334 472.88949673 13.68439102 472.90487671 C9.94050674 472.91881796 6.19711253 472.91384137 2.45325593 472.89463747 C0.47859666 472.88915653 -1.49608816 472.90306988 -3.47069865 472.91799158 C-15.40520314 472.82093592 -26.9521652 470.26289788 -37.56233215 464.63768005 C-38.22619934 464.29478943 -38.89006653 463.9518988 -39.5740509 463.59861755 C-45.36865917 460.50966295 -50.40226059 456.82325186 -55.24983215 452.38768005 C-56.27270325 451.50209412 -56.27270325 451.50209412 -57.3162384 450.59861755 C-70.15895516 438.78633404 -79.06478091 420.40396507 -80.53061378 403.06671369 C-80.63661202 399.42079357 -80.6546685 395.78527902 -80.63751221 392.1378479 C-80.6416942 390.73574519 -80.64717644 389.33364586 -80.65383202 387.93155271 C-80.6681921 384.1110204 -80.66407174 380.29070553 -80.65666521 376.4701618 C-80.65191222 372.33710267 -80.66446218 368.20408916 -80.67468262 364.07104492 C-80.69183485 355.98632008 -80.69271801 347.90167309 -80.68746971 339.81693479 C-80.68341982 333.24173141 -80.68488128 326.66655094 -80.69021797 320.09134865 C-80.69096639 319.15368255 -80.69171482 318.21601645 -80.69248592 317.24993623 C-80.69401748 315.3447406 -80.69555583 313.43954498 -80.69710089 311.53434936 C-80.71081319 293.68753686 -80.70539735 275.84076826 -80.69391567 257.99395678 C-80.68398637 241.68976323 -80.696921 225.38568321 -80.72084986 209.08150717 C-80.7452706 192.31504905 -80.75484132 175.54864375 -80.74819714 158.78216821 C-80.7447113 149.3792324 -80.74689482 139.97638384 -80.76444817 130.57346153 C-80.77920745 122.56836163 -80.77975715 114.56341043 -80.76237725 106.55831333 C-80.75389514 102.47941683 -80.75164883 98.40078554 -80.76702881 94.32190323 C-80.78097006 90.57801895 -80.77599347 86.83462474 -80.75678957 83.09076814 C-80.75130863 81.11610887 -80.76522197 79.14142405 -80.78014368 77.16681355 C-80.68308802 65.23230907 -78.12504998 53.685347 -72.49983215 43.07518005 C-72.15694153 42.41131287 -71.8140509 41.74744568 -71.46076965 41.0634613 C-68.37181505 35.26885304 -64.68540396 30.23525162 -60.24983215 25.38768005 C-59.65944153 24.70576599 -59.0690509 24.02385193 -58.46076965 23.3212738 C-43.42319711 6.97191302 -21.67887712 -0.10197019 0 0 Z " fill="#FFC048" transform="translate(100.24983215332031,19.612319946289063)"/>
<path d="M0 0 C1.46987897 0.00084857 2.93975921 0.00036666 4.40963745 -0.00132751 C8.35720346 -0.00217994 12.30448986 0.01532206 16.25199151 0.03639436 C20.39325517 0.05528836 24.53452691 0.05692154 28.67582703 0.06047058 C36.49884235 0.06975399 44.32173025 0.09431699 52.14468974 0.12451905 C61.05895109 0.15817916 69.97321887 0.17457811 78.88752806 0.18960536 C97.20723785 0.22087034 115.52682173 0.27417002 133.84643555 0.34057617 C133.84643555 8.26057617 133.84643555 16.18057617 133.84643555 24.34057617 C131.16154999 24.34937553 131.16154999 24.34937553 128.42242432 24.35835266 C111.53193828 24.41563228 94.6415791 24.48824633 77.75122452 24.57629108 C69.06829293 24.62116267 60.38540156 24.66059702 51.70239258 24.68701172 C44.12994369 24.710062 36.55762303 24.74353788 28.98527598 24.78927773 C24.97969999 24.81311562 20.97425023 24.83190594 16.96860504 24.83819008 C13.18956817 24.84428399 9.41085392 24.86443683 5.63193703 24.89485168 C3.6017852 24.90768176 1.57155773 24.90607382 -0.45863342 24.90385437 C-16.83781556 25.06993328 -30.92999084 29.49905679 -42.90356445 40.99291992 C-53.88083284 52.44663225 -59.58167928 65.24777232 -59.51928711 81.14135742 C-59.16304749 97.29960218 -53.71707432 110.20730105 -42.6262207 122.02026367 C-33.08743302 130.97135353 -19.41181655 137.47528464 -6.18644714 137.46083069 C-5.21194611 137.46220535 -4.23744507 137.46358002 -3.2334137 137.46499634 C-1.64737587 137.45960342 -1.64737587 137.45960342 -0.02929688 137.45410156 C1.09309387 137.45424759 2.21548462 137.45439362 3.37188721 137.45454407 C7.07826679 137.45384793 10.784596 137.44606945 14.4909668 137.43823242 C17.06214877 137.43636718 19.6333311 137.43494378 22.20451355 137.4339447 C28.27819495 137.4305179 34.3518556 137.422638 40.42552918 137.41259521 C47.34207692 137.40140763 54.25862554 137.39591696 61.17518008 137.39089978 C75.39894318 137.38045467 89.62268503 137.36211978 103.84643555 137.34057617 C88.99643555 122.49057617 88.99643555 122.49057617 73.84643555 107.34057617 C77.58932129 102.97387614 81.16047207 98.90916176 85.22143555 94.90307617 C86.09541992 94.03811523 86.9694043 93.1731543 87.86987305 92.28198242 C88.52213867 91.64131836 89.1744043 91.0006543 89.84643555 90.34057617 C93.8621481 91.94917121 96.55123168 94.77697982 99.53295898 97.80004883 C100.08949661 98.3562944 100.64603424 98.91253998 101.21943665 99.48564148 C103.05300997 101.32060522 104.87940226 103.16254548 106.70581055 105.00463867 C107.97761079 106.28017006 109.24985408 107.55525984 110.52252197 108.82992554 C113.86749812 112.18253012 117.20642406 115.5410979 120.54412842 118.90093994 C123.95246385 122.32975073 127.366483 125.7528919 130.7800293 129.17651367 C137.47440852 135.89232889 144.16241021 142.61445711 150.84643555 149.34057617 C145.22705893 156.19964733 138.94329044 162.37067108 132.66674805 168.61791992 C131.48683108 169.79596875 130.30713697 170.97424083 129.12765503 172.15272522 C126.04253864 175.23404759 122.95442966 178.31235333 119.86566162 181.39001465 C116.70637822 184.53901651 113.54997038 187.69089788 110.39331055 190.8425293 C104.21381027 197.01134728 98.03114165 203.17697746 91.84643555 209.34057617 C88.9402442 207.94461131 86.87521789 206.60993416 84.61206055 204.30151367 C83.75161133 203.43139648 83.75161133 203.43139648 82.8737793 202.54370117 C82.28725586 201.94041992 81.70073242 201.33713867 81.09643555 200.71557617 C80.49444336 200.10456055 79.89245117 199.49354492 79.2722168 198.86401367 C77.79238249 197.36068993 76.31878878 195.85122761 74.84643555 194.34057617 C76.3590169 190.76976752 78.44685662 188.52113591 81.20581055 185.82104492 C82.07463867 184.96317383 82.9434668 184.10530273 83.83862305 183.22143555 C84.74870117 182.33262695 85.6587793 181.44381836 86.59643555 180.52807617 C88.38529663 178.77401282 90.17180844 177.01754995 91.95581055 175.25854492 C92.74955078 174.482771 93.54329102 173.70699707 94.36108398 172.90771484 C96.32635042 170.87777608 98.17191635 168.8283245 100.00177002 166.68013 C100.53621861 166.05360692 101.07066719 165.42708384 101.62131119 164.7815752 C102.02560223 164.30604552 102.42989326 163.83051584 102.84643555 163.34057617 C102.26335129 163.33910961 101.68026703 163.33764305 101.07951355 163.33613205 C86.82016176 163.29890401 72.56102275 163.23968008 58.30186462 163.15667343 C51.40591091 163.11704769 44.51006859 163.08457241 37.61401367 163.06958008 C30.94835873 163.05506776 24.28309907 163.01976993 17.61758423 162.97226715 C15.08536803 162.95752692 12.55310246 162.94953943 10.02084351 162.94869232 C-17.4701256 162.93026123 -40.87098775 158.08543827 -61.2980957 138.28198242 C-76.78872008 122.6566119 -84.46131381 102.65213846 -84.65356445 80.84057617 C-84.46084677 60.65900141 -77.95104645 42.30906217 -64.15356445 27.34057617 C-63.01274414 26.07987305 -63.01274414 26.07987305 -61.84887695 24.79370117 C-45.02989954 7.06123297 -24.01919689 -0.19725383 0 0 Z " fill="#FFFEFD" transform="translate(225.153564453125,164.659423828125)"/>
</svg>
