<?xml version="1.0" encoding="UTF-8"?>
<svg version="1.1" xmlns="http://www.w3.org/2000/svg" width="512" height="512">
<path d="M0 0 C168.96 0 337.92 0 512 0 C512 168.96 512 337.92 512 512 C343.04 512 174.08 512 0 512 C0 343.04 0 174.08 0 0 Z " fill="#F97463" transform="translate(0,0)"/>
<path d="M0 0 C1.53857391 -0.0083016 1.53857391 -0.0083016 3.10823011 -0.0167709 C6.5499786 -0.03039908 9.99100467 -0.01539583 13.43273926 -0.00050354 C15.89824227 -0.00428591 18.36374317 -0.00978527 20.82923889 -0.01687622 C26.83350198 -0.02940607 32.83748123 -0.02325238 38.84171689 -0.00820064 C45.83379098 0.00866022 52.82581269 0.0054491 59.81790084 0.00170528 C72.29356006 -0.00417337 84.76911835 0.00999842 97.24475098 0.03465271 C109.35058373 0.05857352 121.45628164 0.06565699 133.56213379 0.05516052 C146.74447018 0.04375116 159.9267442 0.04182147 173.10907984 0.05625862 C174.51474157 0.05778446 175.92040332 0.05930481 177.32606506 0.06081963 C178.01767824 0.06157744 178.70929142 0.06233525 179.42186257 0.06311603 C184.29573173 0.06785873 189.16957304 0.06600753 194.04344177 0.06175423 C200.60322546 0.05631306 207.16284937 0.06706952 213.72260857 0.08870888 C216.13289191 0.09428243 218.54319322 0.09473687 220.95347786 0.08975601 C224.23815577 0.08381854 227.52225872 0.09627941 230.80688477 0.11352539 C231.76553798 0.10751535 232.7241912 0.1015053 233.71189451 0.09531313 C250.92959319 0.26021973 266.4732223 22.91361557 277.87121582 34.33860779 C280.30487942 36.77800801 282.74306347 39.21283314 285.1825695 41.64638901 C287.5477021 44.00701124 289.90898813 46.37146582 292.27062988 48.73558044 C293.13429169 49.59721802 293.99795349 50.45885559 294.88778687 51.34660339 C295.70619049 52.16815918 296.52459412 52.98971497 297.36779785 53.83616638 C298.07693329 54.54609741 298.78606873 55.25602844 299.51669312 55.98747253 C301.90344238 58.50120544 301.90344238 58.50120544 303.2396574 60.21724606 C306.79701593 64.67415943 310.72588019 67.97375354 315.4188385 71.17822266 C339.60709002 87.73665045 367.9237419 109.44922968 374.65522683 139.47407734 C377.71118618 155.97131522 378.10470771 172.73332679 378.05578613 189.46604919 C378.0543177 190.13782119 378.05284927 190.80959319 378.05133635 191.50172192 C377.99651133 208.8902064 377.32039079 226.23907589 376.44112551 243.60289061 C375.93619959 253.6863367 375.59606775 263.76605174 375.36413574 273.85935974 C375.34758416 274.57760907 375.33103258 275.29585841 375.31397944 276.03587287 C375.231717 279.64185735 375.15211429 283.24789472 375.07382953 286.85396755 C374.42853759 316.42196188 373.32156101 345.95970717 371.90344238 375.50120544 C339.71631455 379.54346853 307.49681028 382.19579257 275.09094238 383.68870544 C273.89817924 383.7450692 272.7054161 383.80143295 271.47650862 383.8595047 C211.17041754 386.62548553 160.57184275 384.39018989 114.28019905 342.32922935 C103.45916572 332.30159516 93.47528167 321.55339761 83.71594238 310.50120544 C83.02922439 309.72636291 82.3425064 308.95152038 81.63497877 308.15319777 C65.70580037 290.14260663 50.62595017 271.55460345 36.50708079 252.09184116 C31.37427972 245.02148424 25.966851 238.42925575 19.77575684 232.25999451 C18.68476433 231.1691153 18.68476433 231.1691153 17.57173157 230.05619812 C16.81107895 229.30070679 16.05042633 228.54521545 15.26672363 227.76683044 C14.4648613 226.96638306 13.66299896 226.16593567 12.83683777 225.3412323 C10.2988999 222.8088429 7.75749471 220.27996675 5.21594238 217.75120544 C3.49891302 216.039199 1.782114 214.3269615 0.06555176 212.61448669 C-3.70683655 208.85187361 -7.48140826 205.09146719 -11.25798035 201.33305359 C-12.1680761 200.42628876 -12.1680761 200.42628876 -13.09655762 199.50120544 C-13.79243484 198.84690552 -14.48831207 198.19260559 -15.20527649 197.51847839 C-19.0931512 193.37160443 -19.38885194 189.71750678 -19.36398315 184.18910217 C-19.36851427 183.45079489 -19.37304538 182.71248761 -19.3777138 181.95180738 C-19.39037826 179.47683615 -19.38873613 177.0020844 -19.38708496 174.52708435 C-19.39306893 172.75299801 -19.39987417 170.97891428 -19.40744019 169.20483398 C-19.42512056 164.38455988 -19.42979642 159.56435676 -19.43107176 154.74405336 C-19.43297036 150.72066413 -19.44032743 146.69729145 -19.44741595 142.67390859 C-19.46370516 133.18176204 -19.46858441 123.68965343 -19.46716309 114.19749451 C-19.46596141 104.40447653 -19.48706716 94.61167886 -19.51865041 84.81871665 C-19.54479775 76.41180719 -19.55553103 68.00496977 -19.55425227 59.59801996 C-19.55374219 54.57653015 -19.55945062 49.5552361 -19.58060837 44.53378677 C-19.59996482 39.81084775 -19.60013301 35.08829176 -19.5855751 30.36533928 C-19.5834827 28.63273879 -19.58821358 26.90011448 -19.60029602 25.16755486 C-19.61573407 22.80034471 -19.60645112 20.43445767 -19.59103394 18.067276 C-19.60132106 17.38321989 -19.61160819 16.69916377 -19.62220705 15.99437869 C-19.53369209 9.83545314 -16.97503331 6.57888751 -12.97759247 2.15753078 C-8.69925766 -0.30211123 -4.85507001 -0.04864426 0 0 Z " fill="#E46154" transform="translate(140.0965576171875,136.49879455566406)"/>
<path d="M0 0 C75.57 0 151.14 0 229 0 C229 53.46 229 106.92 229 162 C153.43 162 77.86 162 0 162 C0 108.54 0 55.08 0 0 Z " fill="#70CEF2" transform="translate(142,157)"/>
<path d="M0 0 C1.53857391 -0.0083016 1.53857391 -0.0083016 3.10823011 -0.0167709 C6.5499786 -0.03039908 9.99100467 -0.01539583 13.43273926 -0.00050354 C15.89824227 -0.00428591 18.36374317 -0.00978527 20.82923889 -0.01687622 C26.83350198 -0.02940607 32.83748123 -0.02325238 38.84171689 -0.00820064 C45.83379098 0.00866022 52.82581269 0.0054491 59.81790084 0.00170528 C72.29356006 -0.00417337 84.76911835 0.00999842 97.24475098 0.03465271 C109.35058373 0.05857352 121.45628164 0.06565699 133.56213379 0.05516052 C146.74447018 0.04375116 159.9267442 0.04182147 173.10907984 0.05625862 C174.51474157 0.05778446 175.92040332 0.05930481 177.32606506 0.06081963 C178.01767824 0.06157744 178.70929142 0.06233525 179.42186257 0.06311603 C184.29573173 0.06785873 189.16957304 0.06600753 194.04344177 0.06175423 C200.60322546 0.05631306 207.16284937 0.06706952 213.72260857 0.08870888 C216.13289191 0.09428243 218.54319322 0.09473687 220.95347786 0.08975601 C224.23815577 0.08381854 227.52225872 0.09627941 230.80688477 0.11352539 C231.76553798 0.10751535 232.7241912 0.1015053 233.71189451 0.09531313 C240.16622315 0.157131 243.46355612 1.12864088 248.18461704 5.7194376 C250.33657096 9.202186 250.45965282 12.03867388 250.40464783 16.00949097 C250.41018222 16.75681978 250.41571662 17.50414859 250.42141873 18.27412373 C250.43501288 20.77390447 250.42006337 23.2726846 250.40515137 25.77244568 C250.40893504 27.56638513 250.41443548 29.36032166 250.42152405 31.1542511 C250.43549067 36.02416142 250.42429993 40.8937189 250.40781283 45.76360965 C250.39396453 50.86039429 250.40042225 55.95715841 250.40394592 61.05395508 C250.40664846 69.61431057 250.3931695 78.17452589 250.36999512 86.73484802 C250.34339362 96.62954385 250.34163544 106.52400516 250.35338348 116.41872448 C250.36416639 125.93828927 250.35796959 135.45776928 250.3438282 144.97732735 C250.33807201 149.02783781 250.33814823 153.07828616 250.3428936 157.12879753 C250.34766924 161.90015412 250.33753731 166.67125428 250.31593895 171.4425621 C250.3103786 173.19288709 250.30989888 174.94323676 250.31489182 176.69356346 C250.32085665 179.08463811 250.30831704 181.47493191 250.29112244 183.86593628 C250.3001375 184.90267012 250.3001375 184.90267012 250.3093347 185.96034807 C250.24951021 190.54166127 249.45111305 193.6843237 246.90344238 197.50120544 C241.83978624 202.15197343 237.2511049 202.06824846 230.73132324 202.00241089 C229.19865138 202.01071248 229.19865138 202.01071248 227.63501644 202.01918179 C224.21252531 202.03279074 220.79076308 202.01781712 217.36828613 202.00291443 C214.91411021 202.0066975 212.45993642 202.01219743 210.00576782 202.01928711 C204.0327218 202.03180931 198.0599613 202.02567011 192.08694291 202.01061153 C185.1293677 201.9937394 178.17184503 201.99696321 171.21425569 202.00070561 C158.79908509 202.00658256 146.38401594 201.99241912 133.96887207 201.96775818 C121.92521359 201.94383787 109.88169066 201.93675412 97.8380127 201.94725037 C84.71938403 201.95866299 71.60081804 201.96058539 58.48219013 201.94615227 C57.08298557 201.94462645 55.68378099 201.94310609 54.28457642 201.94159126 C53.59616305 201.94083345 52.90774968 201.94007563 52.1984753 201.93929486 C47.35011134 201.93455468 42.5017754 201.93640157 37.65341187 201.94065666 C31.12644259 201.94610145 24.59963374 201.93532861 18.07268906 201.91370201 C15.67572539 201.90813265 13.27874367 201.90767019 10.88177872 201.91265488 C7.61283047 201.91860088 4.34445788 201.90611498 1.07556152 201.8888855 C0.12439422 201.89489554 -0.82677309 201.90090559 -1.80676365 201.90709776 C-6.93046884 201.85790652 -10.82029558 201.63084766 -15.09655762 198.50120544 C-18.65049318 193.63582068 -19.68366617 189.86011019 -19.60449219 183.82833862 C-19.61385213 182.71703279 -19.61385213 182.71703279 -19.62340117 181.58327633 C-19.63927078 179.11735672 -19.6267514 176.65243394 -19.61413574 174.18650818 C-19.61955952 172.41197638 -19.62668362 170.63744909 -19.63537598 168.8629303 C-19.65358053 164.0551313 -19.646554 159.24767641 -19.63385963 154.43987155 C-19.6237187 149.40448515 -19.63312821 144.36912782 -19.6394043 139.33374023 C-19.64667684 130.8794985 -19.6371026 122.42539664 -19.61804199 113.97117615 C-19.59626699 104.20022709 -19.60333079 94.42961183 -19.62534761 84.65867084 C-19.64350439 76.26442117 -19.64605878 67.87027192 -19.63559294 59.47600895 C-19.62936046 54.4646473 -19.62851582 49.45344253 -19.64173889 44.44209099 C-19.65330104 39.73138819 -19.64526499 35.02111552 -19.62216187 30.31045914 C-19.61687703 28.58270672 -19.61838472 26.85491805 -19.62721252 25.1271801 C-19.63816077 22.76666247 -19.6244148 20.40751894 -19.60449219 18.04708862 C-19.61341507 17.36507887 -19.62233796 16.68306911 -19.63153124 15.9803924 C-19.53104647 9.83315721 -16.96826803 6.57140479 -12.97759247 2.15753078 C-8.69925766 -0.30211123 -4.85507001 -0.04864426 0 0 Z M1.90344238 20.50120544 C1.90344238 73.96120544 1.90344238 127.42120544 1.90344238 182.50120544 C77.47344238 182.50120544 153.04344238 182.50120544 230.90344238 182.50120544 C230.90344238 129.04120544 230.90344238 75.58120544 230.90344238 20.50120544 C155.33344238 20.50120544 79.76344238 20.50120544 1.90344238 20.50120544 Z " fill="#21262D" transform="translate(140.0965576171875,136.49879455566406)"/>
<path d="M0 0 C0.97514053 -0.03220139 1.95028107 -0.06440277 2.95497131 -0.09757996 C7.44367769 -0.20820833 11.93223461 -0.29070513 16.421875 -0.35253906 C18.78591607 -0.39415551 21.14969748 -0.45548003 23.51269531 -0.53710938 C43.07189731 -1.20201531 43.07189731 -1.20201531 48.6003418 2.26367188 C50.68710997 4.84247646 52.04588742 7.26364446 53.42358398 10.2722168 C54.3888529 11.67780594 55.37963466 13.06636406 56.40014648 14.43237305 C57.28720333 15.73026361 58.17005173 17.0310409 59.04858398 18.3347168 C59.51369385 19.01864502 59.97880371 19.70257324 60.45800781 20.40722656 C61.78385494 22.35956017 63.10405054 24.31561323 64.42358398 26.2722168 C65.09518555 27.25963867 65.76678711 28.24706055 66.45874023 29.2644043 C70.42358398 35.13199812 70.42358398 35.13199812 70.42358398 36.2722168 C37.42358398 36.2722168 4.42358398 36.2722168 -29.57641602 36.2722168 C-26.32103773 30.41253588 -23.25116033 25.16938228 -19.26391602 19.8972168 C-18.30143369 18.605731 -17.33919632 17.31406261 -16.37719727 16.0222168 C-15.67071045 15.07862305 -15.67071045 15.07862305 -14.94995117 14.1159668 C-12.92340335 11.39565233 -10.93829884 8.64663303 -8.95141602 5.8972168 C-4.8019218 0.15567174 -4.8019218 0.15567174 0 0 Z " fill="#FEFEFE" transform="translate(235.576416015625,338.727783203125)"/>
</svg>
