<?xml version="1.0" encoding="UTF-8"?>
<svg version="1.1" xmlns="http://www.w3.org/2000/svg" width="512" height="512">
<path d="M0 0 C168.96 0 337.92 0 512 0 C512 168.96 512 337.92 512 512 C343.04 512 174.08 512 0 512 C0 343.04 0 174.08 0 0 Z " fill="#474F59" transform="translate(0,0)"/>
<path d="M0 0 C2.32356623 0.00314061 4.64583017 -0.02030892 6.96923828 -0.0456543 C50.66215469 -0.22928537 91.87846876 20.24897949 122.72314453 50.31567383 C139.40721341 67.24204247 162.72314453 98.5765611 162.72314453 123.31567383 C161.50626953 122.98567383 160.28939453 122.65567383 159.03564453 122.31567383 C149.84294355 120.33548509 141.21144904 119.9727602 132.87939453 124.76098633 C127.57663929 128.58434971 124.25152538 133.30986374 121.72314453 139.31567383 C120.6186602 149.25603283 121.17202665 157.88054838 127.28564453 166.00317383 C133.02159714 172.11778345 139.40288379 174.60605465 147.72314453 174.94067383 C154.4376298 174.7066177 159.08326403 172.80099324 164.72314453 169.31567383 C166.05003308 168.63627041 167.38141995 167.96528708 168.72314453 167.31567383 C169.657995 194.98032295 161.66928797 220.57614273 149.72314453 245.31567383 C149.39314453 245.31567383 149.06314453 245.31567383 148.72314453 245.31567383 C148.72314453 226.83567383 148.72314453 208.35567383 148.72314453 189.31567383 C101.86314453 189.31567383 55.00314453 189.31567383 6.72314453 189.31567383 C6.72314453 184.69567383 6.72314453 180.07567383 6.72314453 175.31567383 C6.06314453 175.31567383 5.40314453 175.31567383 4.72314453 175.31567383 C4.63677734 174.21868164 4.55041016 173.12168945 4.46142578 171.99145508 C4.32066382 170.53691477 4.17867158 169.08249315 4.03564453 167.62817383 C3.98214844 166.90694336 3.92865234 166.18571289 3.87353516 165.44262695 C3.45196655 161.42856068 2.96585918 159.62343763 0.39111328 156.35864258 C-3.57307627 153.32310651 -6.71259146 153.19088438 -11.62156677 153.19110107 C-12.7052655 153.18853806 -13.78896423 153.18597504 -14.90550232 153.18333435 C-16.68151573 153.18648399 -16.68151573 153.18648399 -18.4934082 153.18969727 C-20.36955307 153.18689507 -20.36955307 153.18689507 -22.28359985 153.18403625 C-25.00149059 153.18003087 -27.71933449 153.17768331 -30.43722343 153.17757416 C-34.73618766 153.17643243 -39.03506629 153.16358466 -43.33399963 153.14801025 C-44.42295466 153.14415097 -44.42295466 153.14415097 -45.53390878 153.14021373 C-47.01819554 153.13494742 -48.50248222 153.12966194 -49.98676884 153.1243577 C-59.992739 153.08926041 -69.99860181 153.06269802 -80.00463867 153.06518555 C-86.7578357 153.06677414 -93.51073996 153.05074123 -100.26384312 153.01447892 C-103.83610995 152.99602154 -107.40788795 152.98667384 -110.98019218 152.99895477 C-114.96403682 153.01251865 -118.9471295 152.98746421 -122.9309082 152.95922852 C-124.11289291 152.9694252 -125.29487762 152.97962189 -126.51268005 152.99012756 C-134.47902836 152.88863578 -134.47902836 152.88863578 -138.50941467 149.99420166 C-140.86186959 146.42909442 -141.02539711 144.50750699 -140.27685547 140.31567383 C-138.27874333 137.55770328 -136.68770952 135.63568344 -133.26447022 134.85922503 C-130.73649599 134.67573637 -128.2530212 134.66094357 -125.71852112 134.69662476 C-124.75068048 134.69038578 -123.78283984 134.6841468 -122.7856707 134.67771876 C-119.5395602 134.66278588 -116.29465045 134.68345626 -113.04858398 134.70385742 C-110.72263156 134.70031695 -108.39668162 134.69454022 -106.07073975 134.68669128 C-101.06043077 134.67450212 -96.0504621 134.67799173 -91.04016304 134.69352341 C-83.78966534 134.71574848 -76.5394583 134.70927546 -69.28895234 134.69399221 C-57.51658615 134.66972391 -45.74430756 134.66551345 -33.97192383 134.67602539 C-33.2675495 134.67664921 -32.56317517 134.67727304 -31.83745616 134.67791577 C-30.41188624 134.67918706 -28.98631632 134.6804613 -27.5607464 134.68173847 C-26.85399232 134.68237086 -26.14723825 134.68300324 -25.41906738 134.68365479 C-24.71170716 134.68429293 -24.00434694 134.68493108 -23.27555156 134.68558856 C-15.4210876 134.69239291 -7.56662488 134.6943855 0.2878418 134.69458008 C0.99105371 134.69460291 1.69426563 134.69462574 2.418787 134.69464926 C14.14625938 134.69458001 25.87369851 134.6825462 37.60115486 134.66362059 C45.47657105 134.65209394 53.35177048 134.65656307 61.22717464 134.67364097 C66.12441244 134.68153056 71.02158694 134.67729254 75.91882324 134.66993141 C78.19162987 134.66912016 80.46444505 134.67348367 82.7372303 134.6833744 C85.83761281 134.69621491 88.93744582 134.69073093 92.03782654 134.68075562 C92.93909364 134.68901379 93.84036074 134.69727196 94.76893896 134.70578039 C99.82068305 134.66719705 103.37800695 134.18639929 107.72314453 131.31567383 C110.53769048 127.09385491 110.52998534 123.27537174 109.72314453 118.31567383 C107.47256886 115.22768709 107.47256886 115.22768709 104.72314453 113.31567383 C104.39314453 112.98567383 104.06314453 112.65567383 103.72314453 112.31567383 C101.4309409 112.21285715 99.13550746 112.18211106 96.84100342 112.17764282 C96.11272095 112.17482154 95.38443848 112.17200026 94.63408685 112.16909349 C92.17515542 112.16071 89.7162688 112.15940605 87.25732422 112.15795898 C85.50176363 112.15329346 83.74620426 112.14815034 81.99064636 112.14256287 C78.20048892 112.13126044 74.41033944 112.1228366 70.62017059 112.11644363 C64.62860665 112.10578791 58.63709966 112.08554926 52.64556885 112.06332397 C35.60455943 112.00131915 18.56355282 111.94738359 1.52246094 111.91430664 C-7.88180899 111.89597232 -17.2859841 111.86704985 -26.69018435 111.82630193 C-31.66971385 111.80520897 -36.64912372 111.78977146 -41.62870026 111.78749466 C-46.31382576 111.78535011 -50.99870234 111.76950047 -55.68375206 111.74310493 C-57.40384995 111.73590264 -59.12397797 111.73381547 -60.8440876 111.73720741 C-63.19194713 111.74109777 -65.53900997 111.7266623 -67.88677979 111.70767212 C-69.20087955 111.70436197 -70.51497932 111.70105183 -71.8689003 111.69764137 C-75.49880524 111.29079744 -77.37994693 110.49187222 -80.27685547 108.31567383 C-82.34214083 105.36526617 -82.88355297 102.86918778 -82.27685547 99.31567383 C-80.10138943 96.79671315 -78.26665847 94.81057533 -75.27685547 93.31567383 C-73.5775633 93.22136091 -71.8745606 93.1910261 -70.1726532 93.19110107 C-69.0917038 93.18853806 -68.01075439 93.18597504 -66.89704895 93.18333435 C-65.70584946 93.18543411 -64.51464996 93.18753387 -63.28735352 93.18969727 C-62.03688232 93.18782913 -60.78641113 93.185961 -59.49804688 93.18403625 C-56.77466429 93.18002412 -54.05132845 93.17768309 -51.32794762 93.17757416 C-47.02074226 93.17643489 -42.71362283 93.16360421 -38.40644836 93.14801025 C-37.67981466 93.1454374 -36.95318095 93.14286455 -36.20452803 93.14021373 C-34.7184899 93.13494702 -33.23245183 93.12966154 -31.74641383 93.1243577 C-21.7172412 93.08923655 -11.68817476 93.06269571 -1.65893555 93.06518555 C5.10376882 93.0667742 11.86618086 93.05073663 18.62879151 93.01447892 C22.20779481 92.9960163 25.78631005 92.98667799 29.36535072 92.99895477 C33.35912442 93.01252096 37.35176201 92.98746209 41.34545898 92.95922852 C42.53058578 92.9694252 43.71571259 92.97962189 44.93675232 92.99012756 C51.53019222 93.10021326 51.53019222 93.10021326 56.93424988 89.83795166 C57.52458511 89.00559998 58.11492035 88.17324829 58.72314453 87.31567383 C59.05314453 86.98567383 59.38314453 86.65567383 59.72314453 86.31567383 C59.84850105 84.71519181 59.8988924 83.10851455 59.91064453 81.50317383 C59.92482422 80.63047852 59.93900391 79.7577832 59.95361328 78.85864258 C59.69889267 76.04808128 59.43041749 74.57083954 57.72314453 72.31567383 C52.51874688 70.01715007 47.69879348 70.05097149 42.12548828 70.07739258 C40.25373616 70.06198198 38.38199122 70.04567903 36.51025391 70.02856445 C33.57837014 70.01208076 30.64701445 70.00320659 27.71508789 70.01025391 C24.87212027 70.0128724 22.0307433 69.98477929 19.18798828 69.95239258 C17.87688332 69.96770271 17.87688332 69.96770271 16.53929138 69.98332214 C12.14117618 69.91268626 10.27154507 69.73093262 6.66210938 66.99780273 C4.11623634 63.47615061 4.20982643 61.30068129 4.41064453 57.00317383 C4.45576172 55.74891602 4.50087891 54.4946582 4.54736328 53.20239258 C4.60537109 52.24977539 4.66337891 51.2971582 4.72314453 50.31567383 C5.71314453 50.31567383 6.70314453 50.31567383 7.72314453 50.31567383 C7.72314453 44.37567383 7.72314453 38.43567383 7.72314453 32.31567383 C7.06314453 32.31567383 6.40314453 32.31567383 5.72314453 32.31567383 C5.72314453 29.67567383 5.72314453 27.03567383 5.72314453 24.31567383 C3.74314453 24.31567383 1.76314453 24.31567383 -0.27685547 24.31567383 C-0.27685547 26.95567383 -0.27685547 29.59567383 -0.27685547 32.31567383 C-0.93685547 32.31567383 -1.59685547 32.31567383 -2.27685547 32.31567383 C-2.27685547 38.25567383 -2.27685547 44.19567383 -2.27685547 50.31567383 C-1.28685547 50.31567383 -0.29685547 50.31567383 0.72314453 50.31567383 C0.77921875 51.61891602 0.77921875 51.61891602 0.83642578 52.94848633 C1.09431121 61.64859131 1.09431121 61.64859131 4.72314453 69.31567383 C9.92690151 72.68510015 14.33965922 72.71536578 20.32080078 72.65161133 C22.19254908 72.66411756 24.0642939 72.67715439 25.93603516 72.69067383 C28.8678818 72.69461018 31.79938671 72.69060549 34.73120117 72.67602539 C37.5740837 72.66745604 40.41554359 72.68912593 43.25830078 72.71411133 C44.56940575 72.69409561 44.56940575 72.69409561 45.90699768 72.67367554 C50.31714542 72.72716924 52.17714195 72.90510202 55.80688477 75.63452148 C57.72314453 78.31567383 57.72314453 78.31567383 57.84814453 81.81567383 C56.44505612 86.18083778 55.46061963 87.61403034 51.72314453 90.31567383 C47.58634573 91.0533034 43.49306046 90.95381752 39.30126953 90.89575195 C37.3661753 90.8995161 35.43108107 90.90328156 33.49598694 90.90709686 C31.4211178 90.90635665 29.34665049 90.89328044 27.27185059 90.87669373 C22.94328952 90.84278361 18.61527316 90.84692444 14.28662109 90.85681152 C4.31753302 90.87378991 -5.65127555 90.84102126 -15.62030029 90.80788422 C-24.75878018 90.7780201 -33.89695738 90.75867676 -43.0354805 90.77955008 C-47.33717134 90.78794035 -51.63788568 90.77214302 -55.93943787 90.73775482 C-57.97133782 90.72526287 -60.00286063 90.72415845 -62.03479004 90.72816467 C-64.51000495 90.73297946 -66.98534499 90.71993766 -69.46032715 90.68565369 C-76.06957725 90.53465215 -76.06957725 90.53465215 -81.49072266 93.78942871 C-82.08014648 94.6230896 -82.66957031 95.45675049 -83.27685547 96.31567383 C-83.60685547 96.64567383 -83.93685547 96.97567383 -84.27685547 97.31567383 C-84.71522229 100.69736076 -84.76370779 103.93911738 -84.27685547 107.31567383 C-82.0262798 110.40366057 -82.0262798 110.40366057 -79.27685547 112.31567383 C-78.94685547 112.64567383 -78.61685547 112.97567383 -78.27685547 113.31567383 C-75.97188064 113.4141008 -73.66382587 113.44031919 -71.35675049 113.44024658 C-70.25820146 113.4423618 -70.25820146 113.4423618 -69.13745952 113.44451976 C-66.66470021 113.44819187 -64.19199757 113.44482805 -61.71923828 113.44165039 C-59.95382645 113.44304425 -58.18841495 113.44494297 -56.42300415 113.4473114 C-52.6115619 113.45181813 -48.80013045 113.4536647 -44.98868561 113.4537735 C-38.96351881 113.45491089 -32.93841371 113.46772776 -26.91326904 113.4833374 C-25.89767827 113.48591026 -24.8820875 113.48848311 -23.83572125 113.49113393 C-21.75847112 113.49640082 -19.68122104 113.5016863 -17.603971 113.50698996 C-3.57044396 113.54213836 10.46300736 113.56865152 24.49658203 113.56616211 C33.95362696 113.56457468 43.41046264 113.58058382 52.86744046 113.61686873 C57.87499897 113.63535314 62.88220805 113.64465026 67.8897934 113.63239288 C72.60131183 113.62097278 77.31220458 113.63262081 82.02363968 113.66202736 C83.75341535 113.66867921 85.4832481 113.66678185 87.21300125 113.65572929 C89.57445361 113.64189198 91.93378366 113.65870912 94.29510498 113.6831665 C94.98022935 113.67181113 95.66535371 113.66045575 96.37123942 113.64875627 C100.22814673 113.72646987 101.64327677 114.24749607 104.624897 116.79270554 C105.66352953 118.04157484 105.66352953 118.04157484 106.72314453 119.31567383 C107.05314453 119.64567383 107.38314453 119.97567383 107.72314453 120.31567383 C108.24683962 124.15610449 108.09513778 125.80106832 105.79710293 128.98010826 C101.53944772 132.21503588 98.37720758 132.00810404 93.16481018 131.9347229 C92.19696954 131.94096188 91.2291289 131.94720086 90.23195976 131.9536289 C86.98584926 131.96856177 83.74093951 131.94789139 80.49487305 131.92749023 C78.16892062 131.9310307 75.84297068 131.93680744 73.51702881 131.94465637 C68.50671983 131.95684553 63.49675117 131.95335592 58.4864521 131.93782425 C51.2359544 131.91559917 43.98574736 131.92207219 36.73524141 131.93735544 C24.96287521 131.96162374 13.19059662 131.96583421 1.41821289 131.95532227 C0.71383856 131.95469844 0.00946423 131.95407462 -0.71625478 131.95343189 C-2.1418247 131.95216059 -3.56739462 131.95088635 -4.99296454 131.94960918 C-5.69971861 131.9489768 -6.40647269 131.94834442 -7.13464355 131.94769287 C-7.84200378 131.94705473 -8.549364 131.94641658 -9.27815938 131.9457591 C-17.13262334 131.93895475 -24.98708606 131.93696216 -32.84155273 131.93676758 C-33.54476465 131.93674475 -34.24797657 131.93672192 -34.97249793 131.93669839 C-46.69997032 131.93676764 -58.42740944 131.94880146 -70.1548658 131.96772707 C-78.03028199 131.97925371 -85.90548142 131.97478459 -93.78088558 131.95770669 C-98.67812338 131.9498171 -103.57529788 131.95405511 -108.47253418 131.96141624 C-110.74534081 131.96222749 -113.01815599 131.95786399 -115.29094124 131.94797325 C-118.39132374 131.93513275 -121.49115676 131.94061672 -124.59153748 131.95059204 C-125.49280457 131.94233387 -126.39407167 131.93407569 -127.3226499 131.92556727 C-132.38989213 131.96426898 -135.89081263 132.4907607 -140.27685547 135.31567383 C-142.6846287 138.20500171 -143.23800946 140.01045519 -143.71435547 143.75317383 C-143.18614247 148.0543368 -142.13967147 150.07617151 -139.27685547 153.31567383 C-133.45853403 156.14542418 -127.1502846 155.58574612 -120.83325195 155.55517578 C-118.95666901 155.55819702 -118.95666901 155.55819702 -117.04217529 155.5612793 C-114.32970219 155.56482105 -111.61747358 155.56489638 -108.90502739 155.55950356 C-104.61427986 155.55187475 -100.32369825 155.5625697 -96.03297424 155.57670593 C-83.83504555 155.61439438 -71.63719335 155.63262275 -59.43920898 155.62109375 C-52.69553664 155.61487711 -45.9521333 155.62645507 -39.20852715 155.65753907 C-34.94458204 155.67618601 -30.68139941 155.67288388 -26.417467 155.65337145 C-23.14190841 155.64487074 -19.866561 155.66892443 -16.59106445 155.68798828 C-15.41222183 155.67622055 -14.23337921 155.66445282 -13.01881409 155.65232849 C-5.0770774 155.74318525 -5.0770774 155.74318525 -1.03773499 158.63298035 C1.27746495 162.16017895 1.2310571 164.44634479 1.03564453 168.62817383 C0.99052734 169.88243164 0.94541016 171.13668945 0.89892578 172.42895508 C0.84091797 173.38157227 0.78291016 174.33418945 0.72314453 175.31567383 C0.06314453 175.31567383 -0.59685547 175.31567383 -1.27685547 175.31567383 C-1.27685547 179.93567383 -1.27685547 184.55567383 -1.27685547 189.31567383 C-48.13685547 189.31567383 -94.99685547 189.31567383 -143.27685547 189.31567383 C-143.27685547 207.79567383 -143.27685547 226.27567383 -143.27685547 245.31567383 C-151.71136926 234.06965544 -155.95876075 218.8613767 -159.27685547 205.31567383 C-159.4729541 204.55109863 -159.66905273 203.78652344 -159.87109375 202.9987793 C-162.96311366 190.54221177 -163.66860993 178.27621352 -163.71435547 165.50317383 C-163.72052887 164.77608215 -163.72670227 164.04899048 -163.73306274 163.29986572 C-163.81839113 147.68366865 -162.84794371 124.20973158 -153.27685547 111.31567383 C-149.71435547 110.12817383 -149.71435547 110.12817383 -146.27685547 109.31567383 C-144.00600379 107.46742738 -144.00600379 107.46742738 -144.01123047 104.63598633 C-144.01638672 103.5815332 -144.02154297 102.52708008 -144.02685547 101.44067383 C-144.02169922 100.39137695 -144.01654297 99.34208008 -144.01123047 98.26098633 C-144.05377056 95.34910728 -144.05377056 95.34910728 -145.49560547 93.33129883 C-146.27685547 91.31567383 -146.27685547 91.31567383 -145.07373047 88.35473633 C-144.39826172 87.2280957 -143.72279297 86.10145508 -143.02685547 84.94067383 C-142.48291138 84.03007202 -142.48291138 84.03007202 -141.92797852 83.10107422 C-139.15146692 78.53693753 -136.17081959 74.11605044 -133.08935547 69.75317383 C-132.68620117 69.18228027 -132.28304687 68.61138672 -131.86767578 68.02319336 C-129.26279625 64.43271247 -126.4735394 61.36473115 -123.27685547 58.31567383 C-123.27685547 61.28567383 -123.27685547 64.25567383 -123.27685547 67.31567383 C-99.84685547 67.31567383 -76.41685547 67.31567383 -52.27685547 67.31567383 C-52.27685547 54.77567383 -52.27685547 42.23567383 -52.27685547 29.31567383 C-65.14685547 29.31567383 -78.01685547 29.31567383 -91.27685547 29.31567383 C-78.55910395 19.14147261 -53.26150148 3.67199841 -36.27685547 5.31567383 C-36.27685547 5.97567383 -36.27685547 6.63567383 -36.27685547 7.31567383 C-34.29738955 8.67930591 -32.29493097 10.00986027 -30.27685547 11.31567383 C-28.40185547 13.06567383 -28.40185547 13.06567383 -27.27685547 14.31567383 C-27.00873047 13.71754883 -26.74060547 13.11942383 -26.46435547 12.50317383 C-25.2919208 10.34342575 -24.08316265 8.95777127 -22.27685547 7.31567383 C-22.93685547 6.86192383 -23.59685547 6.40817383 -24.27685547 5.94067383 C-25.26685547 5.13629883 -25.26685547 5.13629883 -26.27685547 4.31567383 C-26.27685547 3.65567383 -26.27685547 2.99567383 -26.27685547 2.31567383 C-17.50516293 0.221639 -8.96231011 -0.02521175 0 0 Z " fill="#36404A" transform="translate(253.27685546875,89.684326171875)"/>
<path d="M0 0 C1.98 0 3.96 0 6 0 C6 2.64 6 5.28 6 8 C6.66 8 7.32 8 8 8 C8 13.94 8 19.88 8 26 C7.01 26 6.02 26 5 26 C5.14100857 28.27113803 5.28796755 30.54190725 5.4375 32.8125 C5.51871094 34.07707031 5.59992188 35.34164062 5.68359375 36.64453125 C5.87184547 39.99181893 5.87184547 39.99181893 7 43 C9.70728877 43.90242959 11.31686933 44.1326462 14.10083008 44.15771484 C15.33274834 44.17310806 15.33274834 44.17310806 16.58955383 44.18881226 C17.47394638 44.19611359 18.35833893 44.20341492 19.26953125 44.2109375 C21.14649305 44.23900913 23.02344606 44.26767361 24.90039062 44.296875 C27.85619838 44.33810171 30.81184255 44.37499413 33.76782227 44.40136719 C36.62290245 44.4290424 39.47723926 44.4749159 42.33203125 44.5234375 C43.64951103 44.5283168 43.64951103 44.5283168 44.99360657 44.53329468 C50.92445977 44.65156735 55.50275988 45.46052326 59.84765625 49.87890625 C61.94606174 53.74139499 61.63548365 57.73811509 61 62 C58.94892412 65.39488422 57.29515379 66.80323081 54 69 C51.62738895 69.2561264 51.62738895 69.2561264 48.76881409 69.26501465 C47.14316025 69.27742439 47.14316025 69.27742439 45.48466492 69.29008484 C44.29548965 69.28910294 43.10631439 69.28812103 41.88110352 69.28710938 C40.62888 69.29394241 39.37665649 69.30077545 38.08648682 69.30781555 C35.36250601 69.32142447 32.6387826 69.33145438 29.91479683 69.33552551 C25.60775034 69.34223644 21.30086084 69.36398773 16.99388123 69.38806152 C7.85012425 69.43704501 -1.29366595 69.46935472 -10.4375 69.5 C-20.30518728 69.53308034 -30.1728132 69.56900005 -40.04040581 69.62413073 C-44.32194808 69.6474815 -48.60338136 69.66122087 -52.88498104 69.66762543 C-56.17392857 69.67495683 -59.46280469 69.69496906 -62.75170898 69.71289062 C-63.93886002 69.71190872 -65.12601105 69.71092682 -66.34913635 69.70991516 C-67.4357254 69.71818832 -68.52231445 69.72646149 -69.64183044 69.73498535 C-71.05739054 69.73938503 -71.05739054 69.73938503 -72.50154781 69.7438736 C-75.17791833 70.01823912 -76.75578222 70.53202862 -79 72 C-81.35618542 74.88599388 -81.35618542 74.88599388 -80.8125 78.5 C-80.0284084 81.87762534 -79.73175021 83.03313985 -77 85 C-74.01901204 86.49049398 -71.32440693 86.12811304 -67.99760437 86.13130188 C-67.26846748 86.13341759 -66.53933058 86.13553331 -65.78809863 86.13771313 C-63.33226897 86.14372925 -60.87649046 86.14271184 -58.4206543 86.1418457 C-56.66494662 86.14487614 -54.90923973 86.14839727 -53.15353394 86.15237427 C-49.3661204 86.16027264 -45.57871632 86.16541171 -41.79129601 86.16866493 C-35.80385314 86.17456603 -29.81647001 86.19109781 -23.82905579 86.21000671 C-21.78073791 86.21634436 -19.73242 86.22266998 -17.68410206 86.22898388 C-16.14522798 86.2337326 -16.14522798 86.2337326 -14.57526553 86.23857725 C-0.63164922 86.28068463 13.31193959 86.31363286 27.25561523 86.32592773 C36.65515029 86.33430107 46.05453792 86.35676544 55.45399922 86.3952834 C60.43019572 86.41506993 65.40617169 86.42744008 70.38241005 86.42244911 C75.06350416 86.41781148 79.74418017 86.43155949 84.42518997 86.45946121 C86.14367615 86.46638813 87.86220542 86.46648346 89.58069038 86.45926094 C91.92651102 86.4503973 94.2709455 86.46602421 96.61665344 86.48774719 C98.58585487 86.49132972 98.58585487 86.49132972 100.59483814 86.49498463 C104.57757792 87.08565987 106.17571066 88.18622781 109 91 C111.82220955 95.23331432 111.78619823 99.02868595 111 104 C108.4328938 107.42280827 105.89471401 109.33987734 102 111 C99.98815775 111.25020635 99.98815775 111.25020635 97.8176651 111.25053978 C96.98660295 111.25553848 96.1555408 111.26053717 95.29929495 111.26568735 C93.9376326 111.25869253 93.9376326 111.25869253 92.54846191 111.2515564 C91.0958659 111.2560116 91.0958659 111.2560116 89.6139245 111.26055682 C86.36039517 111.26821161 83.10704558 111.26169673 79.85351562 111.25537109 C77.52446876 111.25812024 75.19542284 111.26179967 72.86637878 111.26634216 C67.84687535 111.27446167 62.82741647 111.27662075 57.8079071 111.27439499 C50.54617691 111.27180609 43.28452861 111.28293188 36.02281767 111.29894479 C24.2354336 111.32490771 12.44804947 111.34492658 0.66064453 111.35839844 C-0.04481992 111.35920881 -0.75028437 111.36001918 -1.47712654 111.3608541 C-11.49237555 111.3720797 -21.507619 111.3773577 -31.52287346 111.38024123 C-32.22833791 111.38044522 -32.93380237 111.38064921 -33.66064453 111.38085938 C-34.36524998 111.38105931 -35.06985542 111.38125925 -35.79581255 111.38146524 C-47.5390897 111.38519618 -59.28228221 111.40426675 -71.02551699 111.43595374 C-78.91571078 111.45622063 -86.80564487 111.45851222 -94.69585419 111.44767356 C-99.5985003 111.4450736 -104.50099397 111.4590353 -109.40360069 111.47775459 C-111.68207431 111.48309444 -113.9605757 111.48154941 -116.23903847 111.47271919 C-119.3425472 111.46165886 -122.44501726 111.47495917 -125.54846191 111.49447632 C-126.45623682 111.48535166 -127.36401172 111.476227 -128.29929495 111.46682584 C-133.25842562 111.51454153 -133.25842562 111.51454153 -137.55947113 113.81284523 C-139.68200234 117.03548405 -139.53839443 119.231239 -139 123 C-136.97601519 125.60747794 -135.78417103 126.84254377 -132.51272106 127.49942875 C-131.5742096 127.49921947 -130.63569815 127.49901018 -129.66874695 127.49879456 C-128.04753433 127.51316055 -128.04753433 127.51316055 -126.39356995 127.52781677 C-124.62226967 127.51320152 -124.62226967 127.51320152 -122.81518555 127.49829102 C-121.56763489 127.50380981 -120.32008423 127.50932861 -119.034729 127.51501465 C-116.32299807 127.52434854 -113.61238298 127.52647973 -110.90076256 127.51642036 C-106.60954762 127.50084797 -102.31872963 127.51454641 -98.02754211 127.53245544 C-89.68869575 127.56327645 -81.34997067 127.56477724 -73.01107788 127.56280518 C-62.40772746 127.56141255 -51.80447097 127.57182667 -41.20118934 127.6113829 C-36.93961686 127.62628424 -32.67839662 127.62607026 -28.41681898 127.61390507 C-25.13552029 127.60806973 -21.8542814 127.62123856 -18.57299805 127.63110352 C-17.39820389 127.62338425 -16.22340973 127.61566498 -15.01301575 127.60771179 C-8.90247245 127.64561986 -4.36444209 127.9722907 1 131 C5.10348691 135.24026981 5.12438946 139.55616948 5.0625 145.25 C5.05347656 146.32765625 5.04445313 147.4053125 5.03515625 148.515625 C5.01775391 149.74539063 5.01775391 149.74539063 5 151 C5.66 151 6.32 151 7 151 C7 155.62 7 160.24 7 165 C53.53 165 100.06 165 148 165 C148 201.96 148 238.92 148 277 C52.3 277 -43.4 277 -142 277 C-142 240.04 -142 203.08 -142 165 C-95.47 165 -48.94 165 -1 165 C-1 160.38 -1 155.76 -1 151 C-0.34 151 0.32 151 1 151 C0.85899143 148.72886197 0.71203245 146.45809275 0.5625 144.1875 C0.44068359 142.29064453 0.44068359 142.29064453 0.31640625 140.35546875 C0.12815453 137.00818107 0.12815453 137.00818107 -1 134 C-4.02348407 132.99217198 -6.04934596 132.8705715 -9.21099854 132.86196899 C-10.83014915 132.85378899 -10.83014915 132.85378899 -12.48200989 132.84544373 C-13.66647202 132.8444014 -14.85093414 132.84335907 -16.07128906 132.84228516 C-17.3186937 132.83720444 -18.56609833 132.83212372 -19.8513031 132.82688904 C-22.56538561 132.81617412 -25.27941681 132.80717641 -27.99350739 132.80076981 C-32.28874285 132.7900809 -36.58389979 132.76983283 -40.87908936 132.74765015 C-53.09334711 132.6857586 -65.30760048 132.63174793 -77.52197266 132.59863281 C-84.26743788 132.58026456 -91.01277172 132.55130029 -97.75814033 132.5106281 C-101.32589735 132.48959341 -104.89348905 132.4741059 -108.46131134 132.47182083 C-112.44472259 132.46926662 -116.42781027 132.44376624 -120.41113281 132.41650391 C-121.58749802 132.41951004 -122.76386322 132.42251617 -123.97587585 132.4256134 C-130.07341174 132.36359903 -134.66475807 132.06433505 -140 129 C-142.85746094 125.77619792 -143.89050739 123.76644827 -144.5 119.5 C-143.89519026 115.2663318 -142.78945399 113.22989409 -140 110 C-134.78051227 106.61779649 -130.30969119 106.57119266 -124.30122375 106.60800171 C-122.84500611 106.59908982 -122.84500611 106.59908982 -121.35936993 106.58999789 C-118.10966167 106.57370047 -114.86033607 106.57865534 -111.6105957 106.58349609 C-109.27962812 106.57611643 -106.94866441 106.56741154 -104.6177063 106.55747986 C-98.28952947 106.53414388 -91.96145071 106.5290067 -85.63323617 106.52682066 C-79.68673346 106.5217371 -73.740293 106.50234894 -67.79382291 106.48278125 C-56.01417331 106.44439842 -44.23453235 106.41857569 -32.45483398 106.40136719 C-21.02122789 106.38462398 -9.58764063 106.36443939 1.84594727 106.33789062 C2.90291537 106.33544049 2.90291537 106.33544049 3.98123636 106.33294086 C11.67152261 106.31497922 19.36180444 106.29563103 27.05208302 106.27463722 C28.06537262 106.27187509 28.06537262 106.27187509 29.09913272 106.26905716 C31.79928235 106.26167823 34.49943191 106.25428453 37.199581 106.24671336 C45.75374754 106.22276558 54.30789272 106.20518408 62.8620857 106.19427085 C67.75916319 106.18726863 72.656227 106.17639088 77.55329514 106.16462898 C79.83058072 106.1600591 82.1078705 106.15722072 84.38516045 106.15620613 C87.48419362 106.15464153 90.58315571 106.1470807 93.68217468 106.13803101 C94.59149819 106.13909926 95.50082169 106.14016751 96.43770045 106.14126813 C97.26553815 106.13764379 98.09337586 106.13401944 98.94629955 106.13028526 C99.6618577 106.12925344 100.37741585 106.12822161 101.11465758 106.12715852 C103.22707554 106.06412551 103.22707554 106.06412551 106 105 C106.30556226 103.61135566 106.56800808 102.21318736 106.8125 100.8125 C107.03873047 99.64654297 107.03873047 99.64654297 107.26953125 98.45703125 C106.85003065 94.63288812 104.92807005 93.37041343 102 91 C98.5115439 90.26046841 98.5115439 90.26046841 94.59887695 90.38768005 C93.86309323 90.38214664 93.12730951 90.37661323 92.36922932 90.37091213 C89.90834073 90.35835046 87.4490776 90.38130483 84.98828125 90.40405273 C83.22227613 90.40214864 81.45627222 90.39799282 79.6902771 90.39175415 C75.88965693 90.38296346 72.08949332 90.38971852 68.28890991 90.40841484 C62.28013348 90.43749107 56.27175098 90.42971854 50.26293945 90.41651917 C38.59348457 90.39585097 26.92422007 90.41145979 15.254776 90.43199158 C0.40082411 90.45713059 -14.45302196 90.47001494 -29.30697727 90.44203526 C-35.28104841 90.43207331 -41.25464852 90.44222985 -47.22866821 90.46794307 C-50.94371602 90.48010518 -54.65861637 90.47591569 -58.37366867 90.46736526 C-60.09702125 90.46682971 -61.82039173 90.47318033 -63.54368973 90.48690605 C-65.89584603 90.50473178 -68.24671626 90.49803858 -70.59887695 90.4853363 C-71.91515579 90.48814322 -73.23143463 90.49095015 -74.58760071 90.49384212 C-78.58149078 89.91584671 -80.17145091 88.82166443 -83 86 C-85.82605874 81.7609119 -85.66012246 77.97875497 -85 73 C-82.94892412 69.60511578 -81.29515379 68.19676919 -78 66 C-75.61177158 65.74946022 -75.61177158 65.74946022 -72.73085022 65.7484436 C-71.63866684 65.74306076 -70.54648346 65.73767792 -69.42120361 65.73213196 C-68.22267761 65.73625595 -67.02415161 65.74037994 -65.78930664 65.74462891 C-63.85217678 65.73907153 -61.91504693 65.73350981 -59.97791755 65.72778487 C-57.89513058 65.72344324 -55.81239125 65.7239151 -53.72960091 65.72560501 C-49.3889563 65.72843639 -45.04847469 65.714093 -40.70787048 65.69662476 C-28.36492355 65.64958024 -16.02198767 65.62565404 -3.67895508 65.61914062 C3.13790869 65.6153915 9.95458811 65.59737465 16.77137285 65.56404626 C21.08649837 65.54381333 25.40114907 65.54147083 29.71630275 65.55232644 C33.03094604 65.55554334 36.34532171 65.5328483 39.65991211 65.51416016 C40.85641388 65.52233261 42.05291565 65.53050507 43.28567505 65.53892517 C44.38067825 65.52790268 45.47568146 65.51688019 46.60386658 65.50552368 C48.03048819 65.50388938 48.03048819 65.50388938 49.48593044 65.50222206 C52.77487788 64.84520684 53.94571892 63.60429061 56 61 C57.16025399 57.54578685 57.16025399 57.54578685 57 54 C55.65355098 51.61859846 55.65355098 51.61859846 53 50 C49.88907781 49.43032904 46.82280102 49.49048797 43.66796875 49.53125 C42.30301018 49.52067566 42.30301018 49.52067566 40.91047668 49.5098877 C37.0243976 49.48042579 33.13882031 49.49699275 29.25268555 49.50927734 C26.41164505 49.51166658 23.57140916 49.49068958 20.73046875 49.46875 C19.86044724 49.48006958 18.99042572 49.49138916 18.09403992 49.50305176 C12.22626701 49.4547735 8.81967098 48.39614771 4 45 C-0.34271599 39.53658311 0.73459529 32.62528802 1 26 C0.01 26 -0.98 26 -2 26 C-2 20.06 -2 14.12 -2 8 C-1.34 8 -0.68 8 0 8 C0 5.36 0 2.72 0 0 Z " fill="#FDFDFC" transform="translate(253,114)"/>
<path d="M0 0 C62.7 0 125.4 0 190 0 C170.29370284 19.70629716 132.22947563 30.0375714 105.0390625 30.203125 C103.9158107 30.21167511 103.9158107 30.21167511 102.76986694 30.22039795 C101.18822619 30.22979745 99.60656629 30.2363617 98.02490234 30.24023438 C95.66596736 30.2498333 93.30794597 30.28085914 90.94921875 30.3125 C58.73067925 30.53622375 26.47509092 19.17895798 0 1 C0 0.67 0 0.34 0 0 Z " fill="#353F49" transform="translate(161,392)"/>
<path d="M0 0 C1.98 0 3.96 0 6 0 C6 2.64 6 5.28 6 8 C6.66 8 7.32 8 8 8 C8 13.94 8 19.88 8 26 C7.01 26 6.02 26 5 26 C5.14100857 28.27113803 5.28796755 30.54190725 5.4375 32.8125 C5.51871094 34.07707031 5.59992188 35.34164062 5.68359375 36.64453125 C5.87184547 39.99181893 5.87184547 39.99181893 7 43 C9.70728877 43.90242959 11.31686933 44.1326462 14.10083008 44.15771484 C15.33274834 44.17310806 15.33274834 44.17310806 16.58955383 44.18881226 C17.47394638 44.19611359 18.35833893 44.20341492 19.26953125 44.2109375 C21.14649305 44.23900913 23.02344606 44.26767361 24.90039062 44.296875 C27.85619838 44.33810171 30.81184255 44.37499413 33.76782227 44.40136719 C36.62290245 44.4290424 39.47723926 44.4749159 42.33203125 44.5234375 C43.64951103 44.5283168 43.64951103 44.5283168 44.99360657 44.53329468 C50.92445977 44.65156735 55.50275988 45.46052326 59.84765625 49.87890625 C61.94606174 53.74139499 61.63548365 57.73811509 61 62 C58.94892412 65.39488422 57.29515379 66.80323081 54 69 C51.62738895 69.2561264 51.62738895 69.2561264 48.76881409 69.26501465 C47.14316025 69.27742439 47.14316025 69.27742439 45.48466492 69.29008484 C44.29548965 69.28910294 43.10631439 69.28812103 41.88110352 69.28710938 C40.62888 69.29394241 39.37665649 69.30077545 38.08648682 69.30781555 C35.36250601 69.32142447 32.6387826 69.33145438 29.91479683 69.33552551 C25.60775034 69.34223644 21.30086084 69.36398773 16.99388123 69.38806152 C7.85012425 69.43704501 -1.29366595 69.46935472 -10.4375 69.5 C-20.30518728 69.53308034 -30.1728132 69.56900005 -40.04040581 69.62413073 C-44.32194808 69.6474815 -48.60338136 69.66122087 -52.88498104 69.66762543 C-56.17392857 69.67495683 -59.46280469 69.69496906 -62.75170898 69.71289062 C-63.93886002 69.71190872 -65.12601105 69.71092682 -66.34913635 69.70991516 C-67.4357254 69.71818832 -68.52231445 69.72646149 -69.64183044 69.73498535 C-71.05739054 69.73938503 -71.05739054 69.73938503 -72.50154781 69.7438736 C-75.17791833 70.01823912 -76.75578222 70.53202862 -79 72 C-81.35618542 74.88599388 -81.35618542 74.88599388 -80.8125 78.5 C-80.0284084 81.87762534 -79.73175021 83.03313985 -77 85 C-74.01901204 86.49049398 -71.32440693 86.12811304 -67.99760437 86.13130188 C-67.26846748 86.13341759 -66.53933058 86.13553331 -65.78809863 86.13771313 C-63.33226897 86.14372925 -60.87649046 86.14271184 -58.4206543 86.1418457 C-56.66494662 86.14487614 -54.90923973 86.14839727 -53.15353394 86.15237427 C-49.3661204 86.16027264 -45.57871632 86.16541171 -41.79129601 86.16866493 C-35.80385314 86.17456603 -29.81647001 86.19109781 -23.82905579 86.21000671 C-21.78073791 86.21634436 -19.73242 86.22266998 -17.68410206 86.22898388 C-16.14522798 86.2337326 -16.14522798 86.2337326 -14.57526553 86.23857725 C-0.63164922 86.28068463 13.31193959 86.31363286 27.25561523 86.32592773 C36.65515029 86.33430107 46.05453792 86.35676544 55.45399922 86.3952834 C60.43019572 86.41506993 65.40617169 86.42744008 70.38241005 86.42244911 C75.06350416 86.41781148 79.74418017 86.43155949 84.42518997 86.45946121 C86.14367615 86.46638813 87.86220542 86.46648346 89.58069038 86.45926094 C91.92651102 86.4503973 94.2709455 86.46602421 96.61665344 86.48774719 C98.58585487 86.49132972 98.58585487 86.49132972 100.59483814 86.49498463 C104.57757792 87.08565987 106.17571066 88.18622781 109 91 C111.82220955 95.23331432 111.78619823 99.02868595 111 104 C108.4328938 107.42280827 105.89471401 109.33987734 102 111 C99.98815775 111.25020635 99.98815775 111.25020635 97.8176651 111.25053978 C96.98660295 111.25553848 96.1555408 111.26053717 95.29929495 111.26568735 C93.9376326 111.25869253 93.9376326 111.25869253 92.54846191 111.2515564 C91.0958659 111.2560116 91.0958659 111.2560116 89.6139245 111.26055682 C86.36039517 111.26821161 83.10704558 111.26169673 79.85351562 111.25537109 C77.52446876 111.25812024 75.19542284 111.26179967 72.86637878 111.26634216 C67.84687535 111.27446167 62.82741647 111.27662075 57.8079071 111.27439499 C50.54617691 111.27180609 43.28452861 111.28293188 36.02281767 111.29894479 C24.2354336 111.32490771 12.44804947 111.34492658 0.66064453 111.35839844 C-0.04481992 111.35920881 -0.75028437 111.36001918 -1.47712654 111.3608541 C-11.49237555 111.3720797 -21.507619 111.3773577 -31.52287346 111.38024123 C-32.22833791 111.38044522 -32.93380237 111.38064921 -33.66064453 111.38085938 C-34.36524998 111.38105931 -35.06985542 111.38125925 -35.79581255 111.38146524 C-47.5390897 111.38519618 -59.28228221 111.40426675 -71.02551699 111.43595374 C-78.91571078 111.45622063 -86.80564487 111.45851222 -94.69585419 111.44767356 C-99.5985003 111.4450736 -104.50099397 111.4590353 -109.40360069 111.47775459 C-111.68207431 111.48309444 -113.9605757 111.48154941 -116.23903847 111.47271919 C-119.3425472 111.46165886 -122.44501726 111.47495917 -125.54846191 111.49447632 C-126.45623682 111.48535166 -127.36401172 111.476227 -128.29929495 111.46682584 C-133.25842562 111.51454153 -133.25842562 111.51454153 -137.55947113 113.81284523 C-139.68200234 117.03548405 -139.53839443 119.231239 -139 123 C-136.97601519 125.60747794 -135.78417103 126.84254377 -132.51272106 127.49942875 C-131.5742096 127.49921947 -130.63569815 127.49901018 -129.66874695 127.49879456 C-128.04753433 127.51316055 -128.04753433 127.51316055 -126.39356995 127.52781677 C-124.62226967 127.51320152 -124.62226967 127.51320152 -122.81518555 127.49829102 C-121.56763489 127.50380981 -120.32008423 127.50932861 -119.034729 127.51501465 C-116.32299807 127.52434854 -113.61238298 127.52647973 -110.90076256 127.51642036 C-106.60954762 127.50084797 -102.31872963 127.51454641 -98.02754211 127.53245544 C-89.68869575 127.56327645 -81.34997067 127.56477724 -73.01107788 127.56280518 C-62.40772746 127.56141255 -51.80447097 127.57182667 -41.20118934 127.6113829 C-36.93961686 127.62628424 -32.67839662 127.62607026 -28.41681898 127.61390507 C-25.13552029 127.60806973 -21.8542814 127.62123856 -18.57299805 127.63110352 C-17.39820389 127.62338425 -16.22340973 127.61566498 -15.01301575 127.60771179 C-8.08132945 127.650714 -2.48159797 127.92093973 2.92578125 132.703125 C4.47553345 136.01677698 4.31925957 139.17559944 4.1875 142.75 C4.17396484 143.44738281 4.16042969 144.14476562 4.14648438 144.86328125 C4.1112945 146.57585541 4.05749155 148.28802941 4 150 C3.34 150 2.68 150 2 150 C1.86722656 149.09636719 1.73445312 148.19273437 1.59765625 147.26171875 C1.33275391 145.49248047 1.33275391 145.49248047 1.0625 143.6875 C0.88847656 142.51574219 0.71445313 141.34398437 0.53515625 140.13671875 C0.07906969 136.98358597 0.07906969 136.98358597 -1 134 C-4.02348407 132.99217198 -6.04934596 132.8705715 -9.21099854 132.86196899 C-10.83014915 132.85378899 -10.83014915 132.85378899 -12.48200989 132.84544373 C-13.66647202 132.8444014 -14.85093414 132.84335907 -16.07128906 132.84228516 C-17.3186937 132.83720444 -18.56609833 132.83212372 -19.8513031 132.82688904 C-22.56538561 132.81617412 -25.27941681 132.80717641 -27.99350739 132.80076981 C-32.28874285 132.7900809 -36.58389979 132.76983283 -40.87908936 132.74765015 C-53.09334711 132.6857586 -65.30760048 132.63174793 -77.52197266 132.59863281 C-84.26743788 132.58026456 -91.01277172 132.55130029 -97.75814033 132.5106281 C-101.32589735 132.48959341 -104.89348905 132.4741059 -108.46131134 132.47182083 C-112.44472259 132.46926662 -116.42781027 132.44376624 -120.41113281 132.41650391 C-121.58749802 132.41951004 -122.76386322 132.42251617 -123.97587585 132.4256134 C-130.07341174 132.36359903 -134.66475807 132.06433505 -140 129 C-142.85746094 125.77619792 -143.89050739 123.76644827 -144.5 119.5 C-143.89519026 115.2663318 -142.78945399 113.22989409 -140 110 C-134.78051227 106.61779649 -130.30969119 106.57119266 -124.30122375 106.60800171 C-122.84500611 106.59908982 -122.84500611 106.59908982 -121.35936993 106.58999789 C-118.10966167 106.57370047 -114.86033607 106.57865534 -111.6105957 106.58349609 C-109.27962812 106.57611643 -106.94866441 106.56741154 -104.6177063 106.55747986 C-98.28952947 106.53414388 -91.96145071 106.5290067 -85.63323617 106.52682066 C-79.68673346 106.5217371 -73.740293 106.50234894 -67.79382291 106.48278125 C-56.01417331 106.44439842 -44.23453235 106.41857569 -32.45483398 106.40136719 C-21.02122789 106.38462398 -9.58764063 106.36443939 1.84594727 106.33789062 C2.90291537 106.33544049 2.90291537 106.33544049 3.98123636 106.33294086 C11.67152261 106.31497922 19.36180444 106.29563103 27.05208302 106.27463722 C28.06537262 106.27187509 28.06537262 106.27187509 29.09913272 106.26905716 C31.79928235 106.26167823 34.49943191 106.25428453 37.199581 106.24671336 C45.75374754 106.22276558 54.30789272 106.20518408 62.8620857 106.19427085 C67.75916319 106.18726863 72.656227 106.17639088 77.55329514 106.16462898 C79.83058072 106.1600591 82.1078705 106.15722072 84.38516045 106.15620613 C87.48419362 106.15464153 90.58315571 106.1470807 93.68217468 106.13803101 C94.59149819 106.13909926 95.50082169 106.14016751 96.43770045 106.14126813 C97.26553815 106.13764379 98.09337586 106.13401944 98.94629955 106.13028526 C99.6618577 106.12925344 100.37741585 106.12822161 101.11465758 106.12715852 C103.22707554 106.06412551 103.22707554 106.06412551 106 105 C106.30556226 103.61135566 106.56800808 102.21318736 106.8125 100.8125 C107.03873047 99.64654297 107.03873047 99.64654297 107.26953125 98.45703125 C106.85003065 94.63288812 104.92807005 93.37041343 102 91 C98.5115439 90.26046841 98.5115439 90.26046841 94.59887695 90.38768005 C93.86309323 90.38214664 93.12730951 90.37661323 92.36922932 90.37091213 C89.90834073 90.35835046 87.4490776 90.38130483 84.98828125 90.40405273 C83.22227613 90.40214864 81.45627222 90.39799282 79.6902771 90.39175415 C75.88965693 90.38296346 72.08949332 90.38971852 68.28890991 90.40841484 C62.28013348 90.43749107 56.27175098 90.42971854 50.26293945 90.41651917 C38.59348457 90.39585097 26.92422007 90.41145979 15.254776 90.43199158 C0.40082411 90.45713059 -14.45302196 90.47001494 -29.30697727 90.44203526 C-35.28104841 90.43207331 -41.25464852 90.44222985 -47.22866821 90.46794307 C-50.94371602 90.48010518 -54.65861637 90.47591569 -58.37366867 90.46736526 C-60.09702125 90.46682971 -61.82039173 90.47318033 -63.54368973 90.48690605 C-65.89584603 90.50473178 -68.24671626 90.49803858 -70.59887695 90.4853363 C-71.91515579 90.48814322 -73.23143463 90.49095015 -74.58760071 90.49384212 C-78.58149078 89.91584671 -80.17145091 88.82166443 -83 86 C-85.82605874 81.7609119 -85.66012246 77.97875497 -85 73 C-82.94892412 69.60511578 -81.29515379 68.19676919 -78 66 C-75.61177158 65.74946022 -75.61177158 65.74946022 -72.73085022 65.7484436 C-71.63866684 65.74306076 -70.54648346 65.73767792 -69.42120361 65.73213196 C-68.22267761 65.73625595 -67.02415161 65.74037994 -65.78930664 65.74462891 C-63.85217678 65.73907153 -61.91504693 65.73350981 -59.97791755 65.72778487 C-57.89513058 65.72344324 -55.81239125 65.7239151 -53.72960091 65.72560501 C-49.3889563 65.72843639 -45.04847469 65.714093 -40.70787048 65.69662476 C-28.36492355 65.64958024 -16.02198767 65.62565404 -3.67895508 65.61914062 C3.13790869 65.6153915 9.95458811 65.59737465 16.77137285 65.56404626 C21.08649837 65.54381333 25.40114907 65.54147083 29.71630275 65.55232644 C33.03094604 65.55554334 36.34532171 65.5328483 39.65991211 65.51416016 C40.85641388 65.52233261 42.05291565 65.53050507 43.28567505 65.53892517 C44.38067825 65.52790268 45.47568146 65.51688019 46.60386658 65.50552368 C48.03048819 65.50388938 48.03048819 65.50388938 49.48593044 65.50222206 C52.77487788 64.84520684 53.94571892 63.60429061 56 61 C57.16025399 57.54578685 57.16025399 57.54578685 57 54 C55.65355098 51.61859846 55.65355098 51.61859846 53 50 C49.88907781 49.43032904 46.82280102 49.49048797 43.66796875 49.53125 C42.30301018 49.52067566 42.30301018 49.52067566 40.91047668 49.5098877 C37.0243976 49.48042579 33.13882031 49.49699275 29.25268555 49.50927734 C26.41164505 49.51166658 23.57140916 49.49068958 20.73046875 49.46875 C19.86044724 49.48006958 18.99042572 49.49138916 18.09403992 49.50305176 C12.22626701 49.4547735 8.81967098 48.39614771 4 45 C-0.34271599 39.53658311 0.73459529 32.62528802 1 26 C0.01 26 -0.98 26 -2 26 C-2 20.06 -2 14.12 -2 8 C-1.34 8 -0.68 8 0 8 C0 5.36 0 2.72 0 0 Z " fill="#F3F4F4" transform="translate(253,114)"/>
<path d="M0 0 C23.43 0 46.86 0 71 0 C71 12.21 71 24.42 71 37 C47.57 37 24.14 37 0 37 C0 24.79 0 12.58 0 0 Z " fill="#F67C56" transform="translate(130,120)"/>
<path d="M0 0 C2.91140604 1.67923794 4.94604258 3.62266348 7.0859375 6.203125 C7.7871875 6.986875 8.4884375 7.770625 9.2109375 8.578125 C14.28945439 15.68804864 14.99180824 21.88439701 13.76953125 30.41015625 C11.96413545 38.91666079 6.797949 44.14035061 0.0859375 49.203125 C-6.3983938 53.22341041 -13.45644154 53.06681384 -20.9140625 52.203125 C-29.12882 49.79880573 -34.57204884 44.59808991 -39.0078125 37.4375 C-42.31796774 30.38809533 -42.3401403 20.80486679 -40.0703125 13.48046875 C-36.63491061 6.71411975 -31.11768394 2.15042431 -24.7265625 -1.734375 C-16.26807748 -4.09165771 -7.9948789 -3.67402202 0 0 Z " fill="#92DCE9" transform="translate(414.9140625,212.796875)"/>
<path d="M0 0 C30.03 0 60.06 0 91 0 C91 5.61 91 11.22 91 17 C60.97 17 30.94 17 0 17 C0 11.39 0 5.78 0 0 Z " fill="#CCCBCA" transform="translate(201,365)"/>
<path d="M0 0 C12.21 0 24.42 0 37 0 C37 4.62 37 9.24 37 14 C24.79 14 12.58 14 0 14 C0 9.38 0 4.76 0 0 Z " fill="#CCCBCA" transform="translate(354,346)"/>
<path d="M0 0 C0.33 0 0.66 0 1 0 C1 3.96 1 7.92 1 12 C1.66 12 2.32 12 3 12 C3 16.62 3 21.24 3 26 C49.53 26 96.06 26 144 26 C144 26.33 144 26.66 144 27 C48.3 27 -47.4 27 -146 27 C-146 26.67 -146 26.34 -146 26 C-99.47 26 -52.94 26 -5 26 C-5 21.38 -5 16.76 -5 12 C-4.34 12 -3.68 12 -3 12 C-3 8.37 -3 4.74 -3 1 C-2.67 1 -2.34 1 -2 1 C-2 4.3 -2 7.6 -2 11 C-1.34 11 -0.68 11 0 11 C0 7.37 0 3.74 0 0 Z " fill="#C0C2C4" transform="translate(257,253)"/>
<path d="M0 0 C4.95 0 9.9 0 15 0 C15 11.22 15 22.44 15 34 C11.7 34 8.4 34 5 34 C5 27.4 5 20.8 5 14 C3.35 14 1.7 14 0 14 C0 9.38 0 4.76 0 0 Z " fill="#CECDCC" transform="translate(377,308)"/>
<path d="M0 0 C9.24 0 18.48 0 28 0 C28 4.62 28 9.24 28 14 C18.76 14 9.52 14 0 14 C0 9.38 0 4.76 0 0 Z " fill="#CCCBCA" transform="translate(121,327)"/>
<path d="M0 0 C6.6 0 13.2 0 20 0 C20 5.61 20 11.22 20 17 C13.4 17 6.8 17 0 17 C0 11.39 0 5.78 0 0 Z " fill="#CDCCCB" transform="translate(296,365)"/>
<path d="M0 0 C6.6 0 13.2 0 20 0 C20 5.61 20 11.22 20 17 C13.4 17 6.8 17 0 17 C0 11.39 0 5.78 0 0 Z " fill="#CDCCCC" transform="translate(177,365)"/>
<path d="M0 0 C7.59 0 15.18 0 23 0 C23 4.62 23 9.24 23 14 C15.41 14 7.82 14 0 14 C0 9.38 0 4.76 0 0 Z " fill="#CCCBCA" transform="translate(121,308)"/>
<path d="M0 0 C7.59 0 15.18 0 23 0 C23 4.62 23 9.24 23 14 C15.41 14 7.82 14 0 14 C0 9.38 0 4.76 0 0 Z " fill="#CCCBCA" transform="translate(368,289)"/>
<path d="M0 0 C6.6 0 13.2 0 20 0 C20 4.95 20 9.9 20 15 C13.4 15 6.8 15 0 15 C0 10.05 0 5.1 0 0 Z " fill="#CFCECD" transform="translate(120,346)"/>
<path d="M0 0 C4.95 0 9.9 0 15 0 C15 5.61 15 11.22 15 17 C10.05 17 5.1 17 0 17 C0 11.39 0 5.78 0 0 Z " fill="#CECDCC" transform="translate(320,365)"/>
<path d="M0 0 C4.95 0 9.9 0 15 0 C15 5.61 15 11.22 15 17 C10.05 17 5.1 17 0 17 C0 11.39 0 5.78 0 0 Z " fill="#CECDCC" transform="translate(158,365)"/>
<path d="M0 0 C4.95 0 9.9 0 15 0 C15 5.61 15 11.22 15 17 C10.05 17 5.1 17 0 17 C0 11.39 0 5.78 0 0 Z " fill="#CECDCC" transform="translate(139,365)"/>
<path d="M0 0 C4.95 0 9.9 0 15 0 C15 5.61 15 11.22 15 17 C10.05 17 5.1 17 0 17 C0 11.39 0 5.78 0 0 Z " fill="#CECDCC" transform="translate(120,365)"/>
<path d="M0 0 C4.95 0 9.9 0 15 0 C15 4.95 15 9.9 15 15 C10.05 15 5.1 15 0 15 C0 10.05 0 5.1 0 0 Z " fill="#CFCECD" transform="translate(334,346)"/>
<path d="M0 0 C4.95 0 9.9 0 15 0 C15 4.95 15 9.9 15 15 C10.05 15 5.1 15 0 15 C0 10.05 0 5.1 0 0 Z " fill="#CFCECD" transform="translate(315,346)"/>
<path d="M0 0 C4.95 0 9.9 0 15 0 C15 4.95 15 9.9 15 15 C10.05 15 5.1 15 0 15 C0 10.05 0 5.1 0 0 Z " fill="#CFCECD" transform="translate(296,346)"/>
<path d="M0 0 C4.95 0 9.9 0 15 0 C15 4.95 15 9.9 15 15 C10.05 15 5.1 15 0 15 C0 10.05 0 5.1 0 0 Z " fill="#CFCECD" transform="translate(277,346)"/>
<path d="M0 0 C4.95 0 9.9 0 15 0 C15 4.95 15 9.9 15 15 C10.05 15 5.1 15 0 15 C0 10.05 0 5.1 0 0 Z " fill="#CFCECD" transform="translate(258,346)"/>
<path d="M0 0 C4.95 0 9.9 0 15 0 C15 4.95 15 9.9 15 15 C10.05 15 5.1 15 0 15 C0 10.05 0 5.1 0 0 Z " fill="#CFCECD" transform="translate(182,346)"/>
<path d="M0 0 C4.95 0 9.9 0 15 0 C15 4.95 15 9.9 15 15 C10.05 15 5.1 15 0 15 C0 10.05 0 5.1 0 0 Z " fill="#CFCECD" transform="translate(163,346)"/>
<path d="M0 0 C4.95 0 9.9 0 15 0 C15 4.95 15 9.9 15 15 C10.05 15 5.1 15 0 15 C0 10.05 0 5.1 0 0 Z " fill="#CFCECD" transform="translate(144,346)"/>
<path d="M0 0 C3.34313645 0.66862729 4.38782146 1.84985531 6.5 4.5 C6.99609375 7.41015625 6.99609375 7.41015625 6.9375 10.5625 C6.93621094 11.60535156 6.93492188 12.64820313 6.93359375 13.72265625 C6.5 16.5 6.5 16.5 5.19140625 18.34765625 C2.3446401 20.28713896 -0.17942347 19.85577606 -3.5 19.5 C-5.19140625 18.34765625 -5.19140625 18.34765625 -6.5 16.5 C-6.93359375 13.72265625 -6.93359375 13.72265625 -6.9375 10.5625 C-6.95683594 9.52222656 -6.97617188 8.48195312 -6.99609375 7.41015625 C-6.26704356 3.1334445 -4.28998723 0.85799745 0 0 Z " fill="#E8E9EA" transform="translate(103.5,180.5)"/>
<path d="M0 0 C2.5 0.5 2.5 0.5 4.8125 1.875 C7.37244565 5.85713767 7.13594101 9.88573034 6.5 14.5 C5.0032538 18.2483731 5.0032538 18.2483731 2.5 19.5 C-2.83932149 19.95441034 -2.83932149 19.95441034 -5.1640625 18.35546875 C-7.05239395 15.73278619 -6.93353996 13.76617115 -6.9375 10.5625 C-6.95683594 9.52222656 -6.97617187 8.48195312 -6.99609375 7.41015625 C-6.26704356 3.1334445 -4.28998723 0.85799745 0 0 Z " fill="#EAEBEC" transform="translate(314.5,244.5)"/>
<path d="M0 0 C2.97177128 4.45765692 2.61705298 8.77457662 2 14 C0.4375 16.75 0.4375 16.75 -2 18 C-5.625 18 -5.625 18 -9 17 C-11.87957193 12.75642032 -11.64527994 7.9253646 -11 3 C-8.15867824 -1.88707342 -5.13259698 -1.42572138 0 0 Z " fill="#ECEDEE" transform="translate(383,159)"/>
<path d="M0 0 C4.95 0 9.9 0 15 0 C15 4.62 15 9.24 15 14 C10.05 14 5.1 14 0 14 C0 9.38 0 4.76 0 0 Z " fill="#CDCCCC" transform="translate(239,346)"/>
<path d="M0 0 C4.95 0 9.9 0 15 0 C15 4.62 15 9.24 15 14 C10.05 14 5.1 14 0 14 C0 9.38 0 4.76 0 0 Z " fill="#CDCCCB" transform="translate(220,346)"/>
<path d="M0 0 C4.95 0 9.9 0 15 0 C15 4.62 15 9.24 15 14 C10.05 14 5.1 14 0 14 C0 9.38 0 4.76 0 0 Z " fill="#CDCCCC" transform="translate(201,346)"/>
<path d="M0 0 C4.95 0 9.9 0 15 0 C15 4.62 15 9.24 15 14 C10.05 14 5.1 14 0 14 C0 9.38 0 4.76 0 0 Z " fill="#CDCCCC" transform="translate(282,308)"/>
<path d="M0 0 C4.95 0 9.9 0 15 0 C15 4.62 15 9.24 15 14 C10.05 14 5.1 14 0 14 C0 9.38 0 4.76 0 0 Z " fill="#CDCCCC" transform="translate(215,289)"/>
<path d="M0 0 C4.95 0 9.9 0 15 0 C15 4.62 15 9.24 15 14 C10.05 14 5.1 14 0 14 C0 9.38 0 4.76 0 0 Z " fill="#CDCCCB" transform="translate(196,289)"/>
<path d="M0 0 C4.95 0 9.9 0 15 0 C15 4.62 15 9.24 15 14 C10.05 14 5.1 14 0 14 C0 9.38 0 4.76 0 0 Z " fill="#CDCCCC" transform="translate(177,289)"/>
<path d="M0 0 C1.6640625 1.1171875 1.6640625 1.1171875 3 3 C3.3984375 6.03125 3.3984375 6.03125 3.375 9.5 C3.38273437 10.6446875 3.39046875 11.789375 3.3984375 12.96875 C3 16 3 16 1.6640625 17.8828125 C-0.94077037 19.63159701 -2.95315875 19.38085516 -6 19 C-7.6640625 17.8828125 -7.6640625 17.8828125 -9 16 C-9.3984375 12.96875 -9.3984375 12.96875 -9.375 9.5 C-9.38660156 7.78296875 -9.38660156 7.78296875 -9.3984375 6.03125 C-9 3 -9 3 -7.6640625 1.1171875 C-5.05922963 -0.63159701 -3.04684125 -0.38085516 0 0 Z " fill="#F2F3F4" transform="translate(364,158)"/>
<path d="M0 0 C2.29783606 3.44675409 2.29754883 4.93328112 2.3125 9 C2.32925781 10.051875 2.34601563 11.10375 2.36328125 12.1875 C2 15 2 15 0.66796875 16.8515625 C-1.93242944 18.6420006 -3.93575887 18.38303014 -7 18 C-8.66015625 16.8828125 -8.66015625 16.8828125 -10 15 C-10.43359375 11.96875 -10.43359375 11.96875 -10.4375 8.5 C-10.45683594 7.3553125 -10.47617188 6.210625 -10.49609375 5.03125 C-10 2 -10 2 -8.16796875 0.0859375 C-5.08654538 -1.45755024 -3.24169531 -0.98660292 0 0 Z " fill="#F2F3F4" transform="translate(125,182)"/>
<path d="M0 0 C4.62 0 9.24 0 14 0 C14 4.62 14 9.24 14 14 C9.38 14 4.76 14 0 14 C0 9.38 0 4.76 0 0 Z " fill="#CCCBCA" transform="translate(363,327)"/>
<path d="M0 0 C4.62 0 9.24 0 14 0 C14 4.62 14 9.24 14 14 C9.38 14 4.76 14 0 14 C0 9.38 0 4.76 0 0 Z " fill="#CCCBCA" transform="translate(344,327)"/>
<path d="M0 0 C4.62 0 9.24 0 14 0 C14 4.62 14 9.24 14 14 C9.38 14 4.76 14 0 14 C0 9.38 0 4.76 0 0 Z " fill="#CCCBCA" transform="translate(325,327)"/>
<path d="M0 0 C4.62 0 9.24 0 14 0 C14 4.62 14 9.24 14 14 C9.38 14 4.76 14 0 14 C0 9.38 0 4.76 0 0 Z " fill="#CCCBCA" transform="translate(306,327)"/>
<path d="M0 0 C4.62 0 9.24 0 14 0 C14 4.62 14 9.24 14 14 C9.38 14 4.76 14 0 14 C0 9.38 0 4.76 0 0 Z " fill="#CCCBCA" transform="translate(287,327)"/>
<path d="M0 0 C4.62 0 9.24 0 14 0 C14 4.62 14 9.24 14 14 C9.38 14 4.76 14 0 14 C0 9.38 0 4.76 0 0 Z " fill="#CCCBCA" transform="translate(268,327)"/>
<path d="M0 0 C4.62 0 9.24 0 14 0 C14 4.62 14 9.24 14 14 C9.38 14 4.76 14 0 14 C0 9.38 0 4.76 0 0 Z " fill="#CCCBCA" transform="translate(249,327)"/>
<path d="M0 0 C4.62 0 9.24 0 14 0 C14 4.62 14 9.24 14 14 C9.38 14 4.76 14 0 14 C0 9.38 0 4.76 0 0 Z " fill="#CCCBCA" transform="translate(230,327)"/>
<path d="M0 0 C4.62 0 9.24 0 14 0 C14 4.62 14 9.24 14 14 C9.38 14 4.76 14 0 14 C0 9.38 0 4.76 0 0 Z " fill="#CCCBCA" transform="translate(211,327)"/>
<path d="M0 0 C4.62 0 9.24 0 14 0 C14 4.62 14 9.24 14 14 C9.38 14 4.76 14 0 14 C0 9.38 0 4.76 0 0 Z " fill="#CCCBCA" transform="translate(192,327)"/>
<path d="M0 0 C4.62 0 9.24 0 14 0 C14 4.62 14 9.24 14 14 C9.38 14 4.76 14 0 14 C0 9.38 0 4.76 0 0 Z " fill="#CCCBCA" transform="translate(173,327)"/>
<path d="M0 0 C4.62 0 9.24 0 14 0 C14 4.62 14 9.24 14 14 C9.38 14 4.76 14 0 14 C0 9.38 0 4.76 0 0 Z " fill="#CCCBCA" transform="translate(154,327)"/>
<path d="M0 0 C4.62 0 9.24 0 14 0 C14 4.62 14 9.24 14 14 C9.38 14 4.76 14 0 14 C0 9.38 0 4.76 0 0 Z " fill="#CCCBCA" transform="translate(358,308)"/>
<path d="M0 0 C4.62 0 9.24 0 14 0 C14 4.62 14 9.24 14 14 C9.38 14 4.76 14 0 14 C0 9.38 0 4.76 0 0 Z " fill="#CCCBCA" transform="translate(339,308)"/>
<path d="M0 0 C4.62 0 9.24 0 14 0 C14 4.62 14 9.24 14 14 C9.38 14 4.76 14 0 14 C0 9.38 0 4.76 0 0 Z " fill="#CCCBCA" transform="translate(320,308)"/>
<path d="M0 0 C4.62 0 9.24 0 14 0 C14 4.62 14 9.24 14 14 C9.38 14 4.76 14 0 14 C0 9.38 0 4.76 0 0 Z " fill="#CCCBCA" transform="translate(301,308)"/>
<path d="M0 0 C4.62 0 9.24 0 14 0 C14 4.62 14 9.24 14 14 C9.38 14 4.76 14 0 14 C0 9.38 0 4.76 0 0 Z " fill="#CCCBCA" transform="translate(263,308)"/>
<path d="M0 0 C4.62 0 9.24 0 14 0 C14 4.62 14 9.24 14 14 C9.38 14 4.76 14 0 14 C0 9.38 0 4.76 0 0 Z " fill="#CCCBCA" transform="translate(244,308)"/>
<path d="M0 0 C4.62 0 9.24 0 14 0 C14 4.62 14 9.24 14 14 C9.38 14 4.76 14 0 14 C0 9.38 0 4.76 0 0 Z " fill="#CCCBCA" transform="translate(225,308)"/>
<path d="M0 0 C4.62 0 9.24 0 14 0 C14 4.62 14 9.24 14 14 C9.38 14 4.76 14 0 14 C0 9.38 0 4.76 0 0 Z " fill="#CCCBCA" transform="translate(206,308)"/>
<path d="M0 0 C4.62 0 9.24 0 14 0 C14 4.62 14 9.24 14 14 C9.38 14 4.76 14 0 14 C0 9.38 0 4.76 0 0 Z " fill="#CCCBCA" transform="translate(187,308)"/>
<path d="M0 0 C4.62 0 9.24 0 14 0 C14 4.62 14 9.24 14 14 C9.38 14 4.76 14 0 14 C0 9.38 0 4.76 0 0 Z " fill="#CCCBCA" transform="translate(168,308)"/>
<path d="M0 0 C4.62 0 9.24 0 14 0 C14 4.62 14 9.24 14 14 C9.38 14 4.76 14 0 14 C0 9.38 0 4.76 0 0 Z " fill="#CCCBCA" transform="translate(149,308)"/>
<path d="M0 0 C4.62 0 9.24 0 14 0 C14 4.62 14 9.24 14 14 C9.38 14 4.76 14 0 14 C0 9.38 0 4.76 0 0 Z " fill="#CCCBCA" transform="translate(349,289)"/>
<path d="M0 0 C4.62 0 9.24 0 14 0 C14 4.62 14 9.24 14 14 C9.38 14 4.76 14 0 14 C0 9.38 0 4.76 0 0 Z " fill="#CCCBCA" transform="translate(330,289)"/>
<path d="M0 0 C4.62 0 9.24 0 14 0 C14 4.62 14 9.24 14 14 C9.38 14 4.76 14 0 14 C0 9.38 0 4.76 0 0 Z " fill="#CCCBCA" transform="translate(311,289)"/>
<path d="M0 0 C4.62 0 9.24 0 14 0 C14 4.62 14 9.24 14 14 C9.38 14 4.76 14 0 14 C0 9.38 0 4.76 0 0 Z " fill="#CCCBCA" transform="translate(292,289)"/>
<path d="M0 0 C4.62 0 9.24 0 14 0 C14 4.62 14 9.24 14 14 C9.38 14 4.76 14 0 14 C0 9.38 0 4.76 0 0 Z " fill="#CCCBCA" transform="translate(273,289)"/>
<path d="M0 0 C4.62 0 9.24 0 14 0 C14 4.62 14 9.24 14 14 C9.38 14 4.76 14 0 14 C0 9.38 0 4.76 0 0 Z " fill="#CCCBCA" transform="translate(254,289)"/>
<path d="M0 0 C4.62 0 9.24 0 14 0 C14 4.62 14 9.24 14 14 C9.38 14 4.76 14 0 14 C0 9.38 0 4.76 0 0 Z " fill="#CCCBCA" transform="translate(235,289)"/>
<path d="M0 0 C4.62 0 9.24 0 14 0 C14 4.62 14 9.24 14 14 C9.38 14 4.76 14 0 14 C0 9.38 0 4.76 0 0 Z " fill="#CCCBCA" transform="translate(159,289)"/>
<path d="M0 0 C4.62 0 9.24 0 14 0 C14 4.62 14 9.24 14 14 C9.38 14 4.76 14 0 14 C0 9.38 0 4.76 0 0 Z " fill="#CCCBCA" transform="translate(140,289)"/>
<path d="M0 0 C4.62 0 9.24 0 14 0 C14 4.62 14 9.24 14 14 C9.38 14 4.76 14 0 14 C0 9.38 0 4.76 0 0 Z " fill="#CCCBCA" transform="translate(121,289)"/>
<path d="M0 0 C1.65 0 3.3 0 5 0 C6.17094005 2.7899439 7.33690927 5.58178597 8.5 8.375 C9.00080078 9.56609375 9.00080078 9.56609375 9.51171875 10.78125 C9.82753906 11.54179687 10.14335937 12.30234375 10.46875 13.0859375 C10.76201172 13.7876709 11.05527344 14.4894043 11.35742188 15.21240234 C12 17 12 17 12 19 C10.35 18.67 8.7 18.34 7 18 C7 17.01 7 16.02 7 15 C4.03 15 1.06 15 -2 15 C-2.33 16.32 -2.66 17.64 -3 19 C-4.32 19 -5.64 19 -7 19 C-5.17778624 12.38757278 -2.94776396 6.19479329 0 0 Z " fill="#FEF3EF" transform="translate(148,129)"/>
<path d="M0 0 C1.32 0 2.64 0 4 0 C4.33 1.65 4.66 3.3 5 5 C6.134375 5.12375 7.26875 5.2475 8.4375 5.375 C9.613125 5.58125 10.78875 5.7875 12 6 C13.59211531 9.18423061 13.38981631 12.53417863 13 16 C11.8125 18 11.8125 18 10 19 C7.4375 19.1875 7.4375 19.1875 5 19 C4.34 19 3.68 19 3 19 C2.01 19 1.02 19 0 19 C0 12.73 0 6.46 0 0 Z " fill="#FEF1ED" transform="translate(162,129)"/>
<path d="M0 0 C4.95 0 9.9 0 15 0 C15 2.64 15 5.28 15 8 C10.05 8 5.1 8 0 8 C0 5.36 0 2.72 0 0 Z " fill="#D1D0CF" transform="translate(358,374)"/>
<path d="M0 0 C4.95 0 9.9 0 15 0 C15 2.64 15 5.28 15 8 C10.05 8 5.1 8 0 8 C0 5.36 0 2.72 0 0 Z " fill="#CECECD" transform="translate(377,374)"/>
<path d="M0 0 C4.95 0 9.9 0 15 0 C15 2.64 15 5.28 15 8 C10.05 8 5.1 8 0 8 C0 5.36 0 2.72 0 0 Z " fill="#CECECD" transform="translate(339,374)"/>
<path d="M0 0 C4.95 0 9.9 0 15 0 C15 2.31 15 4.62 15 7 C10.05 7 5.1 7 0 7 C0 4.69 0 2.38 0 0 Z " fill="#CDCCCB" transform="translate(358,365)"/>
<path d="M0 0 C0.66 0 1.32 0 2 0 C2.20625 0.598125 2.4125 1.19625 2.625 1.8125 C4.50926082 4.81018767 6.81132084 5.61361776 10 7 C9.01 7.66 8.02 8.32 7 9 C5.31384218 10.64694485 3.64429829 12.31126121 2 14 C-1.38018638 12.87327121 -2.5572011 11.51913637 -5 9 C-5.99 8.34 -6.98 7.68 -8 7 C-7.05125 6.5875 -6.1025 6.175 -5.125 5.75 C-1.99283376 3.9959869 -1.13499394 3.29148243 0 0 Z " fill="#F2F3F3" transform="translate(224,90)"/>
<path d="M0 0 C0.99 0.66 1.98 1.32 3 2 C3 2.66 3 3.32 3 4 C0.36 4 -2.28 4 -5 4 C-5 5.65 -5 7.3 -5 9 C-3.68 9.66 -2.36 10.32 -1 11 C-1 10.34 -1 9.68 -1 9 C0.32 9 1.64 9 3 9 C2.625 10.9375 2.625 10.9375 2 13 C-0.79870027 14.39935013 -2.90498792 14.25265405 -6 14 C-7.875 13 -7.875 13 -9 11 C-9.53967465 7.40216898 -9.68523932 4.21820324 -7.875 1 C-5.13335219 -0.46221217 -3.05603838 -0.31833733 0 0 Z " fill="#FEF7F5" transform="translate(187,134)"/>
<path d="M0 0 C0 6.6 0 13.2 0 20 C-1.32 20 -2.64 20 -4 20 C-4 15.38 -4 10.76 -4 6 C-4.99 6 -5.98 6 -7 6 C-7 3 -7 3 -5.75 1.3125 C-4 0 -4 0 0 0 Z " fill="#DBDDDE" transform="translate(332,245)"/>
<path d="M0 0 C0.99 0 1.98 0 3 0 C1.79121509 8.84036728 -0.82699458 16.70416522 -4 25 C-4.99 25 -5.98 25 -7 25 C-3.17877095 3.17877095 -3.17877095 3.17877095 0 0 Z " fill="#F3FBFC" transform="translate(403,225)"/>
<path d="M0 0 C0.99 0 1.98 0 3 0 C3 2.31 3 4.62 3 7 C3.66 7 4.32 7 5 7 C4.90234375 9.97851562 4.90234375 9.97851562 4.8046875 12.95703125 C4.86745538 15.31359719 4.86745538 15.31359719 7 18 C4.69 18.33 2.38 18.66 0 19 C0 12.73 0 6.46 0 0 Z " fill="#FEFAF9" transform="translate(162,129)"/>
<path d="M0 0 C0.99 0.33 1.98 0.66 3 1 C1.35 2.98 -0.3 4.96 -2 7 C-0.70700306 9.88437779 0.65941363 11.87219421 3 14 C2.67 14.99 2.34 15.98 2 17 C-2.6489565 14.99892742 -4.84245171 11.8751729 -8 8 C-5.36 5.36 -2.72 2.72 0 0 Z " fill="#F6FCFD" transform="translate(391,229)"/>
<path d="M0 0 C3.69230769 0.69230769 3.69230769 0.69230769 5 2 C5.16796875 3.99609375 5.16796875 3.99609375 5.1875 6.4375 C5.20167969 7.24058594 5.21585937 8.04367188 5.23046875 8.87109375 C5 11 5 11 3 13 C0.875 12.625 0.875 12.625 -1 12 C-1.02687279 10.18757948 -1.04633715 8.37504767 -1.0625 6.5625 C-1.07410156 5.55316406 -1.08570313 4.54382813 -1.09765625 3.50390625 C-1 1 -1 1 0 0 Z " fill="#454E58" transform="translate(377,161)"/>
<path d="M0 0 C1.32 0.33 2.64 0.66 4 1 C4 4.63 4 8.26 4 12 C2.68 12.33 1.36 12.66 0 13 C-2 11 -2 11 -2.265625 8.90625 C-2.25789063 7.71515625 -2.25789063 7.71515625 -2.25 6.5 C-2.25515625 5.7059375 -2.2603125 4.911875 -2.265625 4.09375 C-2 2 -2 2 0 0 Z " fill="#3F4952" transform="translate(360,161)"/>
<path d="M0 0 C1.65 0 3.3 0 5 0 C5 3.63 5 7.26 5 11 C3.35 11.33 1.7 11.66 0 12 C-1.1898306 9.6203388 -1.13349966 8.08514265 -1.125 5.4375 C-1.12886719 4.22900391 -1.12886719 4.22900391 -1.1328125 2.99609375 C-1 1 -1 1 0 0 Z " fill="#404A53" transform="translate(312,249)"/>
<path d="M0 0 C0.99 0 1.98 0 3 0 C3 6.27 3 12.54 3 19 C2.01 19 1.02 19 0 19 C0 14.71 0 10.42 0 6 C-0.99 6 -1.98 6 -3 6 C-3 5.01 -3 4.02 -3 3 C-2.34 3 -1.68 3 -1 3 C-0.67 2.01 -0.34 1.02 0 0 Z " fill="#FDFDFD" transform="translate(300,245)"/>
<path d="M0 0 C1.67542976 0.28604898 3.34385343 0.61781233 5 1 C5.0270043 2.45823212 5.04639787 3.91660675 5.0625 5.375 C5.07410156 6.18710938 5.08570312 6.99921875 5.09765625 7.8359375 C5 10 5 10 4 12 C2.35 11.67 0.7 11.34 -1 11 C-1.02688151 9.35425434 -1.04634123 7.70838587 -1.0625 6.0625 C-1.07410156 5.14597656 -1.08570312 4.22945312 -1.09765625 3.28515625 C-1 1 -1 1 0 0 Z " fill="#3A444E" transform="translate(119,185)"/>
<path d="M0 0 C0 6.27 0 12.54 0 19 C-0.99 19 -1.98 19 -3 19 C-3 14.71 -3 10.42 -3 6 C-3.99 6 -4.98 6 -6 6 C-6 3 -6 3 -4.6875 1.3125 C-3 0 -3 0 0 0 Z " fill="#F6F7F7" transform="translate(138,181)"/>
<path d="M0 0 C1.65 0 3.3 0 5 0 C5 3.63 5 7.26 5 11 C3.68 11.33 2.36 11.66 1 12 C-1 10 -1 10 -1.23046875 8.125 C-1.21628906 7.42375 -1.20210938 6.7225 -1.1875 6 C-1.18105469 5.29875 -1.17460938 4.5975 -1.16796875 3.875 C-1 2 -1 2 0 0 Z " fill="#37414B" transform="translate(101,185)"/>
<path d="M0 0 C3 0 3 0 4.82421875 1.75 C5.43910156 2.4925 6.05398438 3.235 6.6875 4 C7.31011719 4.7425 7.93273437 5.485 8.57421875 6.25 C9.04472656 6.8275 9.51523437 7.405 10 8 C9.06725891 9.12894876 8.12859878 10.25300876 7.1875 11.375 C6.40439453 12.31472656 6.40439453 12.31472656 5.60546875 13.2734375 C4 15 4 15 1 17 C1 12.31908701 1.99645871 11.37898396 5 8 C3.02 5.69 1.04 3.38 -1 1 C-0.67 0.67 -0.34 0.34 0 0 Z " fill="#FAFDFE" transform="translate(409,229)"/>
<path d="M0 0 C1.98 0 3.96 0 6 0 C6 2.64 6 5.28 6 8 C4.02 8 2.04 8 0 8 C0 5.36 0 2.72 0 0 Z " fill="#CAC9C8" transform="translate(253,114)"/>
<path d="M0 0 C1.32 0 2.64 0 4 0 C4.625 2.875 4.625 2.875 5 6 C4.34 6.66 3.68 7.32 3 8 C0.875 7.625 0.875 7.625 -1 7 C-1.04254356 5.00045254 -1.04080783 2.99958364 -1 1 C-0.67 0.67 -0.34 0.34 0 0 Z " fill="#F7835F" transform="translate(167,137)"/>
<path d="M0 0 C1.65 0 3.3 0 5 0 C3.68 3.3 2.36 6.6 1 10 C0.34 10 -0.32 10 -1 10 C-1.125 2.25 -1.125 2.25 0 0 Z " fill="#5C636C" transform="translate(101,185)"/>
<path d="M0 0 C0.28875 0.639375 0.5775 1.27875 0.875 1.9375 C1.82823451 4.15206079 1.82823451 4.15206079 4 5 C2.68 6.32 1.36 7.64 0 9 C-1.32 7.35 -2.64 5.7 -4 4 C-2.68 2.68 -1.36 1.36 0 0 Z " fill="#E6E7E8" transform="translate(327,98)"/>
<path d="M0 0 C1.625 1.6875 1.625 1.6875 3 4 C2.1875 6.75 2.1875 6.75 1 9 C0.34 8.67 -0.32 8.34 -1 8 C-1 7.34 -1 6.68 -1 6 C-1.66 6 -2.32 6 -3 6 C-2 4 -1 2 0 0 Z " fill="#E3E4E6" transform="translate(289,139)"/>
<path d="M0 0 C2.1385485 2.1385485 2.42655063 3.13275314 3 6 C1.35 6 -0.3 6 -2 6 C-1.34 4.02 -0.68 2.04 0 0 Z " fill="#F78B69" transform="translate(150,134)"/>
</svg>
