<?xml version="1.0" encoding="UTF-8"?>
<svg version="1.1" xmlns="http://www.w3.org/2000/svg" width="512" height="512">
<path d="M0 0 C168.96 0 337.92 0 512 0 C512 168.96 512 337.92 512 512 C343.04 512 174.08 512 0 512 C0 343.04 0 174.08 0 0 Z " fill="#70CEF3" transform="translate(0,0)"/>
<path d="M0 0 C4.62 0 9.24 0 14 0 C15.98 9.9 15.98 9.9 18 20 C19.8975 20.515625 21.795 21.03125 23.75 21.5625 C24.81734375 21.85253906 25.8846875 22.14257812 26.984375 22.44140625 C29.99458227 22.99899646 31.19409341 23.00837268 34 22 C35.60976119 20.71071491 35.60976119 20.71071491 37.015625 19.05859375 C37.54414063 18.47529297 38.07265625 17.89199219 38.6171875 17.29101562 C39.15601563 16.67935547 39.69484375 16.06769531 40.25 15.4375 C40.80429687 14.82197266 41.35859375 14.20644531 41.9296875 13.57226562 C43.29406545 12.05498325 44.64805855 10.52837406 46 9 C47.81612488 9.95144598 49.62781081 10.91136933 51.4375 11.875 C52.95150391 12.67550781 52.95150391 12.67550781 54.49609375 13.4921875 C57 15 57 15 58 17 C57.01377311 20.1566732 55.90783417 23.23435377 54.73828125 26.32617188 C53.328927 30.26224135 52.42537839 33.03979287 54 37 C55.81654128 39.29765064 55.81654128 39.29765064 58.0625 41.3125 C58.79597656 42.00988281 59.52945313 42.70726562 60.28515625 43.42578125 C60.85105469 43.94527344 61.41695312 44.46476562 62 45 C63.09699219 44.62746094 64.19398438 44.25492188 65.32421875 43.87109375 C66.77844146 43.39260757 68.23288011 42.91477737 69.6875 42.4375 C70.40873047 42.19064453 71.12996094 41.94378906 71.87304688 41.68945312 C72.57880859 41.46064453 73.28457031 41.23183594 74.01171875 40.99609375 C74.65584717 40.78138428 75.29997559 40.5666748 75.96362305 40.34545898 C79.38674533 39.76474708 82.09244298 40.37383785 84.95030212 42.34559631 C85.56087967 42.91096603 86.17145721 43.47633575 86.80053711 44.05883789 C87.48912811 44.69218048 88.17771912 45.32552307 88.88717651 45.97805786 C92.36016539 49.30165901 95.79712606 52.65453072 99.19140625 56.05859375 C99.94034653 56.8065773 100.6892868 57.55456085 101.46092224 58.32521057 C103.03271225 59.89632464 104.60325849 61.46868392 106.17260742 63.04223633 C108.55601304 65.43099846 110.94471068 67.81437446 113.33398438 70.19726562 C114.87011237 71.7340545 116.40593009 73.2711536 117.94140625 74.80859375 C118.99794151 75.86209267 118.99794151 75.86209267 120.07582092 76.93687439 C121.08738503 77.95316673 121.08738503 77.95316673 122.11938477 78.98999023 C122.70148209 79.57288315 123.28357941 80.15577606 123.88331604 80.7563324 C126 83 126 83 127.35249233 84.6935482 C132.13240041 90.55942283 137.81147983 94.84699696 143.89338136 99.26535249 C162.87658824 113.11967848 180.85699534 128.16788906 198.4375 143.75 C199.20554049 144.42868983 199.97358099 145.10737967 200.76489544 145.80663586 C239.90690025 180.52161666 267.60710983 214.20542499 271.23046303 267.98085022 C272.43642523 289.0670623 272.1449993 310.03903902 271.125 331.125 C271.07013727 332.28881636 271.01527453 333.45263271 270.95874929 334.65171623 C269.50588998 364.8975718 266.86326356 394.968734 263 425 C227.23542537 427.1109958 191.48217486 428.69965705 155.66753979 429.64694498 C151.38348429 429.7606777 147.0995494 429.87846873 142.81567383 429.9987793 C141.96329395 430.02264955 141.11091407 430.0465198 140.2327045 430.07111339 C128.32240044 430.41303525 116.44013946 430.97157858 104.54807557 431.70982386 C84.02974741 432.98333594 63.54069666 433.8214759 42.98046875 433.88671875 C41.78079264 433.89198382 41.78079264 433.89198382 40.55688065 433.89735526 C-5.37126341 434.03220931 -37.95102853 426.36677702 -71.35971642 393.61610918 C-89.67787068 375.3334067 -106.04989729 355.09210331 -121 334 C-117.32451405 332.77483802 -116.35481818 333.71732784 -112.99365234 335.26171875 C-109.48842925 336.55975875 -106.01575991 336.53170939 -102.3125 336.5 C-101.52302979 336.49355469 -100.73355957 336.48710937 -99.92016602 336.48046875 C-89.43986742 336.15592859 -81.7625027 332.33836949 -74.03515625 325.35546875 C-71.95657602 323.22357744 -71.95657602 323.22357744 -71.26784134 321.05636597 C-70.15595268 318.41063748 -69.171368 316.90200718 -67 315 C-61.72770938 313.73301015 -56.44848663 313.90582377 -51.06152344 313.96484375 C-49.41036002 313.95400005 -47.75921596 313.93975397 -46.10810852 313.92236328 C-41.62605584 313.88588963 -37.14547623 313.90003413 -32.66339779 313.92539597 C-27.96836845 313.94566285 -23.27346452 313.92686156 -18.57843018 313.91430664 C-10.68958936 313.89974974 -2.80134751 313.91893225 5.08740234 313.95703125 C14.19515835 314.00051089 23.30148006 313.98651254 32.40920091 313.94242001 C40.23625364 313.90604981 48.06287581 313.90102696 55.8899858 313.92192936 C60.56127763 313.93437356 65.23189679 313.9361447 69.90314484 313.90963745 C74.29999239 313.88643119 78.69500357 313.90272533 83.09165382 313.9487915 C84.70040406 313.95932209 86.30931027 313.95641216 87.91799736 313.93869019 C101.56053761 313.80232028 101.56053761 313.80232028 107.21600342 318.93969727 C107.84481792 319.64965347 108.47363243 320.35960968 109.12150192 321.09107971 C112.71559728 324.74338132 116.72346728 325.30872453 121.6875 325.375 C128.73764783 325.21909993 134.57877466 323.85962797 140.0703125 319.26953125 C145.66683674 313.40371819 148.01003741 307.09034855 148.5 299.0625 C148.36751782 294.07493556 146.61298934 290.42704376 144.19140625 286.12890625 C143 284 143 284 142 281 C140.20067421 279.93283296 140.20067421 279.93283296 138 279 C136.7625 278.2265625 136.7625 278.2265625 135.5 277.4375 C129.34877527 273.90054578 121.42944728 274.07931292 114.61328125 275.49609375 C110.02278306 277.04374742 107.14722428 279.38994862 104 283 C101.17663631 285.82336369 99.34293802 285.26955067 95.38397217 285.30107117 C94.69637636 285.30913011 94.00878056 285.31718905 93.30034852 285.3254922 C90.98504272 285.34995497 88.66990276 285.35994674 86.35449219 285.36987305 C84.69892238 285.38403585 83.04335887 285.39895138 81.38780212 285.41456604 C75.94087965 285.46186412 70.49394109 285.4875 65.046875 285.51171875 C63.17295539 285.52112464 61.29903621 285.53061905 59.42511749 285.54020119 C51.63077261 285.57870459 43.83643866 285.61191775 36.04201889 285.63057232 C24.86558647 285.65738402 13.69031145 285.71493758 2.5142982 285.81633729 C-5.34055235 285.88517067 -13.19509505 285.91953398 -21.05024028 285.92813712 C-25.74354478 285.93414522 -30.43565958 285.95516624 -35.12863922 286.01270103 C-39.54502225 286.06602453 -43.9594668 286.07662679 -48.37609673 286.05455589 C-49.99588077 286.05383902 -51.61575656 286.06850213 -53.23523903 286.09976578 C-65.5044076 286.32354406 -65.5044076 286.32354406 -69.25374603 283.00551796 C-70.78250671 280.72414235 -71.89932816 278.50828696 -73 276 C-78.10052482 270.36615034 -84.21523479 266.65264207 -91.36407471 264.18345642 C-94.25488989 262.8855616 -95.89919288 261.47519208 -98.13183594 259.24047852 C-98.90903992 258.46950333 -99.6862439 257.69852814 -100.48699951 256.90419006 C-101.31113342 256.07084641 -102.13526733 255.23750275 -102.984375 254.37890625 C-103.84057434 253.52320541 -104.69677368 252.66750458 -105.57891846 251.78587341 C-107.38450536 249.97794852 -109.18640602 248.1663357 -110.98486328 246.35131836 C-113.74480616 243.56773832 -116.5178701 240.79775888 -119.29296875 238.02929688 C-121.04506537 236.27162499 -122.79639414 234.51318729 -124.546875 232.75390625 C-125.79522125 231.50692711 -125.79522125 231.50692711 -127.06878662 230.23475647 C-127.83338196 229.46062912 -128.59797729 228.68650177 -129.38574219 227.88891602 C-130.06127136 227.20877945 -130.73680054 226.52864288 -131.43280029 225.82789612 C-133 224 -133 224 -134 221 C-127.25 217 -127.25 217 -125 217 C-125 220.3 -125 223.6 -125 227 C-123.7625 227.37125 -123.7625 227.37125 -122.5 227.75 C-118.53159474 229.16728759 -114.76902581 231.1154871 -111 233 C-111 225.08 -111 217.16 -111 209 C-74.7 208.67 -38.4 208.34 -1 208 C-13.54 195.46 -26.08 182.92 -39 170 C-39 169.01 -39 168.02 -39 167 C-40.65 166.34 -42.3 165.68 -44 165 C-43.80664062 164.31035156 -43.61328125 163.62070313 -43.4140625 162.91015625 C-42.87057574 160.94876098 -42.34558263 158.98217837 -41.8359375 157.01171875 C-41 154 -41 154 -40.0390625 151.58203125 C-39.16858107 149.14726882 -38.7413447 147.58201524 -39 145 C-41.35531352 141.04706733 -44.04188227 138.3479367 -48 136 C-51.4130338 135.67358569 -53.89736863 136.6412235 -57 138 C-64.65128116 141.0252406 -64.65128116 141.0252406 -67.05078125 140.8515625 C-69.73462303 139.67906248 -70.46986839 138.22754559 -71.875 135.6875 C-72.55175781 134.51767578 -72.55175781 134.51767578 -73.2421875 133.32421875 C-74 131 -74 131 -73.48828125 129 C-71.45688915 126.27015025 -68.97236406 124.42744953 -66.3125 122.3125 C-62.44179036 119.09677682 -62.44179036 119.09677682 -60.46484375 114.59375 C-60.75558242 112.26784065 -61.31533574 110.24037361 -62 108 C-62.35731366 105.67021836 -62.69478217 103.33717728 -63 101 C-64.02480469 100.86722656 -65.04960937 100.73445313 -66.10546875 100.59765625 C-67.4661574 100.41935912 -68.82683385 100.24096877 -70.1875 100.0625 C-70.86103516 99.97548828 -71.53457031 99.88847656 -72.22851562 99.79882812 C-75.86240055 99.32021889 -79.40058796 98.71988241 -83 98 C-83 93.05 -83 88.1 -83 83 C-68.80357143 79.78571429 -68.80357143 79.78571429 -63 80 C-61.48807262 74.79738526 -59.93710237 69.41966429 -61 64 C-64.11568226 58.89435119 -69.19038892 55.40412152 -74 52 C-72.57271181 47.40953257 -70.80273303 43.92382624 -68 40 C-61.26137773 41.43609983 -54.63370443 43.14008287 -48 45 C-41.55600022 39.91709066 -41.55600022 39.91709066 -38.6875 32.75 C-39.120625 31.5125 -39.55375 30.275 -40 29 C-40.68999551 26.68824338 -41.377298 24.37568195 -42.0625 22.0625 C-42.70321254 20.04003727 -43.34735571 18.01864397 -44 16 C-42.56542672 15.0165504 -41.12722594 14.03839079 -39.6875 13.0625 C-38.88699219 12.51722656 -38.08648437 11.97195312 -37.26171875 11.41015625 C-35 10 -35 10 -32 9 C-27.71 13.62 -23.42 18.24 -19 23 C-16.89625 22.525625 -14.7925 22.05125 -12.625 21.5625 C-11.44164062 21.29566406 -10.25828125 21.02882813 -9.0390625 20.75390625 C-6.10505419 20.14365305 -6.10505419 20.14365305 -4 19 C-3.34504866 17.07334804 -3.34504866 17.07334804 -2.9296875 14.74609375 C-2.75566406 13.89208984 -2.58164063 13.03808594 -2.40234375 12.15820312 C-2.22832031 11.26037109 -2.05429688 10.36253906 -1.875 9.4375 C-1.69324219 8.53580078 -1.51148438 7.63410156 -1.32421875 6.70507812 C-0.87515523 4.47157799 -0.43659707 2.23597046 0 0 Z " fill="#5ABBE9" transform="translate(249,87)"/>
<path d="M0 0 C4.62 0 9.24 0 14 0 C15.32 6.6 16.64 13.2 18 20 C19.8975 20.515625 21.795 21.03125 23.75 21.5625 C24.81734375 21.85253906 25.8846875 22.14257812 26.984375 22.44140625 C29.99458227 22.99899646 31.19409341 23.00837268 34 22 C35.60976119 20.71071491 35.60976119 20.71071491 37.015625 19.05859375 C37.54414063 18.47529297 38.07265625 17.89199219 38.6171875 17.29101562 C39.15601563 16.67935547 39.69484375 16.06769531 40.25 15.4375 C40.80429687 14.82197266 41.35859375 14.20644531 41.9296875 13.57226562 C43.29406545 12.05498325 44.64805855 10.52837406 46 9 C47.81612488 9.95144598 49.62781081 10.91136933 51.4375 11.875 C52.95150391 12.67550781 52.95150391 12.67550781 54.49609375 13.4921875 C57 15 57 15 58 17 C57.01377311 20.1566732 55.90783417 23.23435377 54.73828125 26.32617188 C53.328927 30.26224135 52.42537839 33.03979287 54 37 C55.81654128 39.29765064 55.81654128 39.29765064 58.0625 41.3125 C58.79597656 42.00988281 59.52945313 42.70726562 60.28515625 43.42578125 C60.85105469 43.94527344 61.41695312 44.46476562 62 45 C63.09699219 44.62746094 64.19398438 44.25492188 65.32421875 43.87109375 C66.77844146 43.39260757 68.23288011 42.91477737 69.6875 42.4375 C70.40873047 42.19064453 71.12996094 41.94378906 71.87304688 41.68945312 C79.11045085 39.34308015 79.11045085 39.34308015 83 41 C84.65234375 42.92578125 84.65234375 42.92578125 85.9375 45.3125 C86.37964844 46.09238281 86.82179688 46.87226563 87.27734375 47.67578125 C88 50 88 50 87.47265625 51.96484375 C85.44413396 54.76818623 83.07042788 56.93661491 80.5 59.25 C80.00113281 59.70890625 79.50226563 60.1678125 78.98828125 60.640625 C75.25897507 64 75.25897507 64 73 64 C73.474375 64.969375 73.94875 65.93875 74.4375 66.9375 C76.28852999 71.19836149 76.69751593 75.40015606 77 80 C77.90878906 80.07347656 77.90878906 80.07347656 78.8359375 80.1484375 C85.00934288 80.69929521 90.93967253 81.7013584 97 83 C97 87.95 97 92.9 97 98 C94.22970414 98.50314563 91.4588348 99.00263838 88.6875 99.5 C87.90181641 99.64308594 87.11613281 99.78617187 86.30664062 99.93359375 C85.54931641 100.06894531 84.79199219 100.20429688 84.01171875 100.34375 C82.96697388 100.53227539 82.96697388 100.53227539 81.90112305 100.72460938 C80 101 80 101 77 101 C76.65912666 102.54001707 76.32769047 104.08212406 76 105.625 C75.814375 106.48351562 75.62875 107.34203125 75.4375 108.2265625 C75.293125 109.14179688 75.14875 110.05703125 75 111 C74.8453125 111.969375 74.690625 112.93875 74.53125 113.9375 C75.23912685 118.56229543 78.03110212 120.45420241 81.5 123.375 C82.12003906 123.92027344 82.74007812 124.46554688 83.37890625 125.02734375 C84.90617713 126.36664283 86.45141472 127.68540425 88 129 C86.35442612 133.29183459 84.32599824 137.04580299 82 141 C75.26137773 139.56390017 68.63370443 137.85991713 62 136 C55.81922086 140.60919044 55.81922086 140.60919044 52.7421875 147.21484375 C53.29991235 149.58731947 54.09990979 151.73513886 55 154 C55.55955155 156.01595441 56.10111497 158.03698411 56.625 160.0625 C57.07875 161.691875 57.5325 163.32125 58 165 C54.04 167.31 50.08 169.62 46 172 C45.14277344 170.97777344 44.28554688 169.95554687 43.40234375 168.90234375 C42.24855956 167.5797131 41.0935467 166.25815356 39.9375 164.9375 C39.37611328 164.26138672 38.81472656 163.58527344 38.23632812 162.88867188 C36.57347381 161.01677302 35.05960454 159.42648883 33 158 C29.34888869 157.86662822 29.34888869 157.86662822 26 159 C24.52144142 159.19223635 23.04238538 159.38075969 21.5625 159.5625 C19.7990625 159.7790625 19.7990625 159.7790625 18 160 C17.87882812 160.85722656 17.75765625 161.71445313 17.6328125 162.59765625 C16.76144776 168.54304491 15.86184181 174.28148588 14 180 C9.38 180 4.76 180 0 180 C-0.71614583 177.10286458 -1.43229167 174.20572917 -2.1484375 171.30859375 C-2.42945313 170.21675781 -2.71046875 169.12492188 -3 168 C-3.20625 166.7625 -3.4125 165.525 -3.625 164.25 C-4.71073362 160.65579727 -4.71073362 160.65579727 -8.4765625 159.44140625 C-9.85240736 159.11728895 -11.23611144 158.82515882 -12.625 158.5625 C-13.33140625 158.40330078 -14.0378125 158.24410156 -14.765625 158.08007812 C-16.50447315 157.69236198 -18.25167067 157.34243433 -20 157 C-20.24105469 157.55042969 -20.48210937 158.10085937 -20.73046875 158.66796875 C-22.29320461 161.53859432 -24.18011847 163.83607036 -26.3125 166.3125 C-27.45138672 167.66794922 -27.45138672 167.66794922 -28.61328125 169.05078125 C-31 171 -31 171 -33.5234375 170.953125 C-36.01600926 169.99383871 -38.08636361 168.90901389 -40.3125 167.4375 C-41.00988281 166.98246094 -41.70726562 166.52742187 -42.42578125 166.05859375 C-43.20501953 165.53458984 -43.20501953 165.53458984 -44 165 C-43.80664062 164.31035156 -43.61328125 163.62070313 -43.4140625 162.91015625 C-42.87057574 160.94876098 -42.34558263 158.98217837 -41.8359375 157.01171875 C-41 154 -41 154 -40.0390625 151.58203125 C-39.16858107 149.14726882 -38.7413447 147.58201524 -39 145 C-41.35531352 141.04706733 -44.04188227 138.3479367 -48 136 C-51.4130338 135.67358569 -53.89736863 136.6412235 -57 138 C-64.65128116 141.0252406 -64.65128116 141.0252406 -67.05078125 140.8515625 C-69.73462303 139.67906248 -70.46986839 138.22754559 -71.875 135.6875 C-72.55175781 134.51767578 -72.55175781 134.51767578 -73.2421875 133.32421875 C-74 131 -74 131 -73.48828125 129 C-71.45688915 126.27015025 -68.97236406 124.42744953 -66.3125 122.3125 C-62.44179036 119.09677682 -62.44179036 119.09677682 -60.46484375 114.59375 C-60.75558242 112.26784065 -61.31533574 110.24037361 -62 108 C-62.35731366 105.67021836 -62.69478217 103.33717728 -63 101 C-64.02480469 100.86722656 -65.04960937 100.73445313 -66.10546875 100.59765625 C-67.4661574 100.41935912 -68.82683385 100.24096877 -70.1875 100.0625 C-70.86103516 99.97548828 -71.53457031 99.88847656 -72.22851562 99.79882812 C-75.86240055 99.32021889 -79.40058796 98.71988241 -83 98 C-83 93.05 -83 88.1 -83 83 C-68.80357143 79.78571429 -68.80357143 79.78571429 -63 80 C-61.48807262 74.79738526 -59.93710237 69.41966429 -61 64 C-64.11568226 58.89435119 -69.19038892 55.40412152 -74 52 C-72.57271181 47.40953257 -70.80273303 43.92382624 -68 40 C-61.26137773 41.43609983 -54.63370443 43.14008287 -48 45 C-41.55600022 39.91709066 -41.55600022 39.91709066 -38.6875 32.75 C-39.120625 31.5125 -39.55375 30.275 -40 29 C-40.68999551 26.68824338 -41.377298 24.37568195 -42.0625 22.0625 C-42.70321254 20.04003727 -43.34735571 18.01864397 -44 16 C-42.56542672 15.0165504 -41.12722594 14.03839079 -39.6875 13.0625 C-38.88699219 12.51722656 -38.08648437 11.97195312 -37.26171875 11.41015625 C-35 10 -35 10 -32 9 C-27.71 13.62 -23.42 18.24 -19 23 C-16.89625 22.525625 -14.7925 22.05125 -12.625 21.5625 C-11.44164062 21.29566406 -10.25828125 21.02882813 -9.0390625 20.75390625 C-6.10505419 20.14365305 -6.10505419 20.14365305 -4 19 C-3.34504866 17.07334804 -3.34504866 17.07334804 -2.9296875 14.74609375 C-2.75566406 13.89208984 -2.58164063 13.03808594 -2.40234375 12.15820312 C-2.22832031 11.26037109 -2.05429688 10.36253906 -1.875 9.4375 C-1.69324219 8.53580078 -1.51148438 7.63410156 -1.32421875 6.70507812 C-0.87515523 4.47157799 -0.43659707 2.23597046 0 0 Z " fill="#32373C" transform="translate(249,87)"/>
<path d="M0 0 C6.37097393 4.67127671 10.71403687 9.13175323 14.1875 16.25 C36.13594473 16.36676236 58.0843383 16.45495343 80.03303051 16.50906086 C90.2240302 16.53485082 100.414837 16.57001652 110.60571289 16.62719727 C119.48730592 16.67700793 128.36875927 16.70928525 137.2504881 16.72044247 C141.95408086 16.7269652 146.65727399 16.74231182 151.36073875 16.77865028 C155.78734733 16.8125729 160.21339143 16.82306058 164.64011765 16.81553841 C166.26511896 16.81691463 167.89013903 16.8268697 169.515028 16.84602737 C171.73415703 16.87090916 173.95115549 16.86492568 176.17033386 16.85127258 C177.41198901 16.85588155 178.65364416 16.86049051 179.93292522 16.86523914 C184.09256563 16.07890797 185.46025663 14.40120443 188.1875 11.25 C195.38482787 5.96216728 201.388758 5.60252358 210.1875 6.25 C212.92313793 6.9326546 214.67062282 7.84054878 217.1875 9.25 C218.198125 9.765625 219.20875 10.28125 220.25 10.8125 C225.2859707 14.9912842 229.76455251 21.74398246 230.390625 28.4140625 C230.57842206 38.27340818 228.39931232 45.08817095 221.48046875 52.296875 C215.16575887 57.67567387 208.15928209 58.94603008 200.015625 58.6328125 C195.81323391 58.06398056 192.5565588 56.8214857 189.1875 54.25 C188.4900769 53.24686264 187.79265381 52.24372528 187.07409668 51.21018982 C182.79914719 46.9630573 177.46685323 47.44926295 171.78266907 47.40350342 C170.21774004 47.41038411 168.65281375 47.4179131 167.08789062 47.42602539 C165.43171625 47.41297671 163.77555999 47.39742479 162.11943054 47.37956238 C157.62965211 47.33943873 153.1406319 47.33765017 148.65070915 47.34525228 C144.90055141 47.34846404 141.15054657 47.33380513 137.40042162 47.31943601 C128.55345221 47.2861681 119.70686496 47.28482898 110.85986328 47.30297852 C101.73550242 47.32110917 92.61252808 47.28413609 83.4884038 47.22026831 C75.65037205 47.16742236 67.81278173 47.14941526 59.97457838 47.15918154 C55.29486848 47.16462029 50.61614817 47.15671409 45.93659973 47.11503792 C41.53641114 47.07731435 37.13838502 47.0831136 32.73822975 47.12227058 C31.12495506 47.12936973 29.51152835 47.12115499 27.89842796 47.09640121 C19.35289164 46.6674342 19.35289164 46.6674342 11.99287415 50.19634819 C10.37062967 52.51732781 10.37062967 52.51732781 9.28800201 54.9543066 C6.01584188 61.78016999 -1.46986129 65.76090929 -8.26171875 68.3671875 C-17.27614755 70.60839862 -28.60802084 71.15514004 -36.93359375 66.51171875 C-37.55363281 66.09535156 -38.17367187 65.67898438 -38.8125 65.25 C-39.50472656 64.80269531 -40.19695312 64.35539062 -40.91015625 63.89453125 C-46.2897562 60.14389427 -51.69502024 55.60243927 -53.8125 49.25 C-41.2725 49.25 -28.7325 49.25 -15.8125 49.25 C-15.1525 47.6 -14.4925 45.95 -13.8125 44.25 C-12.23367628 41.43209944 -10.60295153 38.65027062 -8.95703125 35.87109375 C-7.65877581 33.4314669 -7.65877581 33.4314669 -7.9140625 31.32421875 C-9.21780259 28.31427967 -10.77541479 25.48809595 -12.375 22.625 C-15.8125 16.4693159 -15.8125 16.4693159 -15.8125 14.25 C-28.0225 14.25 -40.2325 14.25 -52.8125 14.25 C-49.07046397 4.89490994 -42.44914926 0.61094596 -33.546875 -3.62109375 C-22.79085429 -8.06179373 -9.73108425 -6.18949916 0 0 Z " fill="#FDFEFE" transform="translate(167.8125,354.75)"/>
<path d="M0 0 C76.23 0 152.46 0 231 0 C231 8.25 231 16.5 231 25 C154.77 25 78.54 25 0 25 C0 16.75 0 8.5 0 0 Z " fill="#F37668" transform="translate(138,296)"/>
<path d="M0 0 C9.3711352 5.97369615 14.78355877 12.97958255 18.2734375 23.44921875 C19.086401 34.98195679 17.23473568 44.07701226 10.2734375 53.44921875 C4.09023768 60.07204975 -3.06812673 64.05474494 -12.14453125 64.6875 C-23.84132482 64.91779956 -31.97873086 63.02740007 -40.6796875 54.8046875 C-47.92774493 46.46388859 -50.29952262 38.21157783 -49.7265625 27.44921875 C-48.83478321 17.87355589 -44.88637976 11.17761518 -37.9140625 4.63671875 C-27.45712701 -3.78366001 -12.41303285 -6.03705522 0 0 Z " fill="#FBFCFC" transform="translate(271.7265625,146.55078125)"/>
<path d="M0 0 C75.9 0 151.8 0 230 0 C230 3.96 230 7.92 230 12 C154.1 12 78.2 12 0 12 C0 8.04 0 4.08 0 0 Z " fill="#DD4F4E" transform="translate(139,308)"/>
<path d="M0 0 C1.62565384 -0.01073296 1.62565384 -0.01073296 3.28414917 -0.02168274 C4.47332443 -0.02437164 5.66249969 -0.02706055 6.88771057 -0.02983093 C8.13993408 -0.03640213 9.39215759 -0.04297333 10.68232727 -0.04974365 C14.83485654 -0.06948956 18.98734722 -0.08114107 23.13990784 -0.09111023 C24.56966229 -0.09515817 25.99941655 -0.0992751 27.42917061 -0.10346031 C34.14394381 -0.12250354 40.85870605 -0.13673854 47.57350105 -0.14507228 C55.32643899 -0.15485348 63.07909209 -0.18119929 70.83192962 -0.22157317 C76.8243622 -0.25171006 82.81671299 -0.26653868 88.8092199 -0.26985329 C92.38871374 -0.27220584 95.96790298 -0.2811928 99.5473156 -0.30631447 C103.53847819 -0.33387495 107.52926393 -0.32977147 111.52052307 -0.32279968 C113.30124962 -0.34201477 113.30124962 -0.34201477 115.11795044 -0.36161804 C116.20453949 -0.35467422 117.29112854 -0.34773041 118.41064453 -0.34057617 C119.35435126 -0.34296453 120.29805799 -0.34535288 121.2703619 -0.34781361 C124.55084769 0.30210479 125.73721536 1.53715004 127.76881409 4.14717102 C128.44719761 8.29284808 128.32612034 10.30002118 126.00428772 13.82939148 C121.04938508 17.3789095 116.39258684 16.84519345 110.43873596 16.79414368 C109.18782669 16.80290527 107.93691742 16.81166687 106.64810181 16.82069397 C103.22408487 16.83891512 99.80158105 16.83466748 96.37764931 16.81879854 C92.79117963 16.80612067 89.20477366 16.81788487 85.61830139 16.82572937 C79.59592611 16.83482052 73.57385761 16.82285237 67.55152893 16.79902649 C60.59338593 16.77181581 53.63597549 16.78063038 46.67785025 16.80815852 C40.69888851 16.83086414 34.72014703 16.83404271 28.7411561 16.82096517 C25.17228599 16.81317847 21.60375998 16.81210703 18.03491211 16.82864761 C14.05595018 16.84580151 10.07780574 16.82201271 6.09889221 16.79414368 C4.91847855 16.80426483 3.73806488 16.81438599 2.5218811 16.82481384 C-5.42709791 16.72152717 -5.42709791 16.72152717 -9.4705658 13.83329773 C-11.76294889 10.33587578 -11.83912413 8.25075402 -11.23118591 4.14717102 C-8.39876777 0.10085939 -4.62510873 0.02095271 0 0 Z " fill="#D9D8D7" transform="translate(207.23118591308594,378.8528289794922)"/>
<path d="M0 0 C5.28923987 1.76307996 7.80008936 4.61155112 11 9 C12.59228648 13.77685943 12.99433654 18.45842229 11.12890625 23.2265625 C8.4154896 27.97726575 5.31637218 31.38414204 0 33 C-5.86060389 33.99866793 -10.53746591 33.84785996 -15.5 30.375 C-19.2904533 27.04281872 -21.56871711 23.98076526 -22.30859375 18.8671875 C-22.63316394 13.06426596 -21.39910256 9.68524948 -18 5 C-12.117398 -0.32235419 -7.75466702 -0.59313317 0 0 Z " fill="#5CBCEA" transform="translate(261,161)"/>
<path d="M0 0 C0.56847656 0.16757812 1.13695312 0.33515625 1.72265625 0.5078125 C7.27806008 1.97317778 10.62564828 2.05826236 16 0 C16.350625 1.093125 16.70125 2.18625 17.0625 3.3125 C18.37683541 6.46435287 19.53564713 7.62316459 22.6875 8.9375 C23.780625 9.288125 24.87375 9.63875 26 10 C25.83242188 10.56847656 25.66484375 11.13695312 25.4921875 11.72265625 C24.02682222 17.27806008 23.94173764 20.62564828 26 26 C24.3603125 26.556875 24.3603125 26.556875 22.6875 27.125 C19.45411511 28.4798799 19.01423545 28.97658038 17.0625 32.1875 C16.5365625 33.5796875 16.5365625 33.5796875 16 35 C15.02160156 34.85691406 15.02160156 34.85691406 14.0234375 34.7109375 C8.78486807 34.04645819 4.95773184 33.78206733 0 36 C-0.350625 34.906875 -0.70125 33.81375 -1.0625 32.6875 C-2.37683541 29.53564713 -3.53564713 28.37683541 -6.6875 27.0625 C-7.780625 26.711875 -8.87375 26.36125 -10 26 C-9.83242188 25.43152344 -9.66484375 24.86304688 -9.4921875 24.27734375 C-8.02682222 18.72193992 -7.94173764 15.37435172 -10 10 C-8.906875 9.649375 -7.81375 9.29875 -6.6875 8.9375 C-3.53564713 7.62316459 -2.37683541 6.46435287 -1.0625 3.3125 C-0.711875 2.219375 -0.36125 1.12625 0 0 Z " fill="#5CBDEA" transform="translate(364,369)"/>
<path d="M0 0 C5.10376084 -0.37338987 10.19947998 -0.64394642 15.3137207 -0.82397461 C17.04820157 -0.89902193 18.78174499 -1.00112449 20.51293945 -1.1315918 C34.42348204 -2.15295326 34.42348204 -2.15295326 38.72344971 1.44012451 C42.51621327 5.9316155 46.21448745 11.73771506 45.81835938 17.76269531 C45.06179304 19.8310646 44.26853971 21.65501985 43.15234375 23.55078125 C42.79462891 24.16630859 42.43691406 24.78183594 42.06835938 25.41601562 C41.69517578 26.04185547 41.32199219 26.66769531 40.9375 27.3125 C40.56044922 27.95767578 40.18339844 28.60285156 39.79492188 29.26757812 C38.86962507 30.84878152 37.93567319 32.4249146 37 34 C33.17517314 33.47966204 31.20698834 32.7055035 28.49487305 29.96484375 C27.53444344 29.00880249 27.53444344 29.00880249 26.55461121 28.03344727 C25.8804567 27.34178467 25.20630219 26.65012207 24.51171875 25.9375 C23.80852005 25.23101318 23.10532135 24.52452637 22.3808136 23.79663086 C20.89951151 22.30491933 19.42297992 20.80845746 17.95092773 19.30761719 C15.68736375 16.99986109 13.41059638 14.70583302 11.13085938 12.4140625 C9.69453108 10.96431544 8.2589574 9.51382027 6.82421875 8.0625 C6.13994308 7.3708374 5.45566742 6.6791748 4.75065613 5.96655273 C4.12613052 5.32919189 3.50160492 4.69183105 2.8581543 4.03515625 C2.30475876 3.4719165 1.75136322 2.90867676 1.18119812 2.32836914 C0 1 0 1 0 0 Z " fill="#5BBCEA" transform="translate(115,370)"/>
<path d="M0 0 C6.6 0 13.2 0 20 0 C20 8.25 20 16.5 20 25 C13.4 25 6.8 25 0 25 C0 16.75 0 8.5 0 0 Z " fill="#333B41" transform="translate(378,296)"/>
<path d="M0 0 C5.62303757 4.67466337 10.79741554 9.67765667 15.9375 14.875 C16.71673828 15.65875 17.49597656 16.4425 18.29882812 17.25 C20.20154085 19.16438581 22.10186171 21.08108034 24 23 C21.41136082 24.35475475 18.90166545 25.43336059 16.109375 26.2890625 C15.40039062 26.50820312 14.69140625 26.72734375 13.9609375 26.953125 C13.23132813 27.17484375 12.50171875 27.3965625 11.75 27.625 C10.63238281 27.96917969 10.63238281 27.96917969 9.4921875 28.3203125 C7.6624129 28.88332007 5.83133297 29.44208228 4 30 C2.28907337 28.50557023 0.60683606 26.97824897 -1.0625 25.4375 C-2.00222656 24.59058594 -2.94195312 23.74367188 -3.91015625 22.87109375 C-6 20 -6 20 -5.93359375 16.55859375 C-5.0523921 13.19970379 -4.12539492 9.91016016 -3 6.625 C-2.649375 5.58601563 -2.29875 4.54703125 -1.9375 3.4765625 C-1 1 -1 1 0 0 Z " fill="#5ABAE8" transform="translate(307,103)"/>
<path d="M0 0 C3.56911841 2.57068336 6.49616802 5.37588525 9 9 C9.4225181 12.42180154 8.35999268 14.88701296 7 18 C6.65066406 18.92039063 6.30132812 19.84078125 5.94140625 20.7890625 C5.00819886 23.21608538 4.0271773 25.61156347 3 28 C-2.20548614 23.65196748 -7.04897726 19.07514044 -11.8125 14.25 C-12.47958984 13.57839844 -13.14667969 12.90679687 -13.83398438 12.21484375 C-15.0595191 10.98065237 -16.28401626 9.74542911 -17.50708008 8.50878906 C-18.66784901 7.33568162 -19.83304551 6.16695449 -21 5 C-18.25435036 3.96588523 -15.5045139 2.94748843 -12.75 1.9375 C-11.97269531 1.64294922 -11.19539062 1.34839844 -10.39453125 1.04492188 C-9.26337891 0.6340332 -9.26337891 0.6340332 -8.109375 0.21484375 C-7.41811523 -0.04176025 -6.72685547 -0.29836426 -6.01464844 -0.56274414 C-3.62561446 -1.081256 -2.28564137 -0.82656472 0 0 Z " fill="#59BAE7" transform="translate(202,223)"/>
<path d="M0 0 C4.62 0 9.24 0 14 0 C15.32 6.93 16.64 13.86 18 21 C10.08 21 2.16 21 -6 21 C-5.34 20.34 -4.68 19.68 -4 19 C-3.35628015 16.97791452 -3.35628015 16.97791452 -2.9296875 14.6484375 C-2.75566406 13.79765625 -2.58164063 12.946875 -2.40234375 12.0703125 C-2.22832031 11.18085937 -2.05429688 10.29140625 -1.875 9.375 C-1.69324219 8.4778125 -1.51148438 7.580625 -1.32421875 6.65625 C-0.8760232 4.43886149 -0.43712898 2.21959665 0 0 Z " fill="#4A5358" transform="translate(249,87)"/>
<path d="M0 0 C2.23083586 3.34625379 3.42470489 6.72240778 4.6875 10.5 C4.92533203 11.17675781 5.16316406 11.85351562 5.40820312 12.55078125 C7.11983385 17.64049844 7.11983385 17.64049844 6 21 C2.463361 23.26764217 -1.26345061 25.06730204 -5 27 C-9.62 22.05 -14.24 17.1 -19 12 C-15.80983234 9.60737426 -13.53273934 8.40678312 -9.94921875 6.9609375 C-6.28937782 5.15668726 -3.17047402 2.54461422 0 0 Z " fill="#4A5358" transform="translate(300,232)"/>
<path d="M0 0 C0.83789062 0.58265625 1.67578125 1.1653125 2.5390625 1.765625 C6.00703858 4.07760905 9.63165412 5.92912403 13.375 7.75 C14.01566406 8.06582031 14.65632813 8.38164062 15.31640625 8.70703125 C16.87577523 9.47507866 18.4376295 10.23807685 20 11 C19.01 11.495 19.01 11.495 18 12 C17.71769531 12.57105469 17.43539062 13.14210937 17.14453125 13.73046875 C15.68191374 16.63074443 13.80561375 18.85264016 11.6875 21.3125 C10.92824219 22.21613281 10.16898438 23.11976563 9.38671875 24.05078125 C7 26 7 26 4.4765625 25.953125 C1.98399074 24.99383871 -0.08636361 23.90901389 -2.3125 22.4375 C-3.00988281 21.98246094 -3.70726562 21.52742188 -4.42578125 21.05859375 C-4.94527344 20.70925781 -5.46476563 20.35992187 -6 20 C-4.22089072 13.24947898 -2.29561809 6.59379663 0 0 Z " fill="#4A5258" transform="translate(211,232)"/>
<path d="M0 0 C11.25 1.125 11.25 1.125 15.625 2.0625 C17.06875 2.371875 18.5125 2.68125 20 3 C20 7.95 20 12.9 20 18 C17.22970414 18.50314563 14.4588348 19.00263838 11.6875 19.5 C10.90181641 19.64308594 10.11613281 19.78617188 9.30664062 19.93359375 C8.54931641 20.06894531 7.79199219 20.20429688 7.01171875 20.34375 C6.31522217 20.46943359 5.61872559 20.59511719 4.90112305 20.72460938 C3 21 3 21 0 21 C0 14.07 0 7.14 0 0 Z " fill="#495156" transform="translate(326,167)"/>
<path d="M0 0 C1.65234375 1.92578125 1.65234375 1.92578125 2.9375 4.3125 C3.37964844 5.09238281 3.82179688 5.87226563 4.27734375 6.67578125 C5 9 5 9 4.46875 10.96484375 C2.45345001 13.7573206 0.11039721 15.93557544 -2.4375 18.25 C-3.40558594 19.14203125 -4.37367188 20.0340625 -5.37109375 20.953125 C-8 23 -8 23 -11 23 C-11.38671875 22.20335937 -11.7734375 21.40671875 -12.171875 20.5859375 C-14.83999555 15.15723678 -17.45491856 9.9085743 -21 5 C-17.67457872 3.64617236 -14.34015527 2.31703274 -11 1 C-9.3603125 0.3503125 -9.3603125 0.3503125 -7.6875 -0.3125 C-4.58187028 -1.10696342 -3.03800025 -0.98121747 0 0 Z " fill="#4A5257" transform="translate(332,128)"/>
<path d="M0 0 C1.81612488 0.95144598 3.62781081 1.91136933 5.4375 2.875 C6.44683594 3.40867187 7.45617187 3.94234375 8.49609375 4.4921875 C11 6 11 6 12 8 C11.56274414 9.97119141 11.56274414 9.97119141 10.78515625 12.3515625 C10.51123047 13.20234375 10.23730469 14.053125 9.95507812 14.9296875 C9.66052734 15.81914063 9.36597656 16.70859375 9.0625 17.625 C8.77181641 18.5221875 8.48113281 19.419375 8.18164062 20.34375 C7.46100166 22.56473565 6.73354395 24.78324979 6 27 C5.4215332 26.59048096 4.84306641 26.18096191 4.24707031 25.7590332 C-1.52796281 21.70295553 -7.50979921 18.74165491 -14 16 C-9.40525596 10.60117576 -4.72323727 5.28666913 0 0 Z " fill="#4A5257" transform="translate(295,96)"/>
<path d="M0 0 C7.59 0 15.18 0 23 0 C21 13.85714286 21 13.85714286 19 20 C14.38 20 9.76 20 5 20 C3.33333333 13.33333333 1.66666667 6.66666667 0 0 Z " fill="#4A5257" transform="translate(244,247)"/>
<path d="M0 0 C0 6.93 0 13.86 0 21 C-2.371875 20.690625 -4.74375 20.38125 -7.1875 20.0625 C-8.29387817 19.91953491 -8.29387817 19.91953491 -9.42260742 19.77368164 C-12.99215558 19.30272302 -16.46396904 18.70720619 -20 18 C-20 13.05 -20 8.1 -20 3 C-6.75 0 -6.75 0 0 0 Z " fill="#4A5358" transform="translate(186,167)"/>
<path d="M0 0 C0.61875 0.639375 1.2375 1.27875 1.875 1.9375 C6.07201536 6.14668062 10.56422757 10.04656399 15 14 C13.35442612 18.29183459 11.32599824 22.04580299 9 26 C2.04223041 24.63125844 -4.38603107 22.5466871 -11 20 C-10.54109375 19.31035156 -10.0821875 18.62070313 -9.609375 17.91015625 C-5.82794433 12.11884752 -2.55656686 6.43111539 0 0 Z " fill="#4A5257" transform="translate(322,202)"/>
<path d="M0 0 C11.82758621 9.65517241 11.82758621 9.65517241 15 16 C14.38253906 16.20753906 13.76507813 16.41507813 13.12890625 16.62890625 C7.14310174 18.80639069 2.59900604 21.52350286 -2.28515625 25.609375 C-4 27 -4 27 -5 27 C-9.22323462 13.3667426 -9.22323462 13.3667426 -11 7 C-9.54261898 6.01941648 -8.08406325 5.04057868 -6.625 4.0625 C-5.81289062 3.51722656 -5.00078125 2.97195312 -4.1640625 2.41015625 C-2 1 -2 1 0 0 Z " fill="#4A5257" transform="translate(216,96)"/>
<path d="M0 0 C6.95776959 1.36874156 13.38603107 3.4533129 20 6 C19.41734375 6.83789062 18.8346875 7.67578125 18.234375 8.5390625 C15.92239095 12.00703858 14.07087597 15.63165412 12.25 19.375 C11.93417969 20.01566406 11.61835938 20.65632813 11.29296875 21.31640625 C10.52492134 22.87577523 9.76192315 24.4376295 9 26 C8.28457031 25.27425781 7.56914062 24.54851562 6.83203125 23.80078125 C4.1811758 21.17917662 1.46745109 18.67092297 -1.3125 16.1875 C-2.19550781 15.39730469 -3.07851562 14.60710937 -3.98828125 13.79296875 C-4.65214844 13.20128906 -5.31601563 12.60960937 -6 12 C-4.57271181 7.40953257 -2.80273303 3.92382624 0 0 Z " fill="#4A5257" transform="translate(181,127)"/>
<path d="M0 0 C2.82816233 3.55774623 4.67958359 7.27912321 6.62109375 11.3671875 C8.20965851 14.40031115 10.06323518 17.17914933 12 20 C9.25435036 21.03411477 6.5045139 22.05251157 3.75 23.0625 C2.97269531 23.35705078 2.19539063 23.65160156 1.39453125 23.95507812 C0.26337891 24.3659668 0.26337891 24.3659668 -0.890625 24.78515625 C-1.58188477 25.04176025 -2.27314453 25.29836426 -2.98535156 25.56274414 C-5.36736084 26.07973137 -6.7315033 25.85828503 -9 25 C-10.5546875 23.07421875 -10.5546875 23.07421875 -11.875 20.6875 C-12.32617188 19.90761719 -12.77734375 19.12773437 -13.2421875 18.32421875 C-14 16 -14 16 -13.48046875 14.02734375 C-11.4450651 11.24007596 -9.03461862 9.14366946 -6.4375 6.875 C-2.71412066 3.83511822 -2.71412066 3.83511822 0 0 Z " fill="#4A5156" transform="translate(189,202)"/>
<path d="M0 0 C0 7.59 0 15.18 0 23 C-5.11220282 21.29593239 -9.26705702 19.44807395 -14 17 C-14 13.37 -14 9.74 -14 6 C-12.04414675 4.99515796 -10.08523763 3.99626195 -8.125 3 C-6.48917969 2.1646875 -6.48917969 2.1646875 -4.8203125 1.3125 C-2 0 -2 0 0 0 Z " fill="#FBFDFE" transform="translate(138,297)"/>
<path d="M0 0 C3.6095499 1.80477495 5.35628071 3.11925466 8.109375 5.9140625 C8.86347656 6.67460938 9.61757813 7.43515625 10.39453125 8.21875 C11.17183594 9.0128125 11.94914062 9.806875 12.75 10.625 C13.54277344 11.42679688 14.33554687 12.22859375 15.15234375 13.0546875 C17.10614493 15.03202846 19.05512103 17.01388909 21 19 C20.34 19.99 19.68 20.98 19 22 C17.6452138 21.71122471 16.29120698 21.41879283 14.9375 21.125 C14.18339844 20.96257812 13.42929687 20.80015625 12.65234375 20.6328125 C9.40840366 19.8588533 6.20667302 18.91619229 3 18 C2.01 12.06 1.02 6.12 0 0 Z " fill="#59B8E5" transform="translate(263,89)"/>
<path d="M0 0 C2.64 0 5.28 0 8 0 C8 7.92 8 15.84 8 24 C5.36 24 2.72 24 0 24 C0 16.08 0 8.16 0 0 Z " fill="#FDFEFE" transform="translate(369,296)"/>
<path d="M0 0 C2.60466543 0.30872329 5.20867691 0.62181723 7.8125 0.9375 C8.55048828 1.02451172 9.28847656 1.11152344 10.04882812 1.20117188 C13.16733121 1.58216546 16.01108122 2.00369374 19 3 C19.94921875 5.328125 19.94921875 5.328125 20.6875 8.25 C20.93886719 9.20390625 21.19023437 10.1578125 21.44921875 11.140625 C21.9703456 13.84604951 22.10521678 16.25434317 22 19 C18 19 18 19 15.89355469 17.36352539 C15.16040039 16.61578857 14.42724609 15.86805176 13.671875 15.09765625 C12.87265625 14.29005859 12.0734375 13.48246094 11.25 12.65039062 C10.0125 11.36938477 10.0125 11.36938477 8.75 10.0625 C7.90953125 9.21236328 7.0690625 8.36222656 6.203125 7.48632812 C0 1.16739803 0 1.16739803 0 0 Z " fill="#59B9E6" transform="translate(167,185)"/>
<path d="M0 0 C0 2.64 0 5.28 0 8 C-5.75 6.25 -5.75 6.25 -8 4 C-1.125 0 -1.125 0 0 0 Z " fill="#353A3F" transform="translate(123,304)"/>
</svg>
