<?xml version="1.0" encoding="UTF-8"?>
<svg version="1.1" xmlns="http://www.w3.org/2000/svg" width="512" height="512">
<path d="M0 0 C168.96 0 337.92 0 512 0 C512 168.96 512 337.92 512 512 C343.04 512 174.08 512 0 512 C0 343.04 0 174.08 0 0 Z " fill="#71CEF3" transform="translate(0,0)"/>
<path d="M0 0 C2.33355948 1.9997366 4.66684325 3.9997936 7 6 C7.64661272 6.55402996 8.29322544 7.10805992 8.95943248 7.67887866 C41.72761539 35.77368302 73.75843957 64.62166496 105.14748114 94.24835747 C106.93359784 95.93381774 108.7211059 97.61779334 110.50868082 99.30170679 C217.10256615 199.80635804 217.10256615 199.80635804 219.91542053 264.87709045 C220.2135752 275.62530802 219.5062327 286.24815207 218.4375 296.9375 C218.35336523 297.80314497 218.26923045 298.66878993 218.18254614 299.56066656 C216.00916733 321.50338279 212.11312144 342.80476713 206 364 C164.49752876 367.59854408 122.98988503 370.06379858 81.35573953 371.42287952 C79.00676764 371.49977845 76.65787051 371.57873959 74.30896807 371.65772772 C-65.79291979 376.29429073 -65.79291979 376.29429073 -116.52584839 329.35665894 C-124.86159272 321.42496519 -132.43163003 312.87844057 -139.8125 304.0625 C-140.41522736 303.34661839 -141.01795471 302.63073677 -141.63894653 301.89316177 C-183 252.62462929 -183 252.62462929 -183 243 C-94.56 243 -6.12 243 85 243 C83.61338091 231.21373773 82.51067802 222.50397444 78 212 C77.56816406 210.98421875 77.13632812 209.9684375 76.69140625 208.921875 C64.58646602 182.72308084 38.8612249 163.34298789 12.21875 153.44140625 C8.94696095 152.66931956 8.94696095 152.66931956 6.18359375 154.52734375 C5.27738281 155.32269531 4.37117187 156.11804688 3.4375 156.9375 C-5.36006549 164.16073494 -15.04044256 168.64544769 -25.875 171.9375 C-26.90886841 172.25509277 -26.90886841 172.25509277 -27.96362305 172.57910156 C-28.63304932 172.76827148 -29.30247559 172.95744141 -29.9921875 173.15234375 C-30.57339355 173.31726318 -31.15459961 173.48218262 -31.75341797 173.65209961 C-32.49479004 173.76690674 -33.23616211 173.88171387 -34 174 C-35.19254395 174.21148682 -36.38508789 174.42297363 -37.61376953 174.64086914 C-43.01082305 174.55495508 -45.82882022 171.080104 -49.46240234 167.44396973 C-50.36168457 166.50339722 -51.2609668 165.56282471 -52.1875 164.59375 C-53.13837353 163.62794026 -54.09104027 162.66389302 -55.04541016 161.70153809 C-57.54259524 159.17392715 -60.01481655 156.62322674 -62.48248291 154.0668335 C-65.00874841 151.45846919 -67.55804998 148.87283561 -70.10546875 146.28515625 C-75.09300517 141.21203386 -80.05450565 136.11414289 -85 131 C-84.34 130.67 -83.68 130.34 -83 130 C-80.37752823 131.20283247 -77.85490866 132.45761856 -75.3125 133.8125 C-62.32262678 140.71073666 -48.32356449 142.49688906 -34 138.375 C-23.30425 134.48440399 -15.03733328 129.03733328 -7 121 C-6.3503125 120.3503125 -5.700625 119.700625 -5.03125 119.03125 C2.680875 110.77792325 6.97216261 100.41483668 11 90 C11.2990625 89.25234375 11.598125 88.5046875 11.90625 87.734375 C20.40756945 64.78081249 16.80798677 36.9265651 7.40625 14.94140625 C5.57332924 11.107547 3.43189401 7.5337796 1.13671875 3.9609375 C0 2 0 2 0 0 Z " fill="#59B7E3" transform="translate(306,148)"/>
<path d="M0 0 C0.64453125 0.46664063 1.2890625 0.93328125 1.953125 1.4140625 C2.83484375 2.04699219 3.7165625 2.67992187 4.625 3.33203125 C5.64078125 4.08097656 6.6565625 4.82992188 7.703125 5.6015625 C27.13046561 19.35668688 49.45832252 23.7449628 72.90625 20.94140625 C76.34428948 20.28598092 79.60828784 19.44324316 82.953125 18.4140625 C83.58379883 18.22070312 84.21447266 18.02734375 84.86425781 17.828125 C95.78055756 14.37919168 107.28268434 9.3979446 115.28515625 0.953125 C117.953125 -0.5859375 117.953125 -0.5859375 119.93481445 -0.33129883 C125.6729574 1.46409402 131.03896 4.27544395 136.328125 7.1015625 C137.15884521 7.54363037 137.98956543 7.98569824 138.84545898 8.44116211 C149.38537904 14.1517852 158.24169129 21.21242009 166.953125 29.4140625 C167.56800781 29.96449219 168.18289063 30.51492188 168.81640625 31.08203125 C181.78140858 43.15289549 192.61638862 62.70230545 193.953125 80.4140625 C193.953125 83.3840625 193.953125 86.3540625 193.953125 89.4140625 C105.183125 89.4140625 16.413125 89.4140625 -75.046875 89.4140625 C-75.046875 65.27681774 -64.31618883 45.25825668 -47.984375 27.9765625 C-39.08752039 19.30979896 -13.1094885 -3.75271617 0 0 Z " fill="#FEFEFE" transform="translate(197.046875,300.5859375)"/>
<path d="M0 0 C15.74606517 10.7966441 26.77370732 28.46390245 31.671875 46.83203125 C31.86265625 47.48042969 32.0534375 48.12882812 32.25 48.796875 C38.50370322 71.3548759 34.68691377 95.69728474 25.671875 116.83203125 C25.2696875 117.77949219 24.8675 118.72695312 24.453125 119.703125 C21.45996059 126.18494387 17.37324558 131.48956468 12.671875 136.83203125 C12.00414062 137.60675781 11.33640625 138.38148438 10.6484375 139.1796875 C0.78063885 149.87285965 -13.3557707 157.2538558 -27.9453125 158.20703125 C-37.37847775 158.56547839 -45.65255432 157.85457056 -54.328125 153.83203125 C-55.235625 153.43113281 -56.143125 153.03023437 -57.078125 152.6171875 C-74.39016744 144.13330306 -86.75497413 127.62429903 -93.328125 109.83203125 C-102.34602076 82.8300389 -101.8601829 54.65717573 -89.35498047 28.78369141 C-80.00018131 11.0037902 -65.91975025 -1.67795986 -47 -8.33984375 C-30.67106241 -12.02254031 -14.06186969 -8.83516945 0 0 Z " fill="#FEFEFE" transform="translate(288.328125,131.16796875)"/>
</svg>
