<?xml version="1.0" encoding="UTF-8"?>
<svg version="1.1" xmlns="http://www.w3.org/2000/svg" width="512" height="512">
<path d="M0 0 C168.96 0 337.92 0 512 0 C512 168.96 512 337.92 512 512 C343.04 512 174.08 512 0 512 C0 343.04 0 174.08 0 0 Z " fill="#E9EDF1" transform="translate(0,0)"/>
<path d="M0 0 C1.20206784 -0.00551503 1.20206784 -0.00551503 2.42841989 -0.01114148 C5.12288471 -0.02218449 7.81731097 -0.02602322 10.51179504 -0.02983093 C12.44012067 -0.03609514 14.36844509 -0.0427419 16.29676819 -0.04974365 C21.54282395 -0.06715778 26.7888706 -0.07770667 32.03494811 -0.08594918 C35.31235586 -0.09109876 38.58976077 -0.09717453 41.86716652 -0.10346031 C52.12087687 -0.12251405 62.37458001 -0.13674448 72.62830466 -0.14507228 C84.4653151 -0.15484459 96.30213854 -0.18116326 108.13908309 -0.22157317 C117.28738984 -0.25173279 126.43564299 -0.26654104 135.5839985 -0.26985329 C141.04823207 -0.27220404 146.5122659 -0.28116783 151.97644615 -0.30631447 C157.11876881 -0.32959723 162.26076024 -0.3338275 167.40312195 -0.32355309 C169.28807998 -0.32305766 171.17305432 -0.32938009 173.05796242 -0.34310913 C175.63685588 -0.36083832 178.21456198 -0.35371724 180.79345703 -0.34057617 C181.53462475 -0.35154542 182.27579248 -0.36251466 183.03941983 -0.37381631 C188.47325501 -0.30723531 192.66129167 1.15561046 197.21418762 4.14717102 C199.21418762 6.45967102 199.21418762 6.45967102 201.21418762 9.14717102 C206.65186522 14.48028361 212.84424432 18.90032689 218.96734047 23.39707375 C239.73332772 38.65930171 259.4676387 55.079984 278.71418762 72.20967102 C279.52906363 72.93235892 280.34393965 73.65504683 281.18350887 74.39963436 C322.44227743 111.11117581 352.07727953 146.73769172 355.94870758 203.54036522 C357.22861403 225.65859887 356.92190439 247.65416361 355.83918762 269.77217102 C355.7809721 270.99228961 355.72275658 272.21240819 355.66277695 273.46950006 C354.12139906 305.16835327 351.31686285 336.67932055 347.21418762 368.14717102 C314.64801133 372.60290302 282.04278107 375.50548316 249.21418762 377.14717102 C248.00340876 377.20937946 246.7926299 377.2715879 245.54516077 377.33568144 C183.38736828 380.43845852 132.25286303 376.94889268 84.50392962 333.90530539 C71.6345405 322.12227539 59.75281127 309.47971899 48.15168762 296.45967102 C47.3870797 295.60427734 46.62247177 294.74888367 45.83469391 293.86756897 C28.59231505 274.53969389 12.08021563 254.67494616 -3.40397644 233.90783691 C-3.87169525 233.28160925 -4.33941406 232.65538158 -4.82130617 232.01017731 C-6.0591507 230.34769837 -7.28962027 228.67973508 -8.51944065 227.01131153 C-10.77120698 224.16562867 -13.2033347 221.69086324 -15.78581238 219.14717102 C-19.96374156 213.3444916 -20.93470234 209.37540027 -20.9329834 202.35462952 C-20.93666009 201.55254539 -20.94033677 200.75046126 -20.94412488 199.92407155 C-20.95516784 197.22727276 -20.95900659 194.53051249 -20.96281433 191.83369446 C-20.96907849 189.90374631 -20.97572525 187.97379937 -20.98272705 186.04385376 C-21.00014046 180.79373303 -21.01068966 175.54362142 -21.01893258 170.29347897 C-21.02408182 167.0140689 -21.03015757 163.73466167 -21.03644371 160.4552536 C-21.05549639 150.19673989 -21.0697276 139.93823339 -21.07805568 129.67970538 C-21.08783063 117.83419496 -21.11415665 105.98887127 -21.15455657 94.14342666 C-21.1847048 84.99004003 -21.19952331 75.83670697 -21.20283669 66.68327165 C-21.20518855 61.21515768 -21.21416685 55.74724319 -21.23929787 50.27918243 C-21.26256102 45.13440058 -21.26681881 39.98994981 -21.25653648 34.84512901 C-21.2560406 32.9581384 -21.26237662 31.07113158 -21.27609253 29.18419075 C-21.29378985 26.60494622 -21.28671631 24.02689264 -21.27355957 21.44764709 C-21.28452882 20.70356653 -21.29549806 19.95948596 -21.30679971 19.1928575 C-21.23144959 13.06083764 -19.32523426 8.91632056 -15.18815613 4.40498352 C-10.04296829 0.42603826 -6.31440152 -0.0015474 0 0 Z " fill="#C3D2E0" transform="translate(164.7858123779297,143.8528289794922)"/>
<path d="M0 0 C1.20206784 -0.00551503 1.20206784 -0.00551503 2.42841989 -0.01114148 C5.12288471 -0.02218449 7.81731097 -0.02602322 10.51179504 -0.02983093 C12.44012067 -0.03609514 14.36844509 -0.0427419 16.29676819 -0.04974365 C21.54282395 -0.06715778 26.7888706 -0.07770667 32.03494811 -0.08594918 C35.31235586 -0.09109876 38.58976077 -0.09717453 41.86716652 -0.10346031 C52.12087687 -0.12251405 62.37458001 -0.13674448 72.62830466 -0.14507228 C84.4653151 -0.15484459 96.30213854 -0.18116326 108.13908309 -0.22157317 C117.28738984 -0.25173279 126.43564299 -0.26654104 135.5839985 -0.26985329 C141.04823207 -0.27220404 146.5122659 -0.28116783 151.97644615 -0.30631447 C157.11876881 -0.32959723 162.26076024 -0.3338275 167.40312195 -0.32355309 C169.28807998 -0.32305766 171.17305432 -0.32938009 173.05796242 -0.34310913 C175.63685588 -0.36083832 178.21456198 -0.35371724 180.79345703 -0.34057617 C181.53462475 -0.35154542 182.27579248 -0.36251466 183.03941983 -0.37381631 C188.48138741 -0.30713566 192.65049101 1.16408428 197.21418762 4.14717102 C199.58918762 6.64717102 199.58918762 6.64717102 201.21418762 9.14717102 C201.75118758 9.96992083 201.75118758 9.96992083 202.29903603 10.80929184 C203.62053928 14.18525157 203.49637796 17.48070259 203.48161316 21.05323792 C203.48614427 21.8554709 203.49067538 22.65770389 203.4953438 23.48424697 C203.50801619 26.17565761 203.5063656 28.86686663 203.50471497 31.55830383 C203.51069853 33.48677837 203.51750367 35.41525051 203.52507019 37.34371948 C203.54275695 42.58560091 203.54742676 47.82741707 203.54870176 53.06932545 C203.55060022 57.44544215 203.55795732 61.82154364 203.56504595 66.19765449 C203.58133839 76.52409622 203.5862142 86.85050307 203.58479309 97.17695618 C203.58359206 107.82652718 203.60468439 118.47589539 203.63628042 129.12541509 C203.66244251 138.26950383 203.67316038 147.41352635 203.67188227 156.55765224 C203.67137253 162.01850556 203.67706213 167.47917878 203.69823837 172.93999481 C203.717619 178.07824259 203.71774628 183.21613846 203.70320511 188.35439873 C203.70111556 190.23773907 203.70582657 192.12110143 203.71792603 194.00440407 C203.7334045 196.5810708 203.72405365 199.15652813 203.70866394 201.73316956 C203.71895107 202.47365516 203.72923819 203.21414076 203.73983705 203.97706532 C203.65316775 210.57027901 201.52716509 215.89350067 196.77668762 220.52217102 C191.5986462 223.80580704 187.24754687 224.44093014 181.18786621 224.42132568 C179.98323509 224.4291807 179.98323509 224.4291807 178.75426799 224.43719441 C176.06597126 224.45218401 173.37786505 224.45289933 170.68952942 224.4535675 C168.76090677 224.46118968 166.83228716 224.46961728 164.90367126 224.47879028 C159.66598806 224.50073621 154.42836324 224.50953431 149.19063926 224.51461673 C145.91757054 224.51826014 142.64451712 224.52450012 139.37145424 224.53161812 C127.950617 224.55611279 116.52982518 224.56916459 105.10896301 224.57270813 C94.46671482 224.57634357 83.824755 224.60623961 73.18259495 224.64811271 C64.04273194 224.68281286 54.90296451 224.69825652 45.76303607 224.69895416 C40.30550295 224.69974706 34.84826358 224.70849168 29.39079857 224.73695183 C24.25658751 224.76312759 19.12291387 224.76534023 13.98866653 224.74929619 C12.10693121 224.74748133 10.22516502 224.75417573 8.34349632 224.7701149 C5.76885067 224.79059026 3.19608287 224.78001628 0.62145996 224.76190186 C-0.11834352 224.77510182 -0.85814701 224.78830179 -1.62036878 224.80190176 C-7.3549641 224.71011986 -11.34970032 222.75723426 -15.78581238 219.14717102 C-20.16136499 213.53748818 -20.93467911 209.28051677 -20.9329834 202.35462952 C-20.93666009 201.55254539 -20.94033677 200.75046126 -20.94412488 199.92407155 C-20.95516784 197.22727276 -20.95900659 194.53051249 -20.96281433 191.83369446 C-20.96907849 189.90374631 -20.97572525 187.97379937 -20.98272705 186.04385376 C-21.00014046 180.79373303 -21.01068966 175.54362142 -21.01893258 170.29347897 C-21.02408182 167.0140689 -21.03015757 163.73466167 -21.03644371 160.4552536 C-21.05549639 150.19673989 -21.0697276 139.93823339 -21.07805568 129.67970538 C-21.08783063 117.83419496 -21.11415665 105.98887127 -21.15455657 94.14342666 C-21.1847048 84.99004003 -21.19952331 75.83670697 -21.20283669 66.68327165 C-21.20518855 61.21515768 -21.21416685 55.74724319 -21.23929787 50.27918243 C-21.26256102 45.13440058 -21.26681881 39.98994981 -21.25653648 34.84512901 C-21.2560406 32.9581384 -21.26237662 31.07113158 -21.27609253 29.18419075 C-21.29378985 26.60494622 -21.28671631 24.02689264 -21.27355957 21.44764709 C-21.28452882 20.70356653 -21.29549806 19.95948596 -21.30679971 19.1928575 C-21.23144959 13.06083764 -19.32523426 8.91632056 -15.18815613 4.40498352 C-10.04296829 0.42603826 -6.31440152 -0.0015474 0 0 Z " fill="#FE7059" transform="translate(164.7858123779297,143.8528289794922)"/>
<path d="M0 0 C40.94642426 0 76.65277427 16.77803841 105.46484375 45.453125 C128.29205337 69.54250261 144.85927413 104.44359226 144.3125 138.0625 C144.1578125 141.0015625 144.1578125 141.0015625 144 144 C136.08 144 128.16 144 120 144 C119.9175 141.916875 119.835 139.83375 119.75 137.6875 C117.70731913 104.13077177 102.04970441 74.17527152 77 52 C55.15593309 33.77391746 28.06497706 25.33642748 0 24 C0 16.08 0 8.16 0 0 Z " fill="#FFFDFD" transform="translate(184,184)"/>
<path d="M0 0 C23.4110496 0 44.3786633 8.80090017 61.375 24.9375 C77.58291033 42.28341255 85.10571045 62.52489929 86 86 C78.08 86 70.16 86 62 86 C61.7525 84.123125 61.505 82.24625 61.25 80.3125 C58.45883183 62.4800367 51.44184352 48.04572892 37.0625 36.6875 C32.64538128 33.57883195 27.9118002 31.22181592 23 29 C22.37738281 28.7009375 21.75476563 28.401875 21.11328125 28.09375 C14.45619942 25.20564508 7.13381453 24.82803204 0 24 C0 16.08 0 8.16 0 0 Z " fill="#FFFDFC" transform="translate(184,242)"/>
<path d="M0 0 C5.67507225 2.00296668 9.30675089 5.61350179 12 11 C12.37364646 16.60469691 12.20860998 20.18708503 9 25 C5.07053255 28.97241245 1.8347094 30.84961398 -3.8125 31.3125 C-8.20360994 31.24804334 -10.61154946 29.84937886 -14 27 C-18.04828674 22.51406064 -19.37105299 19.17642236 -19.28125 13.05859375 C-18.65153255 8.44941188 -15.72879725 5.64203568 -12.375 2.6875 C-8.28551432 -0.2181872 -4.9348306 -0.49809505 0 0 Z " fill="#FFFBFB" transform="translate(203,297)"/>
</svg>
