<?xml version="1.0" encoding="UTF-8"?>
<svg version="1.1" xmlns="http://www.w3.org/2000/svg" width="512" height="512">
<path d="M0 0 C168.96 0 337.92 0 512 0 C512 168.96 512 337.92 512 512 C343.04 512 174.08 512 0 512 C0 343.04 0 174.08 0 0 Z " fill="#F97463" transform="translate(0,0)"/>
<path d="M0 0 C18.37635092 11.99085791 33.79221371 30.63329991 49.24560547 46.11523438 C52.38992352 49.26529266 55.53877217 52.41077808 58.68893433 55.55499077 C61.14443617 58.006863 63.59753185 60.46113151 66.04992676 62.91611099 C67.21007202 64.07691661 68.37094184 65.23699861 69.53259277 66.39629745 C71.15568676 68.01682003 72.7754886 69.64056773 74.39453125 71.26513672 C75.31081299 72.18221405 76.22709473 73.09929138 77.17114258 74.04415894 C78.66493807 75.55573159 80.04757549 77.0603982 81.36339188 78.73085785 C85.07292812 83.37225635 89.20389173 86.81072026 93.96942139 90.28973389 C121.06297531 110.10764654 153.00889206 134.50665176 159.28575277 169.32566309 C163.69883826 198.68490781 161.66862251 229.04914093 159.89781618 258.55417585 C159.12208981 271.71904177 158.76013503 284.88702499 158.42200518 298.0692277 C157.72064484 325.07145778 156.53379642 352.03308473 155 379 C123.32867554 382.34655286 91.63595594 384.56312102 59.8125 385.8125 C58.64600591 385.85950782 57.47951182 385.90651565 56.27766943 385.95494795 C0.71149282 388.13013507 -49.76268067 388.81595536 -92.63789457 349.52762371 C-100.92706626 341.7594264 -108.52240273 333.40912188 -115.9375 324.8125 C-116.4972702 324.16618638 -117.0570404 323.51987275 -117.63377333 322.85397387 C-130.91605342 307.47811573 -143.20449037 291.53667703 -154.63340759 274.73933411 C-157.16442808 271.07070851 -159.69618979 267.98416409 -163 265 C-177.08304024 251.86424946 -186.66671301 237.44601541 -187.3984375 217.70629883 C-187.57131658 209.88248081 -187.46292969 202.05720085 -187.34332275 194.23339844 C-187.29150424 190.47865957 -187.26919731 186.72374592 -187.24414062 182.96875 C-187.1910563 175.64536408 -187.10610636 168.32283053 -187 161 C-187.74604996 161.00556412 -188.49209991 161.01112823 -189.26075745 161.01686096 C-192.67513052 161.03908972 -196.0894883 161.05281482 -199.50390625 161.06640625 C-201.26426208 161.07976013 -201.26426208 161.07976013 -203.06018066 161.09338379 C-218.89425326 161.14063308 -230.32580243 158.18889855 -242.3125 147.3125 C-254.51869058 134.35438803 -254.2955321 118.4833659 -254.1953125 101.8671875 C-254.19236639 100.22924943 -254.19032945 98.59130947 -254.18920898 96.95336914 C-254.1787875 90.9272171 -254.15086508 84.90110555 -254.125 78.875 C-254.08375 65.38625 -254.0425 51.8975 -254 38 C-204.83 38 -155.66 38 -105 38 C-104.9175 52.31375 -104.835 66.6275 -104.75 81.375 C-104.71358398 85.87817871 -104.67716797 90.38135742 -104.63964844 95.02099609 C-104.62158203 100.56176758 -104.62158203 100.56176758 -104.6182251 103.16372681 C-104.61212226 104.96332771 -104.59813649 106.76291326 -104.57769775 108.56240845 C-104.36763177 128.04803643 -104.36763177 128.04803643 -109 136 C-109.43262146 136.75703217 -109.86524292 137.51406433 -110.31097412 138.29403687 C-117.14618012 149.89732623 -127.00747843 156.50779044 -140 160 C-146.47485385 161.21253173 -152.86633682 161.1131974 -159.4375 161.0625 C-160.55060547 161.05798828 -161.66371094 161.05347656 -162.81054688 161.04882812 C-165.54042101 161.03711193 -168.27018174 161.02070699 -171 161 C-170.96164374 168.58150645 -170.9018567 176.16260154 -170.81609726 183.74371529 C-170.77690148 187.26552075 -170.74457883 190.78708662 -170.72900391 194.30908203 C-170.71069823 198.37571585 -170.66062854 202.44145936 -170.609375 206.5078125 C-170.60814636 207.74798126 -170.60691772 208.98815002 -170.60565186 210.26589966 C-170.36693695 224.79544457 -166.69417114 237.71098538 -156.67578125 248.50390625 C-146.92183224 257.79848561 -135.17325545 262.91742309 -121.625 263.375 C-106.50873296 262.85299941 -93.14727501 257.91718022 -82.1875 247.4140625 C-70.96938506 235.03407137 -69.40836556 221.41853673 -69.50170898 205.50024414 C-69.49788005 203.64619003 -69.49225612 201.7921389 -69.48498535 199.93809509 C-69.47308383 195.96415243 -69.47348607 191.99047424 -69.48357964 188.01652718 C-69.49921419 181.72393004 -69.48541116 175.4316015 -69.46754456 169.13902283 C-69.43679264 156.91467855 -69.43522058 144.69041738 -69.43719482 132.46604156 C-69.43858965 116.90997399 -69.42813853 101.35397047 -69.3886171 85.79794973 C-69.37374035 79.55161398 -69.37391103 73.30551861 -69.38609493 67.05917943 C-69.39082711 63.16353083 -69.38325341 59.26797304 -69.37255096 55.37233925 C-69.37015807 53.5761432 -69.37283291 51.77993155 -69.38115883 49.9837532 C-69.44320508 35.73821108 -68.33140545 24.06155212 -60 12 C-59.4225 11.113125 -58.845 10.22625 -58.25 9.3125 C-43.36869619 -5.98217336 -18.86755878 -10.724995 0 0 Z " fill="#E46154" transform="translate(357,133)"/>
<path d="M0 0 C11.28032335 7.52021556 17.72259681 16.16779043 22 29 C22.09067389 30.81415168 22.12195369 32.63150628 22.12025452 34.44792175 C22.12231651 36.14535271 22.12231651 36.14535271 22.12442017 37.8770752 C22.12082489 39.11928833 22.11722961 40.36150146 22.11352539 41.64135742 C22.11367142 42.94877396 22.11381744 44.25619049 22.1139679 45.60322571 C22.11425515 49.18972424 22.10837007 52.77618942 22.10139394 56.3626802 C22.09514839 60.1103001 22.09455565 63.85792074 22.09336853 67.60554504 C22.09025876 74.70281237 22.08205014 81.80006431 22.07201904 88.89732486 C22.06084691 96.97704511 22.05534468 105.05676609 22.05032361 113.13649213 C22.03986724 129.75767043 22.02227465 146.37883325 22 163 C23.2065625 162.95359375 24.413125 162.9071875 25.65625 162.859375 C27.27080836 162.82182713 28.88539378 162.78543023 30.5 162.75 C31.29148437 162.71648437 32.08296875 162.68296875 32.8984375 162.6484375 C40.03777092 162.53139925 45.28182078 164.40245003 50.47558594 169.36572266 C52.91442648 175.18003725 52.48819276 180.9121675 52.390625 187.1484375 C52.38659668 188.36120361 52.38256836 189.57396973 52.37841797 190.82348633 C52.35753708 195.34081211 52.30169172 199.85792172 52.25 204.375 C52.1675 214.48125 52.085 224.5875 52 235 C27.25 235 2.5 235 -23 235 C-23.0825 224.89375 -23.165 214.7875 -23.25 204.375 C-23.28641602 201.19278809 -23.32283203 198.01057617 -23.36035156 194.73193359 C-23.37203618 192.20410843 -23.38222854 189.67627573 -23.390625 187.1484375 C-23.41108887 185.84044189 -23.43155273 184.53244629 -23.45263672 183.18481445 C-23.45614879 174.0446509 -23.45614879 174.0446509 -21.41308594 169.36572266 C-17.05059052 165.0888529 -13.26411984 162.7804263 -7.16015625 162.609375 C-5.46049376 162.63562461 -3.76103769 162.68283349 -2.0625 162.75 C-1.18787109 162.76804687 -0.31324219 162.78609375 0.58789062 162.8046875 C2.72574108 162.85141647 4.86302045 162.92314559 7 163 C6.93937719 146.46618921 6.86181522 129.9325571 6.76428509 113.39892673 C6.71938809 105.72145018 6.67995951 98.04401938 6.65356445 90.36645508 C6.63053484 83.67188793 6.59708176 76.97746632 6.55129844 70.28301471 C6.5274328 66.740871 6.50866058 63.19887082 6.50238609 59.65664864 C6.49517255 55.69484861 6.46467979 51.7334071 6.43237305 47.77172852 C6.43452568 46.02492294 6.43452568 46.02492294 6.4367218 44.24282837 C6.32981856 34.95448245 4.88202053 25.80086462 -2 19 C-11.46836463 12.19077024 -19.51190435 11.13960465 -31 12 C-34.12025573 12.84789558 -36.41028154 14.08740976 -39 16 C-39.93585938 16.65355469 -39.93585938 16.65355469 -40.890625 17.3203125 C-46.36627523 21.53058138 -48.85025934 26.55077803 -51 33 C-51.09888533 35.50688942 -51.14173851 37.98612214 -51.13803101 40.4931488 C-51.14085229 41.26312024 -51.14367357 42.03309167 -51.14658034 42.82639557 C-51.15493449 45.41479141 -51.15626532 48.00314451 -51.15771484 50.59155273 C-51.16238269 52.44442363 -51.1675262 54.29729338 -51.17311096 56.15016174 C-51.1843994 60.14598419 -51.1928302 64.14179915 -51.19923019 68.13763237 C-51.20991038 74.46312613 -51.23015743 80.78856639 -51.25234985 87.11402893 C-51.31426657 105.10358212 -51.36821899 123.09313281 -51.40136719 141.08276367 C-51.41974741 151.01412315 -51.44872968 160.9453936 -51.4893719 170.87668759 C-51.51039195 176.12971756 -51.525892 181.38263553 -51.52817917 186.63570976 C-51.53033616 191.58434568 -51.54631225 196.53274881 -51.57256889 201.48131371 C-51.57972457 203.29038965 -51.58188113 205.09949391 -51.57846642 206.90858078 C-51.54658395 227.02398847 -55.95282259 244.63019184 -70.1496582 259.53857422 C-78.18658822 267.4642102 -88.17839054 273.70572456 -99 277 C-100.14210938 277.35449219 -101.28421875 277.70898438 -102.4609375 278.07421875 C-108.32031627 279.49842075 -114.25220747 279.3683726 -120.25 279.375 C-121.40113281 279.39949219 -122.55226562 279.42398437 -123.73828125 279.44921875 C-140.07406466 279.50446943 -155.00960597 272.58166982 -166.7265625 261.30078125 C-167.47679687 260.54152344 -168.22703125 259.78226562 -169 259 C-169.70898438 258.31292969 -170.41796875 257.62585938 -171.1484375 256.91796875 C-183.81388998 243.84003985 -187.50080962 227.59078221 -187.29296875 209.92578125 C-187.28735889 208.50661167 -187.28309538 207.08743619 -187.28010559 205.66825867 C-187.26876595 201.97091027 -187.2393958 198.27392729 -187.20599365 194.57672119 C-187.17505499 190.78882792 -187.16154993 187.00087439 -187.14648438 183.21289062 C-187.11451291 175.80842891 -187.06345239 168.40426606 -187 161 C-187.74604996 161.00556412 -188.49209991 161.01112823 -189.26075745 161.01686096 C-192.67513052 161.03908972 -196.0894883 161.05281482 -199.50390625 161.06640625 C-201.26426208 161.07976013 -201.26426208 161.07976013 -203.06018066 161.09338379 C-218.89425326 161.14063308 -230.32580243 158.18889855 -242.3125 147.3125 C-254.51869058 134.35438803 -254.2955321 118.4833659 -254.1953125 101.8671875 C-254.19236639 100.22924943 -254.19032945 98.59130947 -254.18920898 96.95336914 C-254.1787875 90.9272171 -254.15086508 84.90110555 -254.125 78.875 C-254.08375 65.38625 -254.0425 51.8975 -254 38 C-204.83 38 -155.66 38 -105 38 C-104.9175 52.31375 -104.835 66.6275 -104.75 81.375 C-104.71358398 85.87817871 -104.67716797 90.38135742 -104.63964844 95.02099609 C-104.62158203 100.56176758 -104.62158203 100.56176758 -104.6182251 103.16372681 C-104.61212226 104.96332771 -104.59813649 106.76291326 -104.57769775 108.56240845 C-104.36763177 128.04803643 -104.36763177 128.04803643 -109 136 C-109.43262146 136.75703217 -109.86524292 137.51406433 -110.31097412 138.29403687 C-117.14618012 149.89732623 -127.00747843 156.50779044 -140 160 C-146.47485385 161.21253173 -152.86633682 161.1131974 -159.4375 161.0625 C-160.55060547 161.05798828 -161.66371094 161.05347656 -162.81054688 161.04882812 C-165.54042101 161.03711193 -168.27018174 161.02070699 -171 161 C-170.96164374 168.58150645 -170.9018567 176.16260154 -170.81609726 183.74371529 C-170.77690148 187.26552075 -170.74457883 190.78708662 -170.72900391 194.30908203 C-170.71069823 198.37571585 -170.66062854 202.44145936 -170.609375 206.5078125 C-170.60814636 207.74798126 -170.60691772 208.98815002 -170.60565186 210.26589966 C-170.36693695 224.79544457 -166.69417114 237.71098538 -156.67578125 248.50390625 C-146.92183224 257.79848561 -135.17325545 262.91742309 -121.625 263.375 C-106.50873296 262.85299941 -93.14727501 257.91718022 -82.1875 247.4140625 C-70.96938506 235.03407137 -69.40836556 221.41853673 -69.50170898 205.50024414 C-69.49788005 203.64619003 -69.49225612 201.7921389 -69.48498535 199.93809509 C-69.47308383 195.96415243 -69.47348607 191.99047424 -69.48357964 188.01652718 C-69.49921419 181.72393004 -69.48541116 175.4316015 -69.46754456 169.13902283 C-69.43679264 156.91467855 -69.43522058 144.69041738 -69.43719482 132.46604156 C-69.43858965 116.90997399 -69.42813853 101.35397047 -69.3886171 85.79794973 C-69.37374035 79.55161398 -69.37391103 73.30551861 -69.38609493 67.05917943 C-69.39082711 63.16353083 -69.38325341 59.26797304 -69.37255096 55.37233925 C-69.37015807 53.5761432 -69.37283291 51.77993155 -69.38115883 49.9837532 C-69.44320508 35.73821108 -68.33140545 24.06155212 -60 12 C-59.4225 11.113125 -58.845 10.22625 -58.25 9.3125 C-43.39112327 -5.9591233 -18.83990046 -10.75823282 0 0 Z " fill="#21262D" transform="translate(357,133)"/>
<path d="M0 0 C3.93483395 1.96741698 6.44581464 4.17497249 9.47119141 7.24414062 C10.00500931 7.77766647 10.53882721 8.31119232 11.08882141 8.86088562 C12.84785213 10.62130681 14.59969558 12.38870208 16.3515625 14.15625 C17.57373046 15.38215012 18.79634224 16.60760791 20.01937866 17.8326416 C23.23535754 21.05624947 26.44528722 24.28581605 29.6539917 27.5166626 C32.9219628 30.80507559 36.19558365 34.08785332 39.46875 37.37109375 C45.21644277 43.13792988 50.95919154 48.9096523 56.69839478 54.68493652 C58.13031542 56.12523008 59.5638868 57.5638868 61 59 C60.53979113 60.93758075 60.06911986 62.87361143 59.53190386 64.79126894 C58.70996821 68.20435715 58.72880638 71.59980729 58.75517273 75.08769226 C58.75177587 76.24799925 58.75177587 76.24799925 58.74831039 77.43174678 C58.74304845 80.00235378 58.75181792 82.57271582 58.76049805 85.14331055 C58.75938419 86.99529599 58.75732486 88.84728107 58.75439453 90.69926453 C58.74968282 94.67810219 58.75078157 98.65688079 58.75617027 102.63571739 C58.76380018 108.9366974 58.75310117 115.23756444 58.7389679 121.53852844 C58.70128767 139.45301758 58.6830233 157.3674554 58.69458008 175.28198242 C58.70081003 185.18338112 58.68914717 195.08459698 58.65813476 204.98595077 C58.63954914 211.23963085 58.64273359 217.49279027 58.66230237 223.74646127 C58.66922007 227.6509753 58.65515639 231.55521161 58.63535309 235.45967293 C58.63033722 237.25866764 58.63370867 239.05771024 58.64648628 240.85666656 C58.75458921 257.25313683 55.22401065 270.32465754 43.75 282.6875 C34.97669347 290.98086635 23.03755461 296.12454148 11 297 C9.824375 297.09474609 9.824375 297.09474609 8.625 297.19140625 C-5.21511881 297.81501625 -17.68826305 292.66630545 -28.125 283.875 C-38.70677872 273.90118062 -44.00683276 261.45764158 -44.45410156 246.90283203 C-44.45348102 244.43773479 -44.43165589 241.97256832 -44.390625 239.5078125 C-44.38496521 238.19585907 -44.37930542 236.88390564 -44.37347412 235.53219604 C-44.3584258 232.09612769 -44.31933378 228.6607693 -44.2746582 225.22497559 C-44.233247 221.69825843 -44.21536679 218.17142305 -44.1953125 214.64453125 C-44.15281104 207.76273485 -44.08482379 200.88140179 -44 194 C-43.31388138 193.97592575 -42.62776276 193.9518515 -41.92085266 193.92704773 C-38.77647577 193.81408176 -35.63239787 193.69420229 -32.48828125 193.57421875 C-30.86944031 193.51760071 -30.86944031 193.51760071 -29.21789551 193.45983887 C-15.39336215 192.92012656 -2.92076229 190.88761939 7.875 181.5 C8.57625 180.675 9.2775 179.85 10 179 C11.2375 177.6696875 11.2375 177.6696875 12.5 176.3125 C18.92890378 168.4798166 21.13479895 160.37435623 21.20532227 150.46777344 C21.21522186 149.60887512 21.22512146 148.74997681 21.23532104 147.86505127 C21.26687491 145.02985376 21.29166932 142.1946395 21.31640625 139.359375 C21.33698105 137.39210579 21.35797767 135.42484095 21.37937927 133.45758057 C21.43454555 128.28238465 21.48397885 123.10714919 21.53222656 117.93188477 C21.58248132 112.64986659 21.63814664 107.36790576 21.69335938 102.0859375 C21.8008744 91.72400552 21.90183411 81.36202477 22 71 C14.74 71 7.48 71 0 71 C0 47.57 0 24.14 0 0 Z " fill="#E46154" transform="translate(230,100)"/>
<path d="M0 0 C11.28032335 7.52021556 17.72259681 16.16779043 22 29 C22.09067389 30.81415168 22.12195369 32.63150628 22.12025452 34.44792175 C22.12231651 36.14535271 22.12231651 36.14535271 22.12442017 37.8770752 C22.12082489 39.11928833 22.11722961 40.36150146 22.11352539 41.64135742 C22.11367142 42.94877396 22.11381744 44.25619049 22.1139679 45.60322571 C22.11425515 49.18972424 22.10837007 52.77618942 22.10139394 56.3626802 C22.09514839 60.1103001 22.09455565 63.85792074 22.09336853 67.60554504 C22.09025876 74.70281237 22.08205014 81.80006431 22.07201904 88.89732486 C22.06084691 96.97704511 22.05534468 105.05676609 22.05032361 113.13649213 C22.03986724 129.75767043 22.02227465 146.37883325 22 163 C23.2065625 162.95359375 24.413125 162.9071875 25.65625 162.859375 C27.27080836 162.82182713 28.88539378 162.78543023 30.5 162.75 C31.29148437 162.71648437 32.08296875 162.68296875 32.8984375 162.6484375 C40.03777092 162.53139925 45.28182078 164.40245003 50.47558594 169.36572266 C52.91442648 175.18003725 52.48819276 180.9121675 52.390625 187.1484375 C52.38659668 188.36120361 52.38256836 189.57396973 52.37841797 190.82348633 C52.35753708 195.34081211 52.30169172 199.85792172 52.25 204.375 C52.1675 214.48125 52.085 224.5875 52 235 C27.25 235 2.5 235 -23 235 C-23.0825 224.89375 -23.165 214.7875 -23.25 204.375 C-23.28641602 201.19278809 -23.32283203 198.01057617 -23.36035156 194.73193359 C-23.37203618 192.20410843 -23.38222854 189.67627573 -23.390625 187.1484375 C-23.41108887 185.84044189 -23.43155273 184.53244629 -23.45263672 183.18481445 C-23.45614879 174.0446509 -23.45614879 174.0446509 -21.41308594 169.36572266 C-17.05059052 165.0888529 -13.26411984 162.7804263 -7.16015625 162.609375 C-5.46049376 162.63562461 -3.76103769 162.68283349 -2.0625 162.75 C-1.18787109 162.76804687 -0.31324219 162.78609375 0.58789062 162.8046875 C2.72574108 162.85141647 4.86302045 162.92314559 7 163 C6.93937719 146.46618921 6.86181522 129.9325571 6.76428509 113.39892673 C6.71938809 105.72145018 6.67995951 98.04401938 6.65356445 90.36645508 C6.63053484 83.67188793 6.59708176 76.97746632 6.55129844 70.28301471 C6.5274328 66.740871 6.50866058 63.19887082 6.50238609 59.65664864 C6.49517255 55.69484861 6.46467979 51.7334071 6.43237305 47.77172852 C6.43380814 46.60719147 6.43524323 45.44265442 6.4367218 44.24282837 C6.32981856 34.95448245 4.88202053 25.80086462 -2 19 C-11.46836463 12.19077024 -19.51190435 11.13960465 -31 12 C-34.12025573 12.84789558 -36.41028154 14.08740976 -39 16 C-39.93585938 16.65355469 -39.93585938 16.65355469 -40.890625 17.3203125 C-46.36627523 21.53058138 -48.85025934 26.55077803 -51 33 C-51.09888533 35.50688942 -51.14173851 37.98612214 -51.13803101 40.4931488 C-51.14085229 41.26312024 -51.14367357 42.03309167 -51.14658034 42.82639557 C-51.15493449 45.41479141 -51.15626532 48.00314451 -51.15771484 50.59155273 C-51.16238269 52.44442363 -51.1675262 54.29729338 -51.17311096 56.15016174 C-51.1843994 60.14598419 -51.1928302 64.14179915 -51.19923019 68.13763237 C-51.20991038 74.46312613 -51.23015743 80.78856639 -51.25234985 87.11402893 C-51.31426657 105.10358212 -51.36821899 123.09313281 -51.40136719 141.08276367 C-51.41974741 151.01412315 -51.44872968 160.9453936 -51.4893719 170.87668759 C-51.51039195 176.12971756 -51.525892 181.38263553 -51.52817917 186.63570976 C-51.53033616 191.58434568 -51.54631225 196.53274881 -51.57256889 201.48131371 C-51.57972457 203.29038965 -51.58188113 205.09949391 -51.57846642 206.90858078 C-51.54658395 227.02398847 -55.95282259 244.63019184 -70.1496582 259.53857422 C-78.18658822 267.4642102 -88.17839054 273.70572456 -99 277 C-100.14210938 277.35449219 -101.28421875 277.70898438 -102.4609375 278.07421875 C-108.32031627 279.49842075 -114.25220747 279.3683726 -120.25 279.375 C-121.40113281 279.39949219 -122.55226563 279.42398437 -123.73828125 279.44921875 C-140.07406466 279.50446943 -155.00960597 272.58166982 -166.7265625 261.30078125 C-167.47679687 260.54152344 -168.22703125 259.78226562 -169 259 C-169.70898438 258.31292969 -170.41796875 257.62585938 -171.1484375 256.91796875 C-183.81388998 243.84003985 -187.50080962 227.59078221 -187.29296875 209.92578125 C-187.28735889 208.50661167 -187.28309538 207.08743619 -187.28010559 205.66825867 C-187.26876595 201.97091027 -187.2393958 198.27392729 -187.20599365 194.57672119 C-187.17505499 190.78882792 -187.16154993 187.00087439 -187.14648438 183.21289062 C-187.11451283 175.80840952 -187.0618373 168.40430295 -187 161 C-181.72 161 -176.44 161 -171 161 C-170.9906543 162.7442627 -170.98130859 164.48852539 -170.97167969 166.28564453 C-170.93588827 172.10519737 -170.88192639 177.92443644 -170.81609726 183.74371529 C-170.77690148 187.26552075 -170.74457883 190.78708662 -170.72900391 194.30908203 C-170.71069823 198.37571585 -170.66062854 202.44145936 -170.609375 206.5078125 C-170.60814636 207.74798126 -170.60691772 208.98815002 -170.60565186 210.26589966 C-170.36693695 224.79544457 -166.69417114 237.71098538 -156.67578125 248.50390625 C-146.92183224 257.79848561 -135.17325545 262.91742309 -121.625 263.375 C-106.50873296 262.85299941 -93.14727501 257.91718022 -82.1875 247.4140625 C-70.96938506 235.03407137 -69.40836556 221.41853673 -69.50170898 205.50024414 C-69.49788005 203.64619003 -69.49225612 201.7921389 -69.48498535 199.93809509 C-69.47308383 195.96415243 -69.47348607 191.99047424 -69.48357964 188.01652718 C-69.49921419 181.72393004 -69.48541116 175.4316015 -69.46754456 169.13902283 C-69.43679264 156.91467855 -69.43522058 144.69041738 -69.43719482 132.46604156 C-69.43858965 116.90997399 -69.42813853 101.35397047 -69.3886171 85.79794973 C-69.37374035 79.55161398 -69.37391103 73.30551861 -69.38609493 67.05917943 C-69.39082711 63.16353083 -69.38325341 59.26797304 -69.37255096 55.37233925 C-69.37015807 53.5761432 -69.37283291 51.77993155 -69.38115883 49.9837532 C-69.44320508 35.73821108 -68.33140545 24.06155212 -60 12 C-59.13375 10.6696875 -59.13375 10.6696875 -58.25 9.3125 C-43.39112327 -5.9591233 -18.83990046 -10.75823282 0 0 Z " fill="#4B5054" transform="translate(357,133)"/>
<path d="M0 0 C34.65 0 69.3 0 105 0 C105 24.09 105 48.18 105 73 C70.35 73 35.7 73 0 73 C0 48.91 0 24.82 0 0 Z " fill="#E1DFDF" transform="translate(125,99)"/>
<path d="M0 0 C1.12531631 -0.0038269 2.25063263 -0.00765381 3.41004944 -0.01159668 C5.78273415 -0.01431077 8.15544904 -0.00698498 10.52807617 0.00976562 C14.14505272 0.03116066 17.7600384 0.00995536 21.37695312 -0.015625 C23.68880644 -0.01298125 26.00065852 -0.00785529 28.3125 0 C29.92378029 -0.01214539 29.92378029 -0.01214539 31.56761169 -0.02453613 C39.52235384 0.07400043 44.87991852 1.33685862 50.69824219 6.89697266 C53.13708273 12.71128725 52.71084901 18.4434175 52.61328125 24.6796875 C52.60925293 25.89245361 52.60522461 27.10521973 52.60107422 28.35473633 C52.58019333 32.87206211 52.52434797 37.38917172 52.47265625 41.90625 C52.39015625 52.0125 52.30765625 62.11875 52.22265625 72.53125 C27.47265625 72.53125 2.72265625 72.53125 -22.77734375 72.53125 C-22.85984375 62.425 -22.94234375 52.31875 -23.02734375 41.90625 C-23.06375977 38.72403809 -23.10017578 35.54182617 -23.13769531 32.26318359 C-23.14937993 29.73535843 -23.15957229 27.20752573 -23.16796875 24.6796875 C-23.18843262 23.37169189 -23.20889648 22.06369629 -23.22998047 20.71606445 C-23.23349254 11.5759009 -23.23349254 11.5759009 -21.19042969 6.89697266 C-14.49194882 0.32996743 -9.07779626 -0.06829722 0 0 Z " fill="#20262D" transform="translate(356.77734375,295.46875)"/>
<path d="M0 0 C17.49 0 34.98 0 53 0 C53 23.76 53 47.52 53 72 C35.51 72 18.02 72 0 72 C0 48.24 0 24.48 0 0 Z " fill="#F6F5F5" transform="translate(125,99)"/>
<path d="M0 0 C12.87 0 25.74 0 39 0 C39 12.54 39 25.08 39 38 C26.13 38 13.26 38 0 38 C0 25.46 0 12.92 0 0 Z " fill="#494F53" transform="translate(352,313)"/>
<path d="M0 0 C0.52207031 0.26554687 1.04414062 0.53109375 1.58203125 0.8046875 C2.31808594 1.15789062 3.05414063 1.51109375 3.8125 1.875 C4.52019531 2.22304688 5.22789062 2.57109375 5.95703125 2.9296875 C18.79466564 7.44510704 32.63746491 6.48605634 46 7 C46 26.8 46 46.6 46 67 C45.67 67 45.34 67 45 67 C45.18377197 65.75307373 45.36754395 64.50614746 45.55688477 63.22143555 C46.31928473 54.24649178 45.61480688 47.34133918 39.79248047 40.17431641 C34.66609709 34.56851561 29.14831454 29.38985766 23.53460693 24.27789307 C20.85333902 21.81775008 18.22389899 19.30352763 15.59179688 16.79101562 C12.63943523 13.97307443 9.68080036 11.16606035 6.68284607 8.3964386 C5.80516068 7.5834581 4.92747528 6.7704776 4.02319336 5.93286133 C3.24455429 5.21898758 2.46591522 4.50511383 1.66368103 3.76960754 C0 2 0 2 0 0 Z " fill="#DF6154" transform="translate(124,287)"/>
<path d="M0 0 C9.9 0 19.8 0 30 0 C30 9.57 30 19.14 30 29 C20.1 29 10.2 29 0 29 C0 19.43 0 9.86 0 0 Z " fill="#E1DCDC" transform="translate(357,368)"/>
<path d="M0 0 C28.05 0 56.1 0 85 0 C85 3.3 85 6.6 85 10 C56.95 10 28.9 10 0 10 C0 6.7 0 3.4 0 0 Z " fill="#494F53" transform="translate(135,216)"/>
<path d="M0 0 C28.05 0 56.1 0 85 0 C85 3.3 85 6.6 85 10 C56.95 10 28.9 10 0 10 C0 6.7 0 3.4 0 0 Z " fill="#494E53" transform="translate(135,193)"/>
<path d="M0 0 C23.1 0 46.2 0 70 0 C70 3.3 70 6.6 70 10 C46.9 10 23.8 10 0 10 C0 6.7 0 3.4 0 0 Z " fill="#494F53" transform="translate(143,240)"/>
<path d="M0 0 C4.95 0 9.9 0 15 0 C15 9.57 15 19.14 15 29 C10.05 29 5.1 29 0 29 C0 19.43 0 9.86 0 0 Z " fill="#F6F6F6" transform="translate(357,368)"/>
<path d="M0 0 C8.58 0 17.16 0 26 0 C26 4.95 26 9.9 26 15 C17.42 15 8.84 15 0 15 C0 10.05 0 5.1 0 0 Z " fill="#E4675A" transform="translate(191,128)"/>
<path d="M0 0 C7.92 0 15.84 0 24 0 C24 4.62 24 9.24 24 14 C16.08 14 8.16 14 0 14 C0 9.38 0 4.76 0 0 Z " fill="#E56254" transform="translate(140,128)"/>
</svg>
